<?xml version="1.0" encoding="utf-8"?>
<!-- Generator: Adobe Illustrator 16.0.0, SVG Export Plug-In . SVG Version: 6.00 Build 0)  -->
<!DOCTYPE svg PUBLIC "-//W3C//DTD SVG 1.1//EN" "http://www.w3.org/Graphics/SVG/1.1/DTD/svg11.dtd">
<svg version="1.1"
	 id="svg11945" xmlns:dc="http://purl.org/dc/elements/1.1/" xmlns:cc="http://creativecommons.org/ns#" xmlns:rdf="http://www.w3.org/1999/02/22-rdf-syntax-ns#" xmlns:svg="http://www.w3.org/2000/svg" xmlns:sodipodi="http://sodipodi.sourceforge.net/DTD/sodipodi-0.dtd" xmlns:inkscape="http://www.inkscape.org/namespaces/inkscape" inkscape:version="0.92.4 (5da689c313, 2019-01-14)" sodipodi:docname="RH010405001Mais_Laranja_Verde.svg"
	 xmlns="http://www.w3.org/2000/svg" xmlns:xlink="http://www.w3.org/1999/xlink" x="0px" y="0px" width="349.482px"
	 height="205.968px" viewBox="-188.184 -62.365 349.482 205.968" enable-background="new -188.184 -62.365 349.482 205.968"
	 xml:space="preserve">
<path fill="#FEE7CE" d="M48.196,40.62c0.737,3.782,2.497,7.457,5.192,10.98c1.774-0.085,2.746-0.227,2.783-0.232
	c2.126-0.336,5.224,0.537,8.292,2.25c-0.438-8.121,0.292-16.287-7.424-28.47c-6.03-9.523-15.878-11.903-24.219-11.903
	c-8.341,0-15.176,2.38-15.176,2.38S46.052,29.61,48.196,40.62z"/>
<path fill="#FEE7CE" d="M114.381,115.286c0,0-0.051-2.227-0.355-5.582c-0.746,0.129-1.515,0.258-2.302,0.389
	C113.418,113.275,114.381,115.286,114.381,115.286z"/>
<path fill="#FEE7CE" d="M78.758,69.782c-1.965-0.892-3.821-1.815-5.611-2.757c-0.238,1.844-0.817,3.667-1.859,5.199
	c4.519,4.011,11.049,4.455,17.407,4.817C85.455,73.871,82.102,71.302,78.758,69.782z"/>
<path fill="#FEE7CE" d="M111.247,93.831c-0.6-2.111-1.317-4.167-2.168-6.063c-1.295-1.892-2.422-3.759-3.396-5.595
	c-0.046-0.055-0.089-0.114-0.136-0.167c-3.742-4.277-10.199-4.586-16.855-4.966c4.702,4.603,9.161,10.469,13.006,16.218
	C105.199,93.488,108.409,93.677,111.247,93.831z"/>
<path fill="#FEE7CE" d="M-65.927,109.263c-6.764,0.418-14.039,1.237-21.309,2.349c2.611,0.38,5.164,0.819,7.64,1.317
	c8.114,1.631,15.145,2.412,21.702,2.412c12.564,0,23.389-2.87,36.76-8.138C-37.792,107.772-54.022,108.527-65.927,109.263z"/>
<path fill="#FEE7CE" d="M-21.13,107.204c16.444-0.56,33.307-0.938,46.85-0.938c0.93,0,1.838,0.003,2.736,0.006
	c-5.244-3-9.524-6.612-13.557-10.304c-7.144,0.455-13.783,1.723-19.324,4.166C-10.524,102.822-16.015,105.189-21.13,107.204z"/>
<path fill="#FEE7CE" d="M-87.236,111.611c-8.267-1.205-17.081-1.818-25.634-1.818c-21.042,0-40.516,3.714-46.452,11.469
	c-9.111,11.901-16.705,18.448-16.705,18.448s27.336-5.06,37.206-12.796C-131.394,121.092-109.343,114.993-87.236,111.611z"/>
<path fill="#FEE7CE" d="M-170.547,38.828c0,0,10.833,35.099,60.213,39.752c7.131,0.671,13.415,0.956,19.049,0.956
	c28.546,0,40.517-7.305,62.637-8.552c-18.985-6.644-36.385-10.093-51.386-10.093c-3.474,0-6.821,0.186-10.024,0.558
	c-1.194,0.139-2.478,0.205-3.832,0.205C-119.14,61.654-170.547,38.828-170.547,38.828z"/>
<path fill="#FEE7CE" d="M22.941,89.902c-9.533-8.896-19.585-18.073-39.356-18.965c-2.003-0.09-3.917-0.133-5.76-0.133
	c-2.261,0-4.409,0.063-6.473,0.181c8.719,3.053,17.777,6.779,27.082,11.155C4.909,85.183,13.411,87.748,22.941,89.902z"/>
<path fill="#FEE7CE" d="M22.944,89.901c7.816,7.288,15.279,14.386,27.468,16.589c5.119,0.925,10.921,1.3,16.966,1.3
	c18.278,0,38.757-3.429,49.254-5.451v-1.726C99.631,99.843,55.347,97.228,22.944,89.901z"/>
<path fill="#FFF3E7" d="M116.632,102.339c-10.497,2.022-30.977,5.451-49.254,5.451c-6.044,0-11.847-0.375-16.966-1.3
	c-12.188-2.203-19.652-9.301-27.468-16.589c32.403,7.327,76.687,9.941,93.688,10.712V87.729
	c-6.344-7.15-14.521-19.562-11.319-33.619c1.009-4.427,1.88-8.38,2.563-11.957c-1.818-8.277-3.452-16.453-4.529-22.555
	c-0.612-3.465-1.02-7.401-1.23-11.497c-6.592-11.318-9.268-29.735-3.014-39.857c6.825-11.042,10.239-18.352,10.239-18.352
	s0.198,15.901-3.717,24.965c-2.946,6.822-4.147,20.78-3.509,33.244c0.602,1.032,1.236,2.005,1.897,2.907
	c6.336,8.632,6.582,16.918,3.862,31.145c2.355,10.725,5.018,21.619,7.17,28.389c0.522,1.643,1.055,3.278,1.586,4.878V58.472
	c-1.231-4.694-2.595-10.353-3.986-16.575c2.454-14.238,2.174-26.104-5.851-37.04c-0.104-0.139-0.205-0.281-0.307-0.426
	c-0.249-10.196,0.857-20.528,2.739-24.889c4.711-10.906,4.64-27.917,4.615-29.823c-0.04-3.278-1.257-6.163-3.043-7.226
	c-0.479-0.281-0.971-0.418-1.458-0.418c-1.332,0-2.625,1.027-3.495,2.888c-0.033,0.069-3.349,7.101-9.814,17.561
	c-3.185,5.154-4.903,12.106-4.972,20.104c-0.085,9.941,2.411,20.57,6.74,28.936c0.269,3.713,0.685,7.174,1.239,10.32
	c1.008,5.712,2.458,13.018,4.049,20.388c-0.614,2.986-1.323,6.146-1.964,8.959c-1.323,5.807-1.825,13.761,1.117,22.86
	c-3.625-1.367-7.715-1.717-11.782-1.958c-3.432-3.18-6.789-5.525-9.999-6.982c-2.861-1.3-5.539-2.664-8.018-4.075
	c-0.672-1.279-1.746-2.641-3.139-3.948c-0.3-2.161-0.383-4.347-0.468-6.733c-0.275-7.614-0.587-16.243-8.112-28.127
	C54.913,13.094,45.264,8.244,32.82,8.244c-8.929,0-16.218,2.503-16.524,2.61c-1.788,0.623-3.042,2.41-3.149,4.487
	c-0.106,2.076,0.958,4.011,2.671,4.854c12.711,6.265,26.985,16.393,27.977,21.482c0.667,3.426,1.978,6.737,3.916,9.923
	c-5.473-0.229-13.339-1.162-22.843-3.997C8.341,38.035-9.295,27.098-22.719,18.082c-6.68-4.487-12.343-8.501-16.891-11.973
	c-2.232-4.389-4.092-8.579-5.889-12.629c-5.147-11.6-10.036-22.614-22.001-31.956c-3.654-4.98-7.901-9.067-12.909-12.43
	c-3.045-2.045-6.244-3.717-9.5-4.968c-5.84-2.241-10.223-2.371-12.339-0.366c-5.513,5.225,8.184,25.037,14.328,33.314
	c1.313,1.768,3.183,3.46,5.25,4.848c2.409,1.618,5.081,2.821,7.441,3.238c1.476,0.263,2.671,0.188,3.536-0.162
	c1.183,2.666,2.43,5.301,3.805,7.816c2.125,3.884,6.439,8.541,13.142,14.174c4.386,7.556,10.554,15.628,23.038,24.014
	c8.36,5.614,18.573,10.861,34.035,18.804l1.342,0.688c7.574,3.892,15.235,7.146,22.807,9.683
	c7.519,4.295,19.058,10.727,25.035,13.254c7.585,3.206,12.704,3.342,16.063,1.877c5.298,5.405,12.748,6.23,19.283,6.633
	c3.121,3.225,6.128,7.018,8.89,10.905c-18.745-1.365-43.417-3.805-63.676-8.014c-9.76-8.997-22.362-19.221-47.344-20.348
	c-2.328-0.105-4.65-0.158-6.901-0.158c-0.997,0-1.996,0.01-2.991,0.03c-19.863-6.6-38.305-9.943-54.866-9.943
	c-4.433,0-8.773,0.244-12.896,0.724c-0.103,0.011-0.401,0.039-0.961,0.039c-14.058,0-48.35-12.408-68.207-21.217
	c-2.393-1.06-5.411-1.609-8.454-1.609c-2.111,0-4.235,0.263-6.169,0.802c-4.72,1.314-7.312,3.982-6.481,6.676
	c0.499,1.618,12.891,39.689,70.522,45.121c7.613,0.717,14.612,1.066,21.395,1.066c18.879,0,31.488-2.74,42.613-5.16
	c5.883-1.279,11.131-2.42,16.87-3.05c6.959,2.583,14.177,5.63,21.518,9.08c3.869,1.819,8.444,3.543,13.679,5.157
	c-6.602,1.012-12.463,2.611-17.36,4.77c-4.044,1.783-8.621,3.78-13.013,5.578c-14.975,0.544-29.675,1.236-40.943,1.935
	c-6.195,0.383-12.74,1.049-19.519,1.983c-8.24-0.994-16.939-1.516-25.435-1.516c-29.09,0-51.574,5.761-58.674,15.031
	c-8.705,11.368-16.032,17.757-16.104,17.82c-2.208,1.909-1.141,4.157,2.67,5.628c2.443,0.941,5.676,1.438,8.955,1.438
	c1.844,0,3.699-0.156,5.44-0.479c3.204-0.594,31.659-6.059,43.17-15.081c5.11-4.007,21.575-8.933,40.158-12.125
	c0.618,0.113,1.232,0.231,1.833,0.353c9.924,1.994,18.927,2.964,27.527,2.964c17.16,0,30.582-3.844,42.425-8.307
	c15.676-0.498,30.164-0.771,41.188-0.771c4.091,0,7.747,0.036,10.865,0.107c1.537,0.035,3.076,0.074,4.61,0.115
	c1.564,0.418,3.191,0.795,4.914,1.106c6.161,1.112,13.318,1.678,21.274,1.678c6.468,0,13.118-0.376,19.548-0.955
	c0.271,0.015,0.435,0.023,0.453,0.024c0.586,0.03,1.172,0.047,1.755,0.047c3.087,0,6.03-0.44,8.314-1.209
	c3.303-0.414,6.47-0.86,9.439-1.313c2.188,4.011,3.479,6.689,3.517,6.769c0.796,1.662,2.343,2.654,3.977,2.654
	c0.379,0,0.762-0.054,1.144-0.164c0.398-0.116,0.764-0.304,1.107-0.525V102.339z M114.381,115.286c0,0-0.963-2.011-2.657-5.193
	c0.787-0.131,1.556-0.26,2.302-0.389C114.33,113.059,114.381,115.286,114.381,115.286z M-79.596,112.929
	c-2.476-0.498-5.029-0.938-7.64-1.317c7.271-1.111,14.545-1.931,21.309-2.349c11.904-0.736,28.135-1.491,44.793-2.06
	c-13.371,5.268-24.195,8.138-36.76,8.138C-64.451,115.342-71.481,114.56-79.596,112.929z M-159.322,121.261
	c5.936-7.755,25.41-11.469,46.452-11.469c8.553,0,17.367,0.613,25.634,1.818c-22.107,3.382-44.158,9.48-51.585,15.303
	c-9.87,7.736-37.206,12.796-37.206,12.796S-168.433,133.163-159.322,121.261z M14.899,95.968c4.033,3.691,8.313,7.304,13.557,10.304
	c-0.898-0.003-1.806-0.006-2.736-0.006c-13.542,0-30.406,0.379-46.85,0.938c5.116-2.015,10.606-4.382,16.706-7.07
	C1.116,97.69,7.755,96.423,14.899,95.968z M-80.034,60.891c15,0,32.401,3.449,51.386,10.093c-22.12,1.247-34.091,8.552-62.637,8.552
	c-5.634,0-11.917-0.285-19.049-0.956c-49.38-4.653-60.213-39.752-60.213-39.752s51.407,22.826,76.657,22.826
	c1.354,0,2.638-0.065,3.832-0.205C-86.854,61.077-83.507,60.891-80.034,60.891z M-22.175,70.804c1.843,0,3.757,0.043,5.76,0.133
	c19.771,0.892,29.823,10.069,39.356,18.965c-9.53-2.154-18.032-4.719-24.507-7.762c-9.305-4.376-18.363-8.102-27.082-11.155
	C-26.584,70.868-24.436,70.804-22.175,70.804z M-76.929-38.797c-15.924-8.807-2.948,16.569-2.948,16.569
	s-24.838-33.453-8.196-27.065c1.758,0.674,3.379,1.53,4.877,2.536c3.656,2.456,6.593,5.814,9.104,9.683
	C-74.991-37.672-75.933-38.244-76.929-38.797z M-74.093-37.075c0.037,0.025,0.077,0.052,0.115,0.077
	c13.354,8.97,16.312,23.18,25.418,41.005c0.456,0.892,0.907,1.752,1.359,2.583c5.863,4.693,13.399,10.072,21.695,15.644
	c16.45,11.049,35.893,22.872,51.231,31.69C19.1,51.812,11.788,48.89,3.959,44.866C-11.436,36.959-21.567,31.789-28.92,26.85
	c-8.558-5.748-13.35-11.184-18.281-20.261C-53.147,1.829-57.38-2.232-58.94-5.086C-64.309-14.901-67.901-27.536-74.093-37.075z
	 M32.82,13.244c8.341,0,18.189,2.38,24.219,11.903c7.716,12.184,6.987,20.35,7.424,28.47c-3.068-1.713-6.166-2.586-8.292-2.25
	c-0.037,0.005-1.009,0.146-2.783,0.232c-2.695-3.523-4.456-7.198-5.192-10.98c-2.145-11.01-30.552-24.996-30.552-24.996
	S24.479,13.244,32.82,13.244z M63.439,58.839c0,0,1.27,14.353-13.138,8.263c-3.907-1.651-13.088-6.571-24.571-13.173
	C48.676,61.241,63.439,58.839,63.439,58.839z M73.146,67.025c1.791,0.942,3.646,1.866,5.611,2.757
	c3.344,1.52,6.697,4.089,9.937,7.259c-6.358-0.362-12.888-0.806-17.407-4.817C72.33,70.692,72.909,68.869,73.146,67.025z
	 M105.548,82.007c0.047,0.053,0.09,0.112,0.136,0.167c0.974,1.836,2.101,3.703,3.396,5.595c0.851,1.896,1.568,3.951,2.168,6.063
	c-2.838-0.153-6.048-0.343-9.549-0.572c-3.845-5.749-8.304-11.615-13.006-16.218C95.349,77.421,101.806,77.729,105.548,82.007z"/>
<path fill="#FEE7CE" d="M104.014,11.009c-0.661-0.902-1.296-1.875-1.897-2.907c0.211,4.096,0.618,8.032,1.23,11.497
	c1.077,6.102,2.711,14.277,4.529,22.555C110.596,27.927,110.35,19.641,104.014,11.009z"/>
<path fill="#FEE7CE" d="M105.625-25.141c3.915-9.064,3.717-24.965,3.717-24.965s-3.414,7.31-10.239,18.352
	c-6.254,10.122-3.578,28.539,3.014,39.857C101.478-4.361,102.679-18.319,105.625-25.141z"/>
<path fill="#FEE7CE" d="M107.876,42.154c-0.684,3.577-1.555,7.529-2.563,11.957c-3.202,14.057,4.976,26.468,11.319,33.619V75.422
	c-0.531-1.601-1.063-3.235-1.586-4.878C112.894,63.773,110.231,52.879,107.876,42.154z"/>
<path fill="#FEE7CE" d="M-83.197-46.757c-1.498-1.006-3.119-1.862-4.877-2.536c-16.642-6.387,8.196,27.065,8.196,27.065
	s-12.976-25.376,2.948-16.569c0.996,0.552,1.938,1.125,2.836,1.723C-76.604-40.943-79.541-44.301-83.197-46.757z"/>
<path fill="#FEE7CE" d="M-28.92,26.85c7.353,4.938,17.484,10.108,32.879,18.016c7.829,4.023,15.14,6.946,21.766,9.057
	c-15.339-8.819-34.782-20.642-51.231-31.69c-8.295-5.572-15.832-10.951-21.695-15.644C-42.27,15.667-37.478,21.102-28.92,26.85z"/>
<path fill="#FEE7CE" d="M50.301,67.101c14.408,6.09,13.138-8.263,13.138-8.263s-14.763,2.402-37.709-4.911
	C37.213,60.531,46.394,65.45,50.301,67.101z"/>
<path fill="#FEE7CE" d="M-47.201,6.59c-0.452-0.831-0.903-1.691-1.359-2.583c-9.107-17.825-12.064-32.035-25.418-41.005
	c-0.038-0.025-0.078-0.052-0.115-0.077c6.192,9.54,9.784,22.174,15.153,31.99C-57.38-2.232-53.147,1.829-47.201,6.59z"/>
</svg>
