<?xml version="1.0" encoding="UTF-8" standalone="no"?>
<!-- Created with Inkscape (http://www.inkscape.org/) -->

<svg
   width="75mm"
   height="80mm"
   viewBox="0 0 75 80"
   version="1.1"
   id="svg8"
   inkscape:version="1.1.1 (3bf5ae0, 2021-09-20)"
   sodipodi:docname="tratamentodeimagem.svg"
   inkscape:export-filename="/home/rafael/Documents/202WEB/202016401Revista/index_files/images/comercio.png"
   inkscape:export-xdpi="96"
   inkscape:export-ydpi="96"
   xmlns:inkscape="http://www.inkscape.org/namespaces/inkscape"
   xmlns:sodipodi="http://sodipodi.sourceforge.net/DTD/sodipodi-0.dtd"
   xmlns="http://www.w3.org/2000/svg"
   xmlns:svg="http://www.w3.org/2000/svg"
   xmlns:rdf="http://www.w3.org/1999/02/22-rdf-syntax-ns#"
   xmlns:cc="http://creativecommons.org/ns#"
   xmlns:dc="http://purl.org/dc/elements/1.1/">
  <defs
     id="defs2" />
  <sodipodi:namedview
     id="base"
     pagecolor="#ffffff"
     bordercolor="#666666"
     borderopacity="1.0"
     inkscape:pageopacity="0.0"
     inkscape:pageshadow="2"
     inkscape:zoom="1.4"
     inkscape:cx="30.357143"
     inkscape:cy="153.57143"
     inkscape:document-units="mm"
     inkscape:current-layer="layer1"
     showgrid="false"
     inkscape:window-width="1366"
     inkscape:window-height="744"
     inkscape:window-x="0"
     inkscape:window-y="0"
     inkscape:window-maximized="1"
     inkscape:pagecheckerboard="0" />
  <metadata
     id="metadata5">
    <rdf:RDF>
      <cc:Work
         rdf:about="">
        <dc:format>image/svg+xml</dc:format>
        <dc:type
           rdf:resource="http://purl.org/dc/dcmitype/StillImage" />
      </cc:Work>
    </rdf:RDF>
  </metadata>
  <g
     inkscape:label="Camada 1"
     inkscape:groupmode="layer"
     id="layer1"
     transform="translate(0,-217)">
    <rect
       ry="17.698029"
       y="219.39169"
       x="2.3916893"
       height="75.216621"
       width="70.216621"
       id="rect10"
       style="fill:#ffffff;fill-opacity:1;stroke:#cccccc;stroke-width:4.783;stroke-linecap:round;stroke-linejoin:round;stroke-miterlimit:4;stroke-dasharray:none;stroke-opacity:1;paint-order:markers stroke fill" />
    <g
       aria-label="PS"
       transform="scale(0.93672736,1.0675465)"
       id="text43186"
       style="font-size:52.2102px;line-height:1.25;letter-spacing:0px;word-spacing:0px;fill:#cccccc;stroke-width:5.99999995;stroke-miterlimit:4;stroke-dasharray:none;stroke:none;paint-order:markers stroke fill;stroke-linecap:round;stroke-linejoin:round">
      <path
         d="m 23.909615,222.73937 q 7.309428,0 10.650881,2.87156 3.341453,2.87156 3.341453,8.09258 0,3.08041 -1.409676,5.79534 -1.357465,2.66272 -4.646708,4.33344 -3.237032,1.67073 -8.823524,1.67073 h -4.281236 v 14.51444 h -4.698918 v -37.27809 z m -0.417682,4.02019 h -4.751128 v 14.72327 h 3.759134 q 5.325441,0 7.935951,-1.72293 2.61051,-1.72294 2.61051,-5.84754 0,-3.60251 -2.297249,-5.37766 -2.297249,-1.77514 -7.257218,-1.77514 z"
         id="path47585"
         style="stroke-width:5.99999995;stroke-miterlimit:4;stroke-dasharray:none;stroke:none;paint-order:markers stroke fill;stroke-linecap:round;stroke-linejoin:round;fill:#cccccc" />
      <path
         d="m 66.774167,250.04531 q 0,4.95997 -3.602504,7.72711 -3.602504,2.76714 -9.711098,2.76714 -3.132612,0 -5.795332,-0.46989 -2.66272,-0.4699 -4.437867,-1.30526 v -4.49008 q 1.879567,0.83537 4.646708,1.5141 2.819351,0.67873 5.795332,0.67873 4.176816,0 6.265224,-1.61851 2.140619,-1.61852 2.140619,-4.38566 0,-1.82736 -0.783153,-3.0804 -0.783153,-1.25305 -2.714931,-2.29725 -1.879567,-1.09642 -5.27323,-2.29725 -4.751128,-1.72294 -7.205008,-4.22903 -2.401669,-2.50609 -2.401669,-6.83953 0,-2.97598 1.514096,-5.06439 1.514096,-2.14062 4.176816,-3.28925 2.71493,-1.14862 6.213014,-1.14862 3.080402,0 5.638701,0.57431 2.5583,0.57431 4.646708,1.5141 l -1.461885,4.02018 q -1.931778,-0.83536 -4.229027,-1.40967 -2.245038,-0.57431 -4.698918,-0.57431 -3.498083,0 -5.27323,1.51409 -1.775147,1.46189 -1.775147,3.91577 0,1.87956 0.783153,3.13261 0.783153,1.25304 2.5583,2.24504 1.775147,0.99199 4.803339,2.14062 3.289242,1.20083 5.534281,2.61051 2.297249,1.35746 3.445873,3.28924 1.200835,1.93178 1.200835,4.85555 z"
         id="path47587"
         style="stroke-width:5.99999995;stroke-miterlimit:4;stroke-dasharray:none;stroke:none;paint-order:markers stroke fill;stroke-linecap:round;stroke-linejoin:round;fill:#cccccc" />
    </g>
  </g>
</svg>
