<?xml version="1.0" encoding="UTF-8" standalone="no"?>
<!-- Created with Inkscape (http://www.inkscape.org/) -->

<svg
   width="75mm"
   height="80mm"
   viewBox="0 0 75 80"
   version="1.1"
   id="svg8"
   inkscape:version="1.1.1 (3bf5ae0, 2021-09-20)"
   sodipodi:docname="perfildoautor.svg"
   xmlns:inkscape="http://www.inkscape.org/namespaces/inkscape"
   xmlns:sodipodi="http://sodipodi.sourceforge.net/DTD/sodipodi-0.dtd"
   xmlns="http://www.w3.org/2000/svg"
   xmlns:svg="http://www.w3.org/2000/svg"
   xmlns:rdf="http://www.w3.org/1999/02/22-rdf-syntax-ns#"
   xmlns:cc="http://creativecommons.org/ns#"
   xmlns:dc="http://purl.org/dc/elements/1.1/">
  <defs
     id="defs2" />
  <sodipodi:namedview
     id="base"
     pagecolor="#ffffff"
     bordercolor="#666666"
     borderopacity="1.0"
     inkscape:pageopacity="0.0"
     inkscape:pageshadow="2"
     inkscape:zoom="1.4"
     inkscape:cx="115.35714"
     inkscape:cy="186.42857"
     inkscape:document-units="mm"
     inkscape:current-layer="layer1"
     showgrid="false"
     inkscape:window-width="1366"
     inkscape:window-height="744"
     inkscape:window-x="0"
     inkscape:window-y="0"
     inkscape:window-maximized="1"
     inkscape:pagecheckerboard="0" />
  <metadata
     id="metadata5">
    <rdf:RDF>
      <cc:Work
         rdf:about="">
        <dc:format>image/svg+xml</dc:format>
        <dc:type
           rdf:resource="http://purl.org/dc/dcmitype/StillImage" />
      </cc:Work>
    </rdf:RDF>
  </metadata>
  <g
     inkscape:label="Camada 1"
     inkscape:groupmode="layer"
     id="layer1"
     transform="translate(0,-217)">
    <path
       id="rect10"
       style="fill:#ffffff;fill-opacity:1;stroke:#cccccc;stroke-width:18.0775;stroke-linecap:round;stroke-linejoin:round;stroke-miterlimit:4;stroke-dasharray:none;stroke-opacity:1;paint-order:markers stroke fill"
       d="M 274.42578 204.8125 A 161.31192 82.919989 0 0 0 272.97656 203.8418 A 161.31192 82.919989 0 0 0 270.56836 202.30469 A 161.31192 82.919989 0 0 0 268.08789 200.79883 A 161.31192 82.919989 0 0 0 265.54102 199.32227 A 161.31192 82.919989 0 0 0 262.92383 197.87695 A 161.31192 82.919989 0 0 0 260.24219 196.4668 A 161.31192 82.919989 0 0 0 257.49609 195.08789 A 161.31192 82.919989 0 0 0 254.68555 193.74219 A 161.31192 82.919989 0 0 0 251.81445 192.43164 A 161.31192 82.919989 0 0 0 248.88281 191.1582 A 161.31192 82.919989 0 0 0 245.89453 189.91992 A 161.31192 82.919989 0 0 0 242.84766 188.71875 A 161.31192 82.919989 0 0 0 239.74805 187.55469 A 161.31192 82.919989 0 0 0 236.59375 186.42969 A 161.31192 82.919989 0 0 0 233.38867 185.3418 A 161.31192 82.919989 0 0 0 230.13477 184.29492 A 161.31192 82.919989 0 0 0 226.83398 183.28906 A 161.31192 82.919989 0 0 0 223.48633 182.32227 A 161.31192 82.919989 0 0 0 220.0957 181.39648 A 161.31192 82.919989 0 0 0 216.66211 180.51367 A 161.31192 82.919989 0 0 0 213.18945 179.67188 A 161.31192 82.919989 0 0 0 209.67773 178.875 A 161.31192 82.919989 0 0 0 206.13086 178.11914 A 161.31192 82.919989 0 0 0 202.55078 177.4082 A 161.31192 82.919989 0 0 0 198.9375 176.74023 A 161.31192 82.919989 0 0 0 195.29492 176.11719 A 161.31192 82.919989 0 0 0 191.625 175.53711 A 161.31192 82.919989 0 0 0 187.92773 175.00391 A 161.31192 82.919989 0 0 0 184.20898 174.51562 A 161.31192 82.919989 0 0 0 180.4668 174.07422 A 161.31192 82.919989 0 0 0 176.70508 173.67773 A 161.31192 82.919989 0 0 0 172.92773 173.32812 A 161.31192 82.919989 0 0 0 169.13477 173.02344 A 161.31192 82.919989 0 0 0 165.32812 172.76562 A 161.31192 82.919989 0 0 0 161.51172 172.55469 A 161.31192 82.919989 0 0 0 157.68555 172.39062 A 161.31192 82.919989 0 0 0 153.85352 172.27344 A 161.31192 82.919989 0 0 0 150.01562 172.20312 A 161.31192 82.919989 0 0 0 146.17773 172.17969 A 161.31192 82.919989 0 0 0 134.66992 172.39062 A 161.31192 82.919989 0 0 0 123.2207 173.02344 A 161.31192 82.919989 0 0 0 111.88867 174.07422 A 161.31192 82.919989 0 0 0 100.73047 175.53711 A 161.31192 82.919989 0 0 0 89.804688 177.4082 A 161.31192 82.919989 0 0 0 79.166016 179.67188 A 161.31192 82.919989 0 0 0 68.869141 182.32227 A 161.31192 82.919989 0 0 0 58.964844 185.3418 A 161.31192 82.919989 0 0 0 49.505859 188.71875 A 161.31192 82.919989 0 0 0 40.541016 192.43164 A 161.31192 82.919989 0 0 0 32.113281 196.4668 A 161.31192 82.919989 0 0 0 24.265625 200.79883 A 161.31192 82.919989 0 0 0 17.041016 205.40625 A 161.31192 82.919989 0 0 0 10.472656 210.26953 A 161.31192 82.919989 0 0 0 9.0390625 211.51172 L 9.0390625 226.43164 C 9.0390625 263.4888 38.872524 293.32227 75.929688 293.32227 L 207.53516 293.32227 C 244.59232 293.32227 274.42578 263.4888 274.42578 226.43164 L 274.42578 204.8125 z "
       transform="matrix(0.26458333,0,0,0.26458333,0,217)" />
    <path
       id="path15684"
       style="fill:#ffffff;fill-opacity:1;stroke:#cccccc;stroke-width:18.0775;stroke-linecap:round;stroke-linejoin:round;stroke-miterlimit:4;stroke-dasharray:none;stroke-opacity:1;paint-order:markers stroke fill"
       d="M 75.929688 9.0390625 C 38.872524 9.0390625 9.0390625 38.872524 9.0390625 75.929688 L 9.0390625 211.51172 A 161.31192 82.919989 0 0 1 10.472656 210.26953 A 161.31192 82.919989 0 0 1 17.041016 205.40625 A 161.31192 82.919989 0 0 1 24.265625 200.79883 A 161.31192 82.919989 0 0 1 32.113281 196.4668 A 161.31192 82.919989 0 0 1 40.541016 192.43164 A 161.31192 82.919989 0 0 1 49.505859 188.71875 A 161.31192 82.919989 0 0 1 58.964844 185.3418 A 161.31192 82.919989 0 0 1 68.869141 182.32227 A 161.31192 82.919989 0 0 1 79.166016 179.67188 A 161.31192 82.919989 0 0 1 89.804688 177.4082 A 161.31192 82.919989 0 0 1 100.73047 175.53711 A 161.31192 82.919989 0 0 1 111.88867 174.07422 A 161.31192 82.919989 0 0 1 123.2207 173.02344 A 161.31192 82.919989 0 0 1 134.66992 172.39062 A 161.31192 82.919989 0 0 1 146.17773 172.17969 A 161.31192 82.919989 0 0 1 150.01562 172.20312 A 161.31192 82.919989 0 0 1 153.85352 172.27344 A 161.31192 82.919989 0 0 1 157.68555 172.39062 A 161.31192 82.919989 0 0 1 161.51172 172.55469 A 161.31192 82.919989 0 0 1 165.32812 172.76562 A 161.31192 82.919989 0 0 1 169.13477 173.02344 A 161.31192 82.919989 0 0 1 172.92773 173.32812 A 161.31192 82.919989 0 0 1 176.70508 173.67773 A 161.31192 82.919989 0 0 1 180.4668 174.07422 A 161.31192 82.919989 0 0 1 184.20898 174.51562 A 161.31192 82.919989 0 0 1 187.92773 175.00391 A 161.31192 82.919989 0 0 1 191.625 175.53711 A 161.31192 82.919989 0 0 1 195.29492 176.11719 A 161.31192 82.919989 0 0 1 198.9375 176.74023 A 161.31192 82.919989 0 0 1 202.55078 177.4082 A 161.31192 82.919989 0 0 1 206.13086 178.11914 A 161.31192 82.919989 0 0 1 209.67773 178.875 A 161.31192 82.919989 0 0 1 213.18945 179.67188 A 161.31192 82.919989 0 0 1 216.66211 180.51367 A 161.31192 82.919989 0 0 1 220.0957 181.39648 A 161.31192 82.919989 0 0 1 223.48633 182.32227 A 161.31192 82.919989 0 0 1 226.83398 183.28906 A 161.31192 82.919989 0 0 1 230.13477 184.29492 A 161.31192 82.919989 0 0 1 233.38867 185.3418 A 161.31192 82.919989 0 0 1 236.59375 186.42969 A 161.31192 82.919989 0 0 1 239.74805 187.55469 A 161.31192 82.919989 0 0 1 242.84766 188.71875 A 161.31192 82.919989 0 0 1 245.89453 189.91992 A 161.31192 82.919989 0 0 1 248.88281 191.1582 A 161.31192 82.919989 0 0 1 251.81445 192.43164 A 161.31192 82.919989 0 0 1 254.68555 193.74219 A 161.31192 82.919989 0 0 1 257.49609 195.08789 A 161.31192 82.919989 0 0 1 260.24219 196.4668 A 161.31192 82.919989 0 0 1 262.92383 197.87695 A 161.31192 82.919989 0 0 1 265.54102 199.32227 A 161.31192 82.919989 0 0 1 268.08789 200.79883 A 161.31192 82.919989 0 0 1 270.56836 202.30469 A 161.31192 82.919989 0 0 1 272.97656 203.8418 A 161.31192 82.919989 0 0 1 274.42578 204.8125 L 274.42578 75.929688 C 274.42578 38.872524 244.59232 9.0390625 207.53516 9.0390625 L 75.929688 9.0390625 z "
       transform="matrix(0.26458333,0,0,0.26458333,0,217)" />
    <ellipse
       style="fill:none;fill-opacity:1;stroke:#cccccc;stroke-width:3;stroke-linecap:round;stroke-linejoin:round;stroke-miterlimit:4;stroke-dasharray:none;paint-order:markers stroke fill"
       id="path15477"
       cx="38.020294"
       cy="243.25352"
       rx="16.337976"
       ry="15.191547" />
  </g>
</svg>
