<?xml version="1.0" encoding="UTF-8" standalone="no"?>
<!-- Created with Inkscape (http://www.inkscape.org/) -->

<svg
   xmlns:dc="http://purl.org/dc/elements/1.1/"
   xmlns:cc="http://creativecommons.org/ns#"
   xmlns:rdf="http://www.w3.org/1999/02/22-rdf-syntax-ns#"
   xmlns:svg="http://www.w3.org/2000/svg"
   xmlns="http://www.w3.org/2000/svg"
   xmlns:sodipodi="http://sodipodi.sourceforge.net/DTD/sodipodi-0.dtd"
   xmlns:inkscape="http://www.inkscape.org/namespaces/inkscape"
   width="35mm"
   height="37mm"
   viewBox="0 0 35 37"
   version="1.1"
   id="svg11945"
   inkscape:version="0.92.4 (5da689c313, 2019-01-14)"
   sodipodi:docname="RH010405001Mais_Laranja_Verde.svg">
  <metadata
     id="metadata160">
    <rdf:RDF>
      <cc:Work
         rdf:about="">
        <dc:format>image/svg+xml</dc:format>
        <dc:type
           rdf:resource="http://purl.org/dc/dcmitype/StillImage" />
        <dc:title></dc:title>
      </cc:Work>
    </rdf:RDF>
  </metadata>
  <sodipodi:namedview
     id="namedview11947"
     pagecolor="#ffffff"
     bordercolor="#666666"
     borderopacity="1.0"
     inkscape:pageshadow="2"
     inkscape:pageopacity="0.0"
     inkscape:pagecheckerboard="0"
     inkscape:document-units="mm"
     showgrid="false"
     width="16mm"
     inkscape:zoom="1.5127265"
     inkscape:cx="-34.913498"
     inkscape:cy="33.594269"
     inkscape:window-width="1366"
     inkscape:window-height="744"
     inkscape:window-x="0"
     inkscape:window-y="0"
     inkscape:window-maximized="1"
     inkscape:current-layer="layer1" />
  <defs
     id="defs11942" />
  <g
     inkscape:label="Layer 1"
     inkscape:groupmode="layer"
     id="layer1"
     transform="translate(0,14)">
    <g
       id="g164"
       transform="translate(9.4957752,-6.0461894)">
      <path
         inkscape:connector-curvature="0"
         style="font-size:15.83819962px;line-height:1.25;font-family:'Barbershop in Thailand';-inkscape-font-specification:'Barbershop in Thailand, @wght=700';fill:#ff0000;fill-opacity:1;stroke:#007700;stroke-width:10.38459969;stroke-opacity:1"
         id="path12183"
         d="m 12.983018,5.0665939 q -0.173072,1.2739687 -0.346087,2.4629886 -0.173072,1.1465785 -0.346107,2.2082247 1.868958,0.0424 3.080313,0.0424 1.245976,0 1.3498,0 0.173072,0.084949 0.138556,0.4246618 -0.03447,0.339729 -0.138556,0.721917 -0.138577,0.46712 -0.311476,1.019172 l -0.276911,-0.08495 q -0.276886,0 -0.242265,0.127497 0.03452,0.21234 0.242265,0.339729 0.207673,0.127349 0.06918,0.21234 -0.06918,0.0424 -1.245972,0.212297 -1.176764,0.169919 -3.288007,0.169919 -0.553755,2.463022 -0.969093,3.77945 -0.415318,1.316442 -0.484527,1.401357 -0.103892,0.127348 -0.138568,-0.127498 -0.03448,-0.297254 -0.2076482,-0.382203 -0.069188,-0.0424 -0.1385791,0.254814 -0.034495,0.169919 -0.034495,0.339712 -0.5191417,0.127348 -0.899864,0.127348 -0.3461079,0.0424 -0.6229863,-0.0424 -0.2768788,-0.08495 -0.2422829,-0.297255 0,-0.08495 0.2768788,-1.486291 Q 8.518094,15.045988 9.0026606,12.83778 8.1373911,12.752998 7.168317,12.667866 6.2338181,12.582917 5.2301096,12.413069 L 4.4340894,9.3555534 q 1.3151818,0.12734 2.6303836,0.2123228 1.3151819,0.0424 2.5611736,0.084778 Q 9.93712,8.1663674 10.214017,6.5526857 10.525512,4.9390042 10.802391,3.3253059 Z M 8.9336099,10.714504 q 0.1385791,0.08478 0.3461074,0.08478 h 0.1385791 q 0,-0.0424 0,-0.08478 0.034495,-0.0424 0.034495,-0.127498 -0.2768985,-0.0424 -0.5883911,-0.0424 -0.2768788,0 -0.4499323,0 -0.3807027,-0.08478 -0.5883712,-0.08478 -0.2076673,0 -0.4845668,-0.08495 -0.3114732,0.0424 -0.3807026,0.0424 -0.069188,-0.0424 -0.4153175,-0.0424 -0.4153175,-0.08478 -0.5883915,0 l -0.034495,-0.0424 v -0.0424 q -0.034495,0.0424 -0.034495,0.0424 l -0.069188,-0.0424 0.034495,0.08478 0.034495,0.0424 q 0,-0.0424 0.034495,-0.0424 0,0 0.069188,0 0.1730742,0.08495 0.3807024,0.127349 0.2076673,0 0.3807227,0.0424 h 0.7268106 q 0.069188,0.0424 0.1038837,0.0424 0.069188,-0.0424 0.138579,-0.0424 0.2422634,0.0424 0.4499324,0.08495 0.2422633,0 0.4499321,0.08495 0.069188,-0.0424 0.069188,0 0.034495,0 0.1036835,-0.0424 0,0.0424 0.034495,0.0424 0.1038815,0 0.1038815,0 z m 3.1841401,-0.0424 q 0,0.127498 -0.03448,0.16994 0.06919,0 0.173079,0 0.10389,-0.0424 0.138568,0 h 0.79604 q 0,0 0.03447,0 0,-0.0424 0,-0.0424 0.03447,0 0.03447,-0.0424 0.03452,0.0424 0.03452,0.08495 h 0.103698 q 0,0 0.03447,-0.0424 v -0.0424 -0.08478 h -0.415337 q -0.173072,0 -0.242264,0 -0.06918,-0.0424 -0.276884,0 z m -5.7799288,1.10412 q 0.3114928,0.127349 0.7268103,0.127349 0.034495,0.0424 0.069188,0.0424 0.069188,-0.0424 0.1036834,0 0.2076673,0 0.2076673,0 h 0.4499343 q 0.2076672,0.0424 0.4153373,0.0424 0.2076481,0 0.3807026,0 0.1730742,0.0424 0.2422634,0.08495 0.069188,0 0.2076673,0 0,0 0.034495,-0.08495 -0.1730742,0 -0.242283,-0.0424 -0.2422634,0.08495 -0.4153173,0 -0.3114932,0 -0.519142,0 -0.1730741,0 -0.4153373,-0.0424 H 7.2373873 q -0.034495,0 -0.3807026,-0.08495 -0.1036835,0 -0.2076673,0 -0.1036834,-0.0424 -0.1730742,-0.0424 z m 1.8689581,-0.127497 q 0.034495,0.0424 0.034495,0.0424 0.034495,-0.0424 0.1036834,0 h 0.3115131 q 0.069188,0.0424 0.2076673,0.0424 0.034495,-0.0424 0.069188,-0.0424 0,0 -0.034495,-0.0424 -0.069188,0.0424 -0.2076673,0 z m -0.2422636,0 q -0.069188,0 -0.1036876,-0.0424 -0.1385791,0 -0.1730742,0 -0.034693,-0.0424 -0.1036877,0 h -0.034495 q -0.034495,0 -0.034495,0 0,-0.0424 -0.034495,-0.0424 -0.034495,0.0424 -0.034495,0.0424 0,-0.0424 -0.069188,0 -0.034495,0 -0.1038858,0 -0.034495,-0.0424 -0.069188,0 0.034495,0 0.069188,0.0424 0.069188,0 0.138579,-0.0424 0.069188,0 0.069188,0.0424 0.034495,0 0.1038837,0 z m 4.0494103,0.467102 q 0.103892,0 0.276912,0.0424 0.173072,0 0.380704,-0.0424 h 0.207673 q -0.138577,-0.0424 -0.173072,-0.0424 0,0 -0.138577,0.0424 -0.173072,-0.0424 -0.242262,-0.0424 -0.03447,0 -0.242265,0.0424 z m 0.173078,-0.297254 q 0.24229,0 0.380722,-0.0424 h -0.657602 q 0.06919,0.0424 0.06919,0.0424 0,0 0.207669,0 z M 6.3724567,11.478863 q 0,0.0424 0.1038837,0.0424 0.034495,0.0424 0.069188,0.0424 0.034495,-0.0424 0,-0.0424 l -0.069188,-0.0424 z m -0.2422636,0 q 0.069188,0 0.1038837,0.0424 0.069188,0 0.1385791,-0.0424 z m 7.1297229,0.297255 h -0.242262 z m -4.118618,-0.08495 q 0,0.0424 0.069188,0.0424 0,0 0.034495,-0.0424 z M 7.0646513,11.60622 h 0.069188 0.069188 z M 5.9571381,11.478872 q 0,0 0.1385791,0 z m 0.3807029,0.297256 q -0.069188,0 -0.069188,0 z m 6.541372,0.339729 h 0.03447 l -0.03447,-0.0424 z m -6.9566895,-0.636985 -0.034495,-0.0424 v 0.0424 z m 4.0494091,1.231511 q 0.034482,-0.08495 0.034482,-0.16994 0.03451,-0.127498 0.06919,-0.212319 0.03448,-0.127497 0.06919,-0.467134 0.06919,-0.339731 0.103893,-0.636986 0.06919,-0.339711 0.10389,-0.467102 0.06919,-0.127498 0.138568,-0.424663 0.06919,-0.25478 0.06919,-0.3822028 0.03448,-0.1699187 0.103892,-0.5095771 0.03451,-0.2123398 0.03451,-0.4246459 V 8.8883071 8.8459158 q 0.03448,-0.084949 0,-0.084949 0,-0.042391 0.06919,-0.1275061 0,-0.5095775 0.10389,-1.104104 0,-0.084949 0.03451,-0.1275061 0.03448,-0.084949 0.03448,-0.1699315 0,-0.084949 0.06919,-0.3397129 0.03448,-0.1275061 0.03448,-0.2548137 0.03451,-0.1699144 0.06919,-0.2547971 0.03448,-0.2123057 0.03448,-0.4671196 0.03448,-0.2547804 0.03448,-0.4671031 0.03451,-0.042391 0.03451,-0.084783 0,0 0.03451,-0.042391 l -0.03451,-0.042391 -0.06919,-0.084782 0.03448,0.084782 q 0,0 -0.03448,0.042391 h 0.03448 v 0.084783 q -0.103697,0.2123398 -0.138569,0.6794589 -0.103892,0.4246617 -0.103892,0.5095776 0,0.084949 -0.103696,0.4246616 -0.03448,0.3397296 -0.06919,0.5945266 0,0.2547805 -0.06919,0.7219001 -0.06919,0.2123227 -0.138568,0.5945266 -0.06919,0.3397128 -0.138569,0.7219016 -0.06919,0.4246773 -0.173076,0.8493053 -0.06919,0.42468 -0.138568,0.721917 -0.06919,0.339729 -0.1385715,0.636986 -0.034495,0.254797 -0.1038816,0.467134 -0.034495,0.254782 -0.069188,0.509579 -0.034495,0.21234 -0.069188,0.382187 -0.069188,0.212339 -0.069188,0.297256 0,0.08495 -0.069188,0.297254 -0.034495,0.16994 -0.069188,0.21234 0,0.0424 0,0.08478 v 0.08495 l -0.034495,0.08495 v 0.0424 h 0.069188 0.034495 q 0,0 0.034495,0 l 0.034495,-0.127498 q 0,0 -0.069188,-0.0424 0.034495,0 0.034495,0 0,-0.0424 0.034495,-0.0424 -0.034495,0 0,-0.0424 0.1038816,-0.297257 0.1385791,-0.509595 0.069188,-0.339713 0.069188,-0.424662 0,-0.0424 0.034495,-0.169919 0.034495,-0.169918 0.069188,-0.25478 z M 11.564014,8.5487477 q -0.03451,0.1275062 -0.03451,0.2123228 0,0.084782 -0.03448,0.2123397 0,0.1699145 -0.06919,0.2123398 0,0.1275061 0.03451,0.084782 l 0.03448,-0.084782 q 0.03448,-0.084949 0.03448,-0.2548137 0.03451,-0.084783 0.03451,-0.1699144 0,-0.1275061 0.03448,-0.2123398 0,-0.1699144 0,-0.1699144 0.03451,-0.084949 -0.03448,0.1699144 z m -0.173078,0.934239 q 0,-0.0424 -0.03448,0.2123398 -0.03448,0.2123184 -0.03448,0.3821885 -0.10389,0.16994 -0.138568,0.467117 0,0.127498 -0.06919,0.424663 -0.03451,0.297254 -0.103891,0.509577 -0.06919,0.339731 -0.06919,0.424645 0,0.127498 -0.06919,0.297272 -0.03451,0.08478 -0.03451,0.254782 -0.03451,0.0424 -0.03451,0.08495 v 0.0424 l 0.03451,-0.0424 q 0.06919,-0.169919 0.06919,-0.382189 0.06919,-0.08478 0.06919,-0.254814 0.06919,-0.25478 0.06919,-0.424628 0,-0.08495 0.06919,-0.254814 0,-0.08478 0,-0.127498 0.03448,-0.08478 0.03448,-0.169918 0.06919,-0.21234 0.06919,-0.339729 0.06919,-0.169919 0.06919,-0.339714 0,-0.08495 0.03451,-0.21234 0.03448,-0.1273483 0.03448,-0.2123396 0.103696,-0.2123184 0.03448,-0.3397138 z m -1.003708,4.9260103 q 0.03448,-0.127498 0.06919,-0.297255 0.03448,-0.16994 0.06919,-0.339728 0.138568,-0.424663 0.173078,-0.636986 0.06919,-0.212339 0.06919,-0.212339 0,-0.0424 -0.03448,-0.127349 0,0.127349 -0.03448,0.21234 0,0.08478 -0.06919,0.339714 -0.06919,0.339728 -0.06919,0.339728 0,-0.0424 -0.06919,0.254797 -0.03451,0.21234 -0.10389,0.339729 -0.03471,0.08478 0,0.127498 v 0.0424 z m 1.79975,-8.1958642 q 0.03448,0 0.03448,-0.042391 v -0.042391 q 0,0.042391 -0.03448,0.084783 0,0.084782 -0.03451,0.2123397 -0.06919,0.2547971 -0.06919,0.4246619 0,0.2123227 -0.03451,0.297255 0,0.084783 0,0.1699144 0,0.042391 -0.06919,0.382204 -0.06919,0.2972381 -0.10389,0.5520518 -0.03451,0.2123228 -0.103696,0.5945267 0,0.2972384 -0.10389,0.4671029 -0.03448,0.2123377 -0.06919,0.3822033 0,0.1274976 -0.03448,0.2972395 0.03448,0.127498 -0.06919,0.424677 0,0.127349 0,0.127349 -0.03451,0.0424 -0.03451,0.169919 -0.103696,0.424662 -0.138568,0.721916 -0.03448,0.08478 -0.06919,0.212319 -0.0347,0.127497 -0.0347,0.212318 -0.06919,0.169919 -0.06919,0.297272 0,0.127497 -0.06919,0.212318 0,0.212319 -0.03448,0.382171 -0.03448,0.16994 -0.06919,0.339746 -0.06919,0.25478 -0.103696,0.339729 0,0.0424 -0.03448,0.254782 -0.06919,0.127498 -0.06919,0.169919 0,0 0,0.16994 h -0.03451 l 0.03451,0.0424 v -0.0424 -0.0424 q 0,0 0.03451,-0.08478 v -0.08495 q 0.06919,-0.25478 0.10389,-0.467103 0.03451,-0.21234 0.06919,-0.339729 0.03451,-0.127348 0.06919,-0.339728 0.06919,-0.212319 0.103696,-0.339714 0.03448,-0.08495 0.03448,-0.16994 0,-0.127349 0.06919,-0.297271 0.03448,-0.127349 0.03448,-0.25478 0.03448,-0.169919 0.06919,-0.297255 0.06919,-0.212318 0.06919,-0.382188 0.03451,-0.169919 0.10389,-0.382188 0.06919,-0.21234 0.06919,-0.339729 0.03448,-0.127497 0.06919,-0.4671197 0.06919,-0.254797 0.06919,-0.3397287 0,-0.1273399 0,-0.3397296 0.103696,-0.4246452 0.173078,-0.9766973 0.03451,-0.084949 0.06919,-0.2123398 0.03448,-0.1273399 0.06919,-0.2972383 -0.03448,-0.042391 0,-0.084949 0.0347,-0.084949 0.0347,-0.1699145 0,-0.042391 0,-0.084949 0.03451,-0.084949 0.03451,-0.1275061 0.103891,-0.5095941 0.06919,-0.8917814 z m -0.519162,1.9534276 q 0,0 0,0 v -0.084782 q 0.03448,-0.1273399 0.103892,-0.3821873 v -0.042391 q 0.0347,-0.084782 0,-0.084782 0,-0.042391 0,-0.1275061 0.06919,-0.1275062 0.06919,-0.2547805 v -0.084783 q 0,-0.042391 0,-0.042391 0.03451,0 0.03451,-0.042391 -0.03451,0.042391 -0.03451,0.084782 0,0.084783 0,0.084783 -0.03448,0.042391 -0.03448,0.2123398 -0.06919,0.042391 -0.06919,0.084949 0.03451,0 0,0 0,0 0,0.1275061 v 0.042391 q -0.03448,0.042391 -0.06919,0.2972716 z m 0.311491,-2.0383433 -0.06919,0.1699144 0.03448,0.084949 q 0,0.042391 0,0 0.03451,-0.042391 0,-0.084949 0.103697,-0.1273399 0,-0.1273399 0.06919,-0.1275061 0.06919,-0.2972716 V 5.831135 q 0.03448,-0.042391 0.03448,-0.084949 0,-0.084783 0.03451,-0.12734 V 5.576455 h -0.03451 l 0.03451,0.042391 -0.03451,0.042391 q -0.03448,0.042391 -0.03448,0.084783 0.03448,0.042391 0,0.084949 0,0 0,0.084949 -0.03448,0.084783 -0.03448,0.1699144 z" />
      <path
         inkscape:connector-curvature="0"
         style="font-size:15.83819962px;line-height:1.25;font-family:'Barbershop in Thailand';-inkscape-font-specification:'Barbershop in Thailand, @wght=700';fill:#ff6600;stroke-width:1.45457649"
         id="path12180"
         d="m 14.168488,2.7854439 q -0.243743,1.6327535 -0.487431,3.1567164 -0.243744,1.4695037 -0.487432,2.8301742 2.632093,0.054331 4.3381,0.054331 1.754727,0 1.900946,0 0.243743,0.1088758 0.195167,0.5442512 -0.04886,0.4354392 -0.195167,0.9252533 -0.195167,0.59871 -0.438682,1.306254 l -0.389933,-0.108663 q -0.389935,0 -0.341186,0.16342 0.04858,0.272147 0.341186,0.435418 0.292463,0.16342 0.09743,0.272126 -0.09743,0.05433 -1.754728,0.272146 -1.65723,0.217773 -4.630535,0.217773 -0.779894,3.156738 -1.364794,4.843972 -0.5849,1.687191 -0.682397,1.796067 -0.146303,0.163421 -0.195162,-0.163207 -0.04858,-0.381001 -0.2924363,-0.489856 -0.097441,-0.05433 -0.1951626,0.326564 -0.048581,0.217773 -0.048581,0.435396 -0.7311179,0.163421 -1.2672971,0.163421 -0.4874306,0.05433 -0.877364,-0.05433 -0.3899612,-0.108876 -0.3412125,-0.38098 0,-0.108876 0.3899332,-1.904943 0.4386862,-1.850486 1.1211114,-4.68066 Q 7.3442846,12.637425 5.9794902,12.528315 4.6634445,12.419439 3.2499015,12.201752 L 2.1288291,8.2830326 Q 3.981054,8.4464529 5.833279,8.5551795 7.6854762,8.6095109 9.4402039,8.6638422 9.8788858,6.7589206 10.268847,4.6907065 10.707529,2.6224924 11.097462,0.55429963 Z M 8.4655941,10.024151 q 0.1951626,0.108662 0.4874306,0.108662 h 0.1951625 q 0,-0.05433 0,-0.108662 Q 9.196768,9.9698192 9.196768,9.8607303 8.8068348,9.806399 8.3681529,9.806399 q -0.3899333,0 -0.6336487,0 -0.5361792,-0.1086628 -0.828643,-0.1086628 -0.2924641,0 -0.6823973,-0.1088758 -0.4386819,0.054331 -0.5361514,0.054331 -0.097441,-0.054331 -0.5848999,-0.054331 -0.5849279,-0.1088758 -0.8286431,0 l -0.048581,-0.054331 v -0.054331 q -0.048581,0.054331 -0.048581,0.054331 l -0.097441,-0.054331 0.048581,0.1088758 0.048581,0.054331 q 0,-0.054331 0.048581,-0.054331 0,0 0.097441,0 0.2437431,0.1088758 0.5361513,0.1632072 0.2924638,0 0.5361511,0.054331 h 1.0236098 q 0.097441,0.054331 0.1463026,0.054331 0.097441,-0.054331 0.1951626,-0.054331 0.3412127,0.054331 0.6336765,0.1088758 0.3411846,0 0.6336207,0.1088758 0.097441,-0.054332 0.097441,0 0.048581,0 0.1460235,-0.054332 0,0.054332 0.048581,0.054332 0.1460235,0 0.1460235,0 z M 12.94991,9.9698192 q 0,0.1632068 -0.04858,0.2177938 0.09743,0 0.243744,0 0.146311,-0.05433 0.195166,0 h 1.12108 q 0,0 0.04858,0 0,-0.05433 0,-0.05433 0.04858,0 0.04858,-0.05433 0.04858,0.05433 0.04858,0.108875 h 0.146311 q 0,0 0.04858,-0.05433 V 10.079164 9.970501 H 14.21702 q -0.243744,0 -0.341186,0 -0.09743,-0.054331 -0.389933,0 z M 4.8099206,11.384928 q 0.4386819,0.163207 1.0235819,0.163207 0.048581,0.05433 0.097441,0.05433 0.097441,-0.05433 0.1460236,0 0.2924638,0 0.2924638,0 h 0.6336207 q 0.2924641,0.05433 0.5849279,0.05433 0.2924639,0 0.5361793,0 0.243743,0.05433 0.3411845,0.108875 0.097441,0 0.2924641,0 0,0 0.048581,-0.108875 -0.2437431,0 -0.3412125,-0.05433 -0.3411846,0.108876 -0.5849,0 -0.4386819,0 -0.7311179,0 -0.2437433,0 -0.5849278,-0.05433 H 6.076799 q -0.048581,0 -0.5361513,-0.108876 -0.1463027,0 -0.2924641,0 -0.1463005,-0.05433 -0.2437431,-0.05433 z m 2.6320917,-0.163421 q 0.048581,0.05433 0.048581,0.05433 0.048581,-0.05433 0.1460236,0 h 0.4386819 q 0.097441,0.05433 0.2924638,0.05433 0.048581,-0.05433 0.097441,-0.05433 0,0 -0.048581,-0.05433 -0.097441,0.05433 -0.2924638,0 z m -0.3411848,0 q -0.097441,0 -0.1463006,-0.05433 -0.1951625,0 -0.2437433,0 -0.048581,-0.05433 -0.1460235,0 h -0.048581 q -0.048581,0 -0.048581,0 0,-0.05433 -0.048581,-0.05433 -0.048581,0.05433 -0.048581,0.05433 0,-0.05433 -0.097441,0 -0.048581,0 -0.1463027,0 -0.048581,-0.05433 -0.097441,0 0.048581,0 0.097441,0.05433 0.097441,0 0.1951625,-0.05433 0.097441,0 0.097441,0.05433 0.048581,0 0.1463026,0 z m 5.7028645,0.598689 q 0.146312,0 0.389933,0.05433 0.243744,0 0.536181,-0.05433 h 0.292462 q -0.195166,-0.05433 -0.243743,-0.05433 0,0 -0.195167,0.05433 -0.243743,-0.05433 -0.341186,-0.05433 -0.04858,0 -0.341211,0.05433 z m 0.243744,-0.381001 q 0.341184,0 0.53618,-0.05433 h -0.926113 q 0.09743,0.05433 0.09743,0.05433 0,0 0.292465,0 z M 4.8586972,11.003798 q 0,0.05433 0.1463026,0.05433 0.048581,0.05433 0.097441,0.05433 0.048581,-0.05433 0,-0.05433 l -0.097441,-0.05433 z m -0.3412127,0 q 0.097441,0 0.1463026,0.05433 0.097441,0 0.1951626,-0.05433 z M 14.558449,11.3848 H 14.217265 Z M 8.7580859,11.275924 q 0,0.05433 0.097441,0.05433 0,0 0.048581,-0.05433 z M 5.8335304,11.167261 h 0.097441 0.097441 z m -1.5597611,-0.16342 q 0,0 0.1951625,0 z m 0.5361792,0.381023 q -0.097441,0 -0.097441,0 z m 9.2123475,0.435396 h 0.04858 l -0.04858,-0.05433 z M 4.2250206,11.003841 4.1764399,10.94951 v 0.05433 z m 5.7028932,1.57838 q 0.048581,-0.108876 0.048581,-0.217795 0.04858,-0.16342 0.097441,-0.272125 0.04858,-0.163421 0.09744,-0.598689 0.09744,-0.435397 0.146023,-0.816377 0.09744,-0.435418 0.146303,-0.59871 0.09744,-0.1632076 0.195163,-0.5442516 0.09744,-0.3265635 0.09744,-0.4898346 0.04858,-0.2177942 0.146024,-0.653127 0.04858,-0.2721255 0.04858,-0.5442724 V 7.6836191 7.6292878 q 0.04858,-0.1088758 0,-0.1088758 0,-0.054331 0.09744,-0.1634203 0,-0.6531056 0.146301,-1.4150658 0,-0.1088758 0.04858,-0.1634202 0.04858,-0.1088758 0.04858,-0.2177942 0,-0.1086628 0.09744,-0.4353967 0.04858,-0.1634202 0.04858,-0.3265422 0.04858,-0.2177942 0.09744,-0.3265847 0.04858,-0.2721256 0.04858,-0.5986678 0.04858,-0.3265848 0.04858,-0.5987104 0.04858,-0.054331 0.04858,-0.1088758 0,0 0.04858,-0.054331 l -0.04858,-0.054331 -0.09744,-0.1086627 0.04858,0.1086627 q 0,0 -0.04858,0.054331 h 0.04858 v 0.1088758 q -0.146303,0.2721042 -0.195163,0.8708146 -0.146303,0.5442512 -0.146303,0.6531057 0,0.1088758 -0.146023,0.5442511 -0.04858,0.4354393 -0.09744,0.7619815 0,0.3265635 -0.09744,0.9252525 -0.09744,0.2721256 -0.195163,0.7619815 -0.09744,0.4353967 -0.195162,0.9252525 -0.09744,0.5442512 -0.243744,1.0885237 -0.09744,0.5442512 -0.195162,0.9252522 -0.09744,0.435397 -0.195164,0.816377 -0.048581,0.326563 -0.1463026,0.598689 -0.048581,0.326563 -0.097441,0.653127 -0.048581,0.272125 -0.097441,0.489813 -0.097441,0.272147 -0.097441,0.381023 0,0.108662 -0.097441,0.380958 -0.048581,0.217795 -0.097441,0.272147 0,0.05433 0,0.108876 v 0.108663 l -0.048581,0.108876 v 0.05433 H 9.340739 9.38932 q 0,0 0.048581,0 l 0.048581,-0.163207 q 0,0 -0.097441,-0.05433 0.048581,0 0.048581,0 0,-0.05433 0.048581,-0.05433 -0.048581,0 0,-0.05433 0.1463027,-0.381002 0.1951625,-0.653106 0.097441,-0.435439 0.097441,-0.544272 0,-0.05433 0.048581,-0.217795 0.048581,-0.217772 0.097441,-0.326563 z M 12.170072,7.2484355 q -0.04858,0.1632072 -0.04858,0.2721469 0,0.1086628 -0.04858,0.2721043 0,0.2177729 -0.09744,0.2721469 0,0.1634202 0.04858,0.1086627 l 0.04858,-0.1086627 q 0.04858,-0.1086628 0.04858,-0.3265422 0.04858,-0.1088758 0.04858,-0.2177942 0,-0.1634202 0.04858,-0.2721256 0,-0.2177942 0,-0.2177942 0.04858,-0.1088758 -0.04858,0.2177942 z M 11.926329,8.445835 q 0,-0.054331 -0.04858,0.2721042 -0.04858,0.2721469 -0.04858,0.4898346 -0.1463,0.2177942 -0.195162,0.5987104 0,0.1634202 -0.09744,0.5442508 -0.04858,0.38098 -0.146023,0.653106 -0.09744,0.435418 -0.09744,0.544294 0,0.16342 -0.09744,0.380959 -0.04858,0.108662 -0.04858,0.326584 -0.04858,0.05433 -0.04858,0.108663 v 0.05433 l 0.04858,-0.05433 q 0.09744,-0.217773 0.09744,-0.489834 0.09744,-0.108876 0.09744,-0.326543 0.09744,-0.326563 0.09744,-0.544272 0,-0.108876 0.09744,-0.326542 0,-0.108876 0,-0.163421 0.04858,-0.108875 0.04858,-0.217794 0.09744,-0.272104 0.09744,-0.4353964 0.09744,-0.2177942 0.09744,-0.435418 0,-0.1088758 0.04858,-0.2721469 0.04858,-0.1632072 0.04858,-0.2721043 0.146302,-0.2721256 0.04858,-0.4353966 z m -1.413543,6.313454 q 0.04858,-0.16342 0.09744,-0.381001 0.04858,-0.217795 0.09744,-0.435418 0.195163,-0.544251 0.243743,-0.816377 0.09744,-0.272147 0.09744,-0.272147 0,-0.05433 -0.04858,-0.163207 0,0.163207 -0.04858,0.272147 0,0.108876 -0.09744,0.435396 -0.09744,0.435418 -0.09744,0.435418 0,-0.05433 -0.09744,0.326543 -0.04858,0.272147 -0.146024,0.435418 -0.04858,0.108662 0,0.16342 v 0.05433 z M 13.047408,4.2549902 q 0.04858,0 0.04858,-0.054331 v -0.054331 q 0,0.054331 -0.04858,0.1088758 0,0.1086627 -0.04858,0.2721256 -0.09743,0.3265421 -0.09743,0.5442511 0,0.2721469 -0.04858,0.3810014 0,0.1088758 0,0.2177729 0,0.054331 -0.09743,0.4898559 -0.09743,0.3809801 -0.146013,0.7075435 -0.04858,0.2721043 -0.146311,0.7619602 0,0.3809588 -0.146311,0.5986891 -0.04858,0.2721255 -0.09744,0.4898345 0,0.1634203 -0.04858,0.3810014 0.04858,0.1634202 -0.09744,0.5442512 0,0.1634202 0,0.1634202 -0.04858,0.054331 -0.04858,0.217773 -0.146302,0.544251 -0.195162,0.925253 -0.04858,0.108876 -0.09744,0.272104 -0.04858,0.16342 -0.04858,0.272147 -0.09744,0.217773 -0.09744,0.38098 0,0.16342 -0.09744,0.272126 0,0.272146 -0.04858,0.489855 -0.04858,0.217773 -0.09744,0.435397 -0.09744,0.326585 -0.146024,0.435418 0,0.05433 -0.04858,0.326564 -0.09744,0.163207 -0.09744,0.217794 0,0 0,0.217773 h -0.04858 l 0.04858,0.05433 v -0.05433 -0.05433 q 0,0 0.04858,-0.108875 v -0.108876 q 0.09744,-0.326542 0.146301,-0.598668 0.04858,-0.272147 0.09744,-0.435418 0.04858,-0.16342 0.09744,-0.435418 0.09744,-0.272126 0.146024,-0.435418 0.04858,-0.108876 0.04858,-0.217794 0,-0.163207 0.09744,-0.38098 0.04858,-0.163207 0.04858,-0.326542 0.04886,-0.217773 0.09744,-0.381002 0.09744,-0.272125 0.09744,-0.489834 0.04858,-0.217773 0.146303,-0.4898139 0.09744,-0.2721469 0.09744,-0.4354393 0.04858,-0.1632072 0.09744,-0.5986891 0.09743,-0.3265421 0.09743,-0.4353966 0,-0.1634203 0,-0.435418 0.146013,-0.5442725 0.243744,-1.251816 0.04858,-0.1088758 0.09743,-0.2721043 0.04858,-0.1634203 0.09743,-0.3810014 -0.04858,-0.054331 0,-0.1088758 0.04858,-0.1088758 0.04858,-0.2177942 0,-0.054331 0,-0.1086628 0.04858,-0.1088758 0.04858,-0.1634202 0.146013,-0.6531269 0.09743,-1.1429615 z M 12.316261,6.758601 q 0,0 0,0 V 6.6497252 Q 12.36484,6.486518 12.462572,6.1599119 v -0.054331 q 0.04858,-0.1088758 0,-0.1088758 0,-0.054331 0,-0.1632071 0.09744,-0.1634203 0.09744,-0.3265422 V 5.3980796 q 0,-0.054331 0,-0.054331 0.04858,0 0.04858,-0.054331 -0.04858,0.054331 -0.04858,0.1086627 0,0.1088758 0,0.1088758 -0.04858,0.054331 -0.04858,0.2721043 -0.09743,0.054331 -0.09743,0.1088758 0.04858,0 0,0 0,0 0,0.1632071 v 0.054331 q -0.04858,0.054331 -0.09743,0.3809801 z m 0.438682,-2.6124653 -0.09743,0.2177942 0.04858,0.1086628 q 0,0.054331 0,0 0.04858,-0.054331 0,-0.1086628 0.146311,-0.1634202 0,-0.1634202 0.09743,-0.1634202 0.09743,-0.3809801 v -0.054331 q 0.04858,-0.054331 0.04858,-0.1086628 0,-0.1088758 0.04858,-0.1634202 v -0.054331 h -0.04858 l 0.04858,0.054331 -0.04858,0.054331 q -0.04858,0.054331 -0.04858,0.1088758 0.04858,0.054331 0,0.1086627 0,0 0,0.1088758 -0.04858,0.1088758 -0.04858,0.2177729 z" />
    </g>
  </g>
</svg>
