<?xml version="1.0" encoding="UTF-8" standalone="no"?>
<!-- Created with Inkscape (http://www.inkscape.org/) -->

<svg
   width="75mm"
   height="80mm"
   viewBox="0 0 75 80"
   version="1.1"
   id="svg8"
   inkscape:version="1.1.1 (3bf5ae0, 2021-09-20)"
   sodipodi:docname="fotografia.svg"
   inkscape:export-filename="/home/rafael/Documents/202WEB/202016401Revista/index_files/images/comercio.png"
   inkscape:export-xdpi="96"
   inkscape:export-ydpi="96"
   xmlns:inkscape="http://www.inkscape.org/namespaces/inkscape"
   xmlns:sodipodi="http://sodipodi.sourceforge.net/DTD/sodipodi-0.dtd"
   xmlns="http://www.w3.org/2000/svg"
   xmlns:svg="http://www.w3.org/2000/svg"
   xmlns:rdf="http://www.w3.org/1999/02/22-rdf-syntax-ns#"
   xmlns:cc="http://creativecommons.org/ns#"
   xmlns:dc="http://purl.org/dc/elements/1.1/">
  <defs
     id="defs2" />
  <sodipodi:namedview
     id="base"
     pagecolor="#ffffff"
     bordercolor="#666666"
     borderopacity="1.0"
     inkscape:pageopacity="0.0"
     inkscape:pageshadow="2"
     inkscape:zoom="0.98994949"
     inkscape:cx="21.71828"
     inkscape:cy="250.51783"
     inkscape:document-units="mm"
     inkscape:current-layer="layer1"
     showgrid="false"
     inkscape:window-width="1366"
     inkscape:window-height="744"
     inkscape:window-x="0"
     inkscape:window-y="0"
     inkscape:window-maximized="1"
     inkscape:pagecheckerboard="0" />
  <metadata
     id="metadata5">
    <rdf:RDF>
      <cc:Work
         rdf:about="">
        <dc:format>image/svg+xml</dc:format>
        <dc:type
           rdf:resource="http://purl.org/dc/dcmitype/StillImage" />
      </cc:Work>
    </rdf:RDF>
  </metadata>
  <g
     inkscape:label="Camada 1"
     inkscape:groupmode="layer"
     id="layer1"
     transform="translate(0,-217)">
    <rect
       ry="17.698029"
       y="219.39169"
       x="2.3916893"
       height="75.216621"
       width="70.216621"
       id="rect10"
       style="fill:#ffffff;fill-opacity:1;stroke:#cccccc;stroke-width:4.783;stroke-linecap:round;stroke-linejoin:round;stroke-miterlimit:4;stroke-dasharray:none;stroke-opacity:1;paint-order:markers stroke fill" />
    <g
       id="g47374">
      <path
         id="path44016"
         style="fill:none;stroke:#cccccc;stroke-width:3;stroke-linecap:round;stroke-linejoin:round;stroke-miterlimit:4;stroke-dasharray:none;paint-order:markers stroke fill"
         d="m 59.909921,274.61183 a 9.7989931,14.011404 41.888985 0 1 -16.650025,3.88796 9.7989931,14.011404 41.888985 0 1 2.060502,-16.97333 9.7989931,14.011404 41.888985 0 1 16.650039,-3.88797 9.7989931,14.011404 41.888985 0 1 -2.060516,16.97334 z" />
      <path
         id="rect44144"
         style="fill:none;stroke:#cccccc;stroke-width:3;stroke-linecap:round;stroke-linejoin:round;stroke-miterlimit:4;stroke-dasharray:none;paint-order:markers stroke fill"
         d="m 40.287492,275.57234 -11.435309,6.9921 c -1.01314,0.61361 -1.998312,0.71515 -2.773938,0.38237 -0.774691,-0.33237 -1.34034,-1.09802 -1.516024,-2.21946 l -3.085522,-19.69571 c -0.351581,-2.24423 0.99566,-5.03835 3.02072,-6.26483 l 30.412647,-18.41956 c 1.076716,-0.65212 2.121843,-0.72588 2.917431,-0.31462 0.700734,0.36223 1.207885,1.10073 1.372531,2.15171 l 3.085522,19.69571"
         sodipodi:nodetypes="ccsssccssc" />
      <path
         id="path44283"
         style="fill:none;stroke:#cccccc;stroke-width:3;stroke-linecap:round;stroke-linejoin:round;stroke-miterlimit:4;stroke-dasharray:none;paint-order:markers stroke fill"
         d="m 44.372758,279.38798 -8.807598,-7.1741 c -4.028785,-3.61342 -3.106267,-11.21264 2.060502,-16.97333 5.166772,-5.7607 12.621252,-7.5014 16.650039,-3.88797 l 8.009849,6.52747"
         sodipodi:nodetypes="csc" />
      <path
         id="path44285"
         style="fill:none;stroke:#cccccc;stroke-width:3;stroke-linecap:round;stroke-linejoin:round;stroke-miterlimit:4;stroke-dasharray:none;paint-order:markers stroke fill"
         d="m 26.072075,283.4503 -7.707808,-6.79776 c -0.764809,-0.33675 -1.322556,-1.09897 -1.496782,-2.2111 l -3.085522,-19.69571 c -0.351581,-2.24423 0.99566,-5.03835 3.02072,-6.26483 L 47.21533,230.06134 c 1.084124,-0.65661 2.136223,-0.72687 2.933817,-0.30606 l 7.796392,6.32332"
         sodipodi:nodetypes="cssccc" />
    </g>
  </g>
</svg>
