<?xml version="1.0" encoding="UTF-8" standalone="no"?>
<!-- Created with Inkscape (http://www.inkscape.org/) -->

<svg
   width="75mm"
   height="80mm"
   viewBox="0 0 75 80"
   version="1.1"
   id="svg8"
   inkscape:version="1.1.1 (3bf5ae0, 2021-09-20)"
   sodipodi:docname="novasmodelos.svg"
   inkscape:export-filename="/home/rafael/Documents/202WEB/202016401Revista/index_files/images/comercio.png"
   inkscape:export-xdpi="96"
   inkscape:export-ydpi="96"
   xmlns:inkscape="http://www.inkscape.org/namespaces/inkscape"
   xmlns:sodipodi="http://sodipodi.sourceforge.net/DTD/sodipodi-0.dtd"
   xmlns="http://www.w3.org/2000/svg"
   xmlns:svg="http://www.w3.org/2000/svg"
   xmlns:rdf="http://www.w3.org/1999/02/22-rdf-syntax-ns#"
   xmlns:cc="http://creativecommons.org/ns#"
   xmlns:dc="http://purl.org/dc/elements/1.1/">
  <defs
     id="defs2" />
  <sodipodi:namedview
     id="base"
     pagecolor="#ffffff"
     bordercolor="#666666"
     borderopacity="1.0"
     inkscape:pageopacity="0.0"
     inkscape:pageshadow="2"
     inkscape:zoom="0.81690485"
     inkscape:cx="-17.749925"
     inkscape:cy="150.56833"
     inkscape:document-units="mm"
     inkscape:current-layer="layer1"
     showgrid="false"
     inkscape:window-width="1366"
     inkscape:window-height="744"
     inkscape:window-x="0"
     inkscape:window-y="0"
     inkscape:window-maximized="1"
     inkscape:pagecheckerboard="0" />
  <metadata
     id="metadata5">
    <rdf:RDF>
      <cc:Work
         rdf:about="">
        <dc:format>image/svg+xml</dc:format>
        <dc:type
           rdf:resource="http://purl.org/dc/dcmitype/StillImage" />
      </cc:Work>
    </rdf:RDF>
  </metadata>
  <g
     inkscape:label="Camada 1"
     inkscape:groupmode="layer"
     id="layer1"
     transform="translate(0,-217)">
    <rect
       ry="17.698029"
       y="219.39169"
       x="2.3916893"
       height="75.216621"
       width="70.216621"
       id="rect10"
       style="fill:#ffffff;fill-opacity:1;stroke:#cccccc;stroke-width:3;stroke-linecap:round;stroke-linejoin:round;stroke-miterlimit:4;stroke-dasharray:none;stroke-opacity:1;paint-order:fill markers stroke" />
    <path
       style="fill:none;fill-opacity:1;stroke:#cccccc;stroke-width:3;stroke-linecap:round;stroke-linejoin:round;stroke-miterlimit:4;stroke-dasharray:none;stroke-opacity:1;paint-order:markers stroke fill"
       d="m 37.196921,263.66835 c -0.185894,0 -0.369041,0.004 -0.549838,0.0145 -0.180796,0.01 -0.359104,0.0235 -0.53485,0.0424 -0.175747,0.0189 -0.349123,0.0428 -0.519867,0.0708 -0.170741,0.0279 -0.339095,0.0603 -0.504878,0.0971 -0.165785,0.0368 -0.32902,0.0776 -0.489892,0.12299 -0.160869,0.0454 -0.319421,0.0951 -0.475424,0.14883 -0.156007,0.0537 -0.309251,0.11141 -0.460436,0.17311 -0.151183,0.0617 -0.300072,0.12739 -0.446484,0.19689 -0.14641,0.0695 -0.29033,0.14304 -0.432015,0.22014 -0.141684,0.0771 -0.281059,0.15745 -0.418063,0.24185 -0.137001,0.0843 -0.271743,0.17266 -0.404108,0.26406 -0.132369,0.0914 -0.26238,0.18602 -0.390158,0.28422 -0.127777,0.0982 -0.253486,0.1997 -0.376721,0.30437 -0.123233,0.1047 -0.244033,0.21255 -0.36277,0.3235 -0.118737,0.11095 -0.235048,0.22513 -0.349332,0.3421 -0.114287,0.11696 -0.226531,0.23642 -0.336413,0.35915 -0.109881,0.12272 -0.217458,0.24849 -0.322979,0.37672 -0.105524,0.12823 -0.208847,0.25926 -0.310058,0.39274 -0.101208,0.13348 -0.200715,0.26926 -0.297656,0.40773 -0.09694,0.13847 -0.191489,0.2795 -0.284221,0.42271 -0.09272,0.14321 -0.183269,0.28898 -0.271817,0.43667 -0.08855,0.1477 -0.174995,0.29715 -0.259416,0.44907 -0.08442,0.15193 -0.166674,0.30608 -0.247015,0.46198 -0.08034,0.1559 -0.158826,0.31374 -0.235127,0.47336 -0.0763,0.15961 -0.150931,0.32113 -0.223242,0.48421 -0.07232,0.16309 -0.14247,0.32774 -0.210839,0.49402 -0.06837,0.16629 -0.134485,0.33409 -0.198956,0.50333 -0.06447,0.16925 -0.127481,0.34018 -0.1881,0.51211 -0.121243,0.3439 -0.234431,0.69278 -0.340548,1.04594 -0.106116,0.35315 -0.204748,0.71034 -0.296106,1.07073 L 21.112115,295.5 h 32.775776 l -5.953125,-21.09432 c -0.100986,-0.35781 -0.208495,-0.71282 -0.321943,-1.06402 -0.113453,-0.35118 -0.233158,-0.69879 -0.359669,-1.04128 -0.126508,-0.34248 -0.259813,-0.67964 -0.399976,-1.0113 -0.07008,-0.16584 -0.14188,-0.33026 -0.21549,-0.493 -0.07361,-0.16273 -0.148627,-0.3238 -0.225827,-0.48317 -0.07721,-0.15938 -0.156313,-0.31709 -0.237194,-0.47284 -0.08088,-0.15575 -0.163933,-0.3096 -0.248562,-0.46147 -0.08463,-0.15187 -0.170966,-0.30186 -0.259416,-0.44958 -0.08845,-0.14773 -0.178951,-0.29336 -0.271302,-0.43667 -0.09235,-0.14332 -0.186351,-0.28408 -0.28267,-0.42271 -0.09632,-0.13864 -0.194712,-0.27505 -0.295074,-0.40876 -0.100364,-0.13371 -0.202991,-0.26476 -0.307475,-0.39326 -0.104484,-0.12851 -0.210682,-0.25471 -0.31936,-0.37776 -0.108677,-0.12305 -0.219847,-0.24337 -0.332795,-0.3607 -0.112946,-0.11733 -0.227912,-0.23126 -0.345199,-0.34261 -0.11729,-0.11134 -0.236929,-0.21996 -0.358635,-0.32505 -0.121706,-0.10509 -0.245354,-0.20681 -0.371552,-0.30541 -0.126198,-0.0986 -0.254746,-0.19397 -0.385506,-0.28577 -0.130765,-0.0918 -0.264054,-0.1803 -0.39946,-0.2651 -0.135403,-0.0848 -0.272777,-0.16589 -0.412895,-0.24339 -0.140118,-0.0775 -0.282972,-0.15128 -0.427879,-0.22118 -0.144907,-0.0699 -0.292066,-0.13582 -0.441836,-0.19792 -0.14977,-0.0621 -0.302109,-0.12015 -0.456819,-0.17415 -0.154707,-0.0541 -0.31157,-0.10416 -0.471289,-0.14986 -0.159721,-0.0456 -0.321984,-0.0869 -0.486791,-0.12402 -0.164806,-0.0371 -0.332327,-0.07 -0.502295,-0.0982 -0.169966,-0.0282 -0.342596,-0.0517 -0.517798,-0.0708 -0.175202,-0.0191 -0.352793,-0.0329 -0.533302,-0.0429 -0.180512,-0.01 -0.363942,-0.0145 -0.549836,-0.0145 z"
       id="path30709" />
    <ellipse
       style="fill:none;stroke:#cccccc;stroke-width:3;stroke-linecap:round;stroke-linejoin:round;stroke-miterlimit:4;stroke-dasharray:none;stroke-dashoffset:0;paint-order:markers stroke fill"
       id="path26013"
       cx="37.701317"
       cy="247.61674"
       rx="11.620815"
       ry="10.910516" />
    <path
       id="path26295"
       style="fill:none;stroke:#cccccc;stroke-width:11.33858282;stroke-linecap:round;stroke-linejoin:round;stroke-miterlimit:4;stroke-dasharray:none;stroke-opacity:1"
       d="M 142.90039 49.263672 C 115.06063 49.36468 87.05651 79.582587 86.398438 139.62305 C 86.398438 149.80241 87.001677 159.9342 88.029297 169.5918 C 94.230402 227.86992 51.183594 245.99023 51.183594 245.99023 C 62.204388 256.65925 73.2865 265.43041 84.433594 272.24414 L 99.300781 213.5957 C 99.646067 212.2336 100.01885 210.8836 100.41992 209.54883 C 100.82099 208.21405 101.24879 206.89545 101.70703 205.5957 C 101.93615 204.94583 102.17429 204.29982 102.41797 203.66016 C 102.66165 203.02049 102.91151 202.38631 103.16992 201.75781 C 103.42833 201.12931 103.69348 200.507 103.9668 199.89062 C 104.24011 199.27426 104.52216 198.66382 104.81055 198.06055 C 105.09894 197.45727 105.39557 196.8607 105.69922 196.27148 C 106.00286 195.68226 106.31374 195.09959 106.63281 194.52539 C 106.95188 193.95119 107.27861 193.38634 107.61328 192.82812 C 107.94796 192.26992 108.29018 191.719 108.64062 191.17773 C 108.99108 190.63647 109.34844 190.10344 109.71484 189.58008 C 110.08124 189.05672 110.45732 188.54355 110.83984 188.03906 C 111.22237 187.53458 111.61289 187.03933 112.01172 186.55469 C 112.41054 186.07004 112.81712 185.5947 113.23242 185.13086 C 113.64772 184.66701 114.07196 184.21552 114.50391 183.77344 C 114.93585 183.33136 115.37545 182.89982 115.82422 182.48047 C 116.27299 182.06112 116.72955 181.65347 117.19531 181.25781 C 117.66108 180.86215 118.1362 180.47843 118.61914 180.10742 C 119.10208 179.73642 119.59347 179.37859 120.09375 179.0332 C 120.59403 178.68782 121.10329 178.35396 121.62109 178.03516 C 122.1389 177.71635 122.66567 177.41235 123.20117 177.12109 C 123.73667 176.82983 124.28062 176.55181 124.83398 176.28906 C 125.38735 176.02631 125.95008 175.7782 126.52148 175.54492 C 127.09289 175.31164 127.67209 175.09347 128.26172 174.89062 C 128.85134 174.68779 129.45058 174.49957 130.05859 174.32812 C 130.66661 174.15669 131.28357 174.00236 131.91016 173.86328 C 132.53674 173.7242 133.17304 173.60185 133.81836 173.49609 C 134.46368 173.39034 135.11896 173.29998 135.7832 173.22852 C 136.44744 173.15705 137.12136 173.10458 137.80469 173.06836 C 138.48802 173.03214 139.18022 173.01367 139.88281 173.01367 C 140.5854 173.01367 141.27869 173.03185 141.96094 173.06836 C 142.64318 173.10487 143.31438 173.15845 143.97656 173.23047 C 144.63874 173.30249 145.2912 173.3915 145.93359 173.49805 C 146.57599 173.60459 147.20914 173.72907 147.83203 173.86914 C 148.45492 174.00921 149.06821 174.16528 149.67188 174.33789 C 150.27553 174.5105 150.86841 174.70014 151.45312 174.9043 C 152.03785 175.10846 152.61363 175.32779 153.17969 175.5625 C 153.74575 175.79721 154.30193 176.04627 154.84961 176.31055 C 155.39729 176.57482 155.93722 176.85364 156.4668 177.14648 C 156.99638 177.43933 157.51558 177.74598 158.02734 178.06641 C 158.53911 178.38683 159.04289 178.72135 159.53711 179.06836 C 160.03133 179.41537 160.51717 179.77583 160.99414 180.14844 C 161.47111 180.52104 161.93845 180.90553 162.39844 181.30273 C 162.85843 181.69994 163.31061 182.11043 163.75391 182.53125 C 164.1972 182.95207 164.63171 183.38274 165.05859 183.82617 C 165.48548 184.26961 165.90566 184.72439 166.31641 185.18945 C 166.72716 185.65452 167.12854 186.13149 167.52344 186.61719 C 167.91834 187.10289 168.30622 187.59818 168.68555 188.10352 C 169.06487 188.60886 169.43674 189.12445 169.80078 189.64844 C 170.16482 190.17243 170.52011 190.70444 170.86914 191.24609 C 171.21817 191.78774 171.56023 192.33817 171.89453 192.89648 C 172.22883 193.4548 172.55515 194.02171 172.875 194.5957 C 173.19485 195.16969 173.50877 195.75117 173.81445 196.33984 C 174.12014 196.92852 174.41913 197.52459 174.71094 198.12695 C 175.00274 198.72932 175.28625 199.33807 175.56445 199.95312 C 175.84265 200.56819 176.11403 201.18964 176.37891 201.81641 C 176.90866 203.06994 177.41249 204.34426 177.89062 205.63867 C 178.36877 206.93308 178.82121 208.24687 179.25 209.57422 C 179.67879 210.90157 180.08512 212.24335 180.4668 213.5957 L 197.26758 273.12695 C 208.85541 266.27191 220.52342 257.25226 232.27539 245.99805 C 232.27539 245.99805 190.88271 227.87652 196.8457 169.59375 C 197.83439 159.93022 198.41406 149.79002 198.41406 139.60352 C 198.41406 79.177922 170.74015 49.162664 142.90039 49.263672 z "
       transform="matrix(0.26458333,0,0,0.26458333,0,217)" />
  </g>
</svg>
