<?xml version="1.0" encoding="UTF-8" standalone="no"?>
<!-- Created with Inkscape (http://www.inkscape.org/) -->

<svg
   width="75mm"
   height="80mm"
   viewBox="0 0 75 80"
   version="1.1"
   id="svg8"
   inkscape:version="1.1.1 (3bf5ae0, 2021-09-20)"
   sodipodi:docname="bordado.svg"
   inkscape:export-filename="/home/rafael/Documents/202WEB/202016401Revista/index_files/images/comercio.png"
   inkscape:export-xdpi="96"
   inkscape:export-ydpi="96"
   xmlns:inkscape="http://www.inkscape.org/namespaces/inkscape"
   xmlns:sodipodi="http://sodipodi.sourceforge.net/DTD/sodipodi-0.dtd"
   xmlns="http://www.w3.org/2000/svg"
   xmlns:svg="http://www.w3.org/2000/svg"
   xmlns:rdf="http://www.w3.org/1999/02/22-rdf-syntax-ns#"
   xmlns:cc="http://creativecommons.org/ns#"
   xmlns:dc="http://purl.org/dc/elements/1.1/">
  <defs
     id="defs2" />
  <sodipodi:namedview
     id="base"
     pagecolor="#ffffff"
     bordercolor="#666666"
     borderopacity="1.0"
     inkscape:pageopacity="0.0"
     inkscape:pageshadow="2"
     inkscape:zoom="1.4"
     inkscape:cx="158.92857"
     inkscape:cy="153.57143"
     inkscape:document-units="mm"
     inkscape:current-layer="layer1"
     showgrid="false"
     inkscape:window-width="1366"
     inkscape:window-height="744"
     inkscape:window-x="0"
     inkscape:window-y="0"
     inkscape:window-maximized="1"
     inkscape:pagecheckerboard="0" />
  <metadata
     id="metadata5">
    <rdf:RDF>
      <cc:Work
         rdf:about="">
        <dc:format>image/svg+xml</dc:format>
        <dc:type
           rdf:resource="http://purl.org/dc/dcmitype/StillImage" />
      </cc:Work>
    </rdf:RDF>
  </metadata>
  <g
     inkscape:label="Camada 1"
     inkscape:groupmode="layer"
     id="layer1"
     transform="translate(0,-217)">
    <rect
       ry="17.698029"
       y="219.39169"
       x="2.3916893"
       height="75.216621"
       width="70.216621"
       id="rect10"
       style="fill:#ffffff;fill-opacity:1;stroke:#cccccc;stroke-width:4.783;stroke-linecap:round;stroke-linejoin:round;stroke-miterlimit:4;stroke-dasharray:none;stroke-opacity:1;paint-order:markers stroke fill" />
    <path
       style="fill:none;stroke:#cccccc;stroke-width:3;stroke-linecap:round;stroke-linejoin:round;stroke-miterlimit:4;stroke-dasharray:none;stroke-opacity:1"
       d="m 9.4895341,266.92216 c 0,0 0.6822909,-9.46795 10.5499919,-14.21435 10.422906,-5.01346 12.102529,0.87512 12.102529,0.87512"
       id="path24573"
       sodipodi:nodetypes="csc" />
    <path
       style="fill:none;stroke:#cccccc;stroke-width:3;stroke-linecap:round;stroke-linejoin:round;stroke-miterlimit:4;stroke-dasharray:none;stroke-opacity:1"
       d="m 15.057514,272.39073 c 0,0 0.68229,-9.46795 10.549991,-14.21435 10.422906,-5.01346 12.102529,0.87512 12.102529,0.87512"
       id="path24575"
       sodipodi:nodetypes="csc" />
    <path
       style="fill:none;stroke:#cccccc;stroke-width:3;stroke-linecap:round;stroke-linejoin:round;stroke-miterlimit:4;stroke-dasharray:none;stroke-opacity:1"
       d="m 20.625495,277.8593 c 0,0 0.68229,-9.46795 10.549991,-14.21435 10.422906,-5.01346 12.102529,0.87512 12.102529,0.87512"
       id="path24577"
       sodipodi:nodetypes="csc" />
    <path
       style="fill:none;stroke:#cccccc;stroke-width:3;stroke-linecap:round;stroke-linejoin:round;stroke-miterlimit:4;stroke-dasharray:none;stroke-opacity:1"
       d="m 26.193472,283.32787 c 0,0 0.68229,-9.46795 10.549991,-14.21435 10.422906,-5.01346 12.102529,0.87512 12.102529,0.87512"
       id="path24579"
       sodipodi:nodetypes="csc" />
    <path
       style="fill:none;stroke:#cccccc;stroke-width:3;stroke-linecap:round;stroke-linejoin:round;stroke-miterlimit:4;stroke-dasharray:none;stroke-opacity:1"
       d="m 31.761454,288.79645 c 0,0 0.68229,-9.46795 10.549991,-14.21435 10.422906,-5.01346 12.102529,0.87512 12.102529,0.87512"
       id="path24581"
       sodipodi:nodetypes="csc" />
    <path
       style="fill:none;stroke:#cccccc;stroke-width:2.94623;stroke-linecap:round;stroke-linejoin:round;stroke-miterlimit:4;stroke-dasharray:none;stroke-opacity:1"
       d="m 54.430877,275.48416 c 0,0 0.07948,-4.48407 3.717667,-5.18275 3.638186,-0.69867 6.904944,-3.95391 6.904944,-11.75286 0,0 4.178517,-28.82854 -25.924775,-25.92171 -30.103294,2.90683 -32.73475,-0.50831 -32.73475,-0.50831"
       id="path24731" />
    <path
       id="path24980"
       style="fill:#cccccc;stroke:none;stroke-width:0.264583px;stroke-linecap:butt;stroke-linejoin:miter;stroke-opacity:1"
       d="m 53.63366,228.47869 c -0.07131,-0.001 -0.14106,-1.3e-4 -0.209289,0.004 -2.183294,0.12001 -5.56334,1.51003 -4.118096,10.33374 1.445244,8.82371 5.107699,36.64117 5.107699,36.64117 0,0 2.484961,-30.27627 3.599265,-36.51663 1.421677,-7.96175 -2.168861,-10.42485 -4.379579,-10.4619 z m 0.0026,2.57401 a 2.2160249,3.6643823 0 0 1 2.215885,3.66437 2.2160249,3.6643823 0 0 1 -2.215885,3.66438 2.2160249,3.6643823 0 0 1 -2.215886,-3.66438 2.2160249,3.6643823 0 0 1 2.215886,-3.66437 z" />
  </g>
</svg>
