<?xml version="1.0" encoding="UTF-8" standalone="no"?>
<!-- Generator: Adobe Illustrator 16.0.0, SVG Export Plug-In . SVG Version: 6.00 Build 0)  -->

<svg
   xmlns:dc="http://purl.org/dc/elements/1.1/"
   xmlns:cc="http://creativecommons.org/ns#"
   xmlns:rdf="http://www.w3.org/1999/02/22-rdf-syntax-ns#"
   xmlns:svg="http://www.w3.org/2000/svg"
   xmlns="http://www.w3.org/2000/svg"
   xmlns:sodipodi="http://sodipodi.sourceforge.net/DTD/sodipodi-0.dtd"
   xmlns:inkscape="http://www.inkscape.org/namespaces/inkscape"
   version="1.1"
   id="Capa_1"
   sodipodi:docname="BOLO_DE_AMENDOIM.svg"
   inkscape:version="0.92.4 (5da689c313, 2019-01-14)"
   x="0px"
   y="0px"
   width="361.541px"
   height="189.617px"
   viewBox="0 0 361.541 189.617"
   enable-background="new 0 0 361.541 189.617"
   xml:space="preserve"><metadata
   id="metadata92"><rdf:RDF><cc:Work
       rdf:about=""><dc:format>image/svg+xml</dc:format><dc:type
         rdf:resource="http://purl.org/dc/dcmitype/StillImage" /></cc:Work></rdf:RDF></metadata><defs
   id="defs90">
	
	

		
			<sodipodi:namedview
   id="namedview85"
   guidetolerance="10"
   objecttolerance="10"
   gridtolerance="10"
   inkscape:window-maximized="1"
   inkscape:pageopacity="0"
   inkscape:window-width="1366"
   inkscape:window-x="0"
   inkscape:window-height="744"
   inkscape:pageshadow="2"
   inkscape:current-layer="Capa_1"
   inkscape:window-y="0"
   inkscape:cy="94.808502"
   borderopacity="1"
   inkscape:cx="180.77049"
   bordercolor="#666666"
   pagecolor="#ffffff"
   inkscape:zoom="2.2901968"
   showgrid="false">
			</sodipodi:namedview>
		
			
		
			
		
		
			
		
		
			
		
			
		
			
		
			
	</defs><sodipodi:namedview
   pagecolor="#ffffff"
   bordercolor="#666666"
   borderopacity="1"
   objecttolerance="10"
   gridtolerance="10"
   guidetolerance="10"
   inkscape:pageopacity="0"
   inkscape:pageshadow="2"
   inkscape:window-width="1366"
   inkscape:window-height="744"
   id="namedview88"
   showgrid="false"
   inkscape:zoom="0.82730916"
   inkscape:cx="105.93049"
   inkscape:cy="96.099797"
   inkscape:window-x="0"
   inkscape:window-y="0"
   inkscape:window-maximized="1"
   inkscape:current-layer="Capa_1" />
<g
   aria-label="Bolo"
   transform="matrix(1.2312518,-0.17268733,0.11799362,0.79563254,0,0)"
   style="font-style:normal;font-variant:normal;font-weight:normal;font-stretch:normal;font-size:99.91466522px;font-family:'a Angkanya Sebelas';-inkscape-font-specification:'a Angkanya Sebelas, Normal';font-variant-ligatures:normal;font-variant-caps:normal;font-variant-numeric:normal;font-feature-settings:normal;text-align:start;writing-mode:lr-tb;text-anchor:start;fill:#ffed00;stroke-width:1.24328756"
   id="text70"><path
     d="m 39.642389,43.791114 q -2.439323,0 -2.829614,3.707771 -0.09757,0.487865 -0.09757,0.878156 0,1.853886 1.268447,7.122823 0.683011,2.829615 2.244178,8.293698 4.390781,15.806812 5.36651,24.685947 1.366021,-8.39127 1.658739,-16.099531 v -2.732041 q 0,-2.927188 0.585438,-3.902917 h 0.09757 l 3.415052,-2.927187 q 2.439323,1.268448 2.439323,6.04952 0,2.829615 -0.683011,7.122823 -0.68301,5.756802 -3.415052,18.929146 4.098063,-1.951458 8.098552,-6.049521 7.903406,-8.293698 8.000979,-18.148562 0,-13.757781 -11.806322,-21.563614 -4.878646,-3.219907 -10.733021,-4.6835 -0.487865,0 -1.561167,0 -0.975729,-0.09757 -1.463593,-0.09757 -0.09757,-0.585438 -0.585438,-0.585438 z m 17.563125,53.372385 q 7.805833,2.244177 7.903406,7.708261 0,8.58642 -10.928167,11.90389 -4.195635,1.17088 -9.269427,1.36603 v 0.39029 q 0,0.0976 0.09757,0.39029 l 0.195146,0.29272 h -0.09757 q -1.170875,-0.0976 -3.415052,-1.17088 -8.293698,-0.58543 -11.806322,-3.90291 -0.390292,-0.3903 -1.756313,-2.73205 -0.195146,-0.39029 -0.390292,-0.68301 l 0.09757,-0.19514 q 2.732042,0.19514 4.585927,0.48786 2.34175,0.39029 7.317969,0.39029 h 0.585437 q 0.878157,-4.09806 1.170875,-8.19612 -0.292718,0 -0.878156,0 -0.585437,0.0976 -0.878156,0.0976 -2.829615,0 -3.902917,-2.24417 -0.292718,-0.68301 -0.292718,-1.268452 0.09757,-3.317479 6.244666,-3.902917 Q 41.593847,83.308145 35.934618,65.74502 32.226847,54.133843 31.836556,52.962968 q -0.683011,-3.122333 -0.683011,-5.659229 0,-5.854375 5.561657,-8.196125 2.34175,-0.975729 4.878645,-0.975729 2.927188,0 7.805834,2.244177 12.977197,5.951948 19.41701,18.636427 2.536896,4.976219 2.536896,11.611177 0,5.659229 -2.049032,10.928166 -4.098062,9.464573 -12.099041,15.611667 z m -5.464083,3.219911 q -2.146605,1.0733 -3.610198,1.56116 -1.463594,6.63496 -1.951459,8.97671 2.634469,-0.39029 8.488844,-2.24418 2.634469,-0.97573 3.707771,-2.1466 -0.975729,-4.39078 -6.634958,-6.14709 z"
     style="font-style:normal;font-variant:normal;font-weight:normal;font-stretch:normal;font-size:99.91466522px;font-family:'a Angkanya Sebelas';-inkscape-font-specification:'a Angkanya Sebelas, Normal';font-variant-ligatures:normal;font-variant-caps:normal;font-variant-numeric:normal;font-feature-settings:normal;text-align:start;writing-mode:lr-tb;text-anchor:start;fill:#ffed00;stroke-width:1.24328756"
     id="path199" /><path
     d="m 78.086118,84.966885 q 0,-4.878646 3.317479,-7.805834 1.65874,-1.366021 3.512625,-1.366021 4.878646,0 6.537385,6.34224 0.487865,2.049031 0.487865,4.098062 0,4.781073 -1.366021,9.757292 2.536896,1.073302 4.390781,1.073302 5.073788,-0.09757 7.317968,-4.976219 l 2.63447,1.853886 q -2.5369,5.171364 -9.074281,5.268937 -3.024761,0 -6.049521,-1.073302 -2.049031,5.464082 -5.36651,7.903402 -2.536896,1.85389 -4.6835,1.85389 -4.293209,-0.19515 -4.293209,-8.098552 0,-1.65874 0.195146,-3.610198 0.195146,-2.049031 0.487865,-3.707771 0.292719,-1.65874 0.487864,-3.02476 0.292719,-1.463594 0.585438,-2.244177 l 0.195146,-0.780584 q 0.585437,-0.975729 0.68301,-1.073302 z m 7.317969,7.513114 q 0.195146,-1.756312 0.195146,-2.732042 0,-5.756802 -1.951459,-7.02525 -0.487864,-0.195145 -0.780583,-0.195145 -0.487865,0.09757 -0.68301,0.780583 0.780583,0.878156 0.780583,2.146604 0,1.853885 -0.195146,2.634469 0.975729,2.634469 2.634469,4.390781 z m -0.487865,3.122333 q -2.536896,-1.853885 -3.610198,-2.927187 -1.756312,5.36651 -1.853885,8.098555 0.09757,3.80534 1.170875,3.90291 0.585437,-0.0976 1.073302,-0.68301 -0.195146,-0.29272 -0.195146,-0.29272 0,-0.39029 1.65874,-3.2199 0.292718,-0.487867 0.390291,-0.683012 0.780584,-1.951459 1.366021,-4.195636 z"
     style="font-style:normal;font-variant:normal;font-weight:normal;font-stretch:normal;font-size:99.91466522px;font-family:'a Angkanya Sebelas';-inkscape-font-specification:'a Angkanya Sebelas, Normal';font-variant-ligatures:normal;font-variant-caps:normal;font-variant-numeric:normal;font-feature-settings:normal;text-align:start;writing-mode:lr-tb;text-anchor:start;fill:#ffed00;stroke-width:1.24328756"
     id="path201" /><path
     d="m 119.74975,44.864416 q 1.85388,0 2.92719,1.951459 0.48786,0.975729 0.48786,1.951458 0,0.292719 -0.0976,0.878156 0,0.585438 0,0.878156 v 0.09757 q -4.48836,21.75876 -14.92866,38.736448 -1.0733,1.853885 -2.1466,3.415052 -0.29272,2.536896 -0.29272,4.976218 0.58544,8.586414 3.6102,9.074284 4.39078,0 10.14758,-8.976711 1.85389,-2.829614 3.21991,-5.756802 l 2.63447,1.853886 q -3.41506,7.317967 -9.7573,12.489337 -4.48835,3.61019 -7.9034,3.70777 -6.1471,-0.19515 -6.24467,-13.367493 0,-21.563614 11.12331,-45.664124 0.19515,-0.390292 0.48787,-1.170875 0.78058,-2.049031 1.56116,-2.634469 3.51263,-2.439323 5.17137,-2.439323 z m -1.85389,9.171854 q -3.2199,4.976219 -6.43981,14.928656 -3.41505,10.635448 -4.78107,18.538854 4.6835,-8.488843 9.26943,-22.734489 1.85388,-6.049521 1.95145,-10.733021 z"
     style="font-style:normal;font-variant:normal;font-weight:normal;font-stretch:normal;font-size:99.91466522px;font-family:'a Angkanya Sebelas';-inkscape-font-specification:'a Angkanya Sebelas, Normal';font-variant-ligatures:normal;font-variant-caps:normal;font-variant-numeric:normal;font-feature-settings:normal;text-align:start;writing-mode:lr-tb;text-anchor:start;fill:#ffed00;stroke-width:1.24328756"
     id="path203" /><path
     d="m 124.33568,84.966885 q 0,-4.878646 3.31747,-7.805834 1.65874,-1.366021 3.51263,-1.366021 4.87865,0 6.53738,6.34224 0.48787,2.049031 0.48787,4.098062 0,4.781073 -1.36602,9.757292 2.53689,1.073302 4.39078,1.073302 5.07379,-0.09757 7.31797,-4.976219 l 2.63447,1.853886 q -2.5369,5.171364 -9.07428,5.268937 -3.02476,0 -6.04952,-1.073302 -2.04904,5.464082 -5.36651,7.903402 -2.5369,1.85389 -4.6835,1.85389 -4.29321,-0.19515 -4.29321,-8.098552 0,-1.65874 0.19514,-3.610198 0.19515,-2.049031 0.48787,-3.707771 0.29272,-1.65874 0.48786,-3.02476 0.29272,-1.463594 0.58544,-2.244177 l 0.19515,-0.780584 q 0.58543,-0.975729 0.68301,-1.073302 z m 7.31796,7.513114 q 0.19515,-1.756312 0.19515,-2.732042 0,-5.756802 -1.95146,-7.02525 -0.48786,-0.195145 -0.78058,-0.195145 -0.48787,0.09757 -0.68301,0.780583 0.78058,0.878156 0.78058,2.146604 0,1.853885 -0.19514,2.634469 0.97572,2.634469 2.63446,4.390781 z m -0.48786,3.122333 q -2.5369,-1.853885 -3.6102,-2.927187 -1.75631,5.36651 -1.85388,8.098555 0.0976,3.80534 1.17087,3.90291 0.58544,-0.0976 1.0733,-0.68301 -0.19514,-0.29272 -0.19514,-0.29272 0,-0.39029 1.65874,-3.2199 0.29272,-0.487867 0.39029,-0.683012 0.78058,-1.951459 1.36602,-4.195636 z"
     style="font-style:normal;font-variant:normal;font-weight:normal;font-stretch:normal;font-size:99.91466522px;font-family:'a Angkanya Sebelas';-inkscape-font-specification:'a Angkanya Sebelas, Normal';font-variant-ligatures:normal;font-variant-caps:normal;font-variant-numeric:normal;font-feature-settings:normal;text-align:start;writing-mode:lr-tb;text-anchor:start;fill:#ffed00;stroke-width:1.24328756"
     id="path205" /></g><g
   aria-label="Bolo"
   transform="matrix(1.2312518,-0.17268733,0.11799362,0.79563254,0,0)"
   style="font-style:normal;font-variant:normal;font-weight:normal;font-stretch:normal;font-size:99.91466522px;font-family:'a Angkanya Sebelas';-inkscape-font-specification:'a Angkanya Sebelas, Normal';font-variant-ligatures:normal;font-variant-caps:normal;font-variant-numeric:normal;font-feature-settings:normal;text-align:start;writing-mode:lr-tb;text-anchor:start;fill:none;stroke:#ffed00;stroke-width:30.91534042;stroke-linecap:round;stroke-linejoin:round;stroke-miterlimit:10"
   id="text68"><path
     d="m 39.642389,43.791114 q -2.439323,0 -2.829614,3.707771 -0.09757,0.487865 -0.09757,0.878156 0,1.853886 1.268447,7.122823 0.683011,2.829615 2.244178,8.293698 4.390781,15.806812 5.36651,24.685947 1.366021,-8.39127 1.658739,-16.099531 v -2.732041 q 0,-2.927188 0.585438,-3.902917 h 0.09757 l 3.415052,-2.927187 q 2.439323,1.268448 2.439323,6.04952 0,2.829615 -0.683011,7.122823 -0.68301,5.756802 -3.415052,18.929146 4.098063,-1.951458 8.098552,-6.049521 7.903406,-8.293698 8.000979,-18.148562 0,-13.757781 -11.806322,-21.563614 -4.878646,-3.219907 -10.733021,-4.6835 -0.487865,0 -1.561167,0 -0.975729,-0.09757 -1.463593,-0.09757 -0.09757,-0.585438 -0.585438,-0.585438 z m 17.563125,53.372385 q 7.805833,2.244177 7.903406,7.708261 0,8.58642 -10.928167,11.90389 -4.195635,1.17088 -9.269427,1.36603 v 0.39029 q 0,0.0976 0.09757,0.39029 l 0.195146,0.29272 h -0.09757 q -1.170875,-0.0976 -3.415052,-1.17088 -8.293698,-0.58543 -11.806322,-3.90291 -0.390292,-0.3903 -1.756313,-2.73205 -0.195146,-0.39029 -0.390292,-0.68301 l 0.09757,-0.19514 q 2.732042,0.19514 4.585927,0.48786 2.34175,0.39029 7.317969,0.39029 h 0.585437 q 0.878157,-4.09806 1.170875,-8.19612 -0.292718,0 -0.878156,0 -0.585437,0.0976 -0.878156,0.0976 -2.829615,0 -3.902917,-2.24417 -0.292718,-0.68301 -0.292718,-1.268452 0.09757,-3.317479 6.244666,-3.902917 Q 41.593847,83.308145 35.934618,65.74502 32.226847,54.133843 31.836556,52.962968 q -0.683011,-3.122333 -0.683011,-5.659229 0,-5.854375 5.561657,-8.196125 2.34175,-0.975729 4.878645,-0.975729 2.927188,0 7.805834,2.244177 12.977197,5.951948 19.41701,18.636427 2.536896,4.976219 2.536896,11.611177 0,5.659229 -2.049032,10.928166 -4.098062,9.464573 -12.099041,15.611667 z m -5.464083,3.219911 q -2.146605,1.0733 -3.610198,1.56116 -1.463594,6.63496 -1.951459,8.97671 2.634469,-0.39029 8.488844,-2.24418 2.634469,-0.97573 3.707771,-2.1466 -0.975729,-4.39078 -6.634958,-6.14709 z"
     style="font-style:normal;font-variant:normal;font-weight:normal;font-stretch:normal;font-size:99.91466522px;font-family:'a Angkanya Sebelas';-inkscape-font-specification:'a Angkanya Sebelas, Normal';font-variant-ligatures:normal;font-variant-caps:normal;font-variant-numeric:normal;font-feature-settings:normal;text-align:start;writing-mode:lr-tb;text-anchor:start;fill:none;stroke:#ffed00;stroke-width:30.91534042;stroke-linecap:round;stroke-linejoin:round;stroke-miterlimit:10"
     id="path190" /><path
     d="m 78.086118,84.966885 q 0,-4.878646 3.317479,-7.805834 1.65874,-1.366021 3.512625,-1.366021 4.878646,0 6.537385,6.34224 0.487865,2.049031 0.487865,4.098062 0,4.781073 -1.366021,9.757292 2.536896,1.073302 4.390781,1.073302 5.073788,-0.09757 7.317968,-4.976219 l 2.63447,1.853886 q -2.5369,5.171364 -9.074281,5.268937 -3.024761,0 -6.049521,-1.073302 -2.049031,5.464082 -5.36651,7.903402 -2.536896,1.85389 -4.6835,1.85389 -4.293209,-0.19515 -4.293209,-8.098552 0,-1.65874 0.195146,-3.610198 0.195146,-2.049031 0.487865,-3.707771 0.292719,-1.65874 0.487864,-3.02476 0.292719,-1.463594 0.585438,-2.244177 l 0.195146,-0.780584 q 0.585437,-0.975729 0.68301,-1.073302 z m 7.317969,7.513114 q 0.195146,-1.756312 0.195146,-2.732042 0,-5.756802 -1.951459,-7.02525 -0.487864,-0.195145 -0.780583,-0.195145 -0.487865,0.09757 -0.68301,0.780583 0.780583,0.878156 0.780583,2.146604 0,1.853885 -0.195146,2.634469 0.975729,2.634469 2.634469,4.390781 z m -0.487865,3.122333 q -2.536896,-1.853885 -3.610198,-2.927187 -1.756312,5.36651 -1.853885,8.098555 0.09757,3.80534 1.170875,3.90291 0.585437,-0.0976 1.073302,-0.68301 -0.195146,-0.29272 -0.195146,-0.29272 0,-0.39029 1.65874,-3.2199 0.292718,-0.487867 0.390291,-0.683012 0.780584,-1.951459 1.366021,-4.195636 z"
     style="font-style:normal;font-variant:normal;font-weight:normal;font-stretch:normal;font-size:99.91466522px;font-family:'a Angkanya Sebelas';-inkscape-font-specification:'a Angkanya Sebelas, Normal';font-variant-ligatures:normal;font-variant-caps:normal;font-variant-numeric:normal;font-feature-settings:normal;text-align:start;writing-mode:lr-tb;text-anchor:start;fill:none;stroke:#ffed00;stroke-width:30.91534042;stroke-linecap:round;stroke-linejoin:round;stroke-miterlimit:10"
     id="path192" /><path
     d="m 119.74975,44.864416 q 1.85388,0 2.92719,1.951459 0.48786,0.975729 0.48786,1.951458 0,0.292719 -0.0976,0.878156 0,0.585438 0,0.878156 v 0.09757 q -4.48836,21.75876 -14.92866,38.736448 -1.0733,1.853885 -2.1466,3.415052 -0.29272,2.536896 -0.29272,4.976218 0.58544,8.586414 3.6102,9.074284 4.39078,0 10.14758,-8.976711 1.85389,-2.829614 3.21991,-5.756802 l 2.63447,1.853886 q -3.41506,7.317967 -9.7573,12.489337 -4.48835,3.61019 -7.9034,3.70777 -6.1471,-0.19515 -6.24467,-13.367493 0,-21.563614 11.12331,-45.664124 0.19515,-0.390292 0.48787,-1.170875 0.78058,-2.049031 1.56116,-2.634469 3.51263,-2.439323 5.17137,-2.439323 z m -1.85389,9.171854 q -3.2199,4.976219 -6.43981,14.928656 -3.41505,10.635448 -4.78107,18.538854 4.6835,-8.488843 9.26943,-22.734489 1.85388,-6.049521 1.95145,-10.733021 z"
     style="font-style:normal;font-variant:normal;font-weight:normal;font-stretch:normal;font-size:99.91466522px;font-family:'a Angkanya Sebelas';-inkscape-font-specification:'a Angkanya Sebelas, Normal';font-variant-ligatures:normal;font-variant-caps:normal;font-variant-numeric:normal;font-feature-settings:normal;text-align:start;writing-mode:lr-tb;text-anchor:start;fill:none;stroke:#ffed00;stroke-width:30.91534042;stroke-linecap:round;stroke-linejoin:round;stroke-miterlimit:10"
     id="path194" /><path
     d="m 124.33568,84.966885 q 0,-4.878646 3.31747,-7.805834 1.65874,-1.366021 3.51263,-1.366021 4.87865,0 6.53738,6.34224 0.48787,2.049031 0.48787,4.098062 0,4.781073 -1.36602,9.757292 2.53689,1.073302 4.39078,1.073302 5.07379,-0.09757 7.31797,-4.976219 l 2.63447,1.853886 q -2.5369,5.171364 -9.07428,5.268937 -3.02476,0 -6.04952,-1.073302 -2.04904,5.464082 -5.36651,7.903402 -2.5369,1.85389 -4.6835,1.85389 -4.29321,-0.19515 -4.29321,-8.098552 0,-1.65874 0.19514,-3.610198 0.19515,-2.049031 0.48787,-3.707771 0.29272,-1.65874 0.48786,-3.02476 0.29272,-1.463594 0.58544,-2.244177 l 0.19515,-0.780584 q 0.58543,-0.975729 0.68301,-1.073302 z m 7.31796,7.513114 q 0.19515,-1.756312 0.19515,-2.732042 0,-5.756802 -1.95146,-7.02525 -0.48786,-0.195145 -0.78058,-0.195145 -0.48787,0.09757 -0.68301,0.780583 0.78058,0.878156 0.78058,2.146604 0,1.853885 -0.19514,2.634469 0.97572,2.634469 2.63446,4.390781 z m -0.48786,3.122333 q -2.5369,-1.853885 -3.6102,-2.927187 -1.75631,5.36651 -1.85388,8.098555 0.0976,3.80534 1.17087,3.90291 0.58544,-0.0976 1.0733,-0.68301 -0.19514,-0.29272 -0.19514,-0.29272 0,-0.39029 1.65874,-3.2199 0.29272,-0.487867 0.39029,-0.683012 0.78058,-1.951459 1.36602,-4.195636 z"
     style="font-style:normal;font-variant:normal;font-weight:normal;font-stretch:normal;font-size:99.91466522px;font-family:'a Angkanya Sebelas';-inkscape-font-specification:'a Angkanya Sebelas, Normal';font-variant-ligatures:normal;font-variant-caps:normal;font-variant-numeric:normal;font-feature-settings:normal;text-align:start;writing-mode:lr-tb;text-anchor:start;fill:none;stroke:#ffed00;stroke-width:30.91534042;stroke-linecap:round;stroke-linejoin:round;stroke-miterlimit:10"
     id="path196" /></g><g
   aria-label="de"
   transform="scale(1.0273753,0.97335414)"
   style="font-style:normal;font-variant:normal;font-weight:normal;font-stretch:normal;font-size:99.91466522px;font-family:'a Angkanya Sebelas';-inkscape-font-specification:'a Angkanya Sebelas, Normal';font-variant-ligatures:normal;font-variant-caps:normal;font-variant-numeric:normal;font-feature-settings:normal;text-align:start;writing-mode:lr-tb;text-anchor:start;fill:#ffed00;stroke-width:1.02737534"
   id="text73"><path
     d="m 230.04989,62.497641 q 0.0976,0.68301 0.39029,0.780583 0.0976,0 0.19514,-0.195146 l 0.0976,-0.09757 q 7.02525,-1.853885 15.31895,-11.513604 -1.56117,-0.585437 -2.63447,-0.585437 -5.75681,0 -10.44031,5.659229 -1.85388,2.244177 -2.63446,4.390781 0,0 -0.0976,0.292719 -0.19514,0.878156 -0.19514,1.268448 z m 32.88207,-41.566062 q -5.85438,12.099041 -10.53788,34.83353 -2.1466,10.342729 -2.1466,14.635938 0.0976,4.098062 1.95146,4.195635 4.19563,0 10.53787,-10.635448 2.04903,-3.512625 3.80535,-7.317968 l 2.53689,1.853885 q -5.17136,11.025739 -12.39176,18.050989 -4.6835,4.293209 -8.00098,4.390782 -3.51262,-0.195146 -3.51262,-7.708261 0,-5.268937 2.92719,-17.465552 -14.0505,10.830594 -19.31944,10.830594 -3.70777,-0.195146 -3.80534,-4.878646 0,-5.464083 5.56165,-11.025739 1.17088,-1.073302 2.14661,-1.853886 6.43981,-4.488354 12.00146,-4.488354 3.02476,0.09757 5.46409,1.65874 4.58592,-22.636916 4.58592,-22.734489 0.29272,-1.853886 0.58544,-3.512625 0.39029,-0.487865 0.78059,-0.487865 0.78058,0 3.41505,0.683011 3.31748,0.195145 3.41505,0.780583 z"
     style="font-style:normal;font-variant:normal;font-weight:normal;font-stretch:normal;font-size:99.91466522px;font-family:'a Angkanya Sebelas';-inkscape-font-specification:'a Angkanya Sebelas, Normal';font-variant-ligatures:normal;font-variant-caps:normal;font-variant-numeric:normal;font-feature-settings:normal;text-align:start;writing-mode:lr-tb;text-anchor:start;fill:#ffed00;stroke-width:1.02737534"
     id="path185" /><path
     d="m 297.18005,56.643266 2.5369,1.853885 q -3.90292,8.488844 -12.29419,12.586906 -4.48835,2.146604 -8.78156,2.146604 -8.87913,0 -11.70875,-7.220395 -1.0733,-2.732042 -1.0733,-6.147094 0,-6.537385 7.02525,-13.660208 1.65874,-1.65874 3.41505,-3.024761 4.58593,-3.415052 7.80583,-3.415052 2.34175,0 3.51263,1.853886 0.39029,0.68301 0.39029,1.463593 0,6.537386 -14.0505,15.904386 -1.26845,0.878156 -2.43932,1.561166 0,0.09757 -0.0976,0.390292 0,0.292719 0,0.390292 0.68302,8.488843 7.80584,8.976708 6.04952,0 12.29419,-5.951948 3.70777,-3.512625 5.65922,-7.70826 z m -25.17381,1.073302 q 6.04952,-4.293209 9.95244,-11.70875 0.39029,-0.878156 0.68301,-1.561167 0.58544,0.585438 0.58544,0.585438 0.0976,-0.09757 0.19514,-0.195146 -0.0976,-1.073302 -0.78058,-1.756313 -0.0976,0.09757 -0.0976,0.195146 v 0.683011 q 0,1.073302 -2.92719,2.732041 -1.17088,0.683011 -1.46359,0.975729 -4.58593,4.488355 -6.1471,10.050011 z"
     style="font-style:normal;font-variant:normal;font-weight:normal;font-stretch:normal;font-size:99.91466522px;font-family:'a Angkanya Sebelas';-inkscape-font-specification:'a Angkanya Sebelas, Normal';font-variant-ligatures:normal;font-variant-caps:normal;font-variant-numeric:normal;font-feature-settings:normal;text-align:start;writing-mode:lr-tb;text-anchor:start;fill:#ffed00;stroke-width:1.02737534"
     id="path187" /></g><g
   aria-label="de"
   transform="scale(1.0273753,0.97335414)"
   style="font-style:normal;font-variant:normal;font-weight:normal;font-stretch:normal;font-size:99.91466522px;font-family:'a Angkanya Sebelas';-inkscape-font-specification:'a Angkanya Sebelas, Normal';font-variant-ligatures:normal;font-variant-caps:normal;font-variant-numeric:normal;font-feature-settings:normal;text-align:start;writing-mode:lr-tb;text-anchor:start;fill:none;stroke:#ffed00;stroke-width:21.10999489;stroke-linecap:round;stroke-linejoin:round;stroke-miterlimit:10"
   id="text75"><path
     d="m 230.04989,62.497641 q 0.0976,0.68301 0.39029,0.780583 0.0976,0 0.19514,-0.195146 l 0.0976,-0.09757 q 7.02525,-1.853885 15.31895,-11.513604 -1.56117,-0.585437 -2.63447,-0.585437 -5.75681,0 -10.44031,5.659229 -1.85388,2.244177 -2.63446,4.390781 0,0 -0.0976,0.292719 -0.19514,0.878156 -0.19514,1.268448 z m 32.88207,-41.566062 q -5.85438,12.099041 -10.53788,34.83353 -2.1466,10.342729 -2.1466,14.635938 0.0976,4.098062 1.95146,4.195635 4.19563,0 10.53787,-10.635448 2.04903,-3.512625 3.80535,-7.317968 l 2.53689,1.853885 q -5.17136,11.025739 -12.39176,18.050989 -4.6835,4.293209 -8.00098,4.390782 -3.51262,-0.195146 -3.51262,-7.708261 0,-5.268937 2.92719,-17.465552 -14.0505,10.830594 -19.31944,10.830594 -3.70777,-0.195146 -3.80534,-4.878646 0,-5.464083 5.56165,-11.025739 1.17088,-1.073302 2.14661,-1.853886 6.43981,-4.488354 12.00146,-4.488354 3.02476,0.09757 5.46409,1.65874 4.58592,-22.636916 4.58592,-22.734489 0.29272,-1.853886 0.58544,-3.512625 0.39029,-0.487865 0.78059,-0.487865 0.78058,0 3.41505,0.683011 3.31748,0.195145 3.41505,0.780583 z"
     style="font-style:normal;font-variant:normal;font-weight:normal;font-stretch:normal;font-size:99.91466522px;font-family:'a Angkanya Sebelas';-inkscape-font-specification:'a Angkanya Sebelas, Normal';font-variant-ligatures:normal;font-variant-caps:normal;font-variant-numeric:normal;font-feature-settings:normal;text-align:start;writing-mode:lr-tb;text-anchor:start;fill:none;stroke:#ffed00;stroke-width:21.10999489;stroke-linecap:round;stroke-linejoin:round;stroke-miterlimit:10"
     id="path180" /><path
     d="m 297.18005,56.643266 2.5369,1.853885 q -3.90292,8.488844 -12.29419,12.586906 -4.48835,2.146604 -8.78156,2.146604 -8.87913,0 -11.70875,-7.220395 -1.0733,-2.732042 -1.0733,-6.147094 0,-6.537385 7.02525,-13.660208 1.65874,-1.65874 3.41505,-3.024761 4.58593,-3.415052 7.80583,-3.415052 2.34175,0 3.51263,1.853886 0.39029,0.68301 0.39029,1.463593 0,6.537386 -14.0505,15.904386 -1.26845,0.878156 -2.43932,1.561166 0,0.09757 -0.0976,0.390292 0,0.292719 0,0.390292 0.68302,8.488843 7.80584,8.976708 6.04952,0 12.29419,-5.951948 3.70777,-3.512625 5.65922,-7.70826 z m -25.17381,1.073302 q 6.04952,-4.293209 9.95244,-11.70875 0.39029,-0.878156 0.68301,-1.561167 0.58544,0.585438 0.58544,0.585438 0.0976,-0.09757 0.19514,-0.195146 -0.0976,-1.073302 -0.78058,-1.756313 -0.0976,0.09757 -0.0976,0.195146 v 0.683011 q 0,1.073302 -2.92719,2.732041 -1.17088,0.683011 -1.46359,0.975729 -4.58593,4.488355 -6.1471,10.050011 z"
     style="font-style:normal;font-variant:normal;font-weight:normal;font-stretch:normal;font-size:99.91466522px;font-family:'a Angkanya Sebelas';-inkscape-font-specification:'a Angkanya Sebelas, Normal';font-variant-ligatures:normal;font-variant-caps:normal;font-variant-numeric:normal;font-feature-settings:normal;text-align:start;writing-mode:lr-tb;text-anchor:start;fill:none;stroke:#ffed00;stroke-width:21.10999489;stroke-linecap:round;stroke-linejoin:round;stroke-miterlimit:10"
     id="path182" /></g><g
   aria-label="Baunilha"
   transform="scale(1.0256218,0.97501831)"
   style="font-style:normal;font-variant:normal;font-weight:normal;font-stretch:normal;font-size:99.91465759px;font-family:'a Angkanya Sebelas';-inkscape-font-specification:'a Angkanya Sebelas, Normal';font-variant-ligatures:normal;font-variant-caps:normal;font-variant-numeric:normal;font-feature-settings:normal;text-align:start;writing-mode:lr-tb;text-anchor:start;fill:#ffed00;stroke-width:1.02562177"
   id="text77"><path
     d="m 27.263303,98.300763 q -2.439323,0 -2.829615,3.707767 -0.09757,0.48787 -0.09757,0.87816 0,1.85388 1.268448,7.12282 0.683011,2.82962 2.244177,8.2937 4.390781,15.80681 5.36651,24.68594 1.366021,-8.39127 1.658739,-16.09953 v -2.73204 q 0,-2.92718 0.585438,-3.90291 H 35.557 l 3.415052,-2.92719 q 2.439322,1.26845 2.439322,6.04952 0,2.82961 -0.68301,7.12282 -0.68301,5.7568 -3.415052,18.92915 4.098062,-1.95146 8.098552,-6.04952 7.903405,-8.2937 8.000978,-18.14856 0,-13.75778 -11.806322,-21.56362 -4.878645,-3.2199 -10.73302,-4.683497 -0.487864,0 -1.561166,0 -0.975729,-0.09757 -1.463594,-0.09757 -0.09757,-0.585437 -0.585437,-0.585437 z m 17.563123,53.372377 q 7.805833,2.24418 7.903406,7.70826 0,8.58642 -10.928166,11.9039 -4.195635,1.17087 -9.269426,1.36602 v 0.39029 q 0,0.0976 0.09757,0.39029 l 0.195145,0.29272 h -0.09757 q -1.170875,-0.0976 -3.415052,-1.17087 -8.293697,-0.58544 -11.806322,-3.90292 -0.390292,-0.39029 -1.756312,-2.73204 -0.195146,-0.39029 -0.390292,-0.68301 l 0.09757,-0.19515 q 2.732041,0.19515 4.585926,0.48787 2.34175,0.39029 7.317969,0.39029 h 0.585437 q 0.878156,-4.09806 1.170875,-8.19613 -0.292719,0 -0.878156,0 -0.585438,0.0976 -0.878156,0.0976 -2.829615,0 -3.902917,-2.24418 -0.292718,-0.68301 -0.292718,-1.26845 0.09757,-3.31748 6.244666,-3.90291 -0.195146,-12.58691 -5.854375,-30.15003 -3.70777,-11.61118 -4.098062,-12.78205 -0.68301,-3.12234 -0.68301,-5.65923 0,-5.854377 5.561655,-8.196127 2.34175,-0.975729 4.878646,-0.975729 2.927187,0 7.805832,2.244177 12.977197,5.951949 19.417009,18.636429 2.536896,4.97621 2.536896,11.61117 0,5.65923 -2.049031,10.92817 -4.098062,9.46457 -12.099041,15.61166 z m -5.464083,3.21991 q -2.146604,1.0733 -3.610197,1.56117 -1.463594,6.63495 -1.951459,8.9767 2.634469,-0.39029 8.488843,-2.24417 2.634469,-0.97573 3.707771,-2.14661 -0.975729,-4.39078 -6.634958,-6.14709 z"
     style="font-style:normal;font-variant:normal;font-weight:normal;font-stretch:normal;font-size:99.91465759px;font-family:'a Angkanya Sebelas';-inkscape-font-specification:'a Angkanya Sebelas, Normal';font-variant-ligatures:normal;font-variant-caps:normal;font-variant-numeric:normal;font-feature-settings:normal;text-align:start;writing-mode:lr-tb;text-anchor:start;fill:#ffed00;stroke-width:1.02562177"
     id="path163" /><path
     d="m 67.756059,152.45373 q 0.09757,0.68301 0.390292,0.78058 0.09757,0 0.195146,-0.19515 l 0.09757,-0.0976 q 7.025249,-1.85388 15.318946,-11.5136 -1.561166,-0.58544 -2.634468,-0.58544 -5.756802,0 -10.440301,5.65923 -1.853886,2.24418 -2.634469,4.39078 0,0 -0.09757,0.29272 -0.195146,0.87815 -0.195146,1.26845 z m 19.514582,-7.70826 q -15.026228,11.70875 -20.78303,11.80632 -3.70777,-0.19515 -3.805343,-4.87865 0,-5.46408 5.561656,-11.02574 1.170875,-1.0733 2.146604,-1.85388 6.439812,-4.48835 12.001467,-4.48835 3.219906,0.0976 5.854375,1.95145 1.170875,-0.97573 2.34175,-0.97573 2.927187,0 3.317479,2.5369 0.09757,0.29272 0.195145,1.17088 0,0.87815 0.09757,1.26844 0,0.29272 -0.390291,1.95146 -1.268448,6.34224 -1.268448,9.26943 0.09757,4.39078 2.439323,4.48835 2.634468,0 7.122819,-6.04952 1.56117,-2.04903 2.14661,-3.31748 l 2.53689,1.85389 q -2.34175,4.97622 -7.415539,8.39127 -3.122333,2.04903 -5.561655,2.04903 -6.342239,0 -6.830104,-7.51312 -0.09757,-0.78058 -0.09757,-1.46359 0,-1.95146 0.390292,-5.17136 z"
     style="font-style:normal;font-variant:normal;font-weight:normal;font-stretch:normal;font-size:99.91465759px;font-family:'a Angkanya Sebelas';-inkscape-font-specification:'a Angkanya Sebelas, Normal';font-variant-ligatures:normal;font-variant-caps:normal;font-variant-numeric:normal;font-feature-settings:normal;text-align:start;writing-mode:lr-tb;text-anchor:start;fill:#ffed00;stroke-width:1.02562177"
     id="path165" /><path
     d="m 105.02891,134.69546 q 0.0976,-0.19515 0.0976,-0.29272 h 2.34175 q 5.26894,0 5.46409,0.97573 0,0.58544 -1.26845,6.43981 -0.68301,3.21991 -0.78058,3.90292 -0.19515,1.0733 -0.78059,6.43981 -0.48786,-0.0976 -0.97573,-0.0976 -0.29272,0.0976 -0.39029,0.19515 0,0.68301 1.56117,1.36602 0.29272,0.0976 0.39029,0.0976 3.51262,0 9.65972,-14.44079 1.56116,-3.90291 2.34175,-6.34224 0,-0.39029 -0.0976,-1.17087 v -0.68301 q 0.0976,-0.19515 0.0976,-0.19515 h 2.1466 q 4.87865,0 5.07379,0.78059 0,0.0976 -0.0976,0.0976 v 0.0976 l 0.0976,0.0976 h -0.0976 q 0,0.29271 -1.85389,8.68398 -2.1466,11.9039 -2.24417,16.09953 0,1.95146 0.19514,2.04904 0.19515,-0.19515 0.29272,-0.78059 8.58642,-1.46359 13.26992,-11.41603 l 2.53689,1.85389 q -2.34175,4.87864 -7.61068,9.65972 -5.26894,4.58592 -9.367,4.68349 -5.36651,-0.19514 -5.46409,-7.12282 0,-2.73204 1.4636,-9.56214 -0.58544,0.78058 -1.85389,2.53689 -0.87815,1.26845 -1.26845,1.75632 -0.29271,0.39029 -0.97572,1.36602 -3.51263,4.97621 -6.24467,6.04952 -1.17088,0.48786 -2.34175,0.48786 -4.48835,-0.0976 -4.48835,-8.78156 0,-1.0733 0.97573,-7.51311 0.29271,-2.24418 0.29271,-4.19564 0,-0.19515 -0.0976,-1.56117 0,-1.36602 0,-1.56116 z"
     style="font-style:normal;font-variant:normal;font-weight:normal;font-stretch:normal;font-size:99.91465759px;font-family:'a Angkanya Sebelas';-inkscape-font-specification:'a Angkanya Sebelas, Normal';font-variant-ligatures:normal;font-variant-caps:normal;font-variant-numeric:normal;font-feature-settings:normal;text-align:start;writing-mode:lr-tb;text-anchor:start;fill:#ffed00;stroke-width:1.02562177"
     id="path167" /><path
     d="m 138.88671,137.52507 q 0,0 0.39029,-0.58544 0.68301,-0.58543 2.04903,-0.58543 3.90292,0 4.6835,3.41505 0.0976,0.68301 0.0976,1.26845 0,2.63446 -0.58544,5.26893 3.6102,-5.17136 3.80534,-5.46408 0.48787,-0.68301 1.36602,-2.43932 2.14661,-4.39078 4.19564,-5.36651 1.0733,-0.39029 2.1466,-0.39029 5.26894,0.19514 5.26894,11.41603 0,14.44079 3.80534,14.53836 3.6102,-0.19515 9.17185,-12.00147 l 2.63447,1.85389 q -4.6835,10.05001 -10.92816,12.39176 -1.4636,0.58543 -2.73204,0.58543 -5.36651,0 -7.80584,-7.9034 -1.65874,-5.26894 -1.65874,-13.17234 v -0.19515 l -3.61019,4.78107 q -6.43982,8.58642 -8.48885,12.87963 -0.87815,2.1466 -1.26844,2.34175 -0.48787,0.19514 -1.07331,0.19514 -0.19514,-0.0976 -3.70777,-0.48786 0,-0.97573 1.95146,-11.9039 0.29272,-7.41554 0.29272,-10.4403 z"
     style="font-style:normal;font-variant:normal;font-weight:normal;font-stretch:normal;font-size:99.91465759px;font-family:'a Angkanya Sebelas';-inkscape-font-specification:'a Angkanya Sebelas, Normal';font-variant-ligatures:normal;font-variant-caps:normal;font-variant-numeric:normal;font-feature-settings:normal;text-align:start;writing-mode:lr-tb;text-anchor:start;fill:#ffed00;stroke-width:1.02562177"
     id="path169" /><path
     d="m 179.08674,162.79645 q -5.36651,-0.19514 -5.46408,-7.12282 0,-5.65923 2.14661,-12.97719 0.68301,-1.95146 0.97572,-2.04904 3.90292,-0.78058 6.04953,-0.78058 1.75631,0.0976 1.85388,0.97573 -0.0976,0.87816 -1.36602,3.12233 -3.51263,6.92768 -3.51263,12.78205 0,1.95146 0.19515,2.04904 0.19515,-0.19515 0.29272,-0.78059 8.58642,-1.46359 13.26991,-11.41603 l 2.5369,1.85389 q -2.34175,4.87864 -7.61069,9.65972 -5.26893,4.58592 -9.367,4.68349 z m 0.68301,-34.83352 q 0,-0.29272 0,-0.97573 0.0976,-0.68301 0.0976,-0.97573 v -1.65874 l 6.92767,-3.90292 q 1.36602,1.75632 1.36602,4.19564 0,4.39078 -2.53689,8.00098 -1.36602,1.26844 -2.92719,1.36602 -2.82961,-0.19515 -2.92719,-6.04952 z"
     style="font-style:normal;font-variant:normal;font-weight:normal;font-stretch:normal;font-size:99.91465759px;font-family:'a Angkanya Sebelas';-inkscape-font-specification:'a Angkanya Sebelas, Normal';font-variant-ligatures:normal;font-variant-caps:normal;font-variant-numeric:normal;font-feature-settings:normal;text-align:start;writing-mode:lr-tb;text-anchor:start;fill:#ffed00;stroke-width:1.02562177"
     id="path171" /><path
     d="m 210.99308,99.374065 q 1.85389,0 2.92719,1.951455 0.48786,0.97573 0.48786,1.95146 0,0.29272 -0.0976,0.87816 0,0.58543 0,0.87815 v 0.0976 q -4.48835,21.75875 -14.92865,38.73644 -1.07331,1.85389 -2.14661,3.41505 -0.29272,2.5369 -0.29272,4.97622 0.58544,8.58642 3.6102,9.07428 4.39078,0 10.14758,-8.97671 1.85389,-2.82961 3.21991,-5.7568 l 2.63447,1.85389 q -3.41505,7.31797 -9.75729,12.48933 -4.48836,3.6102 -7.90341,3.70777 -6.14709,-0.19515 -6.24466,-13.36749 0,-21.56361 11.12331,-45.66412 0.19514,-0.39029 0.48786,-1.17087 0.78059,-2.04904 1.56117,-2.63447 3.51262,-2.439325 5.17136,-2.439325 z m -1.85388,9.171855 q -3.21991,4.97622 -6.43981,14.92865 -3.41506,10.63545 -4.78108,18.53886 4.6835,-8.48885 9.26943,-22.73449 1.85388,-6.04952 1.95146,-10.73302 z"
     style="font-style:normal;font-variant:normal;font-weight:normal;font-stretch:normal;font-size:99.91465759px;font-family:'a Angkanya Sebelas';-inkscape-font-specification:'a Angkanya Sebelas, Normal';font-variant-ligatures:normal;font-variant-caps:normal;font-variant-numeric:normal;font-feature-settings:normal;text-align:start;writing-mode:lr-tb;text-anchor:start;fill:#ffed00;stroke-width:1.02562177"
     id="path173" /><path
     d="m 230.80038,108.54592 q -3.02476,4.6835 -6.34223,14.92865 -2.73205,9.17186 -3.90292,14.44079 5.56165,-9.367 8.39127,-18.63642 1.75631,-5.65923 1.85388,-10.73302 z m -11.41603,35.02867 q -0.68301,4.19564 -0.78058,6.92768 1.75631,-3.02476 4.78107,-8.19613 1.07331,-1.75631 1.26845,-2.1466 2.92719,-4.39078 3.70777,-5.17136 2.43932,-2.34175 5.17137,-2.34175 5.17136,0 5.56165,13.95292 0,1.4636 0,3.31748 v 4.6835 2.73204 q 0.0976,5.46408 1.85389,5.56166 3.31748,-0.0976 10.83059,-16.29468 l 2.63447,1.85389 q -9.367,19.41701 -14.73351,19.51458 -6.8301,0 -7.70826,-10.73302 -0.19515,-2.34175 -0.19515,-6.14709 v -3.31748 q 0,-1.4636 -0.29272,-4.19564 -0.19514,-2.24417 -0.19514,-3.2199 v -0.0976 l -3.6102,4.6835 q -4.39078,5.85438 -8.68399,15.31895 -0.97573,2.43932 -1.36602,2.63447 -0.39029,0.19514 -1.0733,0.19514 0,0 -3.80534,-0.29272 -0.19515,-0.0976 -0.29272,-0.19514 0,-21.27089 8.19612,-44.98111 2.24418,-6.63496 4.78107,-12.00147 0.19515,-0.39029 0.48787,-1.17087 0.78058,-2.04904 1.56117,-2.63447 3.51262,-2.439325 5.26893,-2.439325 1.85389,0 2.92719,1.951455 0.48786,0.97573 0.48786,1.95146 0,0.29272 -0.0976,0.87816 -0.0976,0.58543 -0.0976,0.87815 v 0.0976 q -4.00049,19.61215 -16.5874,38.44372 z m -2.53689,10.05001 -0.48787,0.87816 q 0.0976,-0.19515 0.48787,-0.87816 z"
     style="font-style:normal;font-variant:normal;font-weight:normal;font-stretch:normal;font-size:99.91465759px;font-family:'a Angkanya Sebelas';-inkscape-font-specification:'a Angkanya Sebelas, Normal';font-variant-ligatures:normal;font-variant-caps:normal;font-variant-numeric:normal;font-feature-settings:normal;text-align:start;writing-mode:lr-tb;text-anchor:start;fill:#ffed00;stroke-width:1.02562177"
     id="path175" /><path
     d="m 255.68148,152.45373 q 0.0976,0.68301 0.39029,0.78058 0.0976,0 0.19515,-0.19515 l 0.0976,-0.0976 q 7.02525,-1.85388 15.31895,-11.5136 -1.56117,-0.58544 -2.63447,-0.58544 -5.75681,0 -10.4403,5.65923 -1.85389,2.24418 -2.63447,4.39078 0,0 -0.0976,0.29272 -0.19514,0.87815 -0.19514,1.26845 z m 19.51458,-7.70826 q -15.02623,11.70875 -20.78303,11.80632 -3.70777,-0.19515 -3.80534,-4.87865 0,-5.46408 5.56165,-11.02574 1.17088,-1.0733 2.14661,-1.85388 6.43981,-4.48835 12.00146,-4.48835 3.21991,0.0976 5.85438,1.95145 1.17087,-0.97573 2.34175,-0.97573 2.92719,0 3.31748,2.5369 0.0976,0.29272 0.19514,1.17088 0,0.87815 0.0976,1.26844 0,0.29272 -0.3903,1.95146 -1.26844,6.34224 -1.26844,9.26943 0.0976,4.39078 2.43932,4.48835 2.63447,0 7.12282,-6.04952 1.56117,-2.04903 2.14661,-3.31748 l 2.53689,1.85389 q -2.34175,4.97622 -7.41554,8.39127 -3.12233,2.04903 -5.56166,2.04903 -6.34223,0 -6.8301,-7.51312 -0.0976,-0.78058 -0.0976,-1.46359 0,-1.95146 0.39029,-5.17136 z"
     style="font-style:normal;font-variant:normal;font-weight:normal;font-stretch:normal;font-size:99.91465759px;font-family:'a Angkanya Sebelas';-inkscape-font-specification:'a Angkanya Sebelas, Normal';font-variant-ligatures:normal;font-variant-caps:normal;font-variant-numeric:normal;font-feature-settings:normal;text-align:start;writing-mode:lr-tb;text-anchor:start;fill:#ffed00;stroke-width:1.02562177"
     id="path177" /></g><g
   aria-label="Baunilha"
   transform="scale(1.0256218,0.97501831)"
   style="font-style:normal;font-variant:normal;font-weight:normal;font-stretch:normal;font-size:99.91465759px;font-family:'a Angkanya Sebelas';-inkscape-font-specification:'a Angkanya Sebelas, Normal';font-variant-ligatures:normal;font-variant-caps:normal;font-variant-numeric:normal;font-feature-settings:normal;text-align:start;writing-mode:lr-tb;text-anchor:start;fill:none;stroke:#ffed00;stroke-width:21.03796387;stroke-linecap:round;stroke-linejoin:round;stroke-miterlimit:10"
   id="text72"><path
     d="m 27.263303,98.300763 q -2.439323,0 -2.829615,3.707767 -0.09757,0.48787 -0.09757,0.87816 0,1.85388 1.268448,7.12282 0.683011,2.82962 2.244177,8.2937 4.390781,15.80681 5.36651,24.68594 1.366021,-8.39127 1.658739,-16.09953 v -2.73204 q 0,-2.92718 0.585438,-3.90291 H 35.557 l 3.415052,-2.92719 q 2.439322,1.26845 2.439322,6.04952 0,2.82961 -0.68301,7.12282 -0.68301,5.7568 -3.415052,18.92915 4.098062,-1.95146 8.098552,-6.04952 7.903405,-8.2937 8.000978,-18.14856 0,-13.75778 -11.806322,-21.56362 -4.878645,-3.2199 -10.73302,-4.683497 -0.487864,0 -1.561166,0 -0.975729,-0.09757 -1.463594,-0.09757 -0.09757,-0.585437 -0.585437,-0.585437 z m 17.563123,53.372377 q 7.805833,2.24418 7.903406,7.70826 0,8.58642 -10.928166,11.9039 -4.195635,1.17087 -9.269426,1.36602 v 0.39029 q 0,0.0976 0.09757,0.39029 l 0.195145,0.29272 h -0.09757 q -1.170875,-0.0976 -3.415052,-1.17087 -8.293697,-0.58544 -11.806322,-3.90292 -0.390292,-0.39029 -1.756312,-2.73204 -0.195146,-0.39029 -0.390292,-0.68301 l 0.09757,-0.19515 q 2.732041,0.19515 4.585926,0.48787 2.34175,0.39029 7.317969,0.39029 h 0.585437 q 0.878156,-4.09806 1.170875,-8.19613 -0.292719,0 -0.878156,0 -0.585438,0.0976 -0.878156,0.0976 -2.829615,0 -3.902917,-2.24418 -0.292718,-0.68301 -0.292718,-1.26845 0.09757,-3.31748 6.244666,-3.90291 -0.195146,-12.58691 -5.854375,-30.15003 -3.70777,-11.61118 -4.098062,-12.78205 -0.68301,-3.12234 -0.68301,-5.65923 0,-5.854377 5.561655,-8.196127 2.34175,-0.975729 4.878646,-0.975729 2.927187,0 7.805832,2.244177 12.977197,5.951949 19.417009,18.636429 2.536896,4.97621 2.536896,11.61117 0,5.65923 -2.049031,10.92817 -4.098062,9.46457 -12.099041,15.61166 z m -5.464083,3.21991 q -2.146604,1.0733 -3.610197,1.56117 -1.463594,6.63495 -1.951459,8.9767 2.634469,-0.39029 8.488843,-2.24417 2.634469,-0.97573 3.707771,-2.14661 -0.975729,-4.39078 -6.634958,-6.14709 z"
     style="font-style:normal;font-variant:normal;font-weight:normal;font-stretch:normal;font-size:99.91465759px;font-family:'a Angkanya Sebelas';-inkscape-font-specification:'a Angkanya Sebelas, Normal';font-variant-ligatures:normal;font-variant-caps:normal;font-variant-numeric:normal;font-feature-settings:normal;text-align:start;writing-mode:lr-tb;text-anchor:start;fill:none;stroke:#ffed00;stroke-width:21.03796387;stroke-linecap:round;stroke-linejoin:round;stroke-miterlimit:10"
     id="path146" /><path
     d="m 67.756059,152.45373 q 0.09757,0.68301 0.390292,0.78058 0.09757,0 0.195146,-0.19515 l 0.09757,-0.0976 q 7.025249,-1.85388 15.318946,-11.5136 -1.561166,-0.58544 -2.634468,-0.58544 -5.756802,0 -10.440301,5.65923 -1.853886,2.24418 -2.634469,4.39078 0,0 -0.09757,0.29272 -0.195146,0.87815 -0.195146,1.26845 z m 19.514582,-7.70826 q -15.026228,11.70875 -20.78303,11.80632 -3.70777,-0.19515 -3.805343,-4.87865 0,-5.46408 5.561656,-11.02574 1.170875,-1.0733 2.146604,-1.85388 6.439812,-4.48835 12.001467,-4.48835 3.219906,0.0976 5.854375,1.95145 1.170875,-0.97573 2.34175,-0.97573 2.927187,0 3.317479,2.5369 0.09757,0.29272 0.195145,1.17088 0,0.87815 0.09757,1.26844 0,0.29272 -0.390291,1.95146 -1.268448,6.34224 -1.268448,9.26943 0.09757,4.39078 2.439323,4.48835 2.634468,0 7.122819,-6.04952 1.56117,-2.04903 2.14661,-3.31748 l 2.53689,1.85389 q -2.34175,4.97622 -7.415539,8.39127 -3.122333,2.04903 -5.561655,2.04903 -6.342239,0 -6.830104,-7.51312 -0.09757,-0.78058 -0.09757,-1.46359 0,-1.95146 0.390292,-5.17136 z"
     style="font-style:normal;font-variant:normal;font-weight:normal;font-stretch:normal;font-size:99.91465759px;font-family:'a Angkanya Sebelas';-inkscape-font-specification:'a Angkanya Sebelas, Normal';font-variant-ligatures:normal;font-variant-caps:normal;font-variant-numeric:normal;font-feature-settings:normal;text-align:start;writing-mode:lr-tb;text-anchor:start;fill:none;stroke:#ffed00;stroke-width:21.03796387;stroke-linecap:round;stroke-linejoin:round;stroke-miterlimit:10"
     id="path148" /><path
     d="m 105.02891,134.69546 q 0.0976,-0.19515 0.0976,-0.29272 h 2.34175 q 5.26894,0 5.46409,0.97573 0,0.58544 -1.26845,6.43981 -0.68301,3.21991 -0.78058,3.90292 -0.19515,1.0733 -0.78059,6.43981 -0.48786,-0.0976 -0.97573,-0.0976 -0.29272,0.0976 -0.39029,0.19515 0,0.68301 1.56117,1.36602 0.29272,0.0976 0.39029,0.0976 3.51262,0 9.65972,-14.44079 1.56116,-3.90291 2.34175,-6.34224 0,-0.39029 -0.0976,-1.17087 v -0.68301 q 0.0976,-0.19515 0.0976,-0.19515 h 2.1466 q 4.87865,0 5.07379,0.78059 0,0.0976 -0.0976,0.0976 v 0.0976 l 0.0976,0.0976 h -0.0976 q 0,0.29271 -1.85389,8.68398 -2.1466,11.9039 -2.24417,16.09953 0,1.95146 0.19514,2.04904 0.19515,-0.19515 0.29272,-0.78059 8.58642,-1.46359 13.26992,-11.41603 l 2.53689,1.85389 q -2.34175,4.87864 -7.61068,9.65972 -5.26894,4.58592 -9.367,4.68349 -5.36651,-0.19514 -5.46409,-7.12282 0,-2.73204 1.4636,-9.56214 -0.58544,0.78058 -1.85389,2.53689 -0.87815,1.26845 -1.26845,1.75632 -0.29271,0.39029 -0.97572,1.36602 -3.51263,4.97621 -6.24467,6.04952 -1.17088,0.48786 -2.34175,0.48786 -4.48835,-0.0976 -4.48835,-8.78156 0,-1.0733 0.97573,-7.51311 0.29271,-2.24418 0.29271,-4.19564 0,-0.19515 -0.0976,-1.56117 0,-1.36602 0,-1.56116 z"
     style="font-style:normal;font-variant:normal;font-weight:normal;font-stretch:normal;font-size:99.91465759px;font-family:'a Angkanya Sebelas';-inkscape-font-specification:'a Angkanya Sebelas, Normal';font-variant-ligatures:normal;font-variant-caps:normal;font-variant-numeric:normal;font-feature-settings:normal;text-align:start;writing-mode:lr-tb;text-anchor:start;fill:none;stroke:#ffed00;stroke-width:21.03796387;stroke-linecap:round;stroke-linejoin:round;stroke-miterlimit:10"
     id="path150" /><path
     d="m 138.88671,137.52507 q 0,0 0.39029,-0.58544 0.68301,-0.58543 2.04903,-0.58543 3.90292,0 4.6835,3.41505 0.0976,0.68301 0.0976,1.26845 0,2.63446 -0.58544,5.26893 3.6102,-5.17136 3.80534,-5.46408 0.48787,-0.68301 1.36602,-2.43932 2.14661,-4.39078 4.19564,-5.36651 1.0733,-0.39029 2.1466,-0.39029 5.26894,0.19514 5.26894,11.41603 0,14.44079 3.80534,14.53836 3.6102,-0.19515 9.17185,-12.00147 l 2.63447,1.85389 q -4.6835,10.05001 -10.92816,12.39176 -1.4636,0.58543 -2.73204,0.58543 -5.36651,0 -7.80584,-7.9034 -1.65874,-5.26894 -1.65874,-13.17234 v -0.19515 l -3.61019,4.78107 q -6.43982,8.58642 -8.48885,12.87963 -0.87815,2.1466 -1.26844,2.34175 -0.48787,0.19514 -1.07331,0.19514 -0.19514,-0.0976 -3.70777,-0.48786 0,-0.97573 1.95146,-11.9039 0.29272,-7.41554 0.29272,-10.4403 z"
     style="font-style:normal;font-variant:normal;font-weight:normal;font-stretch:normal;font-size:99.91465759px;font-family:'a Angkanya Sebelas';-inkscape-font-specification:'a Angkanya Sebelas, Normal';font-variant-ligatures:normal;font-variant-caps:normal;font-variant-numeric:normal;font-feature-settings:normal;text-align:start;writing-mode:lr-tb;text-anchor:start;fill:none;stroke:#ffed00;stroke-width:21.03796387;stroke-linecap:round;stroke-linejoin:round;stroke-miterlimit:10"
     id="path152" /><path
     d="m 179.08674,162.79645 q -5.36651,-0.19514 -5.46408,-7.12282 0,-5.65923 2.14661,-12.97719 0.68301,-1.95146 0.97572,-2.04904 3.90292,-0.78058 6.04953,-0.78058 1.75631,0.0976 1.85388,0.97573 -0.0976,0.87816 -1.36602,3.12233 -3.51263,6.92768 -3.51263,12.78205 0,1.95146 0.19515,2.04904 0.19515,-0.19515 0.29272,-0.78059 8.58642,-1.46359 13.26991,-11.41603 l 2.5369,1.85389 q -2.34175,4.87864 -7.61069,9.65972 -5.26893,4.58592 -9.367,4.68349 z m 0.68301,-34.83352 q 0,-0.29272 0,-0.97573 0.0976,-0.68301 0.0976,-0.97573 v -1.65874 l 6.92767,-3.90292 q 1.36602,1.75632 1.36602,4.19564 0,4.39078 -2.53689,8.00098 -1.36602,1.26844 -2.92719,1.36602 -2.82961,-0.19515 -2.92719,-6.04952 z"
     style="font-style:normal;font-variant:normal;font-weight:normal;font-stretch:normal;font-size:99.91465759px;font-family:'a Angkanya Sebelas';-inkscape-font-specification:'a Angkanya Sebelas, Normal';font-variant-ligatures:normal;font-variant-caps:normal;font-variant-numeric:normal;font-feature-settings:normal;text-align:start;writing-mode:lr-tb;text-anchor:start;fill:none;stroke:#ffed00;stroke-width:21.03796387;stroke-linecap:round;stroke-linejoin:round;stroke-miterlimit:10"
     id="path154" /><path
     d="m 210.99308,99.374065 q 1.85389,0 2.92719,1.951455 0.48786,0.97573 0.48786,1.95146 0,0.29272 -0.0976,0.87816 0,0.58543 0,0.87815 v 0.0976 q -4.48835,21.75875 -14.92865,38.73644 -1.07331,1.85389 -2.14661,3.41505 -0.29272,2.5369 -0.29272,4.97622 0.58544,8.58642 3.6102,9.07428 4.39078,0 10.14758,-8.97671 1.85389,-2.82961 3.21991,-5.7568 l 2.63447,1.85389 q -3.41505,7.31797 -9.75729,12.48933 -4.48836,3.6102 -7.90341,3.70777 -6.14709,-0.19515 -6.24466,-13.36749 0,-21.56361 11.12331,-45.66412 0.19514,-0.39029 0.48786,-1.17087 0.78059,-2.04904 1.56117,-2.63447 3.51262,-2.439325 5.17136,-2.439325 z m -1.85388,9.171855 q -3.21991,4.97622 -6.43981,14.92865 -3.41506,10.63545 -4.78108,18.53886 4.6835,-8.48885 9.26943,-22.73449 1.85388,-6.04952 1.95146,-10.73302 z"
     style="font-style:normal;font-variant:normal;font-weight:normal;font-stretch:normal;font-size:99.91465759px;font-family:'a Angkanya Sebelas';-inkscape-font-specification:'a Angkanya Sebelas, Normal';font-variant-ligatures:normal;font-variant-caps:normal;font-variant-numeric:normal;font-feature-settings:normal;text-align:start;writing-mode:lr-tb;text-anchor:start;fill:none;stroke:#ffed00;stroke-width:21.03796387;stroke-linecap:round;stroke-linejoin:round;stroke-miterlimit:10"
     id="path156" /><path
     d="m 230.80038,108.54592 q -3.02476,4.6835 -6.34223,14.92865 -2.73205,9.17186 -3.90292,14.44079 5.56165,-9.367 8.39127,-18.63642 1.75631,-5.65923 1.85388,-10.73302 z m -11.41603,35.02867 q -0.68301,4.19564 -0.78058,6.92768 1.75631,-3.02476 4.78107,-8.19613 1.07331,-1.75631 1.26845,-2.1466 2.92719,-4.39078 3.70777,-5.17136 2.43932,-2.34175 5.17137,-2.34175 5.17136,0 5.56165,13.95292 0,1.4636 0,3.31748 v 4.6835 2.73204 q 0.0976,5.46408 1.85389,5.56166 3.31748,-0.0976 10.83059,-16.29468 l 2.63447,1.85389 q -9.367,19.41701 -14.73351,19.51458 -6.8301,0 -7.70826,-10.73302 -0.19515,-2.34175 -0.19515,-6.14709 v -3.31748 q 0,-1.4636 -0.29272,-4.19564 -0.19514,-2.24417 -0.19514,-3.2199 v -0.0976 l -3.6102,4.6835 q -4.39078,5.85438 -8.68399,15.31895 -0.97573,2.43932 -1.36602,2.63447 -0.39029,0.19514 -1.0733,0.19514 0,0 -3.80534,-0.29272 -0.19515,-0.0976 -0.29272,-0.19514 0,-21.27089 8.19612,-44.98111 2.24418,-6.63496 4.78107,-12.00147 0.19515,-0.39029 0.48787,-1.17087 0.78058,-2.04904 1.56117,-2.63447 3.51262,-2.439325 5.26893,-2.439325 1.85389,0 2.92719,1.951455 0.48786,0.97573 0.48786,1.95146 0,0.29272 -0.0976,0.87816 -0.0976,0.58543 -0.0976,0.87815 v 0.0976 q -4.00049,19.61215 -16.5874,38.44372 z m -2.53689,10.05001 -0.48787,0.87816 q 0.0976,-0.19515 0.48787,-0.87816 z"
     style="font-style:normal;font-variant:normal;font-weight:normal;font-stretch:normal;font-size:99.91465759px;font-family:'a Angkanya Sebelas';-inkscape-font-specification:'a Angkanya Sebelas, Normal';font-variant-ligatures:normal;font-variant-caps:normal;font-variant-numeric:normal;font-feature-settings:normal;text-align:start;writing-mode:lr-tb;text-anchor:start;fill:none;stroke:#ffed00;stroke-width:21.03796387;stroke-linecap:round;stroke-linejoin:round;stroke-miterlimit:10"
     id="path158" /><path
     d="m 255.68148,152.45373 q 0.0976,0.68301 0.39029,0.78058 0.0976,0 0.19515,-0.19515 l 0.0976,-0.0976 q 7.02525,-1.85388 15.31895,-11.5136 -1.56117,-0.58544 -2.63447,-0.58544 -5.75681,0 -10.4403,5.65923 -1.85389,2.24418 -2.63447,4.39078 0,0 -0.0976,0.29272 -0.19514,0.87815 -0.19514,1.26845 z m 19.51458,-7.70826 q -15.02623,11.70875 -20.78303,11.80632 -3.70777,-0.19515 -3.80534,-4.87865 0,-5.46408 5.56165,-11.02574 1.17088,-1.0733 2.14661,-1.85388 6.43981,-4.48835 12.00146,-4.48835 3.21991,0.0976 5.85438,1.95145 1.17087,-0.97573 2.34175,-0.97573 2.92719,0 3.31748,2.5369 0.0976,0.29272 0.19514,1.17088 0,0.87815 0.0976,1.26844 0,0.29272 -0.3903,1.95146 -1.26844,6.34224 -1.26844,9.26943 0.0976,4.39078 2.43932,4.48835 2.63447,0 7.12282,-6.04952 1.56117,-2.04903 2.14661,-3.31748 l 2.53689,1.85389 q -2.34175,4.97622 -7.41554,8.39127 -3.12233,2.04903 -5.56166,2.04903 -6.34223,0 -6.8301,-7.51312 -0.0976,-0.78058 -0.0976,-1.46359 0,-1.95146 0.39029,-5.17136 z"
     style="font-style:normal;font-variant:normal;font-weight:normal;font-stretch:normal;font-size:99.91465759px;font-family:'a Angkanya Sebelas';-inkscape-font-specification:'a Angkanya Sebelas, Normal';font-variant-ligatures:normal;font-variant-caps:normal;font-variant-numeric:normal;font-feature-settings:normal;text-align:start;writing-mode:lr-tb;text-anchor:start;fill:none;stroke:#ffed00;stroke-width:21.03796387;stroke-linecap:round;stroke-linejoin:round;stroke-miterlimit:10"
     id="path160" /></g><g
   aria-label="Bolo"
   transform="matrix(1.2312518,-0.17268733,0.11799362,0.79563254,0,0)"
   style="font-style:normal;font-variant:normal;font-weight:normal;font-stretch:normal;font-size:99.91466522px;font-family:'a Angkanya Sebelas';-inkscape-font-specification:'a Angkanya Sebelas, Normal';font-variant-ligatures:normal;font-variant-caps:normal;font-variant-numeric:normal;font-feature-settings:normal;text-align:start;writing-mode:lr-tb;text-anchor:start;fill:#bf6416;stroke-width:1.24328756"
   id="text74"><path
     d="m 43.756426,44.234214 q -2.439323,0 -2.829615,3.707771 -0.09757,0.487865 -0.09757,0.878156 0,1.853886 1.268448,7.122823 0.68301,2.829615 2.244177,8.293698 4.390781,15.806812 5.36651,24.685947 1.366021,-8.39127 1.65874,-16.099531 v -2.732041 q 0,-2.927188 0.585437,-3.902917 h 0.09757 l 3.415052,-2.927187 q 2.439323,1.268448 2.439323,6.04952 0,2.829615 -0.68301,7.122823 -0.68301,5.756802 -3.415052,18.929146 4.098062,-1.951458 8.098552,-6.049521 7.903406,-8.293698 8.000979,-18.148562 0,-13.757781 -11.806323,-21.563614 -4.878646,-3.219907 -10.733021,-4.6835 -0.487864,0 -1.561166,0 -0.975729,-0.09757 -1.463594,-0.09757 -0.09757,-0.585438 -0.585437,-0.585438 z M 61.31955,97.606599 q 7.805834,2.244177 7.903406,7.708261 0,8.58642 -10.928166,11.90389 -4.195635,1.17088 -9.269427,1.36603 v 0.39029 q 0,0.0976 0.09757,0.39029 l 0.195146,0.29272 h -0.09757 q -1.170875,-0.0976 -3.415052,-1.17088 -8.293698,-0.58543 -11.806323,-3.90291 -0.390292,-0.3903 -1.756312,-2.73205 -0.195146,-0.39029 -0.390292,-0.68301 l 0.09757,-0.19514 q 2.732041,0.19514 4.585927,0.48786 2.34175,0.39029 7.317969,0.39029 h 0.585437 q 0.878156,-4.09806 1.170875,-8.19612 -0.292719,0 -0.878156,0 -0.585438,0.0976 -0.878156,0.0976 -2.829615,0 -3.902917,-2.24417 -0.292719,-0.68301 -0.292719,-1.26845 0.09757,-3.317482 6.244667,-3.902919 Q 45.707884,83.751245 40.048655,66.18812 36.340884,54.576943 35.950592,53.406068 q -0.68301,-3.122333 -0.68301,-5.659229 0,-5.854375 5.561656,-8.196125 2.34175,-0.975729 4.878646,-0.975729 2.927187,0 7.805833,2.244177 12.977198,5.951948 19.41701,18.636427 2.536896,4.976219 2.536896,11.611177 0,5.659229 -2.049031,10.928166 -4.098063,9.464573 -12.099042,15.611667 z m -5.464083,3.219911 q -2.146604,1.0733 -3.610198,1.56116 -1.463593,6.63496 -1.951458,8.97671 2.634469,-0.39029 8.488844,-2.24418 2.634468,-0.97573 3.70777,-2.1466 -0.975729,-4.39078 -6.634958,-6.14709 z"
     style="font-style:normal;font-variant:normal;font-weight:normal;font-stretch:normal;font-size:99.91466522px;font-family:'a Angkanya Sebelas';-inkscape-font-specification:'a Angkanya Sebelas, Normal';font-variant-ligatures:normal;font-variant-caps:normal;font-variant-numeric:normal;font-feature-settings:normal;text-align:start;writing-mode:lr-tb;text-anchor:start;fill:#bf6416;stroke-width:1.24328756"
     id="path137" /><path
     d="m 82.200155,85.409984 q 0,-4.878645 3.317479,-7.805833 1.658739,-1.366021 3.512625,-1.366021 4.878645,0 6.537385,6.34224 0.487865,2.049031 0.487865,4.098062 0,4.781073 -1.366021,9.757292 2.536896,1.073302 4.390781,1.073302 5.073791,-0.09757 7.317971,-4.976219 l 2.63447,1.853886 q -2.5369,5.171364 -9.074285,5.268937 -3.02476,0 -6.049521,-1.073302 -2.049031,5.464082 -5.36651,7.903402 -2.536896,1.85389 -4.6835,1.85389 -4.293208,-0.19515 -4.293208,-8.09855 0,-1.658742 0.195146,-3.6102 0.195146,-2.049031 0.487864,-3.707771 0.292719,-1.65874 0.487865,-3.02476 0.292719,-1.463594 0.585437,-2.244177 l 0.195146,-0.780584 q 0.585438,-0.975729 0.683011,-1.073302 z m 7.317968,7.513115 q 0.195146,-1.756313 0.195146,-2.732042 0,-5.756802 -1.951458,-7.02525 -0.487865,-0.195145 -0.780584,-0.195145 -0.487864,0.09757 -0.68301,0.780583 0.780583,0.878156 0.780583,2.146604 0,1.853885 -0.195145,2.634469 0.975729,2.634468 2.634468,4.390781 z m -0.487864,3.122333 q -2.536896,-1.853885 -3.610198,-2.927187 -1.756313,5.36651 -1.853886,8.098555 0.09757,3.80534 1.170875,3.90291 0.585438,-0.0976 1.073303,-0.68301 -0.195146,-0.29272 -0.195146,-0.29272 0,-0.39029 1.658739,-3.2199 0.292719,-0.48787 0.390292,-0.68301 0.780583,-1.951461 1.366021,-4.195638 z"
     style="font-style:normal;font-variant:normal;font-weight:normal;font-stretch:normal;font-size:99.91466522px;font-family:'a Angkanya Sebelas';-inkscape-font-specification:'a Angkanya Sebelas, Normal';font-variant-ligatures:normal;font-variant-caps:normal;font-variant-numeric:normal;font-feature-settings:normal;text-align:start;writing-mode:lr-tb;text-anchor:start;fill:#bf6416;stroke-width:1.24328756"
     id="path139" /><path
     d="m 123.86379,45.307516 q 1.85388,0 2.92718,1.951459 0.48787,0.975729 0.48787,1.951458 0,0.292719 -0.0976,0.878156 0,0.585438 0,0.878156 v 0.09757 q -4.48835,21.75876 -14.92865,38.736448 -1.0733,1.853885 -2.14661,3.415052 -0.29271,2.536896 -0.29271,4.976218 0.58543,8.586414 3.61019,9.074284 4.39078,0 10.14759,-8.976711 1.85388,-2.829614 3.2199,-5.756802 l 2.63447,1.853886 q -3.41505,7.317967 -9.75729,12.489337 -4.48835,3.61019 -7.90341,3.70777 -6.14709,-0.19515 -6.24466,-13.367493 0,-21.563614 11.12331,-45.664124 0.19515,-0.390292 0.48786,-1.170875 0.78059,-2.049031 1.56117,-2.634469 3.51263,-2.439323 5.17137,-2.439323 z m -1.85389,9.171854 q -3.21991,4.976219 -6.43981,14.928656 -3.41505,10.635448 -4.78108,18.538854 4.6835,-8.488843 9.26943,-22.734489 1.85389,-6.049521 1.95146,-10.733021 z"
     style="font-style:normal;font-variant:normal;font-weight:normal;font-stretch:normal;font-size:99.91466522px;font-family:'a Angkanya Sebelas';-inkscape-font-specification:'a Angkanya Sebelas, Normal';font-variant-ligatures:normal;font-variant-caps:normal;font-variant-numeric:normal;font-feature-settings:normal;text-align:start;writing-mode:lr-tb;text-anchor:start;fill:#bf6416;stroke-width:1.24328756"
     id="path141" /><path
     d="m 128.44971,85.409984 q 0,-4.878645 3.31748,-7.805833 1.65874,-1.366021 3.51263,-1.366021 4.87864,0 6.53738,6.34224 0.48787,2.049031 0.48787,4.098062 0,4.781073 -1.36602,9.757292 2.53689,1.073302 4.39078,1.073302 5.07379,-0.09757 7.31797,-4.976219 l 2.63446,1.853886 q -2.53689,5.171364 -9.07428,5.268937 -3.02476,0 -6.04952,-1.073302 -2.04903,5.464082 -5.36651,7.903402 -2.53689,1.85389 -4.6835,1.85389 -4.29321,-0.19515 -4.29321,-8.09855 0,-1.658742 0.19515,-3.6102 0.19515,-2.049031 0.48786,-3.707771 0.29272,-1.65874 0.48787,-3.02476 0.29272,-1.463594 0.58544,-2.244177 l 0.19514,-0.780584 q 0.58544,-0.975729 0.68301,-1.073302 z m 7.31797,7.513115 q 0.19515,-1.756313 0.19515,-2.732042 0,-5.756802 -1.95146,-7.02525 -0.48787,-0.195145 -0.78059,-0.195145 -0.48786,0.09757 -0.68301,0.780583 0.78059,0.878156 0.78059,2.146604 0,1.853885 -0.19515,2.634469 0.97573,2.634468 2.63447,4.390781 z m -0.48786,3.122333 q -2.5369,-1.853885 -3.6102,-2.927187 -1.75631,5.36651 -1.85389,8.098555 0.0976,3.80534 1.17088,3.90291 0.58544,-0.0976 1.0733,-0.68301 -0.19515,-0.29272 -0.19515,-0.29272 0,-0.39029 1.65874,-3.2199 0.29272,-0.48787 0.3903,-0.68301 0.78058,-1.951461 1.36602,-4.195638 z"
     style="font-style:normal;font-variant:normal;font-weight:normal;font-stretch:normal;font-size:99.91466522px;font-family:'a Angkanya Sebelas';-inkscape-font-specification:'a Angkanya Sebelas, Normal';font-variant-ligatures:normal;font-variant-caps:normal;font-variant-numeric:normal;font-feature-settings:normal;text-align:start;writing-mode:lr-tb;text-anchor:start;fill:#bf6416;stroke-width:1.24328756"
     id="path143" /></g><g
   aria-label="de"
   transform="scale(1.0273753,0.97335414)"
   style="font-style:normal;font-variant:normal;font-weight:normal;font-stretch:normal;font-size:99.91466522px;font-family:'a Angkanya Sebelas';-inkscape-font-specification:'a Angkanya Sebelas, Normal';font-variant-ligatures:normal;font-variant-caps:normal;font-variant-numeric:normal;font-feature-settings:normal;text-align:start;writing-mode:lr-tb;text-anchor:start;fill:#95c11f;stroke-width:1.02737534"
   id="text76"><path
     d="m 230.05086,62.497641 q 0.0976,0.68301 0.3903,0.780583 0.0976,0 0.19514,-0.195146 l 0.0976,-0.09757 q 7.02525,-1.853885 15.31895,-11.513604 -1.56116,-0.585437 -2.63447,-0.585437 -5.7568,0 -10.4403,5.659229 -1.85388,2.244177 -2.63447,4.390781 0,0 -0.0976,0.292719 -0.19515,0.878156 -0.19515,1.268448 z m 32.88208,-41.566062 q -5.85438,12.099041 -10.53788,34.83353 -2.1466,10.342729 -2.1466,14.635938 0.0976,4.098062 1.95146,4.195635 4.19563,0 10.53787,-10.635448 2.04903,-3.512625 3.80534,-7.317968 l 2.5369,1.853885 q -5.17136,11.025739 -12.39176,18.050989 -4.6835,4.293209 -8.00098,4.390782 -3.51262,-0.195146 -3.51262,-7.708261 0,-5.268937 2.92718,-17.465552 -14.0505,10.830594 -19.31943,10.830594 -3.70778,-0.195146 -3.80535,-4.878646 0,-5.464083 5.56166,-11.025739 1.17087,-1.073302 2.1466,-1.853886 6.43981,-4.488354 12.00147,-4.488354 3.02476,0.09757 5.46408,1.65874 4.58593,-22.636916 4.58593,-22.734489 0.29272,-1.853886 0.58544,-3.512625 0.39029,-0.487865 0.78058,-0.487865 0.78059,0 3.41505,0.683011 3.31748,0.195145 3.41506,0.780583 z"
     style="font-style:normal;font-variant:normal;font-weight:normal;font-stretch:normal;font-size:99.91466522px;font-family:'a Angkanya Sebelas';-inkscape-font-specification:'a Angkanya Sebelas, Normal';font-variant-ligatures:normal;font-variant-caps:normal;font-variant-numeric:normal;font-feature-settings:normal;text-align:start;writing-mode:lr-tb;text-anchor:start;fill:#95c11f;stroke-width:1.02737534"
     id="path132" /><path
     d="m 297.18103,56.643266 2.5369,1.853885 q -3.90292,8.488844 -12.29419,12.586906 -4.48835,2.146604 -8.78156,2.146604 -8.87914,0 -11.70875,-7.220395 -1.0733,-2.732042 -1.0733,-6.147094 0,-6.537385 7.02525,-13.660208 1.65873,-1.65874 3.41505,-3.024761 4.58592,-3.415052 7.80583,-3.415052 2.34175,0 3.51263,1.853886 0.39029,0.68301 0.39029,1.463593 0,6.537386 -14.0505,15.904386 -1.26845,0.878156 -2.43933,1.561166 0,0.09757 -0.0976,0.390292 0,0.292719 0,0.390292 0.68301,8.488843 7.80583,8.976708 6.04953,0 12.29419,-5.951948 3.70777,-3.512625 5.65923,-7.70826 z m -25.17381,1.073302 q 6.04952,-4.293209 9.95244,-11.70875 0.39029,-0.878156 0.68301,-1.561167 0.58543,0.585438 0.58543,0.585438 0.0976,-0.09757 0.19515,-0.195146 -0.0976,-1.073302 -0.78058,-1.756313 -0.0976,0.09757 -0.0976,0.195146 v 0.683011 q 0,1.073302 -2.92718,2.732041 -1.17088,0.683011 -1.4636,0.975729 -4.58592,4.488355 -6.14709,10.050011 z"
     style="font-style:normal;font-variant:normal;font-weight:normal;font-stretch:normal;font-size:99.91466522px;font-family:'a Angkanya Sebelas';-inkscape-font-specification:'a Angkanya Sebelas, Normal';font-variant-ligatures:normal;font-variant-caps:normal;font-variant-numeric:normal;font-feature-settings:normal;text-align:start;writing-mode:lr-tb;text-anchor:start;fill:#95c11f;stroke-width:1.02737534"
     id="path134" /></g><g
   aria-label="Amendoim"
   transform="scale(0.98994949,1.0101525)"
   style="font-style:normal;font-variant:normal;font-weight:normal;font-stretch:normal;font-size:99.91466522px;font-family:'a Angkanya Sebelas';-inkscape-font-specification:'a Angkanya Sebelas, Normal';font-variant-ligatures:normal;font-variant-caps:normal;font-variant-numeric:normal;font-feature-settings:normal;text-align:start;writing-mode:lr-tb;text-anchor:start;fill:#ea5f0b;stroke-width:0.98994946"
   id="text78"><path
     d="m 18.36838,139.02637 q 0,-10.34273 4.585927,-16.58739 3.122333,-4.09807 7.220396,-4.19564 2.536896,0.0976 4.781073,1.36602 2.146604,1.17088 6.732531,5.85438 1.463594,1.46359 2.34175,2.24417 4.781073,-9.56214 10.245156,-24.58837 2.049031,-6.049522 2.536896,-6.537387 0.09757,-0.09757 0.195146,-0.09757 1.073302,-0.195146 3.122333,-0.195146 3.805343,0 4.293208,2.439323 0.09757,0.780583 0.09757,1.658742 0,0.97573 -0.195146,3.2199 -2.34175,19.41701 -2.536896,21.07575 -0.390291,5.17137 -0.390291,9.26943 0,13.36749 4.195635,20.19759 0,0.19515 -0.195146,1.4636 -0.09757,0.48786 -0.09757,0.97573 -1.073302,0.78058 -2.049031,1.85388 -0.585437,0.58544 -0.878156,0.58544 -0.292719,-0.0976 -2.439323,-0.78058 -4.195635,-4.78108 -4.195635,-18.24614 0,-3.6102 0.09757,-5.46408 -1.951459,0.68301 -3.415053,0.68301 -3.805343,-0.0976 -7.025249,-2.24418 -2.634469,5.56166 -5.854375,10.83059 -4.00049,6.43982 -6.732531,8.48885 -2.536896,1.85388 -5.073792,1.85388 -7.610687,0 -9.074281,-10.63544 -0.292719,-2.14661 -0.292719,-4.48836 z m 24.198083,-8.48884 q -0.68301,-0.68301 -1.853885,-2.04903 -3.707771,-4.09807 -6.049521,-4.87865 -1.073302,-0.39029 -2.244177,-0.39029 -1.268448,0 -2.829615,0.48786 -2.049031,0.68301 -2.244177,1.26845 -0.09757,0.19515 -0.09757,0.29272 l 0.09757,0.0976 h 0.487865 q 0,0.29272 -1.170875,1.56117 -0.292719,0.29272 -0.390292,0.48786 -2.536896,5.0738 -2.536896,11.80633 0.09757,8.2937 4.976219,9.26942 0.195146,-0.0976 0.68301,-0.29271 0.390292,-0.19515 0.585438,-0.29272 0.09757,-0.58544 2.049031,-2.14661 0.195146,-0.19514 0.292719,-0.29272 3.317479,-3.2199 8.196125,-11.31845 0.487864,-0.87816 0.780583,-1.36602 0.195146,-0.3903 0.585438,-1.17088 0.487864,-0.68301 0.68301,-1.0733 z m 4.293208,-0.48787 q 2.927188,1.75632 6.147094,1.75632 1.65874,0 3.02476,-0.3903 0.09757,-1.36602 0.292719,-3.90291 0.195146,-2.34175 0.195146,-3.41505 0.09757,-1.26845 0.292719,-14.92866 -1.073302,2.1466 -9.854865,20.68546 -0.09757,0.0976 -0.09757,0.19514 z"
     style="font-style:normal;font-variant:normal;font-weight:normal;font-stretch:normal;font-size:99.91466522px;font-family:'a Angkanya Sebelas';-inkscape-font-specification:'a Angkanya Sebelas, Normal';font-variant-ligatures:normal;font-variant-caps:normal;font-variant-numeric:normal;font-feature-settings:normal;text-align:start;writing-mode:lr-tb;text-anchor:start;fill:#ea5f0b;stroke-width:0.98994946"
     id="path115" /><path
     d="m 113.98984,154.93076 v 0.19514 q 0.0976,0.68301 0.48786,0.78059 3.31748,0 9.46457,-9.65972 1.85389,-3.02476 2.92719,-5.26894 l 2.63447,1.85389 q -4.29321,8.9767 -9.85486,13.6602 -3.31748,2.82962 -6.24467,2.82962 -4.87865,-0.0976 -4.87865,-14.63594 0,-1.46359 0.29272,-6.8301 -6.92768,8.78156 -8.68399,10.63544 -0.292717,0.29272 -0.39029,0.3903 -0.390291,0.19514 -1.268447,0.78058 -2.244177,1.46359 -3.610198,1.46359 -6.147094,-0.0976 -6.147094,-14.0505 l -1.170875,1.07331 q -3.219906,3.51262 -9.562146,13.26991 -0.195145,0.19515 -0.292718,0.39029 -2.927188,4.29321 -5.366511,4.39078 -0.585437,0 -1.073302,-0.19514 -0.390291,-0.0976 -0.68301,-0.19515 -0.292719,-0.0976 -0.585438,-0.39029 -0.195145,-0.39029 -0.292718,-0.58544 -0.09757,-0.19514 -0.195146,-0.68301 -0.09757,-0.48786 -0.09757,-0.58543 0,-0.19515 0,-0.78059 l -0.09757,-0.58543 q 0.585437,-4.00049 3.902917,-15.70924 0.975729,-6.73254 2.146604,-8.58642 1.36602,-1.65874 3.317479,-1.75631 3.512625,0 4.390781,3.31748 0.09757,0.48786 0.09757,0.97573 0,1.0733 -1.366021,5.26893 -1.366021,4.00049 -1.463594,4.29321 l 2.634469,-3.80534 q 3.02476,-4.19564 3.122333,-4.29321 2.927188,-2.43932 5.171365,-2.5369 3.805344,0 4.293208,5.95195 0,0.58544 0,1.0733 0,0.58544 -0.292719,5.95195 0,1.46359 0.487865,3.41505 8.976709,-10.92816 10.147579,-12.97719 2.14661,-3.51263 2.92719,-4.29321 1.4636,-1.17088 3.12233,-1.17088 3.80535,0 4.09807,5.85438 0,0.78058 0,1.75631 -0.0976,2.43932 -0.97573,8.68399 -1.0733,8.19612 -1.0733,11.31846 z"
     style="font-style:normal;font-variant:normal;font-weight:normal;font-stretch:normal;font-size:99.91466522px;font-family:'a Angkanya Sebelas';-inkscape-font-specification:'a Angkanya Sebelas, Normal';font-variant-ligatures:normal;font-variant-caps:normal;font-variant-numeric:normal;font-feature-settings:normal;text-align:start;writing-mode:lr-tb;text-anchor:start;fill:#ea5f0b;stroke-width:0.98994946"
     id="path117" /><path
     d="m 157.60493,140.97783 2.53689,1.85389 q -3.90291,8.48884 -12.29418,12.5869 -4.48836,2.14661 -8.78157,2.14661 -8.87913,0 -11.70875,-7.2204 -1.0733,-2.73204 -1.0733,-6.14709 0,-6.53739 7.02525,-13.66021 1.65874,-1.65874 3.41505,-3.02476 4.58593,-3.41505 7.80584,-3.41505 2.34175,0 3.51262,1.85388 0.39029,0.68301 0.39029,1.46359 0,6.53739 -14.0505,15.90439 -1.26844,0.87816 -2.43932,1.56117 0,0.0976 -0.0976,0.39029 0,0.29272 0,0.39029 0.68301,8.48884 7.80583,8.97671 6.04952,0 12.29419,-5.95195 3.70777,-3.51262 5.65923,-7.70826 z m -25.17381,1.0733 q 6.04952,-4.29321 9.95243,-11.70875 0.39029,-0.87815 0.68301,-1.56116 0.58544,0.58543 0.58544,0.58543 0.0976,-0.0976 0.19515,-0.19514 -0.0976,-1.0733 -0.78059,-1.75632 -0.0976,0.0976 -0.0976,0.19515 v 0.68301 q 0,1.0733 -2.92719,2.73204 -1.17087,0.68301 -1.46359,0.97573 -4.58593,4.48836 -6.14709,10.05001 z"
     style="font-style:normal;font-variant:normal;font-weight:normal;font-stretch:normal;font-size:99.91466522px;font-family:'a Angkanya Sebelas';-inkscape-font-specification:'a Angkanya Sebelas, Normal';font-variant-ligatures:normal;font-variant-caps:normal;font-variant-numeric:normal;font-feature-settings:normal;text-align:start;writing-mode:lr-tb;text-anchor:start;fill:#ea5f0b;stroke-width:0.98994946"
     id="path119" /><path
     d="m 157.70251,131.90355 q 0,0 0.39029,-0.58544 0.68301,-0.58544 2.04903,-0.58544 3.90292,0 4.6835,3.41506 0.0976,0.68301 0.0976,1.26844 0,2.63447 -0.58544,5.26894 3.6102,-5.17136 3.80535,-5.46408 0.48786,-0.68301 1.36602,-2.43932 2.1466,-4.39079 4.19563,-5.36652 1.07331,-0.39029 2.14661,-0.39029 5.26894,0.19515 5.26894,11.41603 0,14.4408 3.80534,14.53837 3.6102,-0.19515 9.17185,-12.00147 l 2.63447,1.85389 q -4.6835,10.05001 -10.92816,12.39176 -1.4636,0.58543 -2.73205,0.58543 -5.36651,0 -7.80583,-7.9034 -1.65874,-5.26894 -1.65874,-13.17235 v -0.19514 l -3.6102,4.78107 q -6.43981,8.58642 -8.48884,12.87963 -0.87816,2.1466 -1.26845,2.34175 -0.48786,0.19514 -1.0733,0.19514 -0.19515,-0.0976 -3.70777,-0.48786 0,-0.97573 1.95146,-11.9039 0.29272,-7.41554 0.29272,-10.4403 z"
     style="font-style:normal;font-variant:normal;font-weight:normal;font-stretch:normal;font-size:99.91466522px;font-family:'a Angkanya Sebelas';-inkscape-font-specification:'a Angkanya Sebelas, Normal';font-variant-ligatures:normal;font-variant-caps:normal;font-variant-numeric:normal;font-feature-settings:normal;text-align:start;writing-mode:lr-tb;text-anchor:start;fill:#ea5f0b;stroke-width:0.98994946"
     id="path121" /><path
     d="m 197.80497,146.8322 q 0.0976,0.68302 0.39029,0.78059 0.0976,0 0.19515,-0.19515 l 0.0976,-0.0976 q 7.02525,-1.85389 15.31895,-11.5136 -1.56117,-0.58544 -2.63447,-0.58544 -5.7568,0 -10.4403,5.65923 -1.85389,2.24417 -2.63447,4.39078 0,0 -0.0976,0.29272 -0.19514,0.87815 -0.19514,1.26844 z m 32.88207,-41.56606 q -5.85437,12.09904 -10.53787,34.83353 -2.14661,10.34273 -2.14661,14.63594 0.0976,4.09806 1.95146,4.19564 4.19564,0 10.53787,-10.63545 2.04904,-3.51263 3.80535,-7.31797 l 2.53689,1.85389 q -5.17136,11.02573 -12.39176,18.05098 -4.6835,4.29321 -8.00098,4.39079 -3.51262,-0.19515 -3.51262,-7.70826 0,-5.26894 2.92719,-17.46556 -14.0505,10.8306 -19.31944,10.8306 -3.70777,-0.19515 -3.80534,-4.87865 0,-5.46408 5.56165,-11.02574 1.17088,-1.0733 2.14661,-1.85388 6.43981,-4.48836 12.00147,-4.48836 3.02476,0.0976 5.46408,1.65874 4.58593,-22.63691 4.58593,-22.73449 0.29271,-1.85388 0.58543,-3.51262 0.39029,-0.48787 0.78059,-0.48787 0.78058,0 3.41505,0.68301 3.31748,0.19515 3.41505,0.78059 z"
     style="font-style:normal;font-variant:normal;font-weight:normal;font-stretch:normal;font-size:99.91466522px;font-family:'a Angkanya Sebelas';-inkscape-font-specification:'a Angkanya Sebelas, Normal';font-variant-ligatures:normal;font-variant-caps:normal;font-variant-numeric:normal;font-feature-settings:normal;text-align:start;writing-mode:lr-tb;text-anchor:start;fill:#ea5f0b;stroke-width:0.98994946"
     id="path123" /><path
     d="m 235.95598,133.85501 q 0,-4.87865 3.31748,-7.80584 1.65874,-1.36602 3.51262,-1.36602 4.87865,0 6.53739,6.34224 0.48786,2.04903 0.48786,4.09806 0,4.78108 -1.36602,9.7573 2.5369,1.0733 4.39078,1.0733 5.0738,-0.0976 7.31797,-4.97622 l 2.63447,1.85389 q -2.53689,5.17136 -9.07428,5.26893 -3.02476,0 -6.04952,-1.0733 -2.04903,5.46408 -5.36651,7.90341 -2.5369,1.85388 -4.6835,1.85388 -4.29321,-0.19514 -4.29321,-8.09855 0,-1.65874 0.19515,-3.6102 0.19514,-2.04903 0.48786,-3.70777 0.29272,-1.65874 0.48787,-3.02476 0.29271,-1.46359 0.58543,-2.24418 l 0.19515,-0.78058 q 0.58544,-0.97573 0.68301,-1.0733 z m 7.31797,7.51311 q 0.19514,-1.75631 0.19514,-2.73204 0,-5.7568 -1.95145,-7.02525 -0.48787,-0.19515 -0.78059,-0.19515 -0.48786,0.0976 -0.68301,0.78059 0.78059,0.87815 0.78059,2.1466 0,1.85389 -0.19515,2.63447 0.97573,2.63447 2.63447,4.39078 z m -0.48787,3.12233 q -2.53689,-1.85388 -3.61019,-2.92718 -1.75632,5.36651 -1.85389,8.09855 0.0976,3.80534 1.17088,3.90292 0.58543,-0.0976 1.0733,-0.68301 -0.19515,-0.29272 -0.19515,-0.29272 0,-0.39029 1.65874,-3.21991 0.29272,-0.48786 0.39029,-0.68301 0.78059,-1.95146 1.36602,-4.19564 z"
     style="font-style:normal;font-variant:normal;font-weight:normal;font-stretch:normal;font-size:99.91466522px;font-family:'a Angkanya Sebelas';-inkscape-font-specification:'a Angkanya Sebelas, Normal';font-variant-ligatures:normal;font-variant-caps:normal;font-variant-numeric:normal;font-feature-settings:normal;text-align:start;writing-mode:lr-tb;text-anchor:start;fill:#ea5f0b;stroke-width:0.98994946"
     id="path125" /><path
     d="m 264.05698,157.17493 q -5.36652,-0.19514 -5.46409,-7.12282 0,-5.65923 2.14661,-12.9772 0.68301,-1.95146 0.97573,-2.04903 3.90291,-0.78058 6.04952,-0.78058 1.75631,0.0976 1.85388,0.97573 -0.0976,0.87815 -1.36602,3.12233 -3.51262,6.92768 -3.51262,12.78205 0,1.95146 0.19514,2.04903 0.19515,-0.19514 0.29272,-0.78058 8.58642,-1.46359 13.26992,-11.41603 l 2.53689,1.85389 q -2.34175,4.87864 -7.61068,9.65971 -5.26894,4.58593 -9.367,4.6835 z m 0.68301,-34.83353 q 0,-0.29272 0,-0.97573 0.0976,-0.68301 0.0976,-0.97573 v -1.65873 l 6.92768,-3.90292 q 1.36602,1.75631 1.36602,4.19563 0,4.39079 -2.5369,8.00098 -1.36602,1.26845 -2.92719,1.36602 -2.82961,-0.19514 -2.92718,-6.04952 z"
     style="font-style:normal;font-variant:normal;font-weight:normal;font-stretch:normal;font-size:99.91466522px;font-family:'a Angkanya Sebelas';-inkscape-font-specification:'a Angkanya Sebelas, Normal';font-variant-ligatures:normal;font-variant-caps:normal;font-variant-numeric:normal;font-feature-settings:normal;text-align:start;writing-mode:lr-tb;text-anchor:start;fill:#ea5f0b;stroke-width:0.98994946"
     id="path127" /><path
     d="m 320.25897,154.93076 v 0.19514 q 0.0976,0.68301 0.48787,0.78059 3.31747,0 9.46457,-9.65972 1.85388,-3.02476 2.92719,-5.26894 l 2.63446,1.85389 q -4.2932,8.9767 -9.85486,13.6602 -3.31748,2.82962 -6.24467,2.82962 -4.87864,-0.0976 -4.87864,-14.63594 0,-1.46359 0.29272,-6.8301 -6.92768,8.78156 -8.68399,10.63544 -0.29272,0.29272 -0.39029,0.3903 -0.3903,0.19514 -1.26845,0.78058 -2.24418,1.46359 -3.6102,1.46359 -6.14709,-0.0976 -6.14709,-14.0505 l -1.17088,1.07331 q -3.21991,3.51262 -9.56215,13.26991 -0.19514,0.19515 -0.29271,0.39029 -2.92719,4.29321 -5.36651,4.39078 -0.58544,0 -1.07331,-0.19514 -0.39029,-0.0976 -0.68301,-0.19515 -0.29272,-0.0976 -0.58543,-0.39029 -0.19515,-0.39029 -0.29272,-0.58544 -0.0976,-0.19514 -0.19515,-0.68301 -0.0976,-0.48786 -0.0976,-0.58543 0,-0.19515 0,-0.78059 l -0.0976,-0.58543 q 0.58543,-4.00049 3.90291,-15.70924 0.97573,-6.73254 2.14661,-8.58642 1.36602,-1.65874 3.31748,-1.75631 3.51262,0 4.39078,3.31748 0.0976,0.48786 0.0976,0.97573 0,1.0733 -1.36602,5.26893 -1.36602,4.00049 -1.4636,4.29321 l 2.63447,-3.80534 q 3.02476,-4.19564 3.12234,-4.29321 2.92718,-2.43932 5.17136,-2.5369 3.80535,0 4.29321,5.95195 0,0.58544 0,1.0733 0,0.58544 -0.29272,5.95195 0,1.46359 0.48787,3.41505 8.9767,-10.92816 10.14758,-12.97719 2.1466,-3.51263 2.92719,-4.29321 1.46359,-1.17088 3.12233,-1.17088 3.80534,0 4.09806,5.85438 0,0.78058 0,1.75631 -0.0976,2.43932 -0.97573,8.68399 -1.0733,8.19612 -1.0733,11.31846 z"
     style="font-style:normal;font-variant:normal;font-weight:normal;font-stretch:normal;font-size:99.91466522px;font-family:'a Angkanya Sebelas';-inkscape-font-specification:'a Angkanya Sebelas, Normal';font-variant-ligatures:normal;font-variant-caps:normal;font-variant-numeric:normal;font-feature-settings:normal;text-align:start;writing-mode:lr-tb;text-anchor:start;fill:#ea5f0b;stroke-width:0.98994946"
     id="path129" /></g>

</svg>