<?xml version="1.0" encoding="UTF-8" standalone="no"?>
<!-- Created with Inkscape (http://www.inkscape.org/) -->

<svg
   width="75mm"
   height="80mm"
   viewBox="0 0 75 80"
   version="1.1"
   id="svg8"
   inkscape:version="1.1.1 (3bf5ae0, 2021-09-20)"
   sodipodi:docname="esportes.svg"
   inkscape:export-filename="/home/rafael/Documents/202WEB/202016401Revista/index_files/images/comercio.png"
   inkscape:export-xdpi="96"
   inkscape:export-ydpi="96"
   xmlns:inkscape="http://www.inkscape.org/namespaces/inkscape"
   xmlns:sodipodi="http://sodipodi.sourceforge.net/DTD/sodipodi-0.dtd"
   xmlns="http://www.w3.org/2000/svg"
   xmlns:svg="http://www.w3.org/2000/svg"
   xmlns:rdf="http://www.w3.org/1999/02/22-rdf-syntax-ns#"
   xmlns:cc="http://creativecommons.org/ns#"
   xmlns:dc="http://purl.org/dc/elements/1.1/">
  <defs
     id="defs2" />
  <sodipodi:namedview
     id="base"
     pagecolor="#ffffff"
     bordercolor="#666666"
     borderopacity="1.0"
     inkscape:pageopacity="0.0"
     inkscape:pageshadow="2"
     inkscape:zoom="1.4"
     inkscape:cx="30.357143"
     inkscape:cy="166.42857"
     inkscape:document-units="mm"
     inkscape:current-layer="layer1"
     showgrid="false"
     inkscape:window-width="1366"
     inkscape:window-height="744"
     inkscape:window-x="0"
     inkscape:window-y="0"
     inkscape:window-maximized="1"
     inkscape:pagecheckerboard="0" />
  <metadata
     id="metadata5">
    <rdf:RDF>
      <cc:Work
         rdf:about="">
        <dc:format>image/svg+xml</dc:format>
        <dc:type
           rdf:resource="http://purl.org/dc/dcmitype/StillImage" />
      </cc:Work>
    </rdf:RDF>
  </metadata>
  <g
     inkscape:label="Camada 1"
     inkscape:groupmode="layer"
     id="layer1"
     transform="translate(0,-217)">
    <rect
       ry="17.698029"
       y="219.39169"
       x="2.3916893"
       height="75.216621"
       width="70.216621"
       id="rect10"
       style="fill:#ffffff;fill-opacity:1;stroke:#cccccc;stroke-width:4.783;stroke-linecap:round;stroke-linejoin:round;stroke-miterlimit:4;stroke-dasharray:none;stroke-opacity:1;paint-order:markers stroke fill" />
    <path
       id="path13671"
       style="fill:none;stroke:#cccccc;stroke-width:3;stroke-linecap:round;stroke-linejoin:round;stroke-miterlimit:4;stroke-dasharray:none;paint-order:markers stroke fill"
       d="m 27.461565,233.70746 a 4.9888921,4.9888921 0 0 1 -6.984769,-0.99556 4.9888921,4.9888921 0 0 1 0.995578,-6.98477 4.9888921,4.9888921 0 0 1 6.984761,0.99557 4.9888921,4.9888921 0 0 1 -0.99557,6.98476 z" />
    <path
       id="rect13775"
       style="fill:none;stroke:#cccccc;stroke-width:3;stroke-linecap:round;stroke-linejoin:round;paint-order:markers stroke fill;stroke-miterlimit:4;stroke-dasharray:none"
       d="m 25.368405,240.16545 2.183729,-1.30768 c 0.990083,-0.59289 2.264464,-0.27313 2.857355,0.71695 l 10.687404,17.84714 c 0.592893,0.99009 0.273125,2.26446 -0.716958,2.85735 l -2.18373,1.30768 c -0.990083,0.59289 -2.264454,0.27313 -2.857345,-0.71695 L 24.651455,243.0228 c -0.592893,-0.99009 -0.273134,-2.26446 0.71695,-2.85735 z" />
    <path
       id="rect14080"
       style="fill:none;stroke:#cccccc;stroke-width:3;stroke-linecap:round;stroke-linejoin:round;stroke-miterlimit:4;stroke-dasharray:none;paint-order:markers stroke fill"
       d="m 37.046713,260.55723 c 0.674323,0.36598 0.973257,1.23355 0.556599,1.8778 l -7.128193,11.02192 c -0.365969,0.67434 -1.203443,0.92262 -1.877798,0.55661 -0.674323,-0.36598 -0.973258,-1.23355 -0.5566,-1.8778 l 7.128193,-11.02192 c 0.36597,-0.67434 1.203443,-0.92261 1.877799,-0.55661 z"
       sodipodi:nodetypes="csccscc" />
    <path
       id="path14300"
       style="fill:none;stroke:#cccccc;stroke-width:3;stroke-linecap:round;stroke-linejoin:round;stroke-miterlimit:4;stroke-dasharray:none;paint-order:markers stroke fill"
       d="m 66.939422,237.4524 c 0.509863,0.57332 0.458791,1.44534 -0.114527,1.9552 l -23.591743,20.98114 c -0.573048,0.51016 -1.445331,0.4588 -1.955208,-0.11447 -0.509869,-0.57332 -0.458798,-1.44534 0.114509,-1.95521 l 23.591744,-20.98114 c 0.573049,-0.51016 1.445332,-0.4588 1.955209,0.11447 z" />
    <path
       id="path14302"
       style="fill:none;stroke:#cccccc;stroke-width:3;stroke-linecap:round;stroke-linejoin:round;stroke-miterlimit:4;stroke-dasharray:none;paint-order:markers stroke fill"
       d="m 35.074709,288.28349 c -0.663211,0.38576 -1.625252,0.21801 -1.893436,-0.50083 L 28.278139,274.641 c -0.268526,-0.71871 -0.162379,-1.50768 0.500836,-1.89343 0.663212,-0.38576 1.62524,-0.21801 1.893437,0.50083 l 4.90313,13.14165 c 0.26853,0.71872 0.162373,1.5077 -0.500833,1.89344 z"
       sodipodi:nodetypes="sssssss" />
    <path
       id="path16758"
       style="fill:none;stroke:#cccccc;stroke-width:3;stroke-linecap:round;stroke-linejoin:round;stroke-miterlimit:4;stroke-dasharray:none;paint-order:markers stroke fill"
       d="m 22.282254,243.54344 c 0.732195,0.22921 1.100519,0.99279 0.907903,1.73541 l -1.787193,6.89038 c -0.192634,0.74266 -1.00322,1.13712 -1.735417,0.9079 -0.732183,-0.22921 -1.100512,-0.99278 -0.907896,-1.73541 l 1.78719,-6.89039 c 0.192625,-0.74266 1.003221,-1.13712 1.735413,-0.90789 z"
       sodipodi:nodetypes="sssssss" />
    <path
       id="path17029"
       style="fill:none;stroke:#cccccc;stroke-width:3;stroke-linecap:round;stroke-linejoin:round;stroke-miterlimit:4;stroke-dasharray:none;paint-order:markers stroke fill"
       d="m 18.982225,252.33136 c 0.547917,-0.53706 1.39492,-0.50097 1.958456,0.0196 l 5.228755,4.83027 c 0.563564,0.52062 0.528305,1.4214 -0.01962,1.95846 -0.547911,0.53705 -1.394908,0.50097 -1.958453,-0.0196 l -5.228765,-4.83027 c -0.563568,-0.52062 -0.528304,-1.42141 0.01963,-1.95846 z"
       sodipodi:nodetypes="sssssss" />
    <path
       id="path17046"
       style="fill:none;stroke:#cccccc;stroke-width:3;stroke-linecap:round;stroke-linejoin:round;stroke-miterlimit:4;stroke-dasharray:none;paint-order:markers stroke fill"
       d="m 32.768859,240.13244 c -0.54118,-0.54385 -0.511484,-1.3911 0.0048,-1.95855 l 4.790675,-5.26506 c 0.516355,-0.56747 1.417376,-0.53901 1.958554,0.005 0.541169,0.54385 0.511483,1.39109 -0.0048,1.95855 l -4.790678,5.26507 c -0.516347,0.56748 -1.417376,0.53901 -1.958545,-0.005 z"
       sodipodi:nodetypes="sssssss" />
    <path
       id="path17048"
       style="fill:none;stroke:#cccccc;stroke-width:3;stroke-linecap:round;stroke-linejoin:round;stroke-miterlimit:4;stroke-dasharray:none;paint-order:markers stroke fill"
       d="m 39.78204,233.8928 c -0.734995,0.22007 -1.467715,-0.20635 -1.723947,-0.92948 l -2.377358,-6.70966 c -0.256233,-0.72318 0.194501,-1.50388 0.929503,-1.72394 0.734985,-0.22006 1.467705,0.20635 1.723945,0.92948 l 2.377367,6.70967 c 0.256236,0.72318 -0.194507,1.50388 -0.929512,1.72393 z"
       sodipodi:nodetypes="sssssss" />
  </g>
</svg>
