<?xml version="1.0" encoding="UTF-8" standalone="no"?>
<!-- Created with Inkscape (http://www.inkscape.org/) -->

<svg
   width="75mm"
   height="80mm"
   viewBox="0 0 75 80"
   version="1.1"
   id="svg8"
   inkscape:version="1.1.1 (3bf5ae0, 2021-09-20)"
   sodipodi:docname="radio.svg"
   inkscape:export-filename="/home/rafael/Documents/202WEB/202016401Revista/index_files/images/comercio.png"
   inkscape:export-xdpi="96"
   inkscape:export-ydpi="96"
   xmlns:inkscape="http://www.inkscape.org/namespaces/inkscape"
   xmlns:sodipodi="http://sodipodi.sourceforge.net/DTD/sodipodi-0.dtd"
   xmlns="http://www.w3.org/2000/svg"
   xmlns:svg="http://www.w3.org/2000/svg"
   xmlns:rdf="http://www.w3.org/1999/02/22-rdf-syntax-ns#"
   xmlns:cc="http://creativecommons.org/ns#"
   xmlns:dc="http://purl.org/dc/elements/1.1/">
  <defs
     id="defs2" />
  <sodipodi:namedview
     id="base"
     pagecolor="#ffffff"
     bordercolor="#666666"
     borderopacity="1.0"
     inkscape:pageopacity="0.0"
     inkscape:pageshadow="2"
     inkscape:zoom="1.4"
     inkscape:cx="30.357143"
     inkscape:cy="166.42857"
     inkscape:document-units="mm"
     inkscape:current-layer="layer1"
     showgrid="false"
     inkscape:window-width="1366"
     inkscape:window-height="744"
     inkscape:window-x="0"
     inkscape:window-y="0"
     inkscape:window-maximized="1"
     inkscape:pagecheckerboard="0" />
  <metadata
     id="metadata5">
    <rdf:RDF>
      <cc:Work
         rdf:about="">
        <dc:format>image/svg+xml</dc:format>
        <dc:type
           rdf:resource="http://purl.org/dc/dcmitype/StillImage" />
      </cc:Work>
    </rdf:RDF>
  </metadata>
  <g
     inkscape:label="Camada 1"
     inkscape:groupmode="layer"
     id="layer1"
     transform="translate(0,-217)">
    <rect
       ry="17.698029"
       y="219.39169"
       x="2.3916893"
       height="75.216621"
       width="70.216621"
       id="rect10"
       style="fill:#ffffff;fill-opacity:1;stroke:#cccccc;stroke-width:4.783;stroke-linecap:round;stroke-linejoin:round;stroke-miterlimit:4;stroke-dasharray:none;stroke-opacity:1;paint-order:markers stroke fill" />
    <g
       id="g13415"
       transform="translate(-2.7870591)"
       style="stroke:#cccccc">
      <path
         sodipodi:type="spiral"
         style="fill:none;fill-rule:evenodd;stroke:#cccccc;stroke-width:11.3386;stroke-linecap:round;stroke-linejoin:round;stroke-miterlimit:4;stroke-dasharray:none"
         id="path12805"
         sodipodi:cx="132.01364"
         sodipodi:cy="142.95686"
         sodipodi:expansion="1"
         sodipodi:revolution="3"
         sodipodi:radius="143.20464"
         sodipodi:argument="-18.116913"
         sodipodi:t0="0"
         d="m 132.01364,142.95686 c 5.33772,4.80229 -3.83994,9.56442 -7.98171,8.87164 -11.22394,-1.87738 -13.75769,-15.99308 -9.76156,-24.83506 7.14813,-15.81623 27.72615,-18.71148 41.68841,-10.65149 20.49017,11.82836 23.80193,39.61473 11.54141,58.54176 -16.34135,25.22676 -51.55801,28.95002 -75.395106,12.43134 C 62.108534,166.52797 57.977292,123.78778 78.783819,95.066594 103.98331,60.281385 154.29494,55.743868 187.88562,80.855404 227.47108,110.44848 232.41406,168.35947 202.98674,206.81056 169.01173,251.20385 103.48365,256.55189 60.178237,222.8016 10.971879,184.45237 5.2189829,111.29522 43.29727,63.139748 86.015354,9.11659 166.81005,2.9589179 219.81247,45.368855 278.65519,92.451924 285.21761,180.89039 238.47329,238.7374"
         transform="matrix(0.22450842,0,0,0.11524164,7.9849356,223.62978)" />
      <path
         id="path13169"
         style="fill:none;stroke:#cccccc;stroke-width:3;stroke-linecap:round;stroke-linejoin:round;stroke-miterlimit:4;stroke-dasharray:none;stroke-opacity:1"
         d="m 38.63624,240.1002 -12.408242,47.91143 12.408242,3.93871 z" />
      <path
         id="path13356"
         style="fill:none;stroke:#cccccc;stroke-width:3;stroke-linecap:round;stroke-linejoin:round;stroke-miterlimit:4;stroke-dasharray:none;stroke-opacity:1"
         d="m 38.901378,240.10091 12.534402,47.91012 -12.534402,3.93861 z" />
    </g>
  </g>
</svg>
