<?xml version="1.0" encoding="UTF-8" standalone="no"?>
<!-- Created with Inkscape (http://www.inkscape.org/) -->

<svg
   width="75mm"
   height="80mm"
   viewBox="0 0 75 80"
   version="1.1"
   id="svg8"
   inkscape:version="1.1.1 (3bf5ae0, 2021-09-20)"
   sodipodi:docname="web.svg"
   inkscape:export-filename="/home/rafael/Documents/202WEB/202016401Revista/index_files/images/comercio.png"
   inkscape:export-xdpi="96"
   inkscape:export-ydpi="96"
   xmlns:inkscape="http://www.inkscape.org/namespaces/inkscape"
   xmlns:sodipodi="http://sodipodi.sourceforge.net/DTD/sodipodi-0.dtd"
   xmlns="http://www.w3.org/2000/svg"
   xmlns:svg="http://www.w3.org/2000/svg"
   xmlns:rdf="http://www.w3.org/1999/02/22-rdf-syntax-ns#"
   xmlns:cc="http://creativecommons.org/ns#"
   xmlns:dc="http://purl.org/dc/elements/1.1/">
  <defs
     id="defs2" />
  <sodipodi:namedview
     id="base"
     pagecolor="#ffffff"
     bordercolor="#666666"
     borderopacity="1.0"
     inkscape:pageopacity="0.0"
     inkscape:pageshadow="2"
     inkscape:zoom="1.4"
     inkscape:cx="30.357143"
     inkscape:cy="166.42857"
     inkscape:document-units="mm"
     inkscape:current-layer="layer1"
     showgrid="false"
     inkscape:window-width="1366"
     inkscape:window-height="744"
     inkscape:window-x="0"
     inkscape:window-y="0"
     inkscape:window-maximized="1"
     inkscape:pagecheckerboard="0" />
  <metadata
     id="metadata5">
    <rdf:RDF>
      <cc:Work
         rdf:about="">
        <dc:format>image/svg+xml</dc:format>
        <dc:type
           rdf:resource="http://purl.org/dc/dcmitype/StillImage" />
      </cc:Work>
    </rdf:RDF>
  </metadata>
  <g
     inkscape:label="Camada 1"
     inkscape:groupmode="layer"
     id="layer1"
     transform="translate(0,-217)">
    <rect
       ry="17.698029"
       y="219.39169"
       x="2.3916893"
       height="75.216621"
       width="70.216621"
       id="rect10"
       style="fill:#ffffff;fill-opacity:1;stroke:#cccccc;stroke-width:4.783;stroke-linecap:round;stroke-linejoin:round;stroke-miterlimit:4;stroke-dasharray:none;stroke-opacity:1;paint-order:markers stroke fill" />
    <path
       id="rect12198"
       style="fill:#cccccc;stroke:#cccccc;stroke-width:7.55906;stroke-linecap:round;stroke-linejoin:round;paint-order:markers stroke fill"
       d="M 38.412109 75.939453 C 29.295647 75.939453 21.957031 83.278069 21.957031 92.394531 L 21.957031 188.65039 C 21.957031 197.76685 29.295647 205.10547 38.412109 205.10547 L 129.50586 205.10547 L 129.50586 236.33398 C 129.50586 237.08385 130.10951 237.6875 130.85938 237.6875 L 152.60547 237.6875 C 153.35533 237.6875 153.95898 237.08385 153.95898 236.33398 L 153.95898 205.10547 L 245.05273 205.10547 C 254.1692 205.10547 261.50781 197.76685 261.50781 188.65039 L 261.50781 92.394531 C 261.50781 83.278069 254.1692 75.939453 245.05273 75.939453 L 38.412109 75.939453 z M 43.820312 238.3125 C 43.07045 238.3125 42.466797 238.91615 42.466797 239.66602 C 42.466797 240.41588 43.07045 241.01953 43.820312 241.01953 L 239.64453 241.01953 C 240.39439 241.01953 240.99805 240.41588 240.99805 239.66602 C 240.99805 238.91615 240.39439 238.3125 239.64453 238.3125 L 43.820312 238.3125 z "
       transform="matrix(0.26458333,0,0,0.26458333,0,217)" />
    <g
       aria-label="html.
"
       transform="scale(1.1655848,0.85793843)"
       id="text3345"
       style="font-size:22.1882px;line-height:1.25;letter-spacing:0px;word-spacing:0px;fill:#ffffff;stroke-width:0.554707">
      <path
         d="m 9.7995357,286.06836 v 4.94797 q 0,0.88753 -0.110941,1.66412 h 0.1331292 q 0.5768931,-0.90972 1.5531741,-1.37567 0.998469,-0.46595 2.152255,-0.46595 2.174444,0 3.261666,1.04284 1.087221,1.02066 1.087221,3.30604 v 7.74369 h -1.930373 v -7.61056 q 0,-2.86227 -2.662584,-2.86227 -1.996938,0 -2.751337,1.13159 -0.7322103,1.10941 -0.7322103,3.19511 v 6.14613 H 7.8469741 v -16.86304 z"
         id="path12147"
         style="fill:#ffffff" />
      <path
         d="m 25.530928,301.55573 q 0.443764,0 0.909716,-0.0666 0.465952,-0.0888 0.754399,-0.1775 v 1.48661 q -0.310635,0.15531 -0.887528,0.24407 -0.576893,0.11094 -1.10941,0.11094 -0.931905,0 -1.73068,-0.31064 -0.776587,-0.33282 -1.264727,-1.13159 -0.488141,-0.79878 -0.488141,-2.24101 v -6.92272 h -1.686303 v -0.93191 l 1.708492,-0.77658 0.776587,-2.52946 h 1.153786 v 2.72915 h 3.439171 v 1.5088 h -3.439171 v 6.87834 q 0,1.08722 0.510329,1.61974 0.532516,0.51033 1.35348,0.51033 z"
         id="path12149"
         style="fill:#ffffff" />
      <path
         d="m 42.6158,290.81664 q 2.019126,0 3.017595,1.04284 0.998469,1.02066 0.998469,3.32823 v 7.74369 h -1.930373 v -7.65493 q 0,-2.8179 -2.418514,-2.8179 -1.73068,0 -2.485079,0.99847 -0.73221,0.99846 -0.73221,2.90665 v 6.56771 h -1.930374 v -7.65493 q 0,-2.8179 -2.440702,-2.8179 -1.797244,0 -2.485078,1.10941 -0.687834,1.10941 -0.687834,3.1951 v 6.16832 H 29.569138 V 291.03852 H 31.1445 l 0.288447,1.61974 h 0.110941 q 0.554705,-0.9319 1.486609,-1.37567 0.954093,-0.46595 2.019127,-0.46595 2.795713,0 3.638864,1.99694 h 0.110941 q 0.599082,-1.02066 1.619739,-1.5088 1.042845,-0.48814 2.196632,-0.48814 z"
         id="path12151"
         style="fill:#ffffff" />
      <path
         d="m 52.267656,302.9314 h -1.952561 v -16.86304 h 1.952561 z"
         id="path12153"
         style="fill:#ffffff" />
      <path
         d="m 55.751189,301.73323 q 0,-0.82096 0.399387,-1.15378 0.399388,-0.33283 0.954093,-0.33283 0.576893,0 0.976281,0.33283 0.421576,0.33282 0.421576,1.15378 0,0.79878 -0.421576,1.15379 -0.399388,0.35501 -0.976281,0.35501 -0.554705,0 -0.954093,-0.35501 -0.399387,-0.35501 -0.399387,-1.15379 z"
         id="path12155"
         style="fill:#ffffff" />
    </g>
  </g>
</svg>
