<?xml version="1.0" encoding="utf-8"?>
<!-- Generator: Adobe Illustrator 16.0.0, SVG Export Plug-In . SVG Version: 6.00 Build 0)  -->
<!DOCTYPE svg PUBLIC "-//W3C//DTD SVG 1.1//EN" "http://www.w3.org/Graphics/SVG/1.1/DTD/svg11.dtd">
<svg version="1.1"
	 id="svg8" xmlns:inkscape="http://www.inkscape.org/namespaces/inkscape" xmlns:sodipodi="http://sodipodi.sourceforge.net/DTD/sodipodi-0.dtd" xmlns:svg="http://www.w3.org/2000/svg" xmlns:rdf="http://www.w3.org/1999/02/22-rdf-syntax-ns#" xmlns:cc="http://creativecommons.org/ns#" xmlns:dc="http://purl.org/dc/elements/1.1/" inkscape:export-filename="/home/rafael/Documents/202WEB/202016401Revista/index_files/images/comercio.png" inkscape:version="1.1.1 (3bf5ae0, 2021-09-20)" sodipodi:docname="3dorganico.svg" inkscape:export-ydpi="96" inkscape:export-xdpi="96"
	 xmlns="http://www.w3.org/2000/svg" xmlns:xlink="http://www.w3.org/1999/xlink" x="0px" y="0px" width="212.598px"
	 height="226.771px" viewBox="0 0 212.598 226.771" enable-background="new 0 0 212.598 226.771" xml:space="preserve">
<sodipodi:namedview  id="base" pagecolor="#ffffff" showgrid="false" bordercolor="#666666" borderopacity="1.0" inkscape:zoom="0.81690485" inkscape:cx="-10.405129" inkscape:cy="168.93032" inkscape:window-maximized="1" inkscape:pagecheckerboard="0" inkscape:pageopacity="0.0" inkscape:pageshadow="2" inkscape:document-units="mm" inkscape:current-layer="layer1" inkscape:window-width="1366" inkscape:window-height="744" inkscape:window-x="0" inkscape:window-y="0">
	</sodipodi:namedview>
<path id="rect10" stroke="#CCCCCC" stroke-width="6" stroke-linecap="round" stroke-linejoin="round" d="M56.947,6.78h98.704
	c27.707,0,50.168,22.46,50.168,50.167v112.877c0,27.707-22.461,50.168-50.168,50.168H56.947c-27.705,0-50.167-22.461-50.167-50.168
	V56.947C6.78,29.24,29.24,6.78,56.947,6.78z"/>
<path id="path984" fill="none" stroke="#FFFFFF" stroke-width="6" stroke-miterlimit="10" d="M57.41,58.521
	c0,0-2.743,15.346,5.938,28.934c8.685,13.587,18.445,24.313,8.274,35.962c-10.17,11.65-16.904,27.545-15.337,44.178"/>
<ellipse id="path845" fill="none" stroke="#FFFFFF" stroke-width="6" stroke-miterlimit="10" cx="106.895" cy="55.033" rx="49.337" ry="21.924"/>
<ellipse id="ellipse949" fill="none" stroke="#FFFFFF" stroke-width="6" stroke-miterlimit="10" cx="106.895" cy="165.333" rx="49.337" ry="21.924"/>
<path id="path1066" fill="none" stroke="#FFFFFF" stroke-width="6" stroke-miterlimit="10" d="M156.381,58.521
	c0,0,2.742,15.346-5.94,28.934c-8.683,13.587-18.442,24.313-8.272,35.962c10.171,11.65,16.902,27.545,15.338,44.178"/>
<path id="path1116" fill="none" stroke="#FFFFFF" stroke-width="6" stroke-miterlimit="10" d="M95.481,77.449
	c0,0-0.633,15.347,1.37,28.934c2.002,13.587,4.254,24.313,1.908,35.965c-2.346,11.648-3.899,27.545-3.538,44.177"/>
<path id="path1126" fill="none" stroke="#FFFFFF" stroke-width="6" stroke-miterlimit="10" d="M118.309,33.322
	c0,0,0.633,15.347-1.369,28.934c-2.003,13.587-4.255,24.313-1.909,35.963c2.349,11.65,3.899,27.546,3.538,44.178"/>
<ellipse id="ellipse1808" fill="none" stroke="#FFFFFF" stroke-width="6" stroke-miterlimit="10" cx="106.895" cy="55.033" rx="49.337" ry="21.924"/>
</svg>
