<?xml version="1.0" encoding="utf-8"?>
<!-- Generator: Adobe Illustrator 16.0.0, SVG Export Plug-In . SVG Version: 6.00 Build 0)  -->
<!DOCTYPE svg PUBLIC "-//W3C//DTD SVG 1.1//EN" "http://www.w3.org/Graphics/SVG/1.1/DTD/svg11.dtd">
<svg version="1.1"
	 id="svg8" xmlns:inkscape="http://www.inkscape.org/namespaces/inkscape" xmlns:sodipodi="http://sodipodi.sourceforge.net/DTD/sodipodi-0.dtd" xmlns:svg="http://www.w3.org/2000/svg" xmlns:rdf="http://www.w3.org/1999/02/22-rdf-syntax-ns#" xmlns:cc="http://creativecommons.org/ns#" xmlns:dc="http://purl.org/dc/elements/1.1/" inkscape:export-filename="/home/rafael/Documents/202WEB/202016401Revista/index_files/images/comercio.png" inkscape:version="1.1.1 (3bf5ae0, 2021-09-20)" sodipodi:docname="artes-plasticas.svg" inkscape:export-ydpi="96" inkscape:export-xdpi="96"
	 xmlns="http://www.w3.org/2000/svg" xmlns:xlink="http://www.w3.org/1999/xlink" x="0px" y="0px" width="212.598px"
	 height="226.771px" viewBox="0 0 212.598 226.771" enable-background="new 0 0 212.598 226.771" xml:space="preserve">
<sodipodi:namedview  id="base" pagecolor="#ffffff" showgrid="false" bordercolor="#666666" borderopacity="1.0" inkscape:zoom="1.4" inkscape:cx="158.92857" inkscape:cy="153.57143" inkscape:window-maximized="1" inkscape:pagecheckerboard="0" inkscape:pageopacity="0.0" inkscape:pageshadow="2" inkscape:document-units="mm" inkscape:current-layer="layer1" inkscape:window-width="1366" inkscape:window-height="744" inkscape:window-x="0" inkscape:window-y="0">
	</sodipodi:namedview>
<path id="rect10" stroke="#CCCCCC" stroke-width="6" stroke-linecap="round" stroke-linejoin="round" d="M56.947,6.78h98.704
	c27.707,0,50.168,22.46,50.168,50.167v112.877c0,27.707-22.461,50.168-50.168,50.168H56.947c-27.705,0-50.167-22.461-50.167-50.168
	V56.947C6.78,29.24,29.24,6.78,56.947,6.78z"/>
<g id="rect32736">
	<path d="M87.98,150.059c-0.575,0-1.143-0.166-1.633-0.483L76.063,142.9c-1.39-0.902-1.785-2.76-0.883-4.149L159.222,9.259
		c0.434-0.667,1.114-1.135,1.892-1.301c0.207-0.044,0.417-0.064,0.625-0.064c0.575,0,1.146,0.166,1.635,0.481l10.282,6.675
		c1.393,0.902,1.785,2.762,0.886,4.15L90.497,148.691c-0.435,0.668-1.114,1.136-1.894,1.302
		C88.397,150.037,88.188,150.059,87.98,150.059z"/>
	<path fill="#CCCCCC" d="M161.739,10.893l10.284,6.675L87.98,147.059l-10.284-6.677L161.739,10.893 M161.739,4.893
		c-0.417,0-0.835,0.043-1.247,0.131c-1.559,0.332-2.92,1.268-3.784,2.602L72.663,137.117c-1.806,2.779-1.015,6.495,1.766,8.3
		l10.284,6.675c0.979,0.638,2.116,0.969,3.267,0.969c0.417,0,0.835-0.043,1.249-0.134c1.559-0.329,2.917-1.267,3.784-2.602
		l84.043-129.491c1.804-2.778,1.013-6.496-1.767-8.299L165.005,5.86C164.025,5.224,162.889,4.893,161.739,4.893L161.739,4.893z"/>
</g>
<path id="path33184" sodipodi:nodetypes="csscc" fill="#FFFFFF" stroke="#CCCCCC" stroke-width="6" d="M87.98,147.059
	c0,0,8.323,13.165,0.737,24.052s-16.549,10.25-26.875,17.521c-10.326,7.271-19.158,19.289-19.158,19.289
	S52.802,121.312,87.98,147.059z"/>
</svg>
