<?xml version="1.0" encoding="utf-8"?>
<!-- Generator: Adobe Illustrator 16.0.0, SVG Export Plug-In . SVG Version: 6.00 Build 0)  -->
<!DOCTYPE svg PUBLIC "-//W3C//DTD SVG 1.1//EN" "http://www.w3.org/Graphics/SVG/1.1/DTD/svg11.dtd">
<svg version="1.1"
	 id="svg8" xmlns:inkscape="http://www.inkscape.org/namespaces/inkscape" xmlns:sodipodi="http://sodipodi.sourceforge.net/DTD/sodipodi-0.dtd" xmlns:svg="http://www.w3.org/2000/svg" xmlns:rdf="http://www.w3.org/1999/02/22-rdf-syntax-ns#" xmlns:cc="http://creativecommons.org/ns#" xmlns:dc="http://purl.org/dc/elements/1.1/" inkscape:export-filename="/home/rafael/Documents/202WEB/202016401Revista/index_files/images/comercio.png" inkscape:version="1.1.1 (3bf5ae0, 2021-09-20)" sodipodi:docname="artigospoliticos..svg" inkscape:export-ydpi="96" inkscape:export-xdpi="96"
	 xmlns="http://www.w3.org/2000/svg" xmlns:xlink="http://www.w3.org/1999/xlink" x="0px" y="0px" width="212.598px"
	 height="226.771px" viewBox="0 0 212.598 226.771" enable-background="new 0 0 212.598 226.771" xml:space="preserve">
<sodipodi:namedview  id="base" pagecolor="#ffffff" showgrid="false" bordercolor="#666666" borderopacity="1.0" inkscape:zoom="1.4" inkscape:cx="30.357143" inkscape:cy="166.42857" inkscape:window-maximized="1" inkscape:pagecheckerboard="0" inkscape:pageopacity="0.0" inkscape:pageshadow="2" inkscape:document-units="mm" inkscape:current-layer="layer1" inkscape:window-width="1366" inkscape:window-height="744" inkscape:window-x="0" inkscape:window-y="0">
	</sodipodi:namedview>
<path id="rect10" stroke="#CCCCCC" stroke-width="6" stroke-linecap="round" stroke-linejoin="round" d="M56.947,6.78h98.704
	c27.707,0,50.168,22.46,50.168,50.167v112.877c0,27.707-22.461,50.168-50.168,50.168H56.947c-27.705,0-50.167-22.461-50.167-50.168
	V56.947C6.78,29.24,29.24,6.78,56.947,6.78z"/>
<rect id="rect18558" x="48.103" y="15.788" fill="none" stroke="#FFFFFF" stroke-width="3" stroke-linecap="round" stroke-linejoin="round" width="116.394" height="193.816"/>
<g id="text20443" transform="translate(59.565769,-15.053449)">
	<path id="path21031" stroke="#FFFFFF" stroke-width="3" stroke-linecap="round" stroke-linejoin="round" d="M19.577,68.229
		l-2.58-6.63h-8.49l-2.55,6.63H3.227l8.368-21.51h2.432l8.34,21.51H19.577z M16.187,59.199l-2.4-6.479
		c-0.06-0.16-0.16-0.45-0.3-0.87c-0.142-0.42-0.28-0.852-0.42-1.29c-0.12-0.46-0.222-0.812-0.3-1.05
		c-0.142,0.62-0.302,1.229-0.48,1.83c-0.18,0.58-0.33,1.04-0.45,1.38l-2.43,6.479H16.187z"/>
</g>
<g id="g21395" transform="translate(-19.691322)">
	<path id="path21139" fill="#CCCCCC" stroke="#FFFFFF" stroke-width="3" stroke-linecap="round" stroke-linejoin="round" d="
		M79.761,189.831l92.458-1.213"/>
	<path id="path21373" fill="#CCCCCC" stroke="#FFFFFF" stroke-width="3" stroke-linecap="round" stroke-linejoin="round" d="
		M79.761,169.583l92.458-1.213"/>
	<path id="path21375" fill="#CCCCCC" stroke="#FFFFFF" stroke-width="3" stroke-linecap="round" stroke-linejoin="round" d="
		M79.761,149.334l92.458-1.213"/>
	<path id="path21377" fill="#CCCCCC" stroke="#FFFFFF" stroke-width="3" stroke-linecap="round" stroke-linejoin="round" d="
		M79.761,129.085l92.458-1.212"/>
	<path id="path21379" fill="#CCCCCC" stroke="#FFFFFF" stroke-width="3" stroke-linecap="round" stroke-linejoin="round" d="
		M79.761,108.837l92.458-1.213"/>
	<path id="path21381" fill="#CCCCCC" stroke="#FFFFFF" stroke-width="3" stroke-linecap="round" stroke-linejoin="round" d="
		M79.761,88.589l92.458-1.213"/>
	<path id="path21383" fill="#CCCCCC" stroke="#FFFFFF" stroke-width="3" stroke-linecap="round" stroke-linejoin="round" d="
		M79.761,68.34l92.458-1.212"/>
	<path id="path21385" fill="#CCCCCC" stroke="#FFFFFF" stroke-width="3" stroke-linecap="round" stroke-linejoin="round" d="
		M118.419,48.092l53.993-1.213"/>
</g>
</svg>
