<?xml version="1.0" encoding="utf-8"?>
<!-- Generator: Adobe Illustrator 16.0.0, SVG Export Plug-In . SVG Version: 6.00 Build 0)  -->
<!DOCTYPE svg PUBLIC "-//W3C//DTD SVG 1.1//EN" "http://www.w3.org/Graphics/SVG/1.1/DTD/svg11.dtd">
<svg version="1.1"
	 id="svg8" xmlns:inkscape="http://www.inkscape.org/namespaces/inkscape" xmlns:sodipodi="http://sodipodi.sourceforge.net/DTD/sodipodi-0.dtd" xmlns:svg="http://www.w3.org/2000/svg" xmlns:rdf="http://www.w3.org/1999/02/22-rdf-syntax-ns#" xmlns:cc="http://creativecommons.org/ns#" xmlns:dc="http://purl.org/dc/elements/1.1/" inkscape:export-filename="/home/rafael/Documents/202WEB/202016401Revista/index_files/images/comercio.png" inkscape:version="1.1.1 (3bf5ae0, 2021-09-20)" sodipodi:docname="bordado.svg" inkscape:export-ydpi="96" inkscape:export-xdpi="96"
	 xmlns="http://www.w3.org/2000/svg" xmlns:xlink="http://www.w3.org/1999/xlink" x="0px" y="0px" width="212.598px"
	 height="226.771px" viewBox="0 0 212.598 226.771" enable-background="new 0 0 212.598 226.771" xml:space="preserve">
<sodipodi:namedview  id="base" pagecolor="#ffffff" showgrid="false" bordercolor="#666666" borderopacity="1.0" inkscape:zoom="1.4" inkscape:cx="158.92857" inkscape:cy="153.57143" inkscape:window-maximized="1" inkscape:pagecheckerboard="0" inkscape:pageopacity="0.0" inkscape:pageshadow="2" inkscape:document-units="mm" inkscape:current-layer="layer1" inkscape:window-width="1366" inkscape:window-height="744" inkscape:window-x="0" inkscape:window-y="0">
	</sodipodi:namedview>
<path id="rect10" stroke="#CCCCCC" stroke-width="6" stroke-linecap="round" stroke-linejoin="round" d="M56.947,6.78h98.704
	c27.707,0,50.168,22.46,50.168,50.167v112.877c0,27.707-22.461,50.168-50.168,50.168H56.947c-27.705,0-50.167-22.461-50.167-50.168
	V56.947C6.78,29.24,29.24,6.78,56.947,6.78z"/>
<path id="path24573" sodipodi:nodetypes="csc" fill="none" stroke="#FFFFFF" stroke-width="6" stroke-miterlimit="10" d="
	M26.899,141.51c0,0,1.936-26.839,29.906-40.293c29.545-14.21,34.306,2.482,34.306,2.482"/>
<path id="path24575" sodipodi:nodetypes="csc" fill="none" stroke="#FFFFFF" stroke-width="6" stroke-miterlimit="10" d="
	M42.683,157.013c0,0,1.936-26.84,29.906-40.295c29.545-14.211,34.307,2.481,34.307,2.481"/>
<path id="path24577" sodipodi:nodetypes="csc" fill="none" stroke="#FFFFFF" stroke-width="6" stroke-miterlimit="10" d="
	M58.466,172.515c0,0,1.934-26.84,29.906-40.293c29.545-14.213,34.307,2.479,34.307,2.479"/>
<path id="path24579" sodipodi:nodetypes="csc" fill="none" stroke="#FFFFFF" stroke-width="6" stroke-miterlimit="10" d="
	M74.249,188.017c0,0,1.934-26.841,29.904-40.293c29.547-14.211,34.309,2.479,34.309,2.479"/>
<path id="path24581" sodipodi:nodetypes="csc" fill="none" stroke="#FFFFFF" stroke-width="6" stroke-miterlimit="10" d="
	M90.032,203.518c0,0,1.934-26.839,29.904-40.293c29.545-14.211,34.309,2.479,34.309,2.479"/>
<path fill="none" d="M152.04,60.609c3.469,0,6.279-4.651,6.279-10.387c0-4.299-1.577-7.985-3.827-9.565l-7.226,16.308
	C148.419,59.192,150.128,60.608,152.04,60.609z"/>
<path fill="#FFFFFF" d="M139.33,42.177c-8.506-1.593-18.162-1.885-28.701-0.865c-77.369,7.474-89.479,0.083-90.363-0.559
	c-1.048-1.068-2.754-1.211-3.972-0.272c-1.313,1.011-1.559,2.895-0.545,4.208c2.547,3.306,14.033,5.896,37.778,5.896
	c14.442,0,33.425-0.959,57.679-3.301c9.979-0.964,19.068-0.697,27.021,0.792c0.219,0.042,0.438,0.055,0.648,0.048
	c0.151-2.232,0.487-4.146,0.962-5.797C139.673,42.265,139.506,42.21,139.33,42.177z"/>
<path fill="none" d="M145.767,49.936c0.021-1.087,0.137-2.131,0.342-3.109C145.904,47.806,145.785,48.849,145.767,49.936z"/>
<path fill="none" d="M145.758,50.222c0,5.734,2.813,10.387,6.281,10.387c2.354,0,4.405-2.149,5.48-5.325
	c-3.548-2.19-7.461-3.977-11.756-5.334C145.765,50.042,145.758,50.13,145.758,50.222z"/>
<path fill="none" d="M146.109,46.825c0.206-0.98,0.497-1.894,0.86-2.717C146.606,44.931,146.315,45.843,146.109,46.825z"/>
<path fill="none" d="M158.254,48.788c-0.424-5.056-3.041-8.953-6.215-8.954c-2.084,0-3.928,1.688-5.068,4.271
	c0.2,0.021,0.4,0.061,0.6,0.124C151.383,45.432,154.944,46.96,158.254,48.788z"/>
<path fill="none" d="M155.236,153.885c2.002-2.713,4.898-4.947,9.029-5.74c11.052-2.122,17.139-12.908,17.139-30.369
	c0-0.146,0.013-0.288,0.031-0.433c0.021-0.134,1.915-13.82-1.655-28.968c-2.733-11.604-7.801-20.824-15.098-27.626
	c-0.075,0.479-0.146,0.952-0.235,1.444C162.016,75.802,157.289,129.728,155.236,153.885z"/>
<path fill="#CCCCCC" d="M164.447,62.195c0.09-0.492,0.16-0.967,0.235-1.444c-2.188-2.039-4.57-3.867-7.16-5.467
	c-1.075,3.175-3.126,5.324-5.48,5.325c-3.471,0-6.281-4.651-6.281-10.387c0-0.094,0.007-0.182,0.008-0.271l0,0
	c0-0.005,0.001-0.01,0.001-0.015c0.02-1.087,0.137-2.13,0.342-3.109c0,0,0-0.001,0-0.002c0.206-0.981,0.497-1.894,0.86-2.717
	c0.001-0.001,0.001-0.002,0.002-0.004l0,0c1.145-2.584,2.984-4.271,5.068-4.271c3.174,0,5.791,3.897,6.215,8.954
	c2.519,1.394,4.875,2.978,7.094,4.717c0.309-15.714-7.938-20.876-13.314-20.966v-0.001c-0.201-0.003-0.399,0-0.595,0.011
	c-6.188,0.342-15.771,4.28-11.673,29.292c3.288,20.076,10.624,74.828,13.395,95.661c0.545-1.246,1.229-2.471,2.075-3.616
	C157.289,129.728,162.016,75.802,164.447,62.195z"/>
<polygon fill="#FFFFFF" points="145.766,49.95 145.766,49.95 145.767,49.936 "/>
<path fill="#FFFFFF" d="M146.109,46.827c0,0,0-0.001,0-0.002C146.109,46.825,146.109,46.826,146.109,46.827z"/>
<path fill="#FFFFFF" d="M146.971,44.104l-0.002,0.004L146.971,44.104z"/>
<path fill="#FFFFFF" d="M155.236,153.885c-0.846,1.146-1.53,2.37-2.075,3.616c0.681,5.123,1.086,8.203,1.086,8.203
	S154.62,161.132,155.236,153.885z"/>
<path fill="#FFFFFF" d="M185.663,87.185c-3.368-14.445-10.291-25.813-20.314-33.681c-2.219-1.739-4.575-3.324-7.094-4.717
	c-3.313-1.828-6.871-3.354-10.686-4.561c-0.197-0.063-0.397-0.104-0.6-0.124c0,0.001-0.001,0.002-0.002,0.004
	c-0.363,0.823-0.654,1.734-0.86,2.717c0,0,0,0.001,0,0.002c-0.205,0.979-0.321,2.022-0.342,3.109c0,0.005,0,0.01-0.001,0.015
	c4.295,1.357,8.208,3.144,11.756,5.334c2.59,1.6,4.974,3.428,7.16,5.467c7.297,6.804,12.362,16.022,15.098,27.626
	c3.57,15.146,1.676,28.834,1.655,28.97c-0.021,0.143-0.031,0.285-0.031,0.431c0,17.461-6.087,28.247-17.139,30.369
	c-4.131,0.793-7.027,3.027-9.029,5.742c-0.614,7.243-0.989,11.817-0.989,11.817s-0.405-3.08-1.086-8.203
	c-1.306,2.983-1.827,6.053-1.866,8.228c-0.029,1.651,1.284,3.013,2.937,3.048c0.021,0,0.043,0.001,0.064,0.001
	c1.624,0,2.958-1.301,2.998-2.932c0.011-0.423,0.343-10.318,8.104-11.811c6.604-1.268,21.937-7.318,22.008-36.056
	C187.663,116.023,189.237,102.507,185.663,87.185z"/>
</svg>
