<?xml version="1.0" encoding="utf-8"?>
<!-- Generator: Adobe Illustrator 16.0.0, SVG Export Plug-In . SVG Version: 6.00 Build 0)  -->
<!DOCTYPE svg PUBLIC "-//W3C//DTD SVG 1.1//EN" "http://www.w3.org/Graphics/SVG/1.1/DTD/svg11.dtd">
<svg version="1.1"
	 id="svg8" xmlns:inkscape="http://www.inkscape.org/namespaces/inkscape" xmlns:sodipodi="http://sodipodi.sourceforge.net/DTD/sodipodi-0.dtd" xmlns:svg="http://www.w3.org/2000/svg" xmlns:rdf="http://www.w3.org/1999/02/22-rdf-syntax-ns#" xmlns:cc="http://creativecommons.org/ns#" xmlns:dc="http://purl.org/dc/elements/1.1/" inkscape:export-filename="/home/rafael/Documents/202WEB/202016401Revista/index_files/images/comercio.png" inkscape:version="1.1.1 (3bf5ae0, 2021-09-20)" sodipodi:docname="cad.svg" inkscape:export-ydpi="96" inkscape:export-xdpi="96"
	 xmlns="http://www.w3.org/2000/svg" xmlns:xlink="http://www.w3.org/1999/xlink" x="0px" y="0px" width="212.598px"
	 height="226.771px" viewBox="0 0 212.598 226.771" enable-background="new 0 0 212.598 226.771" xml:space="preserve">
<sodipodi:namedview  id="base" pagecolor="#ffffff" showgrid="false" bordercolor="#666666" borderopacity="1.0" inkscape:zoom="1.4" inkscape:cx="136.78571" inkscape:cy="145.71429" inkscape:window-maximized="1" inkscape:pagecheckerboard="0" inkscape:pageopacity="0.0" inkscape:pageshadow="2" inkscape:document-units="mm" inkscape:current-layer="layer1" inkscape:window-width="1366" inkscape:window-height="744" inkscape:window-x="0" inkscape:window-y="0">
	</sodipodi:namedview>
<path id="rect10" stroke="#CCCCCC" stroke-width="6" stroke-linecap="round" stroke-linejoin="round" d="M56.947,6.78h98.704
	c27.707,0,50.168,22.46,50.168,50.167v112.877c0,27.707-22.461,50.168-50.168,50.168H56.947c-27.705,0-50.167-22.461-50.167-50.168
	V56.947C6.78,29.24,29.24,6.78,56.947,6.78z"/>
<g id="path20020">
	<path fill="#CCCCCC" stroke="#CCCCCC" stroke-width="3" stroke-miterlimit="10" d="M61.486,203.29
		c-24.292,0-44.055-19.763-44.055-44.055s19.763-44.055,44.055-44.055s44.057,19.763,44.057,44.055S85.778,203.29,61.486,203.29z
		 M61.486,118.181c-22.638,0-41.055,18.417-41.055,41.055s18.417,41.055,41.055,41.055c22.64,0,41.057-18.417,41.057-41.055
		S84.124,118.181,61.486,118.181z"/>
</g>
<g id="path20055">
	<path fill="#CCCCCC" stroke="#FFFFFF" stroke-width="3" stroke-miterlimit="10" d="M58.822,160.79l31.677-29.396"/>
	<path fill="#FFFFFF" stroke="#FFFFFF" stroke-width="3" stroke-miterlimit="10" d="M58.822,161.79
		c-0.268,0-0.534-0.105-0.731-0.317c-0.376-0.405-0.354-1.038,0.053-1.414l31.675-29.396c0.404-0.376,1.038-0.352,1.413,0.053
		c0.376,0.405,0.354,1.038-0.053,1.414l-31.675,29.396C59.31,161.702,59.065,161.79,58.822,161.79z"/>
</g>
<g id="path30853">
	<path fill="#CCCCCC" stroke="#FFFFFF" stroke-width="3" stroke-miterlimit="10" d="M94.836,127.062l96.522-89.58"/>
	<path fill="#FFFFFF" stroke="#FFFFFF" stroke-width="3" stroke-miterlimit="10" d="M94.836,128.062
		c-0.27,0-0.536-0.107-0.733-0.319c-0.376-0.405-0.352-1.038,0.053-1.414L190.68,36.75c0.405-0.376,1.036-0.353,1.414,0.053
		c0.375,0.405,0.352,1.038-0.053,1.413l-96.525,89.58C95.324,127.974,95.08,128.062,94.836,128.062z"/>
</g>
<path id="path30888" sodipodi:nodetypes="ccccc" fill="#FFFFFF" d="M93.709,128.189l22.875-47.775l-0.753,26.804l27.104-0.553
	L93.709,128.189z"/>
</svg>
