<?xml version="1.0" encoding="utf-8"?>
<!-- Generator: Adobe Illustrator 16.0.0, SVG Export Plug-In . SVG Version: 6.00 Build 0)  -->
<!DOCTYPE svg PUBLIC "-//W3C//DTD SVG 1.1//EN" "http://www.w3.org/Graphics/SVG/1.1/DTD/svg11.dtd">
<svg version="1.1"
	 id="svg8" xmlns:inkscape="http://www.inkscape.org/namespaces/inkscape" xmlns:sodipodi="http://sodipodi.sourceforge.net/DTD/sodipodi-0.dtd" xmlns:svg="http://www.w3.org/2000/svg" xmlns:rdf="http://www.w3.org/1999/02/22-rdf-syntax-ns#" xmlns:cc="http://creativecommons.org/ns#" xmlns:dc="http://purl.org/dc/elements/1.1/" inkscape:export-filename="/home/rafael/Documents/202WEB/202016401Revista/index_files/images/comercio.png" inkscape:export-xdpi="96" inkscape:export-ydpi="96" sodipodi:docname="cam.svg" inkscape:version="1.1.1 (3bf5ae0, 2021-09-20)"
	 xmlns="http://www.w3.org/2000/svg" xmlns:xlink="http://www.w3.org/1999/xlink" x="0px" y="0px" width="212.598px"
	 height="226.771px" viewBox="0 0 212.598 226.771" enable-background="new 0 0 212.598 226.771" xml:space="preserve">
<sodipodi:namedview  id="base" inkscape:cy="145.71429" inkscape:cx="136.78571" inkscape:zoom="1.4" borderopacity="1.0" bordercolor="#666666" showgrid="false" pagecolor="#ffffff" inkscape:pagecheckerboard="0" inkscape:window-maximized="1" inkscape:window-y="0" inkscape:window-x="0" inkscape:window-height="744" inkscape:window-width="1366" inkscape:current-layer="layer1" inkscape:document-units="mm" inkscape:pageshadow="2" inkscape:pageopacity="0.0">
	</sodipodi:namedview>
<path id="rect10" stroke="#CCCCCC" stroke-width="6" stroke-linecap="round" stroke-linejoin="round" d="M56.947,6.78h98.704
	c27.707,0,50.168,22.46,50.168,50.167v112.877c0,27.707-22.461,50.168-50.168,50.168H56.947c-27.706,0-50.167-22.461-50.167-50.168
	V56.947C6.78,29.24,29.24,6.78,56.947,6.78z"/>
<g id="g31642" transform="translate(-0.51478804)">
	
		<path id="path31502" fill="none" stroke="#FFFFFF" stroke-width="6" stroke-linecap="round" stroke-linejoin="round" stroke-miterlimit="10" d="
		M105.411,91.246c0,0,21.798-11.347,25.45-22.691c3.653-11.346,3.399-10.686,3.399-10.686l33.091-1.293l37.458,26.861
		l-25.495,46.212l-16.356-6.663l1.129,56.183"/>
	
		<path id="path31584" fill="none" stroke="#FFFFFF" stroke-width="6" stroke-linecap="round" stroke-linejoin="round" stroke-miterlimit="10" d="
		M105.205,91.244c0,0-21.138-11.347-24.68-22.693c-3.542-11.346-3.296-10.685-3.296-10.685l-32.088-1.293L8.818,83.436
		l24.724,46.215l15.862-6.663l-1.096,56.184"/>
</g>
</svg>
