<?xml version="1.0" encoding="utf-8"?>
<!-- Generator: Adobe Illustrator 16.0.0, SVG Export Plug-In . SVG Version: 6.00 Build 0)  -->
<!DOCTYPE svg PUBLIC "-//W3C//DTD SVG 1.1//EN" "http://www.w3.org/Graphics/SVG/1.1/DTD/svg11.dtd">
<svg version="1.1"
	 id="svg8" xmlns:inkscape="http://www.inkscape.org/namespaces/inkscape" xmlns:sodipodi="http://sodipodi.sourceforge.net/DTD/sodipodi-0.dtd" xmlns:svg="http://www.w3.org/2000/svg" xmlns:rdf="http://www.w3.org/1999/02/22-rdf-syntax-ns#" xmlns:cc="http://creativecommons.org/ns#" xmlns:dc="http://purl.org/dc/elements/1.1/" inkscape:export-filename="/home/rafael/Documents/202WEB/202016401Revista/index_files/images/comercio.png" inkscape:export-xdpi="96" inkscape:export-ydpi="96" sodipodi:docname="tratamentodeimagem.svg" inkscape:version="1.1.1 (3bf5ae0, 2021-09-20)"
	 xmlns="http://www.w3.org/2000/svg" xmlns:xlink="http://www.w3.org/1999/xlink" x="0px" y="0px" width="212.598px"
	 height="226.771px" viewBox="0 0 212.598 226.771" enable-background="new 0 0 212.598 226.771" xml:space="preserve">
<sodipodi:namedview  id="base" inkscape:cy="153.57143" inkscape:cx="30.357143" inkscape:zoom="1.4" borderopacity="1.0" bordercolor="#666666" showgrid="false" pagecolor="#ffffff" inkscape:pagecheckerboard="0" inkscape:window-maximized="1" inkscape:window-y="0" inkscape:window-x="0" inkscape:window-height="744" inkscape:window-width="1366" inkscape:current-layer="layer1" inkscape:document-units="mm" inkscape:pageshadow="2" inkscape:pageopacity="0.0">
	</sodipodi:namedview>
<path id="rect10" stroke="#CCCCCC" stroke-width="6" stroke-linecap="round" stroke-linejoin="round" d="M56.947,6.78h98.704
	c27.707,0,50.168,22.46,50.168,50.167v112.877c0,27.707-22.461,50.168-50.168,50.168H56.947c-27.705,0-50.167-22.461-50.167-50.168
	V56.947C6.78,29.24,29.24,6.78,56.947,6.78z"/>
<g id="path47585">
	<path fill="#FFFFFF" d="M83.903,72.892c6.909,0,11.944,2.179,15.102,6.537c3.158,4.357,4.737,10.498,4.737,18.42
		c0,4.675-0.667,9.072-2,13.192c-1.283,4.041-3.479,7.329-6.588,9.865c-3.059,2.534-7.23,3.802-12.51,3.802h-6.069v33.041h-6.662
		V72.892H83.903 M76.575,115.559h5.33c5.034,0,8.784-1.307,11.252-3.923c2.467-2.614,3.701-7.052,3.701-13.311
		c0-5.468-1.086-9.547-3.257-12.241C91.43,83.39,88,82.044,83.311,82.044h-6.736V115.559 M83.903,66.892h-13.99h-6v6v84.856v6h6
		h6.662h6v-6v-27.041h0.069c6.69,0,12.188-1.743,16.337-5.182c3.979-3.246,6.844-7.518,8.479-12.669
		c1.511-4.667,2.281-9.726,2.281-15.007c0-9.177-1.978-16.559-5.879-21.941C99.528,69.926,92.812,66.892,83.903,66.892
		L83.903,66.892z M82.575,88.044h0.736c2.762,0,4.652,0.607,5.618,1.806c0.88,1.092,1.929,3.449,1.929,8.477
		c0,6.322-1.444,8.535-2.064,9.193c-1.189,1.26-3.279,1.942-6.218,2.031V88.044L82.575,88.044z"/>
</g>
<g id="path47587">
	<path fill="#FFFFFF" d="M128.834,71.702c2.913,0,5.576,0.435,7.996,1.307c2.416,0.872,4.613,2.021,6.588,3.447l-2.074,9.151
		c-1.824-1.269-3.825-2.337-5.996-3.209c-2.122-0.871-4.343-1.307-6.662-1.307c-3.307,0-5.798,1.148-7.475,3.446
		c-1.68,2.218-2.518,5.19-2.518,8.913c0,2.853,0.37,5.23,1.109,7.131c0.741,1.902,1.95,3.605,3.627,5.11
		c1.679,1.504,3.948,3.13,6.813,4.873c3.108,1.821,5.724,3.803,7.847,5.94c2.171,2.061,3.799,4.557,4.884,7.488
		c1.136,2.934,1.703,6.618,1.703,11.055c0,7.526-1.703,13.391-5.107,17.591c-3.403,4.199-7.995,6.297-13.769,6.297
		c-2.96,0-5.699-0.356-8.215-1.069c-2.519-0.714-4.614-1.703-6.291-2.971v-10.223c1.774,1.268,3.972,2.417,6.588,3.447
		c2.664,1.03,5.403,1.545,8.216,1.545c3.948,0,6.909-1.229,8.883-3.685c2.021-2.457,3.034-5.783,3.034-9.983
		c0-2.772-0.369-5.109-1.109-7.012c-0.74-1.901-2.023-3.644-3.851-5.23c-1.777-1.661-4.268-3.405-7.476-5.229
		c-4.492-2.614-7.896-5.824-10.216-9.626c-2.271-3.802-3.405-8.992-3.405-15.569c0-4.516,0.716-8.358,2.146-11.528
		c1.431-3.248,3.404-5.745,5.922-7.486C122.593,72.574,125.528,71.702,128.834,71.702 M128.834,65.702
		c-4.514,0-8.611,1.229-12.179,3.651l-0.021,0.015l-0.021,0.015c-3.423,2.368-6.11,5.725-7.988,9.977
		c-1.769,3.931-2.666,8.632-2.666,13.971c0,7.753,1.392,13.852,4.254,18.646l0.015,0.024l0.015,0.024
		c2.834,4.648,6.979,8.581,12.32,11.688l0.026,0.016l0.026,0.016c2.777,1.578,4.911,3.057,6.344,4.396l0.08,0.074l0.082,0.072
		c1.076,0.935,1.814,1.902,2.194,2.877c0.458,1.178,0.7,2.85,0.7,4.835c0,2.75-0.562,4.826-1.668,6.171l-0.021,0.027l-0.021,0.026
		c-0.317,0.396-1.16,1.443-4.206,1.443c-2.087,0-4.066-0.373-6.052-1.141c-2.115-0.833-3.897-1.758-5.265-2.733l-9.487-6.778v11.66
		v10.223v2.985l2.382,1.801c2.264,1.712,5.047,3.043,8.273,3.957c3.036,0.86,6.351,1.297,9.851,1.297
		c7.54,0,13.913-2.946,18.43-8.519c4.277-5.277,6.446-12.467,6.446-21.369c0-5.213-0.685-9.524-2.092-13.179
		c-1.391-3.74-3.51-6.987-6.299-9.654c-2.461-2.466-5.477-4.753-8.964-6.801c-2.51-1.53-4.491-2.94-5.888-4.191
		c-0.973-0.874-1.642-1.797-2.04-2.821c-0.318-0.819-0.7-2.347-0.7-4.952c0-2.371,0.438-4.151,1.301-5.291l0.032-0.042l0.031-0.043
		c0.269-0.367,0.718-0.982,2.628-0.982c1.544,0,2.978,0.281,4.384,0.858c1.793,0.72,3.41,1.583,4.849,2.584l7.31,5.083l1.968-8.683
		l2.074-9.151l0.877-3.867l-3.215-2.322c-2.415-1.746-5.129-3.168-8.064-4.228C135.802,66.261,132.428,65.702,128.834,65.702
		L128.834,65.702z"/>
</g>
</svg>
