<?xml version="1.0" encoding="utf-8"?>
<!-- Generator: Adobe Illustrator 16.0.0, SVG Export Plug-In . SVG Version: 6.00 Build 0)  -->
<!DOCTYPE svg PUBLIC "-//W3C//DTD SVG 1.1//EN" "http://www.w3.org/Graphics/SVG/1.1/DTD/svg11.dtd">
<svg version="1.1"
	 id="svg8" xmlns:inkscape="http://www.inkscape.org/namespaces/inkscape" xmlns:sodipodi="http://sodipodi.sourceforge.net/DTD/sodipodi-0.dtd" xmlns:svg="http://www.w3.org/2000/svg" xmlns:rdf="http://www.w3.org/1999/02/22-rdf-syntax-ns#" xmlns:cc="http://creativecommons.org/ns#" xmlns:dc="http://purl.org/dc/elements/1.1/" inkscape:export-filename="/home/rafael/Documents/202WEB/202016401Revista/index_files/images/comercio.png" inkscape:export-xdpi="96" inkscape:export-ydpi="96" sodipodi:docname="charges.svg" inkscape:version="1.1.1 (3bf5ae0, 2021-09-20)"
	 xmlns="http://www.w3.org/2000/svg" xmlns:xlink="http://www.w3.org/1999/xlink" x="0px" y="0px" width="212.598px"
	 height="226.771px" viewBox="0 0 212.598 226.771" enable-background="new 0 0 212.598 226.771" xml:space="preserve">
<sodipodi:namedview  id="base" inkscape:cy="166.42857" inkscape:cx="30.357143" inkscape:zoom="1.4" borderopacity="1.0" bordercolor="#666666" showgrid="false" pagecolor="#ffffff" inkscape:pagecheckerboard="0" inkscape:window-maximized="1" inkscape:window-y="0" inkscape:window-x="0" inkscape:window-height="744" inkscape:window-width="1366" inkscape:current-layer="layer1" inkscape:document-units="mm" inkscape:pageshadow="2" inkscape:pageopacity="0.0">
	</sodipodi:namedview>
<path id="rect10" stroke="#CCCCCC" stroke-width="6" stroke-linecap="round" stroke-linejoin="round" d="M56.947,6.779h98.704
	c27.707,0,50.168,22.461,50.168,50.168v112.877c0,27.707-22.461,50.168-50.168,50.168H56.947c-27.706,0-50.167-22.461-50.167-50.168
	V56.947C6.78,29.24,29.24,6.779,56.947,6.779z"/>
<g id="g22062" transform="translate(-3.1019291,-0.7740792)">
	
		<ellipse id="path21533" fill="none" stroke="#FFFFFF" stroke-width="6" stroke-miterlimit="10" cx="100.484" cy="106.147" rx="14.167" ry="13"/>
	
		<ellipse id="ellipse21637" fill="none" stroke="#FFFFFF" stroke-width="6" stroke-miterlimit="10" cx="139.102" cy="105.041" rx="14.167" ry="13"/>
	<path id="path21672" fill="none" stroke="#FFFFFF" stroke-width="6" stroke-miterlimit="10" d="M130.541,123.365
		c0,0,15.271,3.271,11.345,14.832c-3.928,11.563-20.004,8.515-29.231,3.831c-9.227-4.683-9.464-8.452-9.464-8.452"/>
	<path id="path21707" fill="none" stroke="#FFFFFF" stroke-width="6" stroke-miterlimit="10" d="M160.787,118.872
		c0,0,13.227,6.34,7.616,27.016c-5.609,20.674-12.744,44.505-40.646,43.288c-27.901-1.219-67.225-8.382-71.939-41.979
		c-4.716-33.596,7.775-33.866,7.775-33.866"/>
	<path id="path21894" fill="none" stroke="#FFFFFF" stroke-width="6" stroke-miterlimit="10" d="M124.208,55.052l-10.733,26.497
		L69.37,91.275l3.787,30.424l-8.58,1.632l-5.433-30.386L47.057,97c0,0-2.577,12.731,8.274,20.355
		c10.852,7.621-13.562,8.387-19.508-7.212s15.262-68.214,85.55-70.957s52.563,60.125,52.563,60.125l-46.272-21.491L124.208,55.052z"
		/>
</g>
</svg>
