<?xml version="1.0" encoding="utf-8"?>
<!-- Generator: Adobe Illustrator 16.0.0, SVG Export Plug-In . SVG Version: 6.00 Build 0)  -->
<!DOCTYPE svg PUBLIC "-//W3C//DTD SVG 1.1//EN" "http://www.w3.org/Graphics/SVG/1.1/DTD/svg11.dtd">
<svg version="1.1"
	 id="svg8" xmlns:inkscape="http://www.inkscape.org/namespaces/inkscape" xmlns:sodipodi="http://sodipodi.sourceforge.net/DTD/sodipodi-0.dtd" xmlns:svg="http://www.w3.org/2000/svg" xmlns:rdf="http://www.w3.org/1999/02/22-rdf-syntax-ns#" xmlns:cc="http://creativecommons.org/ns#" xmlns:dc="http://purl.org/dc/elements/1.1/" sodipodi:docname="comercio.svg" inkscape:version="1.1.1 (3bf5ae0, 2021-09-20)"
	 xmlns="http://www.w3.org/2000/svg" xmlns:xlink="http://www.w3.org/1999/xlink" x="0px" y="0px" width="212.598px"
	 height="226.771px" viewBox="0 0 212.598 226.771" enable-background="new 0 0 212.598 226.771" xml:space="preserve">
<sodipodi:namedview  id="base" inkscape:cy="129.28571" inkscape:cx="115.35714" inkscape:zoom="1.4" borderopacity="1.0" bordercolor="#666666" showgrid="false" pagecolor="#ffffff" inkscape:pagecheckerboard="0" inkscape:window-maximized="1" inkscape:window-y="0" inkscape:window-x="0" inkscape:window-height="744" inkscape:window-width="1366" inkscape:current-layer="layer1" inkscape:document-units="mm" inkscape:pageshadow="2" inkscape:pageopacity="0.0">
	</sodipodi:namedview>
<path id="rect10" stroke="#CCCCCC" stroke-width="6" stroke-linecap="round" stroke-linejoin="round" d="M56.947,6.779h98.704
	c27.707,0,50.168,22.461,50.168,50.168v112.877c0,27.707-22.461,50.168-50.168,50.168H56.947c-27.705,0-50.167-22.461-50.167-50.168
	V56.947C6.78,29.24,29.24,6.779,56.947,6.779z"/>
<path fill="none" stroke="#FFFFFF" stroke-width="6" stroke-miterlimit="10" d="M95.435,204.466V182.69
	c-12.79-0.685-25.892-4.434-34.047-9.835l-2.011-1.332l7.722-19.999l3.075,1.899c9.02,5.579,20.584,8.778,31.729,8.778
	c14.44,0,24.526-7.413,24.526-18.027c0-9.68-7.01-16.264-24.194-22.726c-20.816-7.573-40.108-17.661-40.108-39.929
	c0-18.612,13.617-32.947,34.928-37.072V22.305h20.341v20.948c10.833,0.672,20.184,3.214,28.503,7.738l2.36,1.283l-8.052,19.717
	l-2.932-1.552c-3.921-2.079-13.104-6.946-27.737-6.946c-15.885,0-21.521,8.325-21.521,15.453c0,8.834,6.001,13.693,26.757,21.66
	c26.478,10.014,37.777,22.596,37.777,42.065c0,16.12-11.326,34.115-36.547,39.001v22.79H95.435V204.466z"/>
</svg>
