<?xml version="1.0" encoding="utf-8"?>
<!-- Generator: Adobe Illustrator 16.0.0, SVG Export Plug-In . SVG Version: 6.00 Build 0)  -->
<!DOCTYPE svg PUBLIC "-//W3C//DTD SVG 1.1//EN" "http://www.w3.org/Graphics/SVG/1.1/DTD/svg11.dtd">
<svg version="1.1"
	 id="svg8" xmlns:inkscape="http://www.inkscape.org/namespaces/inkscape" xmlns:sodipodi="http://sodipodi.sourceforge.net/DTD/sodipodi-0.dtd" xmlns:svg="http://www.w3.org/2000/svg" xmlns:rdf="http://www.w3.org/1999/02/22-rdf-syntax-ns#" xmlns:cc="http://creativecommons.org/ns#" xmlns:dc="http://purl.org/dc/elements/1.1/" inkscape:export-filename="/home/rafael/Documents/202WEB/202016401Revista/index_files/images/comercio.png" inkscape:export-xdpi="96" inkscape:export-ydpi="96" sodipodi:docname="cultura.svg" inkscape:version="1.1.1 (3bf5ae0, 2021-09-20)"
	 xmlns="http://www.w3.org/2000/svg" xmlns:xlink="http://www.w3.org/1999/xlink" x="0px" y="0px" width="212.598px"
	 height="226.771px" viewBox="0 0 212.598 226.771" enable-background="new 0 0 212.598 226.771" xml:space="preserve">
<sodipodi:namedview  id="base" inkscape:cy="166.42857" inkscape:cx="30.357143" inkscape:zoom="1.4" borderopacity="1.0" bordercolor="#666666" showgrid="false" pagecolor="#ffffff" inkscape:pagecheckerboard="0" inkscape:window-maximized="1" inkscape:window-y="0" inkscape:window-x="0" inkscape:window-height="744" inkscape:window-width="1366" inkscape:current-layer="layer1" inkscape:document-units="mm" inkscape:pageshadow="2" inkscape:pageopacity="0.0">
	</sodipodi:namedview>
<path id="rect10" stroke="#CCCCCC" stroke-width="6" stroke-linecap="round" stroke-linejoin="round" d="M56.947,6.78h98.704
	c27.707,0,50.168,22.46,50.168,50.167v112.877c0,27.707-22.461,50.168-50.168,50.168H56.947c-27.706,0-50.167-22.461-50.167-50.168
	V56.947C6.78,29.24,29.24,6.78,56.947,6.78z"/>
<path fill="#FFFFFF" stroke="#CCCCCC" stroke-width="3" stroke-linecap="round" stroke-linejoin="round" d="M63.183,54.18
	C36.21,54.743,21.854,46.87,21.854,46.87v95.87c0,0,14.355,7.874,41.328,7.311c26.972-0.563,45.156,15.947,45.156,15.947v-95.87
	C108.338,70.127,90.155,53.617,63.183,54.18z"/>
<path id="path17605" sodipodi:nodetypes="csc" fill="none" stroke="#CCCCCC" stroke-width="3" stroke-linecap="round" stroke-linejoin="round" d="
	M110.122,179.901c0,0-18.935-5.344-47.019-5.162c-28.084,0.183-43.032-2.366-43.032-2.366"/>
<path id="path18227" fill="none" stroke="#CCCCCC" stroke-width="3" stroke-linecap="round" stroke-linejoin="round" d="
	M20.071,172.373l1.783-17.512"/>
<path fill="#FFFFFF" stroke="#CCCCCC" stroke-width="2.8664" stroke-linecap="round" stroke-linejoin="round" d="M153.47,54.012
	c-24.554-0.565-41.108,15.992-41.108,15.992v96.144c0,0,16.556-16.559,41.108-15.993c24.554,0.565,37.623-7.331,37.623-7.331V46.681
	C191.093,46.681,178.024,54.576,153.47,54.012z"/>
<path id="path18403" sodipodi:nodetypes="csc" fill="none" stroke="#CCCCCC" stroke-width="2.8664" stroke-linecap="round" stroke-linejoin="round" d="
	M110.739,180.091c0,0,17.236-5.358,42.804-5.177c25.566,0.184,39.176-2.373,39.176-2.373"/>
<path id="path18405" fill="none" stroke="#CCCCCC" stroke-width="2.8664" stroke-linecap="round" stroke-linejoin="round" d="
	M192.717,172.541l-1.624-17.562"/>
<path id="path18407" fill="none" stroke="#CCCCCC" stroke-width="3" stroke-linecap="round" stroke-linejoin="round" d="
	M108.338,80.714v95.87c0,0-18.185-16.511-45.156-15.947c-26.973,0.563-41.328-7.31-41.328-7.31"/>
<path id="path18409" fill="none" stroke="#CCCCCC" stroke-width="2.8664" stroke-linecap="round" stroke-linejoin="round" d="
	M112.362,80.591v96.144c0,0,16.556-16.558,41.108-15.992s37.623-7.331,37.623-7.331"/>
</svg>
