<?xml version="1.0" encoding="utf-8"?>
<!-- Generator: Adobe Illustrator 16.0.0, SVG Export Plug-In . SVG Version: 6.00 Build 0)  -->
<!DOCTYPE svg PUBLIC "-//W3C//DTD SVG 1.1//EN" "http://www.w3.org/Graphics/SVG/1.1/DTD/svg11.dtd">
<svg version="1.1"
	 id="svg8" xmlns:inkscape="http://www.inkscape.org/namespaces/inkscape" xmlns:sodipodi="http://sodipodi.sourceforge.net/DTD/sodipodi-0.dtd" xmlns:svg="http://www.w3.org/2000/svg" xmlns:rdf="http://www.w3.org/1999/02/22-rdf-syntax-ns#" xmlns:cc="http://creativecommons.org/ns#" xmlns:dc="http://purl.org/dc/elements/1.1/" inkscape:export-filename="/home/rafael/Documents/202WEB/202016401Revista/index_files/images/comercio.png" inkscape:version="1.1.1 (3bf5ae0, 2021-09-20)" sodipodi:docname="esportes.svg" inkscape:export-ydpi="96" inkscape:export-xdpi="96"
	 xmlns="http://www.w3.org/2000/svg" xmlns:xlink="http://www.w3.org/1999/xlink" x="0px" y="0px" width="212.598px"
	 height="226.771px" viewBox="0 0 212.598 226.771" enable-background="new 0 0 212.598 226.771" xml:space="preserve">
<sodipodi:namedview  id="base" pagecolor="#ffffff" showgrid="false" bordercolor="#666666" borderopacity="1.0" inkscape:zoom="1.4" inkscape:cx="30.357143" inkscape:cy="166.42857" inkscape:window-maximized="1" inkscape:pagecheckerboard="0" inkscape:pageopacity="0.0" inkscape:pageshadow="2" inkscape:document-units="mm" inkscape:current-layer="layer1" inkscape:window-width="1366" inkscape:window-height="744" inkscape:window-x="0" inkscape:window-y="0">
	</sodipodi:namedview>
<path id="rect10" stroke="#CCCCCC" stroke-width="6" stroke-linecap="round" stroke-linejoin="round" d="M56.947,6.78h98.704
	c27.707,0,50.168,22.46,50.168,50.167v112.877c0,27.707-22.461,50.168-50.168,50.168H56.947c-27.705,0-50.167-22.461-50.167-50.168
	V56.947C6.78,29.24,29.24,6.78,56.947,6.78z"/>
<path id="path13671" fill="none" stroke="#FFFFFF" stroke-width="6" stroke-linecap="round" stroke-linejoin="round" d="
	M60.681,47.36c-7.196,4.688-17.408,3.424-22.809-2.822l0,0c-5.401-6.247-3.946-15.111,3.251-19.799l0,0
	c7.194-4.688,17.406-3.425,22.809,2.822C69.333,33.807,67.877,42.672,60.681,47.36z"/>
<path id="rect13775" fill="none" stroke="#FFFFFF" stroke-width="6" stroke-linecap="round" stroke-linejoin="round" d="
	M53.846,65.666l7.131-3.707c3.233-1.681,7.396-0.772,9.331,2.032l34.899,50.59c1.938,2.809,0.894,6.42-2.34,8.102l-7.133,3.707
	c-3.231,1.682-7.395,0.772-9.331-2.031L51.505,73.766C49.568,70.959,50.613,67.347,53.846,65.666z"/>
<path id="rect14080" sodipodi:nodetypes="csccscc" fill="none" stroke="#FFFFFF" stroke-width="6" stroke-linecap="round" stroke-linejoin="round" d="
	M91.982,123.469c2.203,1.037,3.18,3.496,1.818,5.322l-23.278,31.244c-1.193,1.91-3.93,2.615-6.132,1.577s-3.179-3.497-1.818-5.323
	l23.277-31.243C87.045,123.135,89.78,122.432,91.982,123.469z"/>
<path id="path14300" fill="none" stroke="#FFFFFF" stroke-width="6" stroke-linecap="round" stroke-linejoin="round" d="
	M189.598,57.976c1.665,1.625,1.498,4.097-0.375,5.542l-77.038,59.474c-1.872,1.447-4.721,1.301-6.386-0.324
	s-1.499-4.097,0.374-5.542l77.041-59.474C185.084,56.205,187.933,56.35,189.598,57.976L189.598,57.976z"/>
<path id="path14302" sodipodi:nodetypes="sssssss" fill="none" stroke="#FFFFFF" stroke-width="6" stroke-linecap="round" stroke-linejoin="round" d="
	M85.542,202.063c-2.166,1.094-5.309,0.618-6.185-1.42l-16.011-37.252c-0.877-2.037-0.53-4.273,1.635-5.367s5.309-0.617,6.185,1.42
	l16.012,37.252C88.055,198.733,87.708,200.969,85.542,202.063z"/>
<path id="path16758" sodipodi:nodetypes="sssssss" fill="none" stroke="#FFFFFF" stroke-width="6" stroke-linecap="round" stroke-linejoin="round" d="
	M43.768,75.241c2.393,0.65,3.594,2.814,2.965,4.919l-5.836,19.532c-0.629,2.104-3.274,3.223-5.667,2.574
	c-2.391-0.65-3.594-2.814-2.965-4.919l5.836-19.532C38.73,75.709,41.377,74.591,43.768,75.241z"/>
<path id="path17029" sodipodi:nodetypes="sssssss" fill="none" stroke="#FFFFFF" stroke-width="6" stroke-linecap="round" stroke-linejoin="round" d="
	M32.992,100.152c1.787-1.522,4.555-1.42,6.395,0.056L56.462,113.9c1.841,1.477,1.725,4.029-0.064,5.552
	c-1.79,1.522-4.555,1.42-6.396-0.056l-17.075-13.692C31.087,104.228,31.203,101.674,32.992,100.152L32.992,100.152z"/>
<path id="path17046" sodipodi:nodetypes="sssssss" fill="none" stroke="#FFFFFF" stroke-width="6" stroke-linecap="round" stroke-linejoin="round" d="
	M78.013,65.572c-1.767-1.542-1.67-3.943,0.016-5.552l15.646-14.927c1.687-1.606,4.629-1.526,6.396,0.017
	c1.768,1.542,1.669,3.941-0.016,5.552L84.409,65.586C82.722,67.195,79.78,67.114,78.013,65.572L78.013,65.572z"/>
<path id="path17048" sodipodi:nodetypes="sssssss" fill="none" stroke="#FFFFFF" stroke-width="6" stroke-linecap="round" stroke-linejoin="round" d="
	M100.915,47.885c-2.401,0.624-4.792-0.585-5.629-2.635l-7.766-19.02c-0.836-2.05,0.637-4.265,3.035-4.889
	c2.4-0.624,4.793,0.585,5.631,2.637l7.764,19.02C104.787,45.048,103.315,47.26,100.915,47.885z"/>
</svg>
