<?xml version="1.0" encoding="utf-8"?>
<!-- Generator: Adobe Illustrator 16.0.0, SVG Export Plug-In . SVG Version: 6.00 Build 0)  -->
<!DOCTYPE svg PUBLIC "-//W3C//DTD SVG 1.1//EN" "http://www.w3.org/Graphics/SVG/1.1/DTD/svg11.dtd">
<svg version="1.1"
	 id="svg8" xmlns:inkscape="http://www.inkscape.org/namespaces/inkscape" xmlns:sodipodi="http://sodipodi.sourceforge.net/DTD/sodipodi-0.dtd" xmlns:svg="http://www.w3.org/2000/svg" xmlns:rdf="http://www.w3.org/1999/02/22-rdf-syntax-ns#" xmlns:cc="http://creativecommons.org/ns#" xmlns:dc="http://purl.org/dc/elements/1.1/" inkscape:export-filename="/home/rafael/Documents/202WEB/202016401Revista/index_files/images/comercio.png" inkscape:export-xdpi="96" inkscape:export-ydpi="96" sodipodi:docname="fotografia.svg" inkscape:version="1.1.1 (3bf5ae0, 2021-09-20)"
	 xmlns="http://www.w3.org/2000/svg" xmlns:xlink="http://www.w3.org/1999/xlink" x="0px" y="0px" width="212.598px"
	 height="226.771px" viewBox="0 0 212.598 226.771" enable-background="new 0 0 212.598 226.771" xml:space="preserve">
<sodipodi:namedview  id="base" inkscape:cy="250.51783" inkscape:cx="21.71828" inkscape:zoom="0.98994949" borderopacity="1.0" bordercolor="#666666" showgrid="false" pagecolor="#ffffff" inkscape:pagecheckerboard="0" inkscape:window-maximized="1" inkscape:window-y="0" inkscape:window-x="0" inkscape:window-height="744" inkscape:window-width="1366" inkscape:current-layer="layer1" inkscape:document-units="mm" inkscape:pageshadow="2" inkscape:pageopacity="0.0">
	</sodipodi:namedview>
<path id="rect10" stroke="#CCCCCC" stroke-width="6" stroke-linecap="round" stroke-linejoin="round" d="M56.947,6.78h98.704
	c27.707,0,50.168,22.46,50.168,50.167v112.877c0,27.707-22.461,50.168-50.168,50.168H56.947c-27.706,0-50.167-22.461-50.167-50.168
	V56.947C6.78,29.24,29.24,6.78,56.947,6.78z"/>
<g id="g47374">
	<path id="path44016" fill="none" stroke="#FFFFFF" stroke-width="6" stroke-miterlimit="10" d="M165.28,163.31
		c-14.646,16.329-35.774,21.264-47.195,11.021s-8.807-31.784,5.841-48.113c14.646-16.329,35.777-21.264,47.197-11.021l0,0
		C182.542,125.438,179.926,146.979,165.28,163.31z"/>
	<path id="rect44144" sodipodi:nodetypes="ccsssccssc" fill="none" stroke="#FFFFFF" stroke-width="6" stroke-miterlimit="10" d="
		M109.658,166.032l-32.415,19.82c-2.872,1.737-5.664,2.025-7.863,1.083c-2.195-0.942-3.799-3.112-4.297-6.291l-8.746-55.831
		c-0.997-6.361,2.822-14.281,8.563-17.758l86.209-52.214c3.053-1.849,6.015-2.058,8.271-0.892c1.985,1.027,3.424,3.12,3.891,6.099
		l8.746,55.83"/>
	<path id="path44283" sodipodi:nodetypes="csc" fill="none" stroke="#FFFFFF" stroke-width="6" stroke-miterlimit="10" d="
		M121.239,176.848l-24.967-20.336c-11.42-10.243-8.806-31.784,5.841-48.113c14.646-16.33,35.776-21.265,47.196-11.021l22.705,18.502
		"/>
	<path id="path44285" sodipodi:nodetypes="cssccc" fill="none" stroke="#FFFFFF" stroke-width="6" stroke-miterlimit="10" d="
		M69.363,188.363l-21.85-19.271c-2.168-0.953-3.749-3.114-4.242-6.268l-8.747-55.831c-0.996-6.361,2.822-14.282,8.563-17.758
		l86.208-52.213c3.073-1.861,6.056-2.062,8.315-0.868l22.101,17.924"/>
</g>
</svg>
