<?xml version="1.0" encoding="utf-8"?>
<!-- Generator: Adobe Illustrator 16.0.0, SVG Export Plug-In . SVG Version: 6.00 Build 0)  -->
<!DOCTYPE svg PUBLIC "-//W3C//DTD SVG 1.1//EN" "http://www.w3.org/Graphics/SVG/1.1/DTD/svg11.dtd">
<svg version="1.1"
	 id="svg8" xmlns:inkscape="http://www.inkscape.org/namespaces/inkscape" xmlns:sodipodi="http://sodipodi.sourceforge.net/DTD/sodipodi-0.dtd" xmlns:svg="http://www.w3.org/2000/svg" xmlns:rdf="http://www.w3.org/1999/02/22-rdf-syntax-ns#" xmlns:cc="http://creativecommons.org/ns#" xmlns:dc="http://purl.org/dc/elements/1.1/" inkscape:export-filename="/home/rafael/Documents/202WEB/202016401Revista/index_files/images/comercio.png" inkscape:export-ydpi="96" inkscape:export-xdpi="96" sodipodi:docname="ilustracaopolitica.svg" inkscape:version="1.1.1 (3bf5ae0, 2021-09-20)"
	 xmlns="http://www.w3.org/2000/svg" xmlns:xlink="http://www.w3.org/1999/xlink" x="0px" y="0px" width="212.598px"
	 height="226.771px" viewBox="0 0 212.598 226.771" enable-background="new 0 0 212.598 226.771" xml:space="preserve">
<sodipodi:namedview  id="base" inkscape:zoom="0.98994949" borderopacity="1.0" bordercolor="#666666" showgrid="false" pagecolor="#ffffff" inkscape:cy="80.812204" inkscape:cx="31.819805" inkscape:pagecheckerboard="0" inkscape:window-maximized="1" inkscape:window-y="0" inkscape:window-x="0" inkscape:window-height="744" inkscape:window-width="1366" inkscape:current-layer="layer1" inkscape:document-units="mm" inkscape:pageshadow="2" inkscape:pageopacity="0.0">
	</sodipodi:namedview>
<path id="rect10" stroke="#CCCCCC" stroke-width="6" stroke-linecap="round" stroke-linejoin="round" d="M205.819,107.357h-68.125
	c-0.213,0-0.422,0.011-0.629,0.032c-0.206,0.021-0.41,0.052-0.61,0.092s-0.396,0.091-0.587,0.151
	c-0.192,0.06-0.381,0.128-0.564,0.205c-0.184,0.078-0.362,0.164-0.536,0.258s-0.341,0.196-0.504,0.306s-0.32,0.227-0.472,0.352
	s-0.297,0.257-0.436,0.396c-0.139,0.139-0.271,0.282-0.395,0.434c-0.125,0.151-0.242,0.309-0.352,0.472
	c-0.11,0.163-0.213,0.332-0.307,0.505s-0.181,0.353-0.258,0.536c-0.077,0.184-0.146,0.372-0.205,0.564
	c-0.06,0.192-0.11,0.388-0.15,0.587c-0.041,0.2-0.072,0.403-0.093,0.609s-0.03,0.417-0.03,0.628v106.507h24.084
	c27.793,0,50.168-22.375,50.168-50.168V107.357z"/>
<path id="path22518" stroke="#CCCCCC" stroke-width="6" stroke-linecap="round" stroke-linejoin="round" d="M78.022,219.991v-108
	c0-0.424-0.042-0.838-0.123-1.238s-0.201-0.785-0.356-1.151s-0.344-0.716-0.564-1.042s-0.47-0.628-0.747-0.905
	s-0.581-0.527-0.907-0.747s-0.673-0.409-1.04-0.564c-0.367-0.154-0.753-0.274-1.153-0.356s-0.813-0.125-1.238-0.125H6.779v63.959
	c0,27.793,22.375,50.168,50.168,50.168H78.022z"/>
<path id="path22521" fill="#CCCCCC" stroke="#CCCCCC" stroke-width="6" stroke-linecap="round" stroke-linejoin="round" d="
	M56.947,6.779c-27.793,0-50.168,22.375-50.168,50.168v48.917h65.115c0.424,0,0.838,0.043,1.238,0.125s0.786,0.202,1.153,0.356
	c0.367,0.155,0.714,0.344,1.04,0.564s0.63,0.47,0.907,0.747s0.527,0.58,0.747,0.905s0.409,0.675,0.564,1.042
	s0.274,0.752,0.356,1.151s0.123,0.813,0.123,1.238v108h53.545V113.484c0-0.212,0.01-0.422,0.03-0.628s0.052-0.41,0.093-0.609
	c0.04-0.2,0.091-0.395,0.15-0.587c0.06-0.192,0.128-0.38,0.205-0.564c0.077-0.183,0.164-0.362,0.258-0.536s0.196-0.342,0.307-0.505
	c0.109-0.163,0.227-0.32,0.352-0.472c0.124-0.151,0.256-0.295,0.395-0.434c0.139-0.138,0.284-0.271,0.436-0.396
	s0.309-0.242,0.472-0.352s0.33-0.212,0.504-0.306s0.353-0.18,0.536-0.258c0.184-0.077,0.372-0.146,0.564-0.205
	c0.191-0.06,0.387-0.11,0.587-0.151s0.404-0.071,0.61-0.092c0.207-0.021,0.416-0.032,0.629-0.032h68.125v-50.41
	c0-27.793-22.375-50.168-50.168-50.168H56.947z"/>
<path id="path22190" stroke="#FFFFFF" stroke-width="6" stroke-miterlimit="10" d="M133.6,65.896
	c0,14.862-12.049,26.909-26.91,26.909l0,0c-14.861,0-26.909-12.047-26.909-26.909l0,0c0-14.861,12.048-26.909,26.909-26.909l0,0
	C121.551,38.987,133.6,51.035,133.6,65.896L133.6,65.896z"/>
<path id="rect22393" stroke="#CCCCCC" stroke-width="6" stroke-linecap="round" stroke-linejoin="round" d="M70.454,99.477h69.412
	c3.385,0,6.128,2.743,6.128,6.127v110.723c0,3.385-2.743,6.127-6.128,6.127H70.454c-3.384,0-6.127-2.742-6.127-6.127V105.604
	C64.327,102.22,67.07,99.477,70.454,99.477z"/>
<path id="path22479" stroke="#FFFFFF" stroke-width="6" stroke-linecap="round" stroke-linejoin="round" d="M65.628,72.285
	c0,14.861-12.048,26.909-26.909,26.909l0,0c-14.861,0-26.909-12.048-26.909-26.909l0,0c0-14.862,12.048-26.909,26.909-26.909l0,0
	C53.581,45.376,65.628,57.423,65.628,72.285L65.628,72.285z"/>
<path id="path22485" stroke="#FFFFFF" stroke-width="6" stroke-linecap="round" stroke-linejoin="round" d="M200.838,73.777
	c0,14.861-12.048,26.909-26.909,26.909l0,0c-14.861,0-26.909-12.048-26.909-26.909l0,0c0-14.862,12.048-26.909,26.909-26.909l0,0
	C188.791,46.868,200.838,58.916,200.838,73.777L200.838,73.777L200.838,73.777z"/>
<path id="path23524" stroke="#CCCCCC" stroke-width="6" stroke-linecap="round" stroke-linejoin="round" d="M68.054,7.011
	c-14.861,0-26.909,12.048-26.909,26.909l0,0c0.014,0.29,0.033,0.579,0.057,0.867c0.741,0.051,1.48,0.123,2.216,0.215
	c0.823,0.106,1.643,0.239,2.458,0.398c0.815,0.16,1.625,0.345,2.429,0.557c0.803,0.211,1.599,0.448,2.386,0.71
	c0.788,0.263,1.567,0.55,2.336,0.863s1.529,0.649,2.276,1.011c0.748,0.361,1.483,0.746,2.206,1.154
	c0.723,0.408,1.433,0.84,2.128,1.293c0.695,0.454,1.376,0.931,2.041,1.428c0.665,0.498,1.313,1.017,1.945,1.556
	c0.631,0.54,1.245,1.099,1.84,1.677c0.596,0.579,1.173,1.177,1.73,1.793c0.557,0.616,1.094,1.25,1.61,1.9
	c0.517,0.65,1.013,1.316,1.487,1.998c0.302-0.749,0.627-1.488,0.976-2.216c0.349-0.728,0.72-1.445,1.113-2.15
	s0.809-1.398,1.245-2.077c0.436-0.68,0.894-1.346,1.371-1.997c0.478-0.65,0.977-1.286,1.494-1.906s1.055-1.223,1.61-1.809
	c0.555-0.586,1.129-1.155,1.72-1.705c0.591-0.55,1.199-1.082,1.824-1.594c0.624-0.512,1.264-1.005,1.919-1.478
	s1.324-0.924,2.007-1.355s1.38-0.84,2.089-1.228c0.708-0.387,1.429-0.752,2.161-1.094c0.731-0.342,1.473-0.661,2.224-0.957
	c0.751-0.295,1.512-0.568,2.281-0.816c0.055-0.016,0.11-0.032,0.166-0.048C92.082,16.209,80.982,7.013,68.054,7.011z"/>
<path id="path23527" stroke="#CCCCCC" stroke-width="6" stroke-linecap="round" stroke-linejoin="round" d="M144.057,7.011
	c-12.875,0.028-23.928,9.173-26.364,21.816c0.089,0.025,0.178,0.05,0.267,0.076c0.757,0.241,1.506,0.504,2.247,0.791
	c0.74,0.287,1.472,0.596,2.192,0.927c0.723,0.332,1.434,0.686,2.133,1.061c0.701,0.375,1.389,0.772,2.064,1.189
	c0.676,0.417,1.338,0.855,1.986,1.313c0.648,0.458,1.283,0.937,1.902,1.434c0.619,0.497,1.224,1.013,1.811,1.547
	c0.588,0.534,1.159,1.086,1.713,1.655c0.554,0.569,1.09,1.156,1.607,1.758s1.017,1.22,1.496,1.853c0.48,0.633,0.94,1.28,1.381,1.941
	c0.439,0.661,0.859,1.335,1.258,2.021c0.398,0.687,0.775,1.386,1.131,2.096s0.689,1.431,1.002,2.161
	c0.477-0.656,0.975-1.296,1.491-1.92c0.518-0.625,1.054-1.234,1.61-1.825c0.555-0.591,1.129-1.165,1.721-1.72s1.2-1.091,1.825-1.608
	s1.266-1.014,1.922-1.491c0.655-0.477,1.327-0.932,2.011-1.367c0.686-0.435,1.385-0.848,2.096-1.239
	c0.711-0.391,1.434-0.759,2.168-1.104c0.733-0.345,1.479-0.668,2.232-0.967s1.517-0.574,2.287-0.825
	c0.771-0.251,1.551-0.478,2.337-0.68c0.785-0.202,1.577-0.379,2.373-0.532s1.598-0.28,2.402-0.382
	c0.806-0.102,1.612-0.179,2.423-0.23c0.055-0.002,0.11-0.004,0.166-0.006c0.01-0.278,0.017-0.556,0.019-0.833
	C170.966,19.059,158.918,7.011,144.057,7.011L144.057,7.011z"/>
</svg>
