<?xml version="1.0" encoding="utf-8"?>
<!-- Generator: Adobe Illustrator 16.0.0, SVG Export Plug-In . SVG Version: 6.00 Build 0)  -->
<!DOCTYPE svg PUBLIC "-//W3C//DTD SVG 1.1//EN" "http://www.w3.org/Graphics/SVG/1.1/DTD/svg11.dtd">
<svg version="1.1"
	 id="svg8" xmlns:inkscape="http://www.inkscape.org/namespaces/inkscape" xmlns:sodipodi="http://sodipodi.sourceforge.net/DTD/sodipodi-0.dtd" xmlns:svg="http://www.w3.org/2000/svg" xmlns:rdf="http://www.w3.org/1999/02/22-rdf-syntax-ns#" xmlns:cc="http://creativecommons.org/ns#" xmlns:dc="http://purl.org/dc/elements/1.1/" inkscape:export-filename="/home/rafael/Documents/202WEB/202016401Revista/index_files/images/comercio.png" inkscape:version="1.1.1 (3bf5ae0, 2021-09-20)" sodipodi:docname="ilustracaotextil.svg" inkscape:export-ydpi="96" inkscape:export-xdpi="96"
	 xmlns="http://www.w3.org/2000/svg" xmlns:xlink="http://www.w3.org/1999/xlink" x="0px" y="0px" width="212.598px"
	 height="226.771px" viewBox="0 0 212.598 226.771" enable-background="new 0 0 212.598 226.771" xml:space="preserve">
<path stroke="#CCCCCC" stroke-width="6" stroke-linecap="round" stroke-linejoin="round" d="M155.651,6.78H56.947
	C29.24,6.78,6.78,29.24,6.78,56.947v6.831c13.438-15.634,33.547-19.176,49.771-11.965c0,0,10.328,3.701,13.691,5.134
	c6.209,2.646,18.885,9.045,26.935-1.812c8.049-10.855,7.719-24.396-0.378-37.407c-1.537-2.472-2.246-5.071-2.385-7.663
	l100.272,68.183c0.141,2.592,0.849,5.192,2.386,7.663c8.097,13.012,8.427,26.552,0.378,37.408
	c-8.05,10.854-26.052,0.633-26.052,0.633l-4.523-2.169c-15.298-10.877-38.488-4.52-51.798,14.199s-11.697,42.71,3.6,53.587
	L7.509,121.026c-0.25-0.178-0.487-0.368-0.729-0.554v49.352c0,27.707,22.461,50.168,50.167,50.168h98.704
	c27.707,0,50.168-22.461,50.168-50.168V56.947C205.819,29.24,183.358,6.78,155.651,6.78z"/>
<sodipodi:namedview  id="base" pagecolor="#ffffff" showgrid="false" bordercolor="#666666" borderopacity="1.0" inkscape:zoom="1.4" inkscape:cx="158.92857" inkscape:cy="153.57143" inkscape:window-maximized="1" inkscape:pagecheckerboard="0" inkscape:pageopacity="0.0" inkscape:pageshadow="2" inkscape:document-units="mm" inkscape:current-layer="layer1" inkscape:window-width="1366" inkscape:window-height="744" inkscape:window-x="0" inkscape:window-y="0">
	</sodipodi:namedview>
<ellipse id="path39452_1_" transform="matrix(-0.815 -0.5795 0.5795 -0.815 168.9306 365.2896)" stroke="#CCCCCC" stroke-width="6" stroke-linecap="round" stroke-linejoin="round" cx="142.78" cy="155.677" rx="33.989" ry="41.588"/>
<path stroke="#FFFFFF" stroke-width="6" stroke-linecap="round" stroke-linejoin="round" d="M118.676,189.569
	c-15.297-10.877-16.909-34.868-3.6-53.587s36.5-25.076,51.798-14.199l4.523,2.169c0,0,18.002,10.223,26.052-0.633
	c8.049-10.856,7.719-24.396-0.378-37.408c-1.537-2.471-2.245-5.071-2.386-7.663L94.414,10.066c0.139,2.592,0.848,5.191,2.385,7.663
	c8.097,13.012,8.427,26.552,0.378,37.408c-8.049,10.855-20.726,4.455-26.935,1.811c-3.363-1.433-13.691-5.134-13.691-5.134
	C40.326,44.602,20.218,48.145,6.78,63.778v56.694c0.243,0.186,0.479,0.376,0.729,0.554L118.676,189.569z"/>
<ellipse id="ellipse39536" transform="matrix(-0.815 -0.5795 0.5795 -0.815 168.9354 365.2903)" fill="#FFFFFF" stroke="#FFFFFF" stroke-width="6" stroke-linecap="round" stroke-linejoin="round" cx="142.78" cy="155.677" rx="4.513" ry="5.523"/>
<path id="path40824" fill="none" stroke="#CCCCCC" stroke-width="6" stroke-linecap="round" stroke-linejoin="round" d="
	M101.801,56.947l84.063,57.038"/>
</svg>
