<?xml version="1.0" encoding="utf-8"?>
<!-- Generator: Adobe Illustrator 16.0.0, SVG Export Plug-In . SVG Version: 6.00 Build 0)  -->
<!DOCTYPE svg PUBLIC "-//W3C//DTD SVG 1.1//EN" "http://www.w3.org/Graphics/SVG/1.1/DTD/svg11.dtd">
<svg version="1.1"
	 id="svg8" xmlns:inkscape="http://www.inkscape.org/namespaces/inkscape" xmlns:sodipodi="http://sodipodi.sourceforge.net/DTD/sodipodi-0.dtd" xmlns:svg="http://www.w3.org/2000/svg" xmlns:rdf="http://www.w3.org/1999/02/22-rdf-syntax-ns#" xmlns:cc="http://creativecommons.org/ns#" xmlns:dc="http://purl.org/dc/elements/1.1/" inkscape:export-filename="/home/rafael/Documents/202WEB/202016401Revista/index_files/images/comercio.png" inkscape:version="1.1.1 (3bf5ae0, 2021-09-20)" sodipodi:docname="impressao3d.svg" inkscape:export-ydpi="96" inkscape:export-xdpi="96"
	 xmlns="http://www.w3.org/2000/svg" xmlns:xlink="http://www.w3.org/1999/xlink" x="0px" y="0px" width="212.598px"
	 height="226.771px" viewBox="0 0 212.598 226.771" enable-background="new 0 0 212.598 226.771" xml:space="preserve">
<sodipodi:namedview  id="base" pagecolor="#ffffff" showgrid="false" bordercolor="#666666" borderopacity="1.0" inkscape:zoom="1.4" inkscape:cx="158.92857" inkscape:cy="153.57143" inkscape:window-maximized="1" inkscape:pagecheckerboard="0" inkscape:pageopacity="0.0" inkscape:pageshadow="2" inkscape:document-units="mm" inkscape:current-layer="layer1" inkscape:window-width="1366" inkscape:window-height="744" inkscape:window-x="0" inkscape:window-y="0">
	</sodipodi:namedview>
<path id="rect10" stroke="#CCCCCC" stroke-width="6" stroke-linecap="round" stroke-linejoin="round" d="M56.947,6.78h98.704
	c27.707,0,50.168,22.46,50.168,50.167v112.877c0,27.707-22.461,50.168-50.168,50.168H56.947c-27.705,0-50.167-22.461-50.167-50.168
	V56.947C6.78,29.24,29.24,6.78,56.947,6.78z"/>
<g id="g37494">
	<g id="g37485" transform="translate(7.5693268)">
		<path id="path37335" fill="none" stroke="#FFFFFF" stroke-linecap="round" stroke-linejoin="round" d="M15.304,53.654v118.151"/>
		<g id="g37478" transform="translate(-15.138671)">
			
				<polygon id="rect37181" fill="none" stroke="#FFFFFF" stroke-width="1.1535" stroke-linecap="round" stroke-linejoin="round" points="
				31.132,171.805 113.869,134.341 196.605,171.805 113.869,209.269 			"/>
			
				<polygon id="rect37300" fill="none" stroke="#FFFFFF" stroke-width="1.1535" stroke-linecap="round" stroke-linejoin="round" points="
				31.132,53.654 113.869,16.189 196.605,53.654 113.869,91.118 			"/>
			<path id="path37471" fill="none" stroke="#FFFFFF" stroke-linecap="round" stroke-linejoin="round" d="M197.294,53.654v118.151"
				/>
		</g>
	</g>
	<path id="path37473" fill="none" stroke="#FFFFFF" stroke-linecap="round" stroke-linejoin="round" d="M106.299,91.118v118.15"/>
</g>
<g id="g38161" transform="translate(-57.160778,6.1253586)">
	
		<ellipse id="path37518" fill="none" stroke="#FFFFFF" stroke-width="6" stroke-linecap="round" stroke-linejoin="round" cx="164.552" cy="58.087" rx="25.414" ry="12.833"/>
	
		<path id="ellipse37600" sodipodi:nodetypes="csc" fill="none" stroke="#FFFFFF" stroke-width="6" stroke-linecap="round" stroke-linejoin="round" d="
		M139.137,56.924v105.372c0,7.087,11.378,12.833,25.415,12.833c14.035,0,25.414-5.746,25.414-12.833V57.734"/>
</g>
</svg>
