<?xml version="1.0" encoding="utf-8"?>
<!-- Generator: Adobe Illustrator 16.0.0, SVG Export Plug-In . SVG Version: 6.00 Build 0)  -->
<!DOCTYPE svg PUBLIC "-//W3C//DTD SVG 1.1//EN" "http://www.w3.org/Graphics/SVG/1.1/DTD/svg11.dtd">
<svg version="1.1"
	 id="svg8" xmlns:inkscape="http://www.inkscape.org/namespaces/inkscape" xmlns:sodipodi="http://sodipodi.sourceforge.net/DTD/sodipodi-0.dtd" xmlns:svg="http://www.w3.org/2000/svg" xmlns:rdf="http://www.w3.org/1999/02/22-rdf-syntax-ns#" xmlns:cc="http://creativecommons.org/ns#" xmlns:dc="http://purl.org/dc/elements/1.1/" sodipodi:docname="menuhamburguer.svg" inkscape:version="0.92.4 (5da689c313, 2019-01-14)"
	 xmlns="http://www.w3.org/2000/svg" xmlns:xlink="http://www.w3.org/1999/xlink" x="0px" y="0px" width="212.598px"
	 height="226.771px" viewBox="0 0 212.598 226.771" enable-background="new 0 0 212.598 226.771" xml:space="preserve">
<sodipodi:namedview  id="base" inkscape:cy="545.98487" inkscape:cx="-780.68878" inkscape:zoom="0.35" borderopacity="1.0" bordercolor="#666666" showgrid="false" pagecolor="#ffffff" inkscape:window-maximized="1" inkscape:window-y="0" inkscape:window-x="0" inkscape:window-height="744" inkscape:window-width="1366" inkscape:current-layer="layer1" inkscape:document-units="mm" inkscape:pageshadow="2" inkscape:pageopacity="0.0">
	</sodipodi:namedview>
<g id="layer1" transform="translate(0,-217)" inkscape:label="Camada 1" inkscape:groupmode="layer">
	<path id="rect10" stroke="#CCCCCC" stroke-width="6" stroke-linecap="round" stroke-linejoin="round" d="M56.947,223.78h98.704
		c27.707,0,50.168,22.46,50.168,50.167v112.877c0,27.707-22.461,50.168-50.168,50.168H56.947c-27.707,0-50.167-22.461-50.167-50.168
		V273.947C6.78,246.24,29.24,223.78,56.947,223.78z"/>
	<path id="rect12" fill="#FFFFFF" stroke="#CCCCCC" stroke-width="6" stroke-linecap="round" stroke-linejoin="round" d="
		M32.553,271.857h147.492c2.02,0,3.658,1.638,3.658,3.658l0,0c0,2.02-1.639,3.658-3.658,3.658H32.553
		c-2.021,0-3.658-1.638-3.658-3.658l0,0C28.895,273.495,30.533,271.857,32.553,271.857z"/>
	<path id="rect12-3" fill="#FFFFFF" stroke="#CCCCCC" stroke-width="6" stroke-linecap="round" stroke-linejoin="round" d="
		M32.553,324.115h147.492c2.02,0,3.658,1.638,3.658,3.658l0,0c0,2.021-1.639,3.658-3.658,3.658H32.553
		c-2.021,0-3.658-1.637-3.658-3.658l0,0C28.895,325.752,30.533,324.115,32.553,324.115z"/>
	<path id="rect12-6" fill="#FFFFFF" stroke="#CCCCCC" stroke-width="6" stroke-linecap="round" stroke-linejoin="round" d="
		M32.553,376.373h147.492c2.02,0,3.658,1.638,3.658,3.657l0,0c0,2.021-1.639,3.658-3.658,3.658H32.553
		c-2.021,0-3.658-1.637-3.658-3.658l0,0C28.895,378.011,30.533,376.373,32.553,376.373z"/>
</g>
</svg>
