<?xml version="1.0" encoding="utf-8"?>
<!-- Generator: Adobe Illustrator 16.0.0, SVG Export Plug-In . SVG Version: 6.00 Build 0)  -->
<!DOCTYPE svg PUBLIC "-//W3C//DTD SVG 1.1//EN" "http://www.w3.org/Graphics/SVG/1.1/DTD/svg11.dtd">
<svg version="1.1"
	 id="svg8" xmlns:inkscape="http://www.inkscape.org/namespaces/inkscape" xmlns:sodipodi="http://sodipodi.sourceforge.net/DTD/sodipodi-0.dtd" xmlns:svg="http://www.w3.org/2000/svg" xmlns:rdf="http://www.w3.org/1999/02/22-rdf-syntax-ns#" xmlns:cc="http://creativecommons.org/ns#" xmlns:dc="http://purl.org/dc/elements/1.1/" sodipodi:docname="musica.svg" inkscape:version="1.1.1 (3bf5ae0, 2021-09-20)"
	 xmlns="http://www.w3.org/2000/svg" xmlns:xlink="http://www.w3.org/1999/xlink" x="0px" y="0px" width="212.598px"
	 height="226.771px" viewBox="0 0 212.598 226.771" enable-background="new 0 0 212.598 226.771" xml:space="preserve">
<sodipodi:namedview  id="base" inkscape:cy="135" inkscape:cx="151.07143" inkscape:zoom="1.4" borderopacity="1.0" bordercolor="#666666" showgrid="false" pagecolor="#ffffff" inkscape:pagecheckerboard="0" inkscape:window-maximized="1" inkscape:window-y="0" inkscape:window-x="0" inkscape:window-height="744" inkscape:window-width="1366" inkscape:current-layer="layer1" inkscape:document-units="mm" inkscape:pageshadow="2" inkscape:pageopacity="0.0">
	</sodipodi:namedview>
<path id="rect10" stroke="#CCCCCC" stroke-width="6" stroke-linecap="round" stroke-linejoin="round" d="M56.947,6.78h98.704
	c27.707,0,50.168,22.46,50.168,50.167v112.877c0,27.707-22.461,50.168-50.168,50.168H56.947c-27.706,0-50.167-22.461-50.167-50.168
	V56.947C6.78,29.24,29.24,6.78,56.947,6.78z"/>
<path id="path8730" sodipodi:nodetypes="ccssccscc" fill="none" stroke="#CCCCCC" stroke-width="3.2363" stroke-linecap="round" stroke-linejoin="round" d="
	M89.048,31.77v123.136c0,0-38.813-32.406-56.025-8.414s2.346,50.5,28.216,52.912c25.871,2.412,46.162-24.805,46.162-24.805
	l1.247-118.222c0,0,15.915,3.851,32.758,0.161c16.844-3.688,29.665-29.345,29.665-29.345S149.435,75.957,89.048,31.77L89.048,31.77z
	"/>
<path id="path9434" fill="none" stroke="#FFFFFF" stroke-width="6" stroke-miterlimit="10" d="M108.854,74.187h88.491"/>
<path id="path9570" fill="none" stroke="#FFFFFF" stroke-width="6" stroke-miterlimit="10" d="M109.102,100.957h88.49"/>
<path id="path9572" fill="none" stroke="#FFFFFF" stroke-width="6" stroke-miterlimit="10" d="M109.459,127.728h88.491"/>
<path id="path9574" fill="none" stroke="#FFFFFF" stroke-width="6" stroke-miterlimit="10" d="M14.236,74.187h72.179"/>
<path id="path9576" fill="none" stroke="#FFFFFF" stroke-width="6" stroke-miterlimit="10" d="M14.438,100.957h72.18"/>
<path id="path9578" fill="none" stroke="#FFFFFF" stroke-width="6" stroke-miterlimit="10" d="M14.729,127.728h72.18"/>
</svg>
