<?xml version="1.0" encoding="utf-8"?>
<!-- Generator: Adobe Illustrator 16.0.0, SVG Export Plug-In . SVG Version: 6.00 Build 0)  -->
<!DOCTYPE svg PUBLIC "-//W3C//DTD SVG 1.1//EN" "http://www.w3.org/Graphics/SVG/1.1/DTD/svg11.dtd">
<svg version="1.1"
	 id="svg8" xmlns:inkscape="http://www.inkscape.org/namespaces/inkscape" xmlns:sodipodi="http://sodipodi.sourceforge.net/DTD/sodipodi-0.dtd" xmlns:svg="http://www.w3.org/2000/svg" xmlns:rdf="http://www.w3.org/1999/02/22-rdf-syntax-ns#" xmlns:cc="http://creativecommons.org/ns#" xmlns:dc="http://purl.org/dc/elements/1.1/" inkscape:export-filename="/home/rafael/Documents/202WEB/202016401Revista/index_files/images/comercio.png" inkscape:export-ydpi="96" inkscape:export-xdpi="96" sodipodi:docname="novasmodelos.svg" inkscape:version="1.1.1 (3bf5ae0, 2021-09-20)"
	 xmlns="http://www.w3.org/2000/svg" xmlns:xlink="http://www.w3.org/1999/xlink" x="0px" y="0px" width="212.598px"
	 height="226.771px" viewBox="0 0 212.598 226.771" enable-background="new 0 0 212.598 226.771" xml:space="preserve">
<sodipodi:namedview  id="base" inkscape:zoom="0.81690485" borderopacity="1.0" bordercolor="#666666" showgrid="false" pagecolor="#ffffff" inkscape:cy="150.56833" inkscape:cx="-17.749925" inkscape:pagecheckerboard="0" inkscape:window-maximized="1" inkscape:window-y="0" inkscape:window-x="0" inkscape:window-height="744" inkscape:window-width="1366" inkscape:current-layer="layer1" inkscape:document-units="mm" inkscape:pageshadow="2" inkscape:pageopacity="0.0">
	</sodipodi:namedview>
<path id="rect10" stroke="#CCCCCC" stroke-width="6" stroke-linecap="round" stroke-linejoin="round" d="M56.947,6.78h98.704
	c27.707,0,50.168,22.46,50.168,50.167v112.877c0,27.707-22.461,50.168-50.168,50.168H56.947c-27.707,0-50.167-22.461-50.167-50.168
	V56.947C6.78,29.24,29.24,6.78,56.947,6.78z"/>
<path id="path30709" fill="none" stroke="#FFFFFF" stroke-width="6" stroke-miterlimit="10" d="M105.44,132.288
	c-0.527,0-1.046,0.012-1.559,0.041c-0.512,0.028-1.018,0.066-1.516,0.12c-0.498,0.054-0.99,0.122-1.474,0.201
	s-0.961,0.171-1.431,0.274c-0.47,0.105-0.933,0.221-1.389,0.35s-0.905,0.27-1.348,0.422c-0.442,0.152-0.876,0.315-1.305,0.49
	c-0.428,0.175-0.851,0.361-1.266,0.559s-0.823,0.405-1.225,0.623c-0.401,0.219-0.796,0.447-1.185,0.686
	c-0.388,0.24-0.77,0.49-1.146,0.749c-0.375,0.259-0.744,0.527-1.106,0.806s-0.718,0.566-1.068,0.863
	c-0.349,0.297-0.691,0.602-1.028,0.916c-0.336,0.315-0.666,0.639-0.99,0.971c-0.324,0.331-0.642,0.67-0.954,1.018
	s-0.616,0.705-0.916,1.068c-0.299,0.363-0.592,0.734-0.879,1.113c-0.287,0.378-0.569,0.763-0.844,1.155
	c-0.274,0.393-0.542,0.792-0.806,1.198c-0.263,0.406-0.52,0.819-0.771,1.238c-0.251,0.418-0.496,0.842-0.735,1.272
	s-0.472,0.868-0.7,1.31c-0.228,0.441-0.45,0.89-0.667,1.342c-0.216,0.453-0.428,0.91-0.633,1.373
	c-0.205,0.462-0.404,0.929-0.598,1.4c-0.194,0.471-0.381,0.946-0.564,1.426c-0.183,0.48-0.361,0.965-0.533,1.452
	c-0.344,0.976-0.665,1.964-0.965,2.965s-0.58,2.014-0.839,3.035L59.845,222.52h92.907l-16.875-59.795
	c-0.285-1.015-0.59-2.021-0.912-3.017c-0.321-0.994-0.66-1.98-1.02-2.951c-0.358-0.971-0.736-1.926-1.134-2.867
	c-0.198-0.469-0.401-0.936-0.61-1.396c-0.209-0.462-0.422-0.918-0.641-1.37s-0.443-0.899-0.672-1.341
	c-0.229-0.441-0.465-0.877-0.705-1.308s-0.484-0.855-0.735-1.274s-0.507-0.832-0.769-1.238s-0.528-0.805-0.802-1.197
	c-0.272-0.394-0.552-0.78-0.837-1.159c-0.283-0.379-0.574-0.751-0.871-1.114c-0.296-0.365-0.598-0.723-0.905-1.071
	s-0.623-0.689-0.943-1.022c-0.319-0.332-0.646-0.655-0.979-0.971c-0.333-0.316-0.671-0.624-1.017-0.922
	c-0.345-0.298-0.695-0.586-1.053-0.865s-0.723-0.551-1.094-0.811c-0.37-0.26-0.748-0.511-1.132-0.752
	c-0.384-0.24-0.772-0.47-1.171-0.689c-0.396-0.22-0.801-0.429-1.213-0.627c-0.41-0.197-0.827-0.385-1.252-0.561
	c-0.424-0.176-0.856-0.341-1.295-0.494s-0.883-0.295-1.336-0.425c-0.453-0.129-0.912-0.246-1.38-0.352
	c-0.467-0.104-0.942-0.198-1.424-0.278s-0.972-0.146-1.468-0.201c-0.496-0.054-1-0.093-1.512-0.121S105.967,132.288,105.44,132.288
	L105.44,132.288z"/>
<ellipse id="path26013" fill="none" stroke="#FFFFFF" stroke-width="6" stroke-miterlimit="10" cx="106.87" cy="86.788" rx="32.941" ry="30.927"/>
<path id="path26295" fill="none" stroke="#FFFFFF" stroke-width="6" stroke-miterlimit="10" d="M107.175,36.948
	c-20.88,0.076-41.883,22.739-42.376,67.77c0,7.635,0.453,15.233,1.223,22.477c4.651,43.708-27.634,57.299-27.634,57.299
	c8.266,8.002,16.577,14.58,24.938,19.689l11.15-43.986c0.259-1.021,0.539-2.033,0.839-3.035c0.301-1,0.622-1.989,0.965-2.965
	c0.172-0.486,0.351-0.971,0.533-1.451c0.183-0.479,0.37-0.955,0.564-1.427s0.393-0.938,0.598-1.4s0.417-0.92,0.633-1.372
	c0.216-0.453,0.439-0.9,0.667-1.342c0.228-0.442,0.461-0.879,0.7-1.311c0.239-0.43,0.484-0.854,0.735-1.272s0.508-0.832,0.771-1.237
	c0.263-0.406,0.531-0.807,0.806-1.199s0.557-0.777,0.844-1.155s0.58-0.75,0.879-1.113s0.604-0.72,0.916-1.067
	s0.63-0.688,0.954-1.019s0.654-0.655,0.99-0.97s0.679-0.62,1.028-0.917s0.706-0.585,1.068-0.862
	c0.362-0.279,0.731-0.547,1.106-0.807c0.375-0.258,0.757-0.509,1.146-0.748s0.783-0.467,1.185-0.686s0.81-0.427,1.225-0.624
	s0.837-0.384,1.266-0.558c0.429-0.176,0.863-0.339,1.305-0.491s0.892-0.293,1.348-0.422c0.456-0.128,0.919-0.244,1.389-0.349
	s0.947-0.196,1.431-0.275s0.976-0.146,1.474-0.201c0.498-0.053,1.003-0.092,1.516-0.119s1.032-0.041,1.559-0.041
	s1.047,0.014,1.559,0.041c0.512,0.027,1.015,0.067,1.512,0.121c0.496,0.055,0.985,0.121,1.467,0.201
	c0.482,0.08,0.957,0.173,1.424,0.277c0.468,0.105,0.928,0.223,1.381,0.352c0.452,0.13,0.896,0.272,1.336,0.426
	c0.438,0.152,0.87,0.317,1.295,0.493c0.424,0.177,0.842,0.362,1.252,0.562c0.41,0.197,0.816,0.406,1.213,0.627
	c0.396,0.219,0.787,0.449,1.17,0.689c0.385,0.24,0.762,0.491,1.133,0.752c0.371,0.26,0.734,0.53,1.093,0.81s0.708,0.567,1.054,0.866
	c0.345,0.297,0.684,0.605,1.016,0.921c0.333,0.315,0.658,0.639,0.979,0.972c0.32,0.332,0.636,0.674,0.943,1.021
	c0.309,0.35,0.609,0.707,0.906,1.071c0.296,0.364,0.586,0.735,0.871,1.114s0.563,0.766,0.836,1.159
	c0.273,0.394,0.54,0.792,0.802,1.198s0.519,0.819,0.769,1.238c0.251,0.418,0.496,0.844,0.736,1.273
	c0.239,0.432,0.475,0.867,0.704,1.309s0.454,0.889,0.673,1.34c0.219,0.452,0.432,0.908,0.64,1.37s0.412,0.927,0.61,1.397
	c0.398,0.94,0.775,1.896,1.135,2.867c0.357,0.971,0.697,1.955,1.02,2.951c0.321,0.996,0.626,2.002,0.912,3.016l12.601,44.648
	c8.69-5.141,17.442-11.905,26.256-20.346c0,0-31.044-13.592-26.572-57.304c0.741-7.247,1.177-14.853,1.177-22.493
	C148.811,59.383,128.055,36.872,107.175,36.948z"/>
</svg>
