<?xml version="1.0" encoding="utf-8"?>
<!-- Generator: Adobe Illustrator 16.0.0, SVG Export Plug-In . SVG Version: 6.00 Build 0)  -->
<!DOCTYPE svg PUBLIC "-//W3C//DTD SVG 1.1//EN" "http://www.w3.org/Graphics/SVG/1.1/DTD/svg11.dtd">
<svg version="1.1"
	 id="svg8" xmlns:inkscape="http://www.inkscape.org/namespaces/inkscape" xmlns:sodipodi="http://sodipodi.sourceforge.net/DTD/sodipodi-0.dtd" xmlns:svg="http://www.w3.org/2000/svg" xmlns:rdf="http://www.w3.org/1999/02/22-rdf-syntax-ns#" xmlns:cc="http://creativecommons.org/ns#" xmlns:dc="http://purl.org/dc/elements/1.1/" inkscape:version="1.1.1 (3bf5ae0, 2021-09-20)" sodipodi:docname="perfildoautor.svg"
	 xmlns="http://www.w3.org/2000/svg" xmlns:xlink="http://www.w3.org/1999/xlink" x="0px" y="0px" width="212.598px"
	 height="226.771px" viewBox="0 0 212.598 226.771" enable-background="new 0 0 212.598 226.771" xml:space="preserve">
<sodipodi:namedview  id="base" pagecolor="#ffffff" showgrid="false" bordercolor="#666666" borderopacity="1.0" inkscape:zoom="1.4" inkscape:cx="115.35714" inkscape:cy="186.42857" inkscape:window-maximized="1" inkscape:pagecheckerboard="0" inkscape:pageopacity="0.0" inkscape:pageshadow="2" inkscape:document-units="mm" inkscape:current-layer="layer1" inkscape:window-width="1366" inkscape:window-height="744" inkscape:window-x="0" inkscape:window-y="0">
	</sodipodi:namedview>
<path stroke="#CCCCCC" stroke-width="6" stroke-linecap="round" stroke-linejoin="round" d="M205.818,153.607v0.002
	c-0.001-0.001-0.002-0.001-0.003-0.002v-96.66c0-27.793-22.375-50.168-50.168-50.168H56.946c-27.793,0-50.168,22.375-50.168,50.168
	v101.687c0.001-0.001,0.002-0.002,0.003-0.003v11.188c0,27.793,22.375,50.168,50.17,50.168h98.702
	c27.793,0,50.168-22.375,50.168-50.168v-16.212H205.818z"/>
<path id="rect10_1_" fill="none" stroke="#FFFFFF" stroke-width="6" stroke-linecap="round" stroke-linejoin="round" d="
	M199.968,152.392h-0.002v0.002c-0.336-0.231-0.679-0.462-1.021-0.69c-0.559-0.368-1.124-0.73-1.701-1.091
	c-0.575-0.359-1.159-0.717-1.752-1.07c-0.59-0.354-1.189-0.703-1.798-1.049c-0.606-0.346-1.223-0.688-1.848-1.026
	c-0.623-0.337-1.254-0.672-1.892-1.001c-0.64-0.333-1.285-0.657-1.938-0.98c-0.654-0.321-1.315-0.641-1.984-0.955
	s-1.343-0.625-2.027-0.932c-0.682-0.306-1.371-0.607-2.065-0.904c-0.697-0.296-1.401-0.59-2.11-0.879
	c-0.71-0.29-1.429-0.574-2.151-0.854c-0.723-0.28-1.452-0.556-2.188-0.827c-0.738-0.271-1.476-0.535-2.227-0.799
	c-0.748-0.263-1.505-0.52-2.261-0.772c-0.763-0.253-1.526-0.5-2.297-0.741c-0.771-0.245-1.55-0.483-2.331-0.718
	c-0.783-0.233-1.568-0.46-2.363-0.687c-0.794-0.225-1.591-0.443-2.396-0.657c-0.802-0.214-1.609-0.421-2.419-0.626
	c-0.813-0.206-1.632-0.404-2.453-0.6c-0.822-0.192-1.647-0.38-2.478-0.565c-0.831-0.186-1.668-0.363-2.504-0.537
	c-0.839-0.173-1.682-0.34-2.528-0.504c-0.846-0.164-1.698-0.322-2.55-0.474c-0.854-0.152-1.712-0.3-2.571-0.444
	c-0.861-0.143-1.725-0.28-2.591-0.411c-0.867-0.135-1.737-0.258-2.61-0.38c-0.873-0.121-1.746-0.236-2.623-0.346
	c-0.881-0.109-1.76-0.216-2.644-0.313c-0.883-0.099-1.769-0.192-2.654-0.282c-0.886-0.089-1.778-0.172-2.667-0.248
	c-0.89-0.079-1.783-0.15-2.68-0.217c-0.893-0.068-1.786-0.13-2.685-0.184c-0.897-0.054-1.796-0.105-2.694-0.15
	c-0.899-0.044-1.801-0.083-2.701-0.116s-1.804-0.06-2.705-0.083c-0.902-0.021-1.807-0.038-2.71-0.05
	c-0.902-0.012-1.806-0.019-2.708-0.019c-2.711,0-5.42,0.052-8.124,0.149c-2.705,0.101-5.399,0.253-8.082,0.452
	c-2.685,0.199-5.353,0.448-8,0.745c-2.648,0.297-5.275,0.646-7.877,1.041c-2.601,0.395-5.173,0.837-7.712,1.327
	c-2.538,0.489-5.042,1.027-7.509,1.606c-2.466,0.583-4.891,1.212-7.271,1.883c-2.377,0.673-4.71,1.387-6.991,2.146
	c-2.28,0.761-4.507,1.56-6.677,2.398c-2.169,0.839-4.279,1.72-6.328,2.637c-2.05,0.919-4.033,1.874-5.95,2.867
	c-1.917,0.992-3.765,2.017-5.54,3.076c-1.777,1.059-3.476,2.15-5.1,3.271c-1.626,1.125-3.171,2.274-4.638,3.455
	c-0.341,0.292-0.679,0.586-1.012,0.882"/>
<ellipse id="path15477" fill="none" stroke="#FFFFFF" stroke-width="6" stroke-linecap="round" stroke-linejoin="round" cx="107.774" cy="74.419" rx="46.313" ry="43.062"/>
</svg>
