<?xml version="1.0" encoding="utf-8"?>
<!-- Generator: Adobe Illustrator 16.0.0, SVG Export Plug-In . SVG Version: 6.00 Build 0)  -->
<!DOCTYPE svg PUBLIC "-//W3C//DTD SVG 1.1//EN" "http://www.w3.org/Graphics/SVG/1.1/DTD/svg11.dtd">
<svg version="1.1"
	 id="svg8" xmlns:inkscape="http://www.inkscape.org/namespaces/inkscape" xmlns:sodipodi="http://sodipodi.sourceforge.net/DTD/sodipodi-0.dtd" xmlns:svg="http://www.w3.org/2000/svg" xmlns:rdf="http://www.w3.org/1999/02/22-rdf-syntax-ns#" xmlns:cc="http://creativecommons.org/ns#" xmlns:dc="http://purl.org/dc/elements/1.1/" inkscape:export-filename="/home/rafael/Documents/202WEB/202016401Revista/index_files/images/comercio.png" inkscape:export-xdpi="96" inkscape:export-ydpi="96" sodipodi:docname="radio.svg" inkscape:version="1.1.1 (3bf5ae0, 2021-09-20)"
	 xmlns="http://www.w3.org/2000/svg" xmlns:xlink="http://www.w3.org/1999/xlink" x="0px" y="0px" width="212.598px"
	 height="226.771px" viewBox="0 0 212.598 226.771" enable-background="new 0 0 212.598 226.771" xml:space="preserve">
<sodipodi:namedview  id="base" inkscape:cy="166.42857" inkscape:cx="30.357143" inkscape:zoom="1.4" borderopacity="1.0" bordercolor="#666666" showgrid="false" pagecolor="#ffffff" inkscape:pagecheckerboard="0" inkscape:window-maximized="1" inkscape:window-y="0" inkscape:window-x="0" inkscape:window-height="744" inkscape:window-width="1366" inkscape:current-layer="layer1" inkscape:document-units="mm" inkscape:pageshadow="2" inkscape:pageopacity="0.0">
	</sodipodi:namedview>
<path id="rect10" stroke="#CCCCCC" stroke-width="6" stroke-linecap="round" stroke-linejoin="round" d="M56.947,6.78h98.704
	c27.707,0,50.168,22.46,50.168,50.167v112.877c0,27.707-22.461,50.168-50.168,50.168H56.947c-27.706,0-50.167-22.461-50.167-50.168
	V56.947C6.78,29.24,29.24,6.78,56.947,6.78z"/>
<path id="path13169" stroke="#CCCCCC" stroke-width="6" stroke-linecap="round" stroke-linejoin="round" stroke-miterlimit="10" d="
	M101.863,79.627L82.11,202.367l19.753,10.091V79.627z"/>
<path id="path13356" stroke="#CCCCCC" stroke-width="6" stroke-linecap="round" stroke-linejoin="round" stroke-miterlimit="10" d="
	M102.285,79.628l19.953,122.738l-19.953,10.09V79.628z"/>
<path id="path12805" sodipodi:expansion="1" sodipodi:revolution="3" sodipodi:argument="-18.116913" sodipodi:radius="143.20464" sodipodi:cy="142.95686" sodipodi:cx="132.01364" sodipodi:type="spiral" sodipodi:t0="0" fill="none" stroke="#FFFFFF" stroke-width="9" stroke-linecap="round" stroke-miterlimit="10" d="
	M98.748,65.493c3.396,1.569-2.444,3.125-5.08,2.898c-7.144-0.613-8.755-5.225-6.212-8.113c4.549-5.167,17.645-6.112,26.53-3.479
	c13.039,3.864,15.147,12.941,7.346,19.124c-10.399,8.241-32.813,9.457-47.981,4.062c-19.09-6.791-21.719-20.752-8.478-30.135
	c16.037-11.363,48.056-12.847,69.433-4.644c25.191,9.667,28.338,28.585,9.609,41.146c-21.621,14.502-63.323,16.249-90.883,5.224
	C21.717,79.048,18.056,55.15,42.289,39.419c27.186-17.647,78.604-19.659,112.335-5.805c37.446,15.38,41.623,44.271,11.875,63.167"/>
</svg>
