<?xml version="1.0" encoding="utf-8"?>
<!-- Generator: Adobe Illustrator 16.0.0, SVG Export Plug-In . SVG Version: 6.00 Build 0)  -->
<!DOCTYPE svg PUBLIC "-//W3C//DTD SVG 1.1//EN" "http://www.w3.org/Graphics/SVG/1.1/DTD/svg11.dtd">
<svg version="1.1"
	 id="svg8" xmlns:inkscape="http://www.inkscape.org/namespaces/inkscape" xmlns:sodipodi="http://sodipodi.sourceforge.net/DTD/sodipodi-0.dtd" xmlns:svg="http://www.w3.org/2000/svg" xmlns:rdf="http://www.w3.org/1999/02/22-rdf-syntax-ns#" xmlns:cc="http://creativecommons.org/ns#" xmlns:dc="http://purl.org/dc/elements/1.1/" inkscape:export-filename="/home/rafael/Documents/202WEB/202016401Revista/index_files/images/comercio.png" inkscape:version="1.1.1 (3bf5ae0, 2021-09-20)" sodipodi:docname="vk.svg" inkscape:export-ydpi="96" inkscape:export-xdpi="96"
	 xmlns="http://www.w3.org/2000/svg" xmlns:xlink="http://www.w3.org/1999/xlink" x="0px" y="0px" width="212.598px"
	 height="226.771px" viewBox="0 0 212.598 226.771" enable-background="new 0 0 212.598 226.771" xml:space="preserve">
<sodipodi:namedview  id="base" pagecolor="#ffffff" showgrid="false" bordercolor="#666666" borderopacity="1.0" inkscape:zoom="1.4" inkscape:cx="136.78571" inkscape:cy="145.71429" inkscape:window-maximized="1" inkscape:pagecheckerboard="0" inkscape:pageopacity="0.0" inkscape:pageshadow="2" inkscape:document-units="mm" inkscape:current-layer="layer1" inkscape:window-width="1366" inkscape:window-height="744" inkscape:window-x="0" inkscape:window-y="0">
	</sodipodi:namedview>
<path id="rect10" stroke="#CCCCCC" stroke-width="6" stroke-linecap="round" stroke-linejoin="round" d="M56.947,6.78h98.704
	c27.707,0,50.168,22.46,50.168,50.167v112.877c0,27.707-22.461,50.168-50.168,50.168H56.947c-27.705,0-50.167-22.461-50.167-50.168
	V56.947C6.78,29.24,29.24,6.78,56.947,6.78z"/>
<path fill="#FFFFFF" d="M129.277,36.418v70.01c0,1.883-0.137,4.352-0.414,7.407c-0.136,3.059-0.271,5.701-0.412,7.938h0.826
	c0.827-0.94,2.067-2.293,3.726-4.059c1.649-1.763,3.308-3.524,4.961-5.29c1.792-1.881,3.31-3.407,4.549-4.585l35.356-31.919h21.295
	l-44.866,40.386l47.968,54.139h-21.917l-38.456-44.087l-12.613,9.347v34.74h-17.987v-85.38l-38.101,85.378H52.308L10.335,75.92
	h19.436l23.57,55.728c1.102,2.587,2.274,5.467,3.514,8.642c1.241,3.175,2.346,6.231,3.311,9.17c0.966,2.821,1.652,5.231,2.066,7.23
	h0.827c0.551-1.999,1.31-4.47,2.273-7.406c1.104-2.939,2.272-5.996,3.517-9.171c1.377-3.174,2.549-5.995,3.514-8.465L95.934,75.92
	h15.354V36.418H129.277 M199.162,75.92h0.005 M129.277,31.635h-17.987c-2.644,0-4.783,2.144-4.783,4.783v34.721h-10.57
	c-1.921,0-3.657,1.148-4.405,2.92l-23.569,55.726c-0.019,0.041-0.034,0.082-0.05,0.123c-0.934,2.385-2.093,5.178-3.446,8.302
	c-0.023,0.053-0.045,0.106-0.066,0.16c-0.537,1.374-1.068,2.747-1.595,4.113c-0.475-1.297-0.972-2.61-1.49-3.937
	c-1.229-3.147-2.43-6.102-3.565-8.772L34.176,74.057c-0.749-1.771-2.484-2.92-4.405-2.92H10.335c-1.619,0-3.128,0.817-4.01,2.176
	c-0.884,1.355-1.02,3.066-0.361,4.548l41.973,94.521c0.77,1.729,2.481,2.844,4.372,2.844H73.19c1.89,0,3.601-1.11,4.368-2.834
	l28.948-64.871v62.922c0,2.642,2.142,4.783,4.783,4.783h17.987c2.644,0,4.783-2.144,4.783-4.783v-32.331l7.129-5.283l35.555,40.759
	c0.906,1.041,2.223,1.641,3.604,1.641h21.917c1.882,0,3.589-1.104,4.361-2.82c0.771-1.716,0.467-3.727-0.781-5.135l-44.82-50.587
	l41.273-37.15c1.011-0.877,1.648-2.17,1.648-3.613c0-2.642-2.139-4.781-4.778-4.781h-0.005h-21.295
	c-1.187,0-2.326,0.438-3.205,1.231l-35.356,31.919c-0.029,0.026-0.059,0.053-0.087,0.081c-1.305,1.238-2.893,2.838-4.72,4.755
	l-0.535,0.571c0.063-1.219,0.097-2.31,0.097-3.267V36.421C134.06,33.776,131.918,31.635,129.277,31.635L129.277,31.635z"/>
</svg>
