<?xml version="1.0" encoding="utf-8"?>
<!-- Generator: Adobe Illustrator 16.0.0, SVG Export Plug-In . SVG Version: 6.00 Build 0)  -->
<!DOCTYPE svg PUBLIC "-//W3C//DTD SVG 1.1//EN" "http://www.w3.org/Graphics/SVG/1.1/DTD/svg11.dtd">
<svg version="1.1"
	 id="svg8" xmlns:inkscape="http://www.inkscape.org/namespaces/inkscape" xmlns:sodipodi="http://sodipodi.sourceforge.net/DTD/sodipodi-0.dtd" xmlns:svg="http://www.w3.org/2000/svg" xmlns:rdf="http://www.w3.org/1999/02/22-rdf-syntax-ns#" xmlns:cc="http://creativecommons.org/ns#" xmlns:dc="http://purl.org/dc/elements/1.1/" inkscape:export-filename="/home/rafael/Documents/202WEB/202016401Revista/index_files/images/comercio.png" inkscape:export-xdpi="96" inkscape:export-ydpi="96" sodipodi:docname="web.svg" inkscape:version="1.1.1 (3bf5ae0, 2021-09-20)"
	 xmlns="http://www.w3.org/2000/svg" xmlns:xlink="http://www.w3.org/1999/xlink" x="0px" y="0px" width="212.598px"
	 height="226.771px" viewBox="0 0 212.598 226.771" enable-background="new 0 0 212.598 226.771" xml:space="preserve">
<sodipodi:namedview  id="base" inkscape:cy="166.42857" inkscape:cx="30.357143" inkscape:zoom="1.4" borderopacity="1.0" bordercolor="#666666" showgrid="false" pagecolor="#ffffff" inkscape:pagecheckerboard="0" inkscape:window-maximized="1" inkscape:window-y="0" inkscape:window-x="0" inkscape:window-height="744" inkscape:window-width="1366" inkscape:current-layer="layer1" inkscape:document-units="mm" inkscape:pageshadow="2" inkscape:pageopacity="0.0">
	</sodipodi:namedview>
<path id="rect10" stroke="#CCCCCC" stroke-width="6" stroke-linecap="round" stroke-linejoin="round" d="M56.947,6.78h98.704
	c27.707,0,50.168,22.46,50.168,50.167v112.877c0,27.707-22.461,50.168-50.168,50.168H56.947c-27.706,0-50.167-22.461-50.167-50.168
	V56.947C6.78,29.24,29.24,6.78,56.947,6.78z"/>
<path id="rect12198" stroke="#CCCCCC" stroke-width="6" stroke-linecap="round" stroke-linejoin="round" d="M28.809,56.955
	c-6.837,0-12.341,5.504-12.341,12.341v72.191c0,6.838,5.504,12.342,12.341,12.342h68.32v23.422c0,0.563,0.453,1.016,1.015,1.016
	h16.31c0.563,0,1.016-0.452,1.016-1.016v-23.422h68.32c6.838,0,12.342-5.504,12.342-12.342V69.296
	c0-6.837-5.504-12.341-12.342-12.341H28.809z M32.865,178.734c-0.563,0-1.016,0.452-1.016,1.015c0,0.563,0.453,1.017,1.016,1.017
	h146.867c0.563,0,1.017-0.453,1.017-1.017c0-0.563-0.453-1.015-1.017-1.015H32.865z"/>
<g id="text3345" transform="scale(1.1655848,0.85793843)">
	<path id="path12147" fill="#FFFFFF" d="M27.778,93.929v14.027c0,1.677-0.105,3.249-0.315,4.717h0.377
		c1.09-1.719,2.559-3.02,4.404-3.901c1.887-0.88,3.919-1.319,6.101-1.319c4.109,0,7.19,0.985,9.245,2.956
		c2.054,1.928,3.082,5.052,3.082,9.37v21.951H45.2v-21.574c0-5.409-2.516-8.115-7.547-8.115c-3.774,0-6.373,1.069-7.799,3.209
		c-1.384,2.097-2.074,5.114-2.074,9.056v17.422h-5.536v-47.8H27.778z"/>
	<path id="path12149" fill="#FFFFFF" d="M72.371,137.832c0.839,0,1.697-0.065,2.579-0.189c0.881-0.168,1.594-0.337,2.139-0.503
		v4.214c-0.587,0.294-1.426,0.524-2.516,0.692c-1.09,0.208-2.138,0.314-3.145,0.314c-1.761,0-3.396-0.295-4.905-0.881
		c-1.467-0.628-2.663-1.698-3.585-3.209c-0.922-1.508-1.384-3.627-1.384-6.352v-19.624h-4.78v-2.642l4.843-2.201l2.201-7.17h3.271
		v7.736h9.749v4.278h-9.749v19.496c0,2.056,0.483,3.587,1.447,4.593C69.541,137.349,70.82,137.832,72.371,137.832L72.371,137.832z"
		/>
	<path id="path12151" fill="#FFFFFF" d="M120.8,107.389c3.815,0,6.667,0.987,8.553,2.956c1.888,1.929,2.83,5.074,2.83,9.435v21.951
		h-5.472v-21.699c0-5.325-2.286-7.988-6.856-7.988c-3.271,0-5.618,0.944-7.044,2.83c-1.383,1.887-2.075,4.633-2.075,8.239v18.619
		h-5.472v-21.699c0-5.325-2.307-7.988-6.92-7.988c-3.397,0-5.743,1.048-7.044,3.145c-1.3,2.096-1.95,5.115-1.95,9.057v17.485h-5.536
		v-33.713h4.466l0.818,4.592h0.315c1.048-1.761,2.453-3.061,4.214-3.9c1.803-0.88,3.711-1.322,5.724-1.322
		c5.283,0,8.721,1.887,10.315,5.662h0.314c1.133-1.929,2.663-3.354,4.591-4.276C116.544,107.85,118.62,107.389,120.8,107.389
		L120.8,107.389z"/>
	<path id="path12153" fill="#FFFFFF" d="M148.161,141.731h-5.536V93.929h5.536V141.731z"/>
	<path id="path12155" fill="#FFFFFF" d="M158.035,138.336c0-1.551,0.377-2.643,1.131-3.271c0.756-0.628,1.656-0.942,2.705-0.942
		c1.091,0,2.013,0.314,2.768,0.942c0.796,0.628,1.195,1.72,1.195,3.271c0,1.508-0.399,2.6-1.195,3.269
		c-0.755,0.67-1.677,1.006-2.768,1.006c-1.046,0-1.949-0.336-2.705-1.006C158.412,140.935,158.035,139.844,158.035,138.336z"/>
</g>
</svg>
