<?xml version="1.0" encoding="UTF-8" standalone="no"?>
<!-- Generator: Adobe Illustrator 16.0.0, SVG Export Plug-In . SVG Version: 6.00 Build 0)  -->

<svg
   xmlns:osb="http://www.openswatchbook.org/uri/2009/osb"
   xmlns:dc="http://purl.org/dc/elements/1.1/"
   xmlns:cc="http://creativecommons.org/ns#"
   xmlns:rdf="http://www.w3.org/1999/02/22-rdf-syntax-ns#"
   xmlns:svg="http://www.w3.org/2000/svg"
   xmlns="http://www.w3.org/2000/svg"
   xmlns:sodipodi="http://sodipodi.sourceforge.net/DTD/sodipodi-0.dtd"
   xmlns:inkscape="http://www.inkscape.org/namespaces/inkscape"
   xml:space="preserve"
   enable-background="new 0 0 517.652 127.91"
   viewBox="0 0 517.652 127.91"
   height="127.91px"
   width="517.652px"
   y="0px"
   x="0px"
   sodipodi:docname="LOGOBSK8LNK.svg"
   inkscape:version="0.92.4 (5da689c313, 2019-01-14)"
   id="svg5"
   version="1.1"><metadata
   id="metadata94"><rdf:RDF><cc:Work
       rdf:about=""><dc:format>image/svg+xml</dc:format><dc:type
         rdf:resource="http://purl.org/dc/dcmitype/StillImage" /></cc:Work></rdf:RDF></metadata><defs
   id="defs92"><linearGradient
   id="linearGradient886"
   osb:paint="solid"><stop
     style="stop-color:#000000;stop-opacity:1;"
     offset="0"
     id="stop884" /></linearGradient>
	
</defs>
<sodipodi:namedview
   id="namedview7"
   bordercolor="#666666"
   borderopacity="1.0"
   showgrid="false"
   inkscape:zoom="6.5217562"
   inkscape:cx="278.61687"
   inkscape:cy="74.603139"
   pagecolor="#ffffff"
   inkscape:pagecheckerboard="0"
   inkscape:window-maximized="1"
   inkscape:pageshadow="2"
   inkscape:pageopacity="0.0"
   inkscape:document-units="mm"
   inkscape:window-width="1366"
   inkscape:window-height="744"
   inkscape:window-x="0"
   inkscape:window-y="0"
   inkscape:current-layer="svg5">
	</sodipodi:namedview>










<path
   style="color:#000000;font-style:normal;font-variant:normal;font-weight:normal;font-stretch:normal;font-size:medium;line-height:normal;font-family:sans-serif;font-variant-ligatures:normal;font-variant-position:normal;font-variant-caps:normal;font-variant-numeric:normal;font-variant-alternates:normal;font-feature-settings:normal;text-indent:0;text-align:start;text-decoration:none;text-decoration-line:none;text-decoration-style:solid;text-decoration-color:#000000;letter-spacing:normal;word-spacing:normal;text-transform:none;writing-mode:lr-tb;direction:ltr;text-orientation:mixed;dominant-baseline:auto;baseline-shift:baseline;text-anchor:start;white-space:normal;shape-padding:0;clip-rule:nonzero;display:inline;overflow:visible;visibility:visible;opacity:1;isolation:auto;mix-blend-mode:normal;color-interpolation:sRGB;color-interpolation-filters:linearRGB;solid-color:#000000;solid-opacity:1;vector-effect:none;fill:#fffb80;fill-opacity:1;fill-rule:nonzero;stroke:none;stroke-width:3.77952766;stroke-linecap:butt;stroke-linejoin:miter;stroke-miterlimit:4;stroke-dasharray:none;stroke-dashoffset:0;stroke-opacity:1;color-rendering:auto;image-rendering:auto;shape-rendering:auto;text-rendering:auto;enable-background:accumulate"
   d="m 118.24219,61.507812 c -8.20451,0 -14.62585,1.667461 -19.076174,5.320313 -4.45033,3.652852 -6.650391,9.229363 -6.650391,16.134766 0,6.905402 2.20004,12.482127 6.650391,16.134765 4.450354,3.652634 10.871704,5.320314 19.076174,5.320314 h 21.18945 c 0.62385,0 0.82317,0.14288 0.78711,0.11328 -0.0361,-0.0296 -0.0293,-0.17042 -0.0293,0.16992 0,0.3408 -0.007,0.19782 0.0293,0.16797 0.0364,-0.0298 -0.16261,0.11524 -0.78711,0.11524 H 85.466797 l 14.896483,21.16992 h 0.98242 38.08594 c 8.20447,0 14.62777,-1.66756 19.07813,-5.32032 4.45035,-3.65275 6.64843,-9.22897 6.64843,-16.13476 0,-6.905019 -2.19811,-12.48008 -6.64843,-16.132814 -4.45033,-3.652733 -10.87362,-5.320312 -19.07813,-5.320312 h -21.18945 c -0.62414,0 -0.8234,-0.145012 -0.78711,-0.115235 0.0363,0.02978 0.0293,0.173011 0.0293,-0.167968 0,-0.341414 0.009,-0.199814 -0.0273,-0.169922 -0.0364,0.02989 0.16066,-0.115235 0.78516,-0.115235 h 39.06836 l 14.89648,-21.169922 z m 0,3.779297 h 46.68554 l -9.57812,13.611329 h -37.10742 c -1.14151,0 -2.26665,0.218039 -3.18555,0.972656 -0.9189,0.754617 -1.35156,1.98376 -1.35156,3.091797 0,1.108471 0.43447,2.335751 1.35351,3.089843 0.91904,0.754093 2.04274,0.972657 3.1836,0.972657 h 21.18945 c 7.6875,0 13.18451,1.594123 16.67969,4.46289 3.49517,2.868767 5.26758,7.073363 5.26758,13.210939 0,6.13844 -1.77244,10.3461 -5.26758,13.21484 -3.49515,2.86874 -8.99216,4.46094 -16.67969,4.46094 h -37.10547 l -9.578123,-13.61133 h 46.683593 c 1.1415,0 2.26669,-0.21828 3.18555,-0.97265 0.91886,-0.75438 1.35351,-1.982 1.35351,-3.08985 0,-1.10827 -0.4347,-2.33768 -1.35351,-3.09179 -0.91881,-0.75412 -2.0444,-0.97266 -3.18555,-0.97266 h -21.18945 c -7.68753,0 -13.18259,-1.592284 -16.67774,-4.460939 -3.495146,-2.868654 -5.269528,-7.074883 -5.269528,-13.21289 0,-6.138008 1.77436,-10.344038 5.269528,-13.212891 3.49517,-2.868853 8.99024,-4.462891 16.67774,-4.462891 z"
   id="path998"
   inkscape:connector-curvature="0" /><path
   style="color:#000000;font-style:normal;font-variant:normal;font-weight:normal;font-stretch:normal;font-size:medium;line-height:normal;font-family:sans-serif;font-variant-ligatures:normal;font-variant-position:normal;font-variant-caps:normal;font-variant-numeric:normal;font-variant-alternates:normal;font-feature-settings:normal;text-indent:0;text-align:start;text-decoration:none;text-decoration-line:none;text-decoration-style:solid;text-decoration-color:#000000;letter-spacing:normal;word-spacing:normal;text-transform:none;writing-mode:lr-tb;direction:ltr;text-orientation:mixed;dominant-baseline:auto;baseline-shift:baseline;text-anchor:start;white-space:normal;shape-padding:0;clip-rule:nonzero;display:inline;overflow:visible;visibility:visible;opacity:1;isolation:auto;mix-blend-mode:normal;color-interpolation:sRGB;color-interpolation-filters:linearRGB;solid-color:#000000;solid-opacity:1;vector-effect:none;fill:#fffb80;fill-opacity:1;fill-rule:nonzero;stroke:none;stroke-width:3.77952766;stroke-linecap:butt;stroke-linejoin:miter;stroke-miterlimit:4;stroke-dasharray:none;stroke-dashoffset:0;stroke-opacity:1;color-rendering:auto;image-rendering:auto;shape-rendering:auto;text-rendering:auto;enable-background:accumulate"
   d="M 239.32031,30.75 191.64453,75.035156 V 42.517578 h -24.9668 v 1.888672 87.81445 l 38.56836,-35.763669 13.82422,23.999999 H 247.8457 L 224.03125,78.988281 239.32031,64.777344 Z m -3.77929,8.667969 v 23.71289 l -16.28321,15.134766 22.0586,38.412105 h -20.0625 L 206.1543,90.460938 170.45703,123.56055 V 46.296875 h 17.4082 v 37.40625 z"
   id="path1000"
   inkscape:connector-curvature="0" /><path
   style="color:#000000;font-style:normal;font-variant:normal;font-weight:normal;font-stretch:normal;font-size:medium;line-height:normal;font-family:sans-serif;font-variant-ligatures:normal;font-variant-position:normal;font-variant-caps:normal;font-variant-numeric:normal;font-variant-alternates:normal;font-feature-settings:normal;text-indent:0;text-align:start;text-decoration:none;text-decoration-line:none;text-decoration-style:solid;text-decoration-color:#000000;letter-spacing:normal;word-spacing:normal;text-transform:none;writing-mode:lr-tb;direction:ltr;text-orientation:mixed;dominant-baseline:auto;baseline-shift:baseline;text-anchor:start;white-space:normal;shape-padding:0;clip-rule:nonzero;display:inline;overflow:visible;visibility:visible;opacity:1;isolation:auto;mix-blend-mode:normal;color-interpolation:sRGB;color-interpolation-filters:linearRGB;solid-color:#000000;solid-opacity:1;vector-effect:none;fill:#fffb80;fill-opacity:1;fill-rule:nonzero;stroke:none;stroke-width:3.77952766;stroke-linecap:butt;stroke-linejoin:miter;stroke-miterlimit:4;stroke-dasharray:none;stroke-dashoffset:0;stroke-opacity:1;color-rendering:auto;image-rendering:auto;shape-rendering:auto;text-rendering:auto;enable-background:accumulate"
   d="m 280.57422,1.6816406 c -1.16691,0 -1.41338,0.3579757 -2.01563,0.7109375 -0.60224,0.3529619 -1.30764,0.8283201 -2.16601,1.4492188 -1.71675,1.2417973 -4.02976,3.0587114 -6.97656,5.4726562 l -0.002,0.00195 h -0.002 C 255.81597,20.514475 248.59375,30.399523 248.59375,39.59375 v 1.058594 c 0,1.648227 0.41584,3.494297 1.16016,5.691406 l 0.0176,0.05273 0.0215,0.05078 c 1.66267,4.101587 5.75444,7.519079 11.79492,10.65625 -7.91725,2.937328 -14.44073,6.022726 -18.87695,9.4375 -5.17938,3.986815 -8.09961,8.555441 -8.09961,13.523437 v 0.847656 c 0,6.047535 4.33568,12.40441 12.27148,19.621091 l 0.0215,0.0195 0.0234,0.0195 c 11.62805,9.93154 25.65997,16.50175 41.96875,19.69921 l 0.17969,0.0352 h 2.32617 l 0.16211,-1.71094 c 0.005,-0.0481 0.64628,-1.72879 2.14063,-3.90234 1.49094,-2.16858 3.74635,-5.05434 6.73242,-8.59961 11.20582,-10.664156 17.19727,-19.330207 17.19727,-26.876953 v -1.271485 c 0,-3.209685 -1.27534,-6.33767 -3.5918,-9.232421 l -0.15235,-0.189453 -0.19335,-0.144532 C 301.98938,59.654012 293.63897,53.308141 287.25,48.349609 296.10567,42.851387 301.10742,37.15844 301.10742,30.90625 v -0.636719 c 0,-0.97212 -0.30264,-1.724367 -0.72656,-2.648437 -0.42392,-0.92407 -1.01622,-1.974128 -1.78516,-3.201172 -1.52108,-2.427292 -3.76187,-5.557518 -6.70117,-9.392578 l -0.0742,-0.103516 C 288.30895,9.649092 285.0236,5.4241239 281.92578,2.2519531 l -0.55469,-0.5703125 z m -0.47852,4.2226563 c 2.65714,2.8624454 5.5299,6.5180311 8.65039,11.2148441 l 0.0352,0.05469 0.0391,0.05078 c 2.94616,3.839333 5.14464,6.92301 6.57227,9.201172 0.71381,1.139082 1.23547,2.079898 1.55273,2.771485 0.31727,0.691586 0.38281,1.179386 0.38281,1.072265 v 0.636719 c 0,3.856647 -3.33286,8.322932 -10.42382,13.083984 -0.0214,-3.068087 -1.92537,-6.251823 -5.22071,-10.416015 -3.31394,-4.187707 -8.1877,-9.257529 -14.65625,-15.28125 l -0.54296,-0.50586 h -0.75 c 1.90013,-1.820083 3.74529,-3.627281 6.07812,-5.548828 l 0.004,-0.0039 c 2.91253,-2.3857746 5.18878,-4.1711117 6.79101,-5.3300781 0.64076,-0.4634881 1.08337,-0.7461267 1.48828,-1 z M 263.42383,19.898438 c -1.16885,2.705421 -1.9043,5.094519 -1.9043,7.193359 v 0.212891 c 0,4.749241 2.96249,8.91252 8.07813,12.185546 l -0.16993,-0.121093 c 5.87423,4.742676 9.96907,7.923655 12.39454,9.615234 l 0.27734,0.193359 0.48828,0.38086 c 6.42596,5.022049 16.00534,12.274996 28.58594,21.652344 1.84278,2.348304 2.68164,4.549573 2.68164,6.734374 v 1.271485 c 0,5.416528 -5.1284,13.807407 -16.14844,24.269533 l -0.0781,0.0723 -0.0664,0.0801 c -3.04272,3.61156 -5.35926,6.56541 -6.97266,8.91211 -1.01066,1.47001 -1.67117,2.61105 -2.14843,3.70899 C 273.22822,113.09195 260.22504,106.95015 249.4043,97.714844 241.81939,90.81147 238.39062,85.0301 238.39062,80.912109 v -0.847656 c 0,-3.509004 1.98688,-6.957159 6.625,-10.527344 0.0985,-0.07579 0.23517,-0.150835 0.33594,-0.226562 -0.19993,0.597796 -0.35742,1.205875 -0.35742,1.853515 0,3.033595 1.54662,6.040493 4.2207,9.128907 2.67409,3.088413 6.54832,6.323982 11.64649,9.80664 l 0.0273,0.01758 0.0274,0.01758 c 11.33158,7.17288 21.22349,10.888674 29.82812,10.888674 h 1.26953 c 6.37711,0 11.29932,-2.950355 13.60352,-8.351565 l 0.15234,-0.355469 v -1.658203 c 0,-4.758517 -3.52939,-9.575262 -9.79883,-15.15625 -6.26944,-5.580988 -15.51274,-11.917839 -27.79297,-19.105469 l -0.33398,-0.195312 v -0.25 l -1.12305,-0.5 c -7.71137,-3.426738 -12.04484,-7.095465 -13.40039,-10.382813 -0.64803,-1.931547 -0.94726,-3.463732 -0.94726,-4.416015 V 39.59375 c 0,-5.389177 3.58521,-12.05068 11.05078,-19.695312 z m 2.89453,2.986328 c 5.35288,5.090947 9.63587,9.537311 12.40234,13.033203 3.11381,3.934793 4.41211,6.936109 4.41211,8.125 0,0.547245 -0.041,0.841083 -0.15234,1.0625 -2.33186,-1.67412 -5.81187,-4.345489 -11.17774,-8.677735 l -0.082,-0.06445 -0.0879,-0.05664 c -4.49036,-2.872974 -6.33203,-5.769195 -6.33203,-9.001953 v -0.212891 c 0,-0.988834 0.40415,-2.494986 1.01758,-4.207031 z m 0.71094,37.25 c 11.7239,6.905605 20.6222,13.019697 26.42968,18.189453 5.94931,5.296012 8.53125,9.641501 8.53125,12.333984 v 0.787109 c -1.80718,3.996601 -4.75826,5.798829 -9.97656,5.798829 h -1.26953 c -7.49415,0 -16.81071,-3.3458 -27.78516,-10.289063 -4.91191,-3.358414 -8.55196,-6.438258 -10.88671,-9.134766 -2.34067,-2.703336 -3.29883,-4.957844 -3.29883,-6.65625 0,-0.897634 1.04854,-2.61342 4.2207,-4.662109 3.02285,-1.95226 7.80191,-4.114786 14.03516,-6.367187 z"
   id="path1021"
   inkscape:connector-curvature="0" /><g
   aria-label="N"
   transform="scale(1.0915087,0.9161631)"
   style="font-style:normal;font-variant:normal;font-weight:normal;font-stretch:normal;font-size:117.86134338px;line-height:1.25;font-family:'Black mild';-inkscape-font-specification:'Black mild, Normal';font-variant-ligatures:normal;font-variant-caps:normal;font-variant-numeric:normal;font-feature-settings:normal;text-align:start;letter-spacing:0px;word-spacing:0px;writing-mode:lr-tb;text-anchor:start;fill:none;fill-opacity:1;stroke:#fffb80;stroke-width:3.77952766;stroke-miterlimit:4;stroke-dasharray:none;stroke-opacity:1"
   id="text98"><path
     d="m 313.66537,41.878697 q 8.72174,0 15.79342,5.421622 7.07168,5.421622 11.07897,14.850529 4.00728,9.311046 4.00728,20.743597 0,20.036425 -7.54312,33.944065 -7.42527,13.78978 -18.26851,21.92221 13.43619,-17.08989 13.43619,-56.691305 0,-9.428907 -2.23936,-17.56134 -2.12151,-8.132433 -6.48238,-13.082609 -4.36087,-5.068038 -10.60752,-5.068038 -6.12879,0 -8.95746,1.76792 -2.82867,1.767921 -2.82867,6.12879 v 57.869922 q 0,4.47873 2.82867,6.24665 2.82867,1.76792 8.95746,1.65006 l 0.82503,4.36087 h -37.47991 l 0.82503,-4.36087 q 6.12879,0 8.95747,-1.76792 2.82867,-1.76792 2.82867,-6.12879 V 54.254138 q 0,-5.068038 -2.82867,-8.014571 -2.71081,-2.946534 -8.01457,-3.182256 h -0.9429 q -4.71445,0 -7.18954,2.592949 -2.35722,2.475088 -2.35722,6.010929 0,3.064395 1.53219,5.30376 1.65006,2.121504 4.12515,2.121504 1.29647,0 1.65006,-0.94289 0.47144,-0.942891 0.58931,-2.828673 0.35358,-2.475088 1.06075,-3.653701 0.70717,-1.296475 2.82867,-1.296475 1.76792,0 2.82867,1.296475 1.06075,1.296474 1.06075,3.417979 0,3.417979 -3.06439,5.657344 -2.94653,2.121504 -6.95382,2.121504 -4.59659,0 -8.01457,-2.946533 -3.41798,-2.946534 -3.41798,-8.603878 0,-2.828673 1.76792,-5.421622 1.76792,-2.59295 5.30376,-4.243008 3.53584,-1.767921 8.60388,-1.767921 h 0.82503 q 4.47873,0 12.96475,0.942891 10.13607,1.178614 17.56134,1.178614 3.18225,0 4.95017,-0.117862 z"
     style="font-style:normal;font-variant:normal;font-weight:normal;font-stretch:normal;font-size:117.86134338px;font-family:'Black mild';-inkscape-font-specification:'Black mild, Normal';font-variant-ligatures:normal;font-variant-caps:normal;font-variant-numeric:normal;font-feature-settings:normal;text-align:start;writing-mode:lr-tb;text-anchor:start;fill:none;stroke:#fffb80;stroke-width:3.77952766;stroke-miterlimit:4;stroke-dasharray:none;stroke-opacity:1"
     id="path1526" /></g>
<path
   style="color:#000000;font-style:normal;font-variant:normal;font-weight:normal;font-stretch:normal;font-size:medium;line-height:normal;font-family:sans-serif;font-variant-ligatures:normal;font-variant-position:normal;font-variant-caps:normal;font-variant-numeric:normal;font-variant-alternates:normal;font-feature-settings:normal;text-indent:0;text-align:start;text-decoration:none;text-decoration-line:none;text-decoration-style:solid;text-decoration-color:#000000;letter-spacing:normal;word-spacing:normal;text-transform:none;writing-mode:lr-tb;direction:ltr;text-orientation:mixed;dominant-baseline:auto;baseline-shift:baseline;text-anchor:start;white-space:normal;shape-padding:0;clip-rule:nonzero;display:inline;overflow:visible;visibility:visible;opacity:1;isolation:auto;mix-blend-mode:normal;color-interpolation:sRGB;color-interpolation-filters:linearRGB;solid-color:#000000;solid-opacity:1;vector-effect:none;fill:#fffb80;fill-opacity:1;fill-rule:nonzero;stroke:none;stroke-width:3.77952766;stroke-linecap:butt;stroke-linejoin:miter;stroke-miterlimit:4;stroke-dasharray:none;stroke-dashoffset:0;stroke-opacity:1;color-rendering:auto;image-rendering:auto;shape-rendering:auto;text-rendering:auto;enable-background:accumulate"
   d="m 73.904297,34.310547 -0.728516,3.632812 12.958985,5.41211 v 0.632812 h 4.972656 l -0.265625,1.328125 14.470703,6.042969 h 3.4043 l -0.26563,1.330078 14.53125,6.042969 h 8.99805 c 9.24614,0 16.21219,-0.539739 21.07617,-1.712891 2.43199,-0.586576 4.35292,-1.315641 5.82227,-2.378906 1.46934,-1.063265 2.5,-2.674848 2.5,-4.433594 0,-1.455249 -0.80489,-2.649228 -1.88477,-3.6875 1.07902,-1.037862 1.88477,-2.23031 1.88477,-3.685547 0,-1.758717 -1.03067,-3.370354 -2.5,-4.433593 -1.46934,-1.06324 -3.39028,-1.792313 -5.82227,-2.378907 -4.86398,-1.173187 -11.83002,-1.710937 -21.07617,-1.710937 z m 9.429687,3.779297 h 48.646486 c 9.09422,0 15.88381,0.566952 20.18945,1.605468 2.15282,0.519259 3.66919,1.17204 4.49219,1.767579 0.823,0.595538 0.9375,0.918106 0.9375,1.371093 0,0.603618 -0.28251,1.162273 -1.98633,1.984375 l -3.5293,1.703125 3.5293,1.701172 c 1.70481,0.82211 1.98633,1.379766 1.98633,1.984375 0,0.453098 -0.11451,0.775554 -0.9375,1.371094 -0.82299,0.59554 -2.33937,1.248337 -4.49219,1.767578 -4.30563,1.038483 -11.09522,1.605469 -20.18945,1.605469 h -8.24219 l -5.0918,-2.117188 h 13.33399 c 1.095,0 1.94589,-0.0461 2.73437,-0.236328 0.39425,-0.09511 0.78782,-0.211036 1.23828,-0.537109 0.45047,-0.326073 0.97266,-1.078124 0.97266,-1.853516 0,-0.776136 -0.5222,-1.527679 -0.97266,-1.853515 -0.45045,-0.325837 -0.84406,-0.44203 -1.23828,-0.53711 -0.78844,-0.190159 -1.6399,-0.236328 -2.73437,-0.236328 h -25.91016 l -5.07422,-2.11914 h 30.98438 c 1.095,0 1.94589,-0.0461 2.73437,-0.236329 0.39424,-0.09511 0.78782,-0.211037 1.23828,-0.537109 0.45047,-0.326072 0.97266,-1.076169 0.97266,-1.851562 0,-0.775535 -0.52207,-1.527399 -0.97266,-1.853516 -0.45058,-0.326117 -0.84398,-0.44201 -1.23828,-0.53711 -0.7886,-0.190198 -1.63999,-0.238281 -2.73437,-0.238281 H 88.402344 Z"
   id="path996-5"
   inkscape:connector-curvature="0" /><path
   style="color:#000000;font-style:normal;font-variant:normal;font-weight:normal;font-stretch:normal;font-size:medium;line-height:normal;font-family:sans-serif;font-variant-ligatures:normal;font-variant-position:normal;font-variant-caps:normal;font-variant-numeric:normal;font-variant-alternates:normal;font-feature-settings:normal;text-indent:0;text-align:start;text-decoration:none;text-decoration-line:none;text-decoration-style:solid;text-decoration-color:#000000;letter-spacing:normal;word-spacing:normal;text-transform:none;writing-mode:lr-tb;direction:ltr;text-orientation:mixed;dominant-baseline:auto;baseline-shift:baseline;text-anchor:start;white-space:normal;shape-padding:0;clip-rule:nonzero;display:inline;overflow:visible;visibility:visible;opacity:1;isolation:auto;mix-blend-mode:normal;color-interpolation:sRGB;color-interpolation-filters:linearRGB;solid-color:#000000;solid-opacity:1;vector-effect:none;fill:#ff6600;fill-opacity:1;fill-rule:nonzero;stroke:none;stroke-width:3.77952766;stroke-linecap:butt;stroke-linejoin:miter;stroke-miterlimit:4;stroke-dasharray:none;stroke-dashoffset:0;stroke-opacity:1;color-rendering:auto;image-rendering:auto;shape-rendering:auto;text-rendering:auto;enable-background:accumulate"
   d="m 115.60352,60.273438 c -8.20451,0 -14.62585,1.667459 -19.076176,5.320312 -4.45033,3.652853 -6.650391,9.229363 -6.650391,16.134766 0,6.905402 2.20004,12.482127 6.650391,16.134765 4.450346,3.652639 10.871696,5.320309 19.076176,5.320309 h 21.18945 c 0.62385,0 0.82317,0.14288 0.78711,0.11329 -0.0361,-0.0296 -0.0293,-0.17043 -0.0293,0.16992 0,0.34079 -0.007,0.19977 0.0293,0.16992 0.0364,-0.0298 -0.16261,0.11328 -0.78711,0.11328 H 82.828125 l 14.896484,21.16992 h 0.982422 38.085939 c 8.20447,0 14.62777,-1.6656 19.07812,-5.31836 4.45036,-3.65275 6.64844,-9.23093 6.64844,-16.13672 0,-6.905014 -2.19811,-12.480075 -6.64844,-16.132809 -4.45032,-3.652733 -10.87362,-5.320312 -19.07812,-5.320312 h -21.18945 c -0.62415,0 -0.8234,-0.145012 -0.78711,-0.115235 0.0363,0.02978 0.0293,0.173011 0.0293,-0.167968 0,-0.341414 0.009,-0.199814 -0.0273,-0.169922 -0.0364,0.02989 0.16066,-0.115235 0.78516,-0.115235 h 39.06836 l 14.89648,-21.169921 z m 0,3.779296 h 46.68554 l -9.57812,13.611328 h -37.10742 c -1.14151,0 -2.26665,0.21804 -3.18555,0.972657 -0.9189,0.754617 -1.35156,1.98376 -1.35156,3.091797 0,1.108471 0.43447,2.335751 1.35351,3.089843 0.91904,0.754093 2.04274,0.972657 3.1836,0.972657 h 21.18945 c 7.68749,0 13.18451,1.594123 16.67969,4.46289 3.49517,2.868767 5.26757,7.073363 5.26757,13.210934 0,6.13845 -1.77243,10.34611 -5.26757,13.21485 -3.49515,2.86874 -8.99216,4.46093 -16.67969,4.46093 H 99.6875 L 90.109375,107.5293 h 46.683595 c 1.1415,0 2.26668,-0.21829 3.18555,-0.97266 0.91886,-0.75437 1.35351,-1.982 1.35351,-3.08984 0,-1.10828 -0.43471,-2.33768 -1.35351,-3.0918 -0.91881,-0.754115 -2.0444,-0.970703 -3.18555,-0.970703 h -21.18945 c -7.68753,0 -13.18259,-1.594236 -16.677739,-4.462891 -3.49515,-2.868654 -5.269531,-7.074883 -5.269531,-13.21289 0,-6.138008 1.77436,-10.344037 5.269531,-13.212891 3.495169,-2.868854 8.990239,-4.462891 16.677739,-4.462891 z"
   id="path998-6"
   inkscape:connector-curvature="0" /><path
   style="color:#000000;font-style:normal;font-variant:normal;font-weight:normal;font-stretch:normal;font-size:medium;line-height:normal;font-family:sans-serif;font-variant-ligatures:normal;font-variant-position:normal;font-variant-caps:normal;font-variant-numeric:normal;font-variant-alternates:normal;font-feature-settings:normal;text-indent:0;text-align:start;text-decoration:none;text-decoration-line:none;text-decoration-style:solid;text-decoration-color:#000000;letter-spacing:normal;word-spacing:normal;text-transform:none;writing-mode:lr-tb;direction:ltr;text-orientation:mixed;dominant-baseline:auto;baseline-shift:baseline;text-anchor:start;white-space:normal;shape-padding:0;clip-rule:nonzero;display:inline;overflow:visible;visibility:visible;opacity:1;isolation:auto;mix-blend-mode:normal;color-interpolation:sRGB;color-interpolation-filters:linearRGB;solid-color:#000000;solid-opacity:1;vector-effect:none;fill:#ff6600;fill-opacity:1;fill-rule:nonzero;stroke:none;stroke-width:3.77952766;stroke-linecap:butt;stroke-linejoin:miter;stroke-miterlimit:4;stroke-dasharray:none;stroke-dashoffset:0;stroke-opacity:1;color-rendering:auto;image-rendering:auto;shape-rendering:auto;text-rendering:auto;enable-background:accumulate"
   d="M 236.68164,29.515625 189.00586,73.800781 V 41.283203 h -24.9668 v 1.890625 87.814452 l 38.56836,-35.765624 13.82422,24.000004 h 28.77539 L 221.39258,77.753906 236.68164,63.542969 Z m -3.7793,8.667969 v 23.71289 l -16.2832,15.134766 22.05859,38.41211 h -20.0625 L 203.51562,89.226562 167.81836,122.32617 V 45.0625 h 17.4082 v 37.40625 z"
   id="path1000-5"
   inkscape:connector-curvature="0" /><path
   style="color:#000000;font-style:normal;font-variant:normal;font-weight:normal;font-stretch:normal;font-size:medium;line-height:normal;font-family:sans-serif;font-variant-ligatures:normal;font-variant-position:normal;font-variant-caps:normal;font-variant-numeric:normal;font-variant-alternates:normal;font-feature-settings:normal;text-indent:0;text-align:start;text-decoration:none;text-decoration-line:none;text-decoration-style:solid;text-decoration-color:#000000;letter-spacing:normal;word-spacing:normal;text-transform:none;writing-mode:lr-tb;direction:ltr;text-orientation:mixed;dominant-baseline:auto;baseline-shift:baseline;text-anchor:start;white-space:normal;shape-padding:0;clip-rule:nonzero;display:inline;overflow:visible;visibility:visible;opacity:1;isolation:auto;mix-blend-mode:normal;color-interpolation:sRGB;color-interpolation-filters:linearRGB;solid-color:#000000;solid-opacity:1;vector-effect:none;fill:#ff6600;fill-opacity:1;fill-rule:nonzero;stroke:none;stroke-width:3.77952766;stroke-linecap:butt;stroke-linejoin:miter;stroke-miterlimit:4;stroke-dasharray:none;stroke-dashoffset:0;stroke-opacity:1;color-rendering:auto;image-rendering:auto;shape-rendering:auto;text-rendering:auto;enable-background:accumulate"
   d="m 277.93555,0.44726562 c -1.16691,1e-8 -1.41338,0.35797564 -2.01563,0.71093748 -0.60224,0.3529619 -1.30764,0.8283201 -2.16601,1.4492188 -1.71675,1.2417973 -4.02976,3.0587114 -6.97657,5.4726562 l -0.002,0.00195 -0.002,0.00195 C 253.1773,19.282053 245.95508,29.165148 245.95508,38.359375 v 1.058594 c 0,1.648227 0.41584,3.494297 1.16015,5.691406 l 0.0176,0.05273 0.0215,0.05078 c 1.66267,4.101587 5.75444,7.519079 11.79492,10.65625 -7.91725,2.937328 -14.44073,6.022726 -18.87695,9.4375 -5.17938,3.986815 -8.09961,8.555441 -8.09961,13.523437 v 0.847656 c 0,6.047535 4.33568,12.40441 12.27148,19.621094 l 0.0215,0.01953 0.0234,0.01953 c 11.62805,9.931539 25.65997,16.501759 41.96875,19.699219 l 0.17969,0.0352 h 2.32617 l 0.16211,-1.71094 c 0.005,-0.0481 0.64627,-1.7288 2.14063,-3.90235 1.49093,-2.16858 3.74635,-5.05433 6.73242,-8.5996 11.20582,-10.664161 17.19726,-19.330212 17.19726,-26.876958 v -1.271484 c 0,-3.209686 -1.27534,-6.337671 -3.59179,-9.232422 l -0.15235,-0.189454 -0.19336,-0.144531 C 299.3507,58.419637 291.0003,52.073766 284.61133,47.115234 c 8.85566,-5.498222 13.85742,-11.191169 13.85742,-17.443359 v -0.636719 c 0,-0.97212 -0.30264,-1.724367 -0.72656,-2.648437 -0.42392,-0.92407 -1.01622,-1.974128 -1.78516,-3.201172 -1.52087,-2.426957 -3.76247,-5.556294 -6.70117,-9.390625 l -0.0742,-0.105469 C 285.67063,8.4153767 282.38466,4.1894659 279.28711,1.0175781 l -0.55664,-0.57031248 z m -0.47852,4.22265628 c 2.65714,2.8624454 5.52989,6.5180311 8.65039,11.2148441 l 0.0352,0.05469 0.0391,0.05078 c 2.94615,3.839333 5.14464,6.92301 6.57227,9.201172 0.71381,1.139082 1.23546,2.079898 1.55273,2.771485 0.31727,0.691586 0.38281,1.179386 0.38281,1.072265 v 0.636719 c 0,3.856647 -3.33286,8.322932 -10.42383,13.083984 -0.0214,-3.068087 -1.92536,-6.251823 -5.2207,-10.416015 -3.31394,-4.187707 -8.1877,-9.257529 -14.65625,-15.28125 l -0.54297,-0.50586 h -0.75 c 1.90013,-1.820083 3.7453,-3.627281 6.07813,-5.548828 L 269.17773,11 c 2.91254,-2.3857746 5.18878,-4.1711117 6.79102,-5.3300781 0.64076,-0.4634881 1.08337,-0.7461267 1.48828,-1 z M 260.78516,18.664062 c -1.16886,2.705422 -1.9043,5.09452 -1.9043,7.19336 v 0.21289 c 0,4.749242 2.96249,8.912521 8.07812,12.185547 l -0.16992,-0.121093 c 5.87423,4.742676 9.96907,7.923655 12.39453,9.615234 l 0.28516,0.199219 0.48047,0.375 c 6.42596,5.022049 16.00534,12.274996 28.58594,21.652343 1.84281,2.348326 2.68164,4.549556 2.68164,6.734376 v 1.271484 c 0,5.416528 -5.1284,13.807407 -16.14844,24.269528 l -0.0781,0.0723 -0.0664,0.0801 c -3.04272,3.61155 -5.35926,6.5654 -6.97266,8.91211 -1.01066,1.47001 -1.67117,2.61104 -2.14844,3.70898 -15.21318,-3.16782 -28.21637,-9.30961 -39.03711,-18.544921 -7.58491,-6.903374 -11.01367,-12.684744 -11.01367,-16.802735 v -0.847656 c 0,-3.509004 1.98688,-6.957159 6.625,-10.527344 0.0985,-0.07579 0.23517,-0.150835 0.33594,-0.226562 -0.19993,0.597796 -0.35742,1.205875 -0.35742,1.853516 0,3.033594 1.54662,6.042446 4.2207,9.130859 2.67408,3.088413 6.54831,6.322029 11.64649,9.804687 l 0.0273,0.01953 0.0273,0.01758 c 11.33159,7.17288 21.2235,10.886719 29.82813,10.886718 h 1.26953 c 6.3771,0 11.29931,-2.950352 13.60352,-8.351562 l 0.15234,-0.355469 v -1.658203 c 0,-4.758517 -3.52939,-9.575262 -9.79883,-15.15625 -6.26944,-5.580988 -15.51274,-11.917839 -27.79297,-19.105469 l -0.33398,-0.195312 v -0.25 l -1.12305,-0.498047 c -7.71137,-3.426738 -12.04484,-7.097418 -13.40039,-10.384766 -0.64803,-1.931547 -0.94727,-3.463732 -0.94726,-4.416015 v -1.058594 c 0,-5.389177 3.58521,-12.05068 11.05078,-19.695313 z m 2.89453,2.986329 c 5.35288,5.090947 9.63586,9.539265 12.40234,13.035156 3.1138,3.934793 4.41211,6.934156 4.41211,8.123047 0,0.547245 -0.041,0.841083 -0.15234,1.0625 -2.33187,-1.674127 -5.81191,-4.343566 -11.17774,-8.675782 l -0.082,-0.06641 -0.0879,-0.05664 c -4.49036,-2.872974 -6.33203,-5.769195 -6.33203,-9.001954 v -0.21289 c 0,-0.988834 0.40415,-2.494986 1.01758,-4.207031 z m 0.71093,37.25 c 11.72391,6.905605 20.62221,13.019697 26.42969,18.189453 5.94931,5.296012 8.53125,9.641501 8.53125,12.333984 v 0.789063 c -1.80719,3.99649 -4.75833,5.796875 -9.97656,5.796875 h -1.26953 c -7.49147,0 -16.80411,-3.343053 -27.77344,-10.28125 -4.91845,-3.36185 -8.56164,-6.443707 -10.89844,-9.142578 -2.34066,-2.703337 -3.29882,-4.957845 -3.29882,-6.65625 0,-0.897635 1.04853,-2.613421 4.2207,-4.66211 3.02285,-1.95226 7.80191,-4.114786 14.03515,-6.367187 z"
   id="path1021-2"
   inkscape:connector-curvature="0" /><g
   aria-label="N"
   transform="scale(1.0915087,0.9161631)"
   style="font-style:normal;font-variant:normal;font-weight:normal;font-stretch:normal;font-size:117.86134338px;line-height:1.25;font-family:'Black mild';-inkscape-font-specification:'Black mild, Normal';font-variant-ligatures:normal;font-variant-caps:normal;font-variant-numeric:normal;font-feature-settings:normal;text-align:start;letter-spacing:0px;word-spacing:0px;writing-mode:lr-tb;text-anchor:start;fill:none;fill-opacity:1;stroke:#ff6600;stroke-width:3.77952766;stroke-miterlimit:4;stroke-dasharray:none;stroke-opacity:1"
   id="text98-4"><path
     d="m 311.24791,40.531621 q 8.72174,0 15.79342,5.421622 7.07168,5.421621 11.07896,14.850529 4.00729,9.311046 4.00729,20.743596 0,20.036432 -7.54313,33.944072 -7.42526,13.78977 -18.26851,21.92221 13.4362,-17.0899 13.4362,-56.691311 0,-9.428908 -2.23937,-17.56134 -2.1215,-8.132433 -6.48237,-13.082609 -4.36087,-5.068038 -10.60752,-5.068038 -6.12879,0 -8.95746,1.76792 -2.82868,1.76792 -2.82868,6.12879 v 57.869918 q 0,4.47873 2.82868,6.24665 2.82867,1.76792 8.95746,1.65006 l 0.82503,4.36087 H 273.768 l 0.82503,-4.36087 q 6.12879,0 8.95746,-1.76792 2.82867,-1.76792 2.82867,-6.12879 V 52.907062 q 0,-5.068038 -2.82867,-8.014572 -2.71081,-2.946533 -8.01457,-3.182256 h -0.94289 q -4.71445,0 -7.18954,2.59295 -2.35723,2.475088 -2.35723,6.010928 0,3.064395 1.5322,5.303761 1.65006,2.121504 4.12514,2.121504 1.29648,0 1.65006,-0.942891 0.47145,-0.942891 0.58931,-2.828672 0.35358,-2.475088 1.06075,-3.653702 0.70717,-1.296474 2.82867,-1.296474 1.76792,0 2.82868,1.296474 1.06075,1.296475 1.06075,3.417979 0,3.417979 -3.0644,5.657345 -2.94653,2.121504 -6.95382,2.121504 -4.59659,0 -8.01457,-2.946534 -3.41798,-2.946533 -3.41798,-8.603878 0,-2.828672 1.76792,-5.421622 1.76792,-2.592949 5.30377,-4.243008 3.53584,-1.76792 8.60387,-1.76792 h 0.82503 q 4.47873,0 12.96475,0.942891 10.13608,1.178613 17.56134,1.178613 3.18226,0 4.95018,-0.117861 z"
     style="font-style:normal;font-variant:normal;font-weight:normal;font-stretch:normal;font-size:117.86134338px;font-family:'Black mild';-inkscape-font-specification:'Black mild, Normal';font-variant-ligatures:normal;font-variant-caps:normal;font-variant-numeric:normal;font-feature-settings:normal;text-align:start;writing-mode:lr-tb;text-anchor:start;fill:none;stroke:#ff6600;stroke-width:3.77952766;stroke-miterlimit:4;stroke-dasharray:none;stroke-opacity:1"
     id="path1523" /></g>
<path
   style="color:#000000;font-style:normal;font-variant:normal;font-weight:normal;font-stretch:normal;font-size:medium;line-height:normal;font-family:sans-serif;font-variant-ligatures:normal;font-variant-position:normal;font-variant-caps:normal;font-variant-numeric:normal;font-variant-alternates:normal;font-feature-settings:normal;text-indent:0;text-align:start;text-decoration:none;text-decoration-line:none;text-decoration-style:solid;text-decoration-color:#000000;letter-spacing:normal;word-spacing:normal;text-transform:none;writing-mode:lr-tb;direction:ltr;text-orientation:mixed;dominant-baseline:auto;baseline-shift:baseline;text-anchor:start;white-space:normal;shape-padding:0;clip-rule:nonzero;display:inline;overflow:visible;visibility:visible;opacity:1;isolation:auto;mix-blend-mode:normal;color-interpolation:sRGB;color-interpolation-filters:linearRGB;solid-color:#000000;solid-opacity:1;vector-effect:none;fill:#ff6600;fill-opacity:1;fill-rule:nonzero;stroke:none;stroke-width:3.77952766;stroke-linecap:butt;stroke-linejoin:miter;stroke-miterlimit:4;stroke-dasharray:none;stroke-dashoffset:0;stroke-opacity:1;color-rendering:auto;image-rendering:auto;shape-rendering:auto;text-rendering:auto;enable-background:accumulate"
   d="m 71.265625,33.076172 -0.728516,3.632812 12.958985,5.41211 v 0.632812 H 88.46875 L 88.203125,44.082031 102.67383,50.125 h 3.40429 l -0.26562,1.330078 14.53125,6.042969 h 8.99805 c 9.24614,0 16.21218,-0.53974 21.07617,-1.712891 2.43199,-0.586575 4.35292,-1.315641 5.82226,-2.378906 1.46935,-1.063265 2.5,-2.674848 2.5,-4.433594 0,-1.454876 -0.80537,-2.647416 -1.88476,-3.685547 1.07914,-1.037895 1.88476,-2.230222 1.88476,-3.685547 0,-1.758717 -1.03066,-3.372306 -2.5,-4.435546 -1.46933,-1.063241 -3.39027,-1.792312 -5.82226,-2.378907 -4.86398,-1.173189 -11.83002,-1.710937 -21.07617,-1.710937 z m 9.427734,3.779297 H 129.3418 c 9.09422,0 15.88381,0.56695 20.18945,1.605469 2.15282,0.519259 3.66919,1.172039 4.49219,1.767578 0.823,0.595539 0.9375,0.920059 0.9375,1.373046 0,0.603605 -0.28251,1.160315 -1.98633,1.982422 l -3.5293,1.703125 3.5293,1.701172 c 1.70481,0.822107 1.98633,1.379763 1.98633,1.984375 0,0.453099 -0.11452,0.775555 -0.9375,1.371094 -0.82299,0.595539 -2.33937,1.248337 -4.49219,1.767578 -4.30563,1.038482 -11.09522,1.607422 -20.18945,1.607422 h -8.24219 l -5.0957,-2.119141 h 13.33789 c 1.095,0 1.94589,-0.0461 2.73437,-0.236328 0.39424,-0.09511 0.78782,-0.211038 1.23828,-0.537109 0.45046,-0.326072 0.97266,-1.07812 0.97266,-1.853516 0,-0.776128 -0.5222,-1.527676 -0.97266,-1.853515 -0.45046,-0.32584 -0.84406,-0.44203 -1.23828,-0.53711 -0.78844,-0.190159 -1.63991,-0.236328 -2.73437,-0.236328 H 103.43164 L 98.363281,44.228516 H 129.3418 c 1.095,0 1.94589,-0.04806 2.73437,-0.238282 0.39424,-0.09511 0.78782,-0.20908 1.23828,-0.535156 0.45047,-0.326076 0.97266,-1.07813 0.97266,-1.853516 0,-0.775535 -0.52207,-1.527398 -0.97266,-1.853515 -0.45058,-0.326117 -0.84398,-0.44201 -1.23828,-0.537109 -0.7886,-0.190199 -1.63999,-0.236329 -2.73437,-0.236329 H 85.769531 Z"
   id="path996-5-0"
   inkscape:connector-curvature="0" /><path
   id="path905-6-4-6"
   d="m 377.55975,88.965359 h 2.62705 c 1.24083,0 2.05697,0.55519 2.44842,1.665568 0,0.146451 0.0168,0.321447 0.051,0.525817 0,1.066531 -0.67217,1.767757 -2.01555,2.104093 -0.23834,0.02896 -0.4685,0.04344 -0.68902,0.04344 h -0.76558 v 1.490159 h -1.65732 z m 0,7.144652 h 4.43845 v 9.489519 c 0,0.86216 0.39098,1.47526 1.17341,1.84056 0.30623,0.11708 0.6375,0.17541 0.99477,0.17541 h 0.20416 c 0.90088,0 1.54705,-0.35785 1.93803,-1.07397 0.1353,-0.2627 0.20415,-0.5403 0.20415,-0.83279 v -9.598729 h 4.43797 v 8.940529 c 0,3.1851 -1.45364,5.21556 -4.36141,6.09302 -0.61198,0.16134 -1.37708,0.26311 -2.29626,0.30655 -3.19714,0 -5.32248,-1.31474 -6.37648,-3.94465 -0.23834,-0.67186 -0.35631,-1.52615 -0.35631,-2.56414 z m 1.6578,-5.719859 v 1.490163 h 0.91822 c 0.5778,0 0.87536,-0.277186 0.89269,-0.832789 -0.0857,-0.438111 -0.34042,-0.657374 -0.76558,-0.657374 z m 3.7499,-1.424793 h 5.15203 v 1.42438 h -3.46871 v 0.767005 h 2.55098 l -0.81614,1.44631 h -1.73484 v 0.767001 h 3.46871 v 1.423965 h -5.15203 z m 5.55986,0 h 2.62705 c 1.66647,0.17541 2.49946,0.891116 2.49946,2.147532 0,0.818723 -0.52772,1.534015 -1.58124,2.147533 l 1.30052,1.533596 h -1.86147 c -0.18778,-0.101771 -0.6038,-0.598214 -1.24996,-1.490157 h -0.0766 v 1.490157 h -1.6578 z m 1.65828,1.424793 v 1.490163 h 0.96926 c 0.47571,0 0.75643,-0.255259 0.84165,-0.76701 -0.0684,-0.482378 -0.32308,-0.723153 -0.7651,-0.723153 z m 8.26395,5.544449 h 0.20415 c 3.33245,0 5.53482,1.190638 6.60615,3.571909 0.18682,0.64372 0.28071,1.10334 0.28071,1.38053 -2.49897,0.27759 -3.9112,0.45341 -4.23429,0.52581 -0.27156,-1.62171 -1.19844,-2.43298 -2.7792,-2.43298 h -0.28071 c -1.10601,0 -1.6578,0.3806 -1.6578,1.14016 0,1.05122 1.22445,1.86249 3.67286,2.43216 2.34682,0.77486 3.86836,1.54891 4.56556,2.32294 0.47524,0.68758 0.71358,1.32261 0.71358,1.90676 v 0.0658 c 0,2.36679 -1.43678,3.85695 -4.31085,4.47047 -0.71309,0.16093 -1.38574,0.24119 -2.01507,0.24119 h -0.28023 c -3.35026,0 -5.52711,-0.97137 -6.53055,-2.91454 -0.32308,-0.48238 -0.5518,-1.16167 -0.68855,-2.0379 2.53365,-0.27718 3.94444,-0.453 4.23382,-0.52581 0.35679,1.62171 1.25815,2.43216 2.70361,2.43216 h 0.43287 c 1.054,0 1.58123,-0.35744 1.58123,-1.07398 v -0.2838 c 0,-0.7157 -1.54753,-1.45375 -4.64212,-2.21331 -2.87405,-0.97923 -4.31036,-2.37382 -4.31036,-4.18626 0,-2.089197 1.15559,-3.51316 3.4687,-4.273549 0.97022,-0.364884 2.05889,-0.54774 3.26649,-0.54774 z m -2.14267,-7.034607 h 0.61198 c 1.47916,0.160931 2.21875,0.774038 2.21875,1.840565 -0.42516,0.08729 -0.93507,0.131144 -1.5302,0.131144 -0.13627,-0.554776 -0.43335,-0.832785 -0.8927,-0.832785 h -0.40831 c -0.25471,0 -0.4165,0.07984 -0.48439,0.241189 v 0.284628 c 0,0.3653 0.78195,0.767005 2.34634,1.205121 0.69673,0.351234 1.04581,0.767005 1.04581,1.249797 v 0.04343 c 0,1.037566 -0.80795,1.636608 -2.42289,1.797126 -1.34338,0 -2.2279,-0.416186 -2.65257,-1.249381 l -0.20416,-0.657368 c 0.22053,0 0.75595,-0.05875 1.60676,-0.175824 0.15264,0.628825 0.51857,0.942825 1.09637,0.942825 0.51087,-0.01448 0.76558,-0.189891 0.76558,-0.525816 0,-0.306964 -0.71406,-0.643304 -2.14218,-1.008604 -0.88451,-0.408738 -1.32653,-0.89112 -1.32653,-1.44631 4.8e-4,-1.079765 0.7911,-1.6937 2.37234,-1.839737 z m 6.50407,0.06536 h 0.28023 c 1.1739,0 2.12534,0.534091 2.85721,1.59979 0.23738,0.409152 0.3568,0.788931 0.3568,1.139342 v 0.241602 c 0,1.402449 -0.95289,2.33742 -2.85673,2.804904 -0.32357,0.02937 -0.51087,0.04301 -0.56143,0.04301 -1.54753,0 -2.65257,-0.773624 -3.31559,-2.322524 0,-0.160517 -0.0265,-0.379779 -0.0766,-0.657374 0,-1.124862 0.68854,-1.994053 2.0661,-2.608401 0.34042,-0.159689 0.75644,-0.240362 1.24997,-0.240362 z m -1.65827,2.980734 c 0,0.74508 0.57779,1.219593 1.73483,1.423962 0.83251,0 1.41127,-0.379775 1.73484,-1.139334 v -0.525817 c -0.20416,-0.87664 -0.71358,-1.315165 -1.53069,-1.315165 h -0.4083 c -0.79929,0 -1.31016,0.474517 -1.53068,1.424383 z m 5.07546,4.163918 h 13.39142 v 3.769244 h -8.95249 v 1.9506 h 6.65671 v 0.0654 c -1.42909,2.44002 -2.14219,3.69685 -2.14219,3.76925 h -4.51452 v 1.95061 h 8.95249 v 3.83502 h -13.39142 z m 0.48535,-7.144652 h 1.73436 c 1.054,1.943163 1.63275,2.914542 1.73531,2.914542 v -2.914542 h 1.65732 v 5.829077 h -1.58124 c -0.10207,0 -0.68035,-0.971376 -1.73483,-2.914535 h -0.15264 v 2.914535 h -1.65731 z m 7.14158,0 h 1.65731 c 1.12189,3.769252 1.68332,5.712826 1.68332,5.829077 h -1.53068 c -0.10208,0 -0.19549,-0.254844 -0.28023,-0.767006 h -1.37757 c -0.10207,0.511751 -0.19548,0.767006 -0.28023,0.767006 h -1.53068 v -0.04301 c 10e-4,-0.07322 0.55324,-2.00149 1.65876,-5.786049 z m 0.7651,2.191385 -0.28023,1.44631 h 0.68854 l -0.28072,-1.44631 z m 2.70361,-2.191385 h 1.65731 v 4.404696 h 1.73484 v 1.423965 h -3.39263 z"
   inkscape:connector-curvature="0"
   style="fill:#ff6515;fill-opacity:1;stroke:#fff541;stroke-width:0.75590552;stroke-miterlimit:4;stroke-dasharray:none;stroke-opacity:1;paint-order:fill markers stroke" /><path
   id="path907-9-4-8"
   d="m 428.06165,90.093941 v 56.371229 l -6.12128,7.42555 V 97.704154 Z m -5.71297,33.847309 v 0.24807 c 0.3226,1.48606 0.52676,2.2287 0.61198,2.2287 h 0.20464 v -1.48527 l -0.20464,-0.74343 c 0.0684,-0.32971 0.10256,-0.57778 0.10256,-0.74342 h -0.30671 c -0.16997,0.33128 -0.30575,0.49535 -0.40783,0.49535 z m 0,1.73413 v 1.48448 h 0.20416 l -0.10208,-0.49536 v -0.49535 l 0.10208,-0.49535 h -0.20416 z m 0.40735,-4.70387 v 0.49535 c 0.13578,0 0.20415,-0.16407 0.20415,-0.49535 z m 1.02077,0 c 0,0.24807 -0.13626,0.57778 -0.40831,0.9907 0.16997,0.3313 0.30623,0.49535 0.40831,0.49535 0.13579,-0.16405 0.23786,-0.24728 0.30576,-0.24728 0,0.16407 0.0337,0.24728 0.10255,0.24728 v -0.49535 c -0.20463,-0.41292 -0.30671,-0.74263 -0.30671,-0.9907 z m 0.40735,0.24648 v 0.24808 h 0.20464 v -0.24808 z m 0.81662,-2.22631 c 0.0169,0.33049 0.0852,0.49535 0.20415,0.49535 0,-0.32971 0.13579,-0.49535 0.4088,-0.49535 v -0.74264 H 425.307 c -0.10256,0 -0.20463,0.24728 -0.30623,0.74264 z m 0.40783,5.44492 -0.10208,0.49535 c 0.2552,0 0.52773,0.24808 0.81614,0.74343 h 0.20416 v -0.24807 c -0.57829,-0.66021 -0.88403,-0.99071 -0.91822,-0.99071 z m 1.42908,-9.65345 v 0.24807 c 0.13579,0 0.27109,0.41293 0.40832,1.23878 -0.40832,0.37172 -0.61199,0.70222 -0.61199,0.99071 v 0.24728 l 0.10208,0.49536 c -0.17045,0 -0.27205,0.3305 -0.30671,0.98991 l -0.20416,-0.24807 c -0.13626,0.042 -0.20416,0.20765 -0.20416,0.49535 0.0679,0.33129 0.10208,0.57778 0.10208,0.74343 l 0.30624,-0.49536 c 0.13577,0.0412 0.20463,0.20686 0.20463,0.49536 l -0.10256,1.23878 c 0.0684,0 0.10256,0.0824 0.10256,0.24807 -0.0689,0 -0.10256,0.0832 -0.10256,0.24807 0.13578,0.042 0.20464,0.20766 0.20464,0.49536 l 0.20415,-0.24808 h 0.10208 c 0.20416,0 0.30624,0.33129 0.30624,0.99071 l 0.20415,-0.24807 0.20415,0.24807 v -2.47518 l -0.20415,0.24807 h -0.20415 c -0.0684,0 -0.27157,-0.49535 -0.61199,-1.48606 v -0.24807 c 0.3226,-1.31962 0.52676,-1.97983 0.61199,-1.97983 h 0.10207 c 0.13578,0.042 0.20416,0.20765 0.20416,0.49535 l -0.30623,0.99071 v 0.24807 c 0,0.24728 0.10207,0.49536 0.30623,0.74263 h 0.10207 v -2.72245 c -0.27156,0 -0.4083,-0.16407 -0.4083,-0.49536 v -0.24807 c 0,-0.3305 0.13577,-0.49536 0.4083,-0.49536 v -1.23878 l -0.20415,0.24808 h -0.10208 l -0.30623,-0.49457 c -0.10256,-0.005 -0.20464,0.24174 -0.30672,0.73709 z m 0.10208,-2.47518 c -0.13626,-0.16406 -0.23834,-0.24808 -0.30623,-0.24808 l -0.10256,0.49536 0.91822,0.24807 0.10207,-0.49535 v -0.49377 z"
   inkscape:connector-curvature="0"
   style="fill:#ff6515;fill-opacity:1;stroke:#fff541;stroke-width:0.75590552;stroke-miterlimit:4;stroke-dasharray:none;stroke-opacity:1;paint-order:fill markers stroke" /><path
   id="path909-2-9-5"
   d="M 443.97396,94.755334 V 114.32766 L 435.7486,103.2008 v 7.64645 l -4.36827,-1.65511 v -7.98873 l -4.14875,-4.96424 h 8.37102 l 4.00342,4.56487 v -4.450691 z m -11.13765,12.325516 v 0.0571 h 0.14566 v -0.0571 z m 0.29099,0.74164 0.14601,0.0571 c 0.0113,-0.0757 0.0605,-0.11419 0.14567,-0.11419 h 0.21849 v 0.11419 h 0.14532 v -0.11419 c -0.0969,0 -0.21815,-0.0571 -0.36381,-0.17154 -0.15804,0.0385 -0.25492,0.11445 -0.29168,0.22863 z m 0.29168,0.17128 v 0.34227 h 0.0728 l 0.14567,-0.0574 v 0.0574 c 0,0.11419 -0.0972,0.17128 -0.29133,0.17128 v 0.17127 l 0.14566,-0.0571 h 0.36383 c 0.0969,0.01 0.14567,0.0477 0.14567,0.11445 l -0.14567,0.171 v 0.34228 c 0,0.0571 0.0728,0.11419 0.21884,0.17101 h 0.0728 l -0.0728,-0.28519 c 0.0845,-0.038 0.18174,-0.0571 0.29134,-0.0571 v -0.11418 l -0.14567,-0.17128 v -0.11418 l 0.0728,-0.11418 c -0.24289,0 -0.36451,-0.038 -0.36451,-0.11418 0.0965,-0.0383 0.16938,-0.0571 0.2185,-0.0571 v -0.11419 c -3.4e-4,-0.0854 -0.24289,-0.18043 -0.72798,-0.28491 z m 0,-2.73903 v 0.22863 c 0.0117,0.0762 0.0605,0.11418 0.14566,0.11418 l 0.0728,-0.11418 v -0.28573 c -0.0979,0.0377 -0.1704,0.0571 -0.21849,0.0571 z m 1.1643,0.45645 v 0.0571 c 0.33943,0.0385 0.50948,0.0953 0.50948,0.17127 v 0.17127 c 0.0969,0.009 0.14567,0.0477 0.14567,0.11418 v 0.0571 h -0.2185 c -0.33978,0 -0.50949,-0.17127 -0.50949,-0.51355 h -0.0728 c 0,0.11418 -0.0972,0.20925 -0.29134,0.28573 0,0.15189 -0.0491,0.2281 -0.146,0.2281 l -0.14567,-0.0571 c -0.14567,0.11419 -0.24255,0.24722 -0.29099,0.39911 -0.0972,0.01 -0.14567,0.0479 -0.14567,0.11418 h 0.43666 l 0.29167,-0.17127 c 0,0.0571 0.0728,0.11444 0.2185,0.17127 h 0.0728 v -0.11418 l -0.0728,-0.39911 0.14567,-0.0574 c 0.0608,0 0.18208,0.13358 0.36416,0.39938 0.012,-0.076 0.0612,-0.11419 0.14602,-0.11419 h 0.0728 l 0.14567,0.0571 c 0,-0.0757 0.0969,-0.11418 0.29133,-0.11418 v -0.28573 l -0.14566,-0.171 0.0728,-0.11418 c -0.43666,-0.038 -0.70394,-0.076 -0.80083,-0.11418 z m -1.01864,1.31256 v 0.11419 c 0.0117,0.0762 0.0605,0.11391 0.14532,0.11391 v -0.11391 c -3.4e-4,-0.0762 -0.0485,-0.11419 -0.14532,-0.11419 z m 0.14498,-1.25546 v 0.17127 c 0.0972,0.0951 0.14566,0.17127 0.14566,0.22809 h 0.0728 c 0,-0.11364 0.0488,-0.171 0.14601,-0.171 -0.0491,-0.0662 -0.0732,-0.14246 -0.0732,-0.22836 z m 0.14532,-0.57065 v 0.11418 c 0.0969,0 0.14567,0.0385 0.14567,0.11419 h 0.0732 v -0.11419 z m 0.0728,1.82611 v 0.0571 h 0.21885 v -0.0571 z m 0.29168,0.11391 c 0,0.11392 -0.0972,0.17101 -0.29168,0.17101 v 0.17127 c 0.21885,0.11419 0.36452,0.17155 0.43666,0.17155 v 0.11418 c 0,0.0856 -0.0244,0.16212 -0.0728,0.22836 v 0.0574 h 0.0728 c 0,-0.22863 0.21851,-0.34227 0.65516,-0.34227 0.0485,0.0762 0.0728,0.1333 0.0728,0.17127 l 0.2185,-0.11418 h 0.0728 l 0.14566,0.0571 v -0.62773 c -0.0852,0.0382 -0.18174,0.0571 -0.29133,0.0571 v 0.0574 c 0,0.0383 0.024,0.0568 0.0728,0.0568 -0.0728,0.15215 -0.14567,0.22863 -0.2185,0.22863 -0.1941,0 -0.33977,-0.15188 -0.43666,-0.45646 h -0.0728 c 0,0.0383 -0.0244,0.0951 -0.0728,0.17128 0.0485,0.0668 0.0728,0.14246 0.0728,0.22836 l -0.14567,0.0571 h -0.14567 v -0.0576 c 0,-0.0856 0.0237,-0.16184 0.0728,-0.22863 -0.0491,-0.0759 -0.0728,-0.13276 -0.0728,-0.17101 h -0.0722 z m -0.14567,-1.48356 v 0.0571 h 0.14567 v -0.0571 z m 0.0728,-1.94002 c 0,0.0571 0.0728,0.11418 0.2185,0.17127 l 0.0728,-0.11418 v -0.0571 z m 0,0.39937 v 0.28545 c 0.0965,0 0.14567,-0.0382 0.14567,-0.11418 v -0.17127 z m 0.2185,0.74164 v 0.0574 h 0.0728 l 0.36417,-0.0574 v -0.0568 h -0.21851 c -0.0979,0.0383 -0.17074,0.0568 -0.21849,0.0568 z m 0.21816,0.28546 c 0,0.0668 -0.0488,0.16185 -0.14567,0.28546 l 0.14567,0.0574 c 0.012,-0.0759 0.0608,-0.11419 0.14566,-0.11419 h 0.29168 v 0.11419 c 0.0965,0 0.14566,-0.0383 0.14566,-0.11419 -3.4e-4,-0.10502 -0.19514,-0.18097 -0.583,-0.22863 z m 0.29098,-4.16551 h -0.36416 v 0.34229 c 0,0.0759 0.14566,0.15188 0.43665,0.22836 0,-0.0856 0.12128,-0.23779 0.36417,-0.45646 -0.19411,0 -0.29133,-0.0571 -0.29133,-0.17155 z m -0.36347,2.79613 v 0.0571 h 0.14566 v -0.0571 z m 0,3.19549 v 0.0571 h 0.14566 c 0.40024,-0.15188 0.69191,-0.22836 0.87366,-0.22836 v -0.11418 h -0.36417 c -0.26728,0.19066 -0.48544,0.28545 -0.65515,0.28545 z m 0.21781,1.94003 v 0.0571 l 0.146,0.0571 v -0.0571 z m 0.21884,-0.68483 c 0,0.0568 0.0728,0.11392 0.2185,0.17101 h 0.0728 v -0.17101 z m 0.29133,0.57064 c 0,0.1904 -0.0972,0.28546 -0.29133,0.28546 v 0.0571 h 0.0728 c 0.0237,0 0.12128,-0.0189 0.29134,-0.0571 0.0969,0.0382 0.16971,0.0571 0.2185,0.0571 v -0.17127 c -4.8e-4,-0.0571 -0.0979,-0.11445 -0.29134,-0.17128 z m -0.2185,-4.90715 v 0.11419 h 0.29134 v -0.0574 z m 0.14567,0.85556 -0.14567,0.17154 0.43666,0.17101 0.0728,-0.11392 v -0.0571 c -0.0855,0 -0.20613,-0.0574 -0.36382,-0.17154 z m -0.14567,2.51094 v 0.11445 h 0.14567 c 0,-0.0765 -0.0491,-0.11445 -0.14567,-0.11445 z m 0.29134,-6.50517 v 0.22864 h 0.0728 c 0.0969,-0.0383 0.16972,-0.0571 0.2185,-0.0571 v -0.0574 c -0.0735,0 -0.17075,-0.0377 -0.29133,-0.11418 z m 0,4.50806 v 0.0571 c 0.0969,0 0.14566,0.0574 0.14566,0.17155 h 0.0728 v -0.17155 l -0.14567,-0.0571 z m 0.0728,-2.85295 v 0.0571 h 0.2185 v -0.0571 z m 0,5.82007 v 0.17101 h 0.0728 v -0.17101 z m 0.43666,-7.24682 v 0.0571 c 0.14567,0 0.2185,0.0382 0.2185,0.11418 v 0.11418 h -0.43666 l 0.0728,0.11445 c -0.0488,0.076 -0.0728,0.13304 -0.0728,0.17101 l 0.29168,0.11445 c 0,-0.22864 0.12127,-0.34228 0.36416,-0.34228 0,-0.15188 -0.12162,-0.26606 -0.36416,-0.34228 h -0.0732 v -9.2e-4 z m -0.21884,1.08393 v 0.11418 h 0.0728 v -0.11418 z m 0.80082,-1.19811 v 0.17128 c 0.0969,0 0.14532,-0.0382 0.14532,-0.11446 z m 2.25714,5.82061 c 0.0969,0.0953 0.14566,0.1904 0.14566,0.28546 h 0.0728 v -0.28546 z m 2.40212,0.11392 -0.21849,0.22836 0.14567,0.0571 -0.0728,0.11391 v 0.0571 c 0.33909,0.0477 0.50915,0.1236 0.50915,0.22863 v 0.0568 c 0,0.0762 -0.0488,0.11446 -0.14567,0.11446 -0.38856,0 -0.58233,-0.11446 -0.58233,-0.34228 h -0.0728 c 0,0.26606 -0.0488,0.39909 -0.14567,0.39909 0,-0.038 -0.0244,-0.0571 -0.0728,-0.0571 0,0.0382 -0.0244,0.0571 -0.0728,0.0571 -0.0972,-0.12333 -0.14567,-0.21893 -0.14567,-0.28572 l -0.50949,0.0574 c 0,-0.0574 -0.0728,-0.11418 -0.21849,-0.17154 -0.0728,0.15215 -0.14567,0.22837 -0.21851,0.22837 0.25457,0.42818 0.52186,0.7131 0.80083,0.8561 h -0.14602 v 0.11418 c 0.32776,-0.19013 0.54625,-0.28546 0.65516,-0.28546 l -0.0728,-0.11418 c 0.13364,-0.2658 0.23053,-0.39911 0.29133,-0.39911 h 0.0728 c 0.0969,0.01 0.14601,0.0477 0.14601,0.11419 h -0.0728 c 0,0.12361 0.19342,0.21894 0.58198,0.28573 0,0.11418 0.0488,0.171 0.14567,0.171 h 0.0728 v -0.0568 c -0.0488,-0.0762 -0.0728,-0.13303 -0.0728,-0.17154 l 0.146,-0.0568 -0.0732,-0.11446 v -0.17128 c 0.0117,-0.0759 0.0608,-0.11417 0.14601,-0.11417 h 0.0725 c 0.0972,0.009 0.14567,0.0477 0.14567,0.11417 v 0.0571 l -0.0728,0.28546 c 0.0488,0 0.12162,0.0191 0.2185,0.0574 0,-0.11418 0.0485,-0.24722 0.14567,-0.39937 -0.0969,0 -0.14567,-0.0382 -0.14567,-0.11418 l 0.14567,-0.0571 c 0.2666,0 0.43666,0.0762 0.50949,0.22837 0.0969,-0.038 0.16971,-0.0571 0.2185,-0.0571 v -0.0571 l -0.2185,-0.28573 c -0.19411,0.0762 -0.33978,0.11418 -0.43666,0.11418 -0.0969,-0.0951 -0.14566,-0.171 -0.14566,-0.22836 h -0.14567 c 0,0.19039 -0.16972,0.32342 -0.50915,0.39937 -0.0969,0 -0.14567,-0.0383 -0.14567,-0.11445 v -0.0568 c 0,-0.0759 0.0728,-0.11418 0.21885,-0.11418 v -0.0574 c -0.20716,0 -0.37687,-0.15161 -0.50949,-0.45646 z m -1.31065,0.79847 h 0.0728 c 0.0969,0.01 0.14566,0.0479 0.14566,0.11445 l -0.2185,0.11418 c -0.0972,0 -0.14567,-0.0383 -0.14567,-0.11418 0.0124,-0.0759 0.0605,-0.11445 0.14567,-0.11445 z m 0.437,0.17154 c 0.0969,0.01 0.14567,0.0477 0.14567,0.11419 v 0.11418 c 0,0.0762 -0.0488,0.11418 -0.14567,0.11418 -0.0972,0 -0.14567,-0.038 -0.14567,-0.11418 v -0.11418 c 0.0117,-0.0757 0.0608,-0.11419 0.14567,-0.11419 z m 0.29133,0.74165 c 0,0.11418 -0.0728,0.17154 -0.2185,0.17154 l 0.0728,0.11418 c 0.0849,-0.0383 0.18208,-0.0574 0.29133,-0.0574 -0.0488,-0.0662 -0.0728,-0.14245 -0.0728,-0.22836 z m 0.14533,-0.28519 v 0.0568 l 0.50948,0.0571 v -0.1139 l -0.14566,0.0568 c -0.0972,0 -0.14601,-0.038 -0.14601,-0.11418 -0.0965,0.0385 -0.16938,0.0574 -0.21781,0.0574 z m 0.50983,1.14156 c 0,0.0568 -0.0491,0.13276 -0.14566,0.22836 0.24254,0.009 0.36416,0.0662 0.36416,0.17128 v 0.0571 c -0.19377,0.009 -0.29134,0.0856 -0.29134,0.22836 h 0.29134 c 0.0485,-0.30458 0.16971,-0.45619 0.36451,-0.45619 v -0.0576 h -0.0732 c -0.0969,0.038 -0.16972,0.0571 -0.2185,0.0571 -3.4e-4,-0.0576 -0.0979,-0.13357 -0.29133,-0.22836 z m 0,-0.17155 v 0.0571 h 0.14567 v -0.0571 z m 0.14567,1.08393 v 0.11445 h 0.0728 v -0.11445 z m 0.80048,-1.14102 c 0,0.15216 -0.0241,0.2281 -0.0728,0.2281 0.0488,0.0759 0.0728,0.13303 0.0728,0.17154 h 0.0728 c 0,-0.0762 0.024,-0.11418 0.0728,-0.11418 -0.0488,-0.0668 -0.0728,-0.16185 -0.0728,-0.28546 z m 0.14566,0 h 0.2185 v -0.11418 h -0.0728 c -0.0979,0.01 -0.14567,0.0479 -0.14567,0.11418 z m 0.29065,-0.91292 c 0,0.0762 -0.0728,0.11392 -0.2185,0.11392 v 0.0571 c 0.0728,0 0.16971,0.0382 0.29168,0.11418 l 0.36416,-0.0571 v -0.0571 c -0.13364,2.7e-4 -0.27965,-0.0568 -0.43734,-0.17101 z m 0.87365,-2.1113 v 0.0568 c 0.14601,0.34228 0.21885,0.53294 0.21885,0.57065 l -0.43666,0.17154 h -0.2185 c -0.0972,0 -0.14567,-0.038 -0.14567,-0.11418 v -0.28573 c -0.0972,0 -0.14567,-0.0189 -0.14567,-0.0571 -0.0732,0 -0.17005,0.0762 -0.29167,0.22864 l 0.0728,0.11418 v 0.0568 l -0.0728,0.11445 c 0.19376,0.14273 0.50949,0.23779 0.94649,0.28519 0,-0.15161 0.0488,-0.2281 0.14601,-0.2281 0,0.0571 0.0728,0.11419 0.2185,0.17101 v -1.14075 h -0.0728 c -0.0972,0.0377 -0.17006,0.0566 -0.21885,0.0566 z m -0.87365,1.9403 v 0.0568 h 0.146 v -0.0568 z m 0.21884,0.57037 c -0.0972,0.12361 -0.14601,0.21894 -0.14601,0.28572 h 0.14601 c 0,-0.15188 0.0485,-0.22836 0.14567,-0.22836 v -0.0574 z m 0.0728,0.62773 h 0.14567 v -0.11418 c -0.0976,0.01 -0.14567,0.0477 -0.14567,0.11418 z m 0.2185,-0.74191 h 0.2185 v -0.17127 c -0.0732,2.6e-4 -0.14601,0.0574 -0.2185,0.17127 z m 0.50949,-0.91319 c 0,0.11445 -0.0972,0.17154 -0.29167,0.17154 -0.0969,0 -0.14567,0.1333 -0.14567,0.3991 h 0.0728 l 0.2185,-0.11418 c 0.0732,0.15215 0.14601,0.22836 0.21885,0.22836 l 0.0728,-0.11418 v -0.22837 h -0.2185 v -0.0571 c 0,-0.0759 0.0728,-0.11418 0.2185,-0.11418 v -0.17127 h -0.14567 z m -0.36416,-0.0568 v 0.0568 c 0.0849,-0.038 0.18173,-0.0568 0.29167,-0.0568 -0.0491,-0.0759 -0.0732,-0.13304 -0.0732,-0.17155 -0.0732,9.3e-4 -0.14601,0.0574 -0.2185,0.17155 z m 0.0725,-1.99712 c 0,0.1904 0.0488,0.28546 0.14566,0.28546 0.0969,-0.0383 0.16972,-0.0571 0.21885,-0.0571 -0.0491,-0.0665 -0.0728,-0.14273 -0.0728,-0.22837 z m 0.14566,-0.57038 -0.0728,0.11392 v 0.0571 c 0.19376,0 0.29168,0.1333 0.29168,0.39937 h 0.0728 v -0.34228 c 0,-0.0571 -0.0972,-0.13303 -0.29168,-0.2281 z m 0,3.70905 v 0.0568 l 0.0732,0.22864 h -0.0732 c 0.0488,0.0759 0.0732,0.1333 0.0732,0.17127 h 0.0728 c 0,-0.0953 0.0485,-0.19012 0.14567,-0.28573 v -0.11418 z m 0.14601,-0.28545 v 0.11418 h 0.14567 v -0.11418 z m 0.0728,-6.56226 v 0.17154 h 0.0728 v -0.17154 z"
   inkscape:connector-curvature="0"
   style="fill:#ff6515;fill-opacity:1;stroke:#fff541;stroke-width:0.75590552;stroke-miterlimit:4;stroke-dasharray:none;stroke-opacity:1;paint-order:fill markers stroke" /><path
   id="path911-9-9-4"
   d="m 443.50089,96.23917 h 8.44419 v 6.16262 l 3.78527,-4.507787 -2.0383,-1.654833 h 10.62851 l -10.19116,8.10264 c 2.82675,0.78959 4.91383,2.10187 6.26056,3.93714 1.21275,1.60717 1.8198,3.58517 1.8198,5.93426 v 0.34227 c -0.71596,-2.03535 -1.88095,-3.61398 -3.49428,-4.73614 -1.85621,-1.40736 -4.11302,-2.1113 -6.76971,-2.1113 v 2.9674 h 2.18363 l -6.55191,3.48041 v -13.0098 z m 0.65516,0.171003 v 0.05709 c 0.19341,0.0191 0.29099,0.07621 0.29099,0.171272 v 0.05736 c 0,0.07594 -0.0725,0.114184 -0.21817,0.114184 0.0728,0.15188 0.14567,0.228363 0.21817,0.228363 l 0.3645,-0.456462 c 0.0488,0.07621 0.0728,0.133302 0.0728,0.171544 0.17005,-0.02853 0.31572,-0.142728 0.43665,-0.342279 h -0.14566 c -0.0485,0 -0.0728,0.0191 -0.0728,0.05709 l -0.36451,-0.05709 h -0.58164 v -0.0014 z m 0.6548,0.513554 c 0.0969,0.123604 0.14567,0.218933 0.14567,0.285455 -0.0488,0.07621 -0.0728,0.133302 -0.0728,0.171539 h 0.2185 c 0,-0.09533 0.0488,-0.190394 0.14567,-0.285723 -0.19343,0 -0.29134,-0.05709 -0.29134,-0.171271 v -0.05709 z m 0.50949,0.855829 v 0.05709 h 0.14567 v -0.05709 z m 1.31066,-1.14102 v 0.114188 c 0.0485,0.07621 0.0728,0.133566 0.0728,0.171539 l -0.43665,0.285455 h -0.0728 c -0.0972,0 -0.14566,-0.03797 -0.14566,-0.114179 -0.20648,0.114179 -0.37619,0.171271 -0.5095,0.171271 v 0.342279 c 0.19411,0.01887 0.29168,0.07621 0.29168,0.171271 v 0.0571 c 0,0.07621 -0.0969,0.114179 -0.29168,0.114179 0.0124,0.07621 0.0612,0.114184 0.14602,0.114184 h 0.14566 c 0.0969,0 0.14567,-0.03797 0.14567,-0.114184 -0.0488,-0.07567 -0.0728,-0.133034 -0.0728,-0.171276 0.0728,-0.03825 0.2185,-0.05709 0.43666,-0.05709 -0.0488,-0.07594 -0.0728,-0.133029 -0.0728,-0.171539 l -0.14567,0.05736 h -0.0728 c -0.0972,0 -0.14567,-0.03797 -0.14567,-0.114184 v -0.114184 c 0.012,-0.07567 0.0605,-0.114179 0.14567,-0.114179 0.0728,0 0.14567,0.05736 0.2185,0.17154 0.33943,-0.152148 0.58232,-0.228632 0.72799,-0.228632 v -0.05709 c -0.14567,0 -0.2185,-0.03797 -0.2185,-0.114179 0,-0.09533 0.0969,-0.151889 0.29133,-0.171544 v -0.114184 c -0.18277,0 -0.32877,-0.03769 -0.43734,-0.113915 z m -0.65515,-0.228363 c 0,0.190394 -0.0728,0.285727 -0.21851,0.285727 l -0.14566,-0.05736 c 0.0361,0.152157 0.0849,0.228367 0.14566,0.228367 0.0969,-0.03797 0.16972,-0.05682 0.21851,-0.05682 l 0.0728,0.114179 c 0.14566,-0.02853 0.24255,-0.104758 0.29133,-0.228363 -0.0969,0 -0.14567,-0.03825 -0.14567,-0.114456 0.12162,-0.07594 0.2185,-0.11418 0.29168,-0.11418 l 0.29133,0.05709 c 0.0845,-0.03797 0.18174,-0.05709 0.29134,-0.05709 v -0.05709 z m -0.36417,1.826113 0.0728,0.114184 c -0.0488,0.07621 -0.0728,0.133303 -0.0728,0.171271 l 0.14566,0.05682 c 0.0969,-0.03797 0.16972,-0.05682 0.21851,-0.05682 v -0.114184 c 0,-0.06678 -0.12162,-0.123609 -0.36417,-0.171271 z m 0.80082,-0.513554 0.0728,0.114184 v 0.05709 c 0,0.07622 -0.0491,0.114184 -0.146,0.114184 -0.0969,-0.03797 -0.16972,-0.05709 -0.21851,-0.05709 l 0.14567,0.171276 v 0.05736 l -0.0728,0.114184 h 0.14567 c 0.3274,-0.304578 0.54624,-0.456458 0.65515,-0.456458 v -0.0571 c -0.12093,-9.25e-4 -0.31538,-0.01938 -0.58198,-0.05763 z m 0.0728,1.768478 c 0.1333,0.1904 0.23018,0.28546 0.29134,0.28546 h 0.0728 c -0.0488,-0.0665 -0.0728,-0.16185 -0.0728,-0.28546 z m 0.43666,0.34255 c 0,0.0385 -0.0244,0.0571 -0.0728,0.0571 0.0485,0.11445 0.0969,0.17128 0.14566,0.17128 0.0969,-0.038 0.16972,-0.0568 0.21816,-0.0568 v -0.11445 c -0.10891,0 -0.20613,-0.0189 -0.29099,-0.0571 z m 0.21782,-2.624578 c 0,0.152153 -0.0725,0.285187 -0.21817,0.399366 v 0.114184 l 0.14567,-0.05709 h 0.0725 l 0.146,0.05709 v -0.114184 l -0.0732,-0.399366 z m 0.21884,-0.799009 v 0.114179 h 0.14567 v -0.114179 z m 0,0.684825 v 0.114184 h 0.21849 v -0.114184 z m 0.14567,0.342279 c 0.0485,0.07621 0.0728,0.133034 0.0728,0.171003 0.0969,0 0.14567,-0.03797 0.14567,-0.114179 v -0.05682 z m 0.36382,15.748823 v 0.34228 c 0.0728,-0.0385 0.21849,-0.0574 0.43666,-0.0574 l -0.0728,-0.11418 c 0.0728,0 0.14566,-0.0571 0.2185,-0.17127 -0.19411,0 -0.29133,-0.0191 -0.29133,-0.0571 -0.0845,0.0388 -0.1814,0.0576 -0.29099,0.0576 z m 0.50983,-0.39936 v 0.17127 h 0.0728 v -0.17127 z m 1.30996,-16.262388 0.21851,0.114184 h 0.0728 c 0,-0.114184 0.0488,-0.171272 0.14567,-0.171272 l 0.43665,0.171272 0.0728,-0.228363 c -0.15768,0.07621 -0.2793,0.114179 -0.36416,0.114179 0,-0.07567 -0.0488,-0.114179 -0.14567,-0.114179 h -0.29099 c -0.0969,0.0097 -0.14567,0.04767 -0.14567,0.114179 z m 1.31066,0.05709 -0.0728,0.114456 c 0.0485,0.07594 0.0728,0.13303 0.0728,0.171003 0.0849,-0.03797 0.20648,-0.05682 0.36416,-0.05682 v -0.171548 c -0.15837,0 -0.2793,-0.0191 -0.36416,-0.05709 z m 0,-0.171271 v 0.114179 c 0.0969,-0.03797 0.16972,-0.05709 0.2185,-0.05709 v -0.05709 z m 0.43631,0 v 0.05709 h 0.21885 v -0.05709 z m 1.81981,6.390989 c 0,0.038 -0.0241,0.0568 -0.0728,0.0568 0,0.14246 0.21884,0.314 0.65516,0.51382 0,-0.0953 0.0969,-0.15189 0.29168,-0.17155 v -0.11417 l -0.21885,-0.22837 c -0.19376,0.0762 -0.33943,0.11418 -0.43665,0.11418 3.4e-4,-0.0571 -0.0725,-0.11391 -0.2185,-0.17073 z m 0,1.59774 -0.0728,0.11419 v 0.11418 c 0.19377,0 0.29168,0.1333 0.29168,0.39937 h 0.0728 v -0.0568 l -0.0728,-0.28573 0.14566,-0.0571 h 0.0728 l 0.2185,0.11445 h 0.0728 c -0.0488,-0.22864 -0.17006,-0.34228 -0.36417,-0.34228 l -0.14566,0.0571 c -0.0972,-0.0382 -0.17006,-0.0574 -0.21884,-0.0574 z m 0.72799,-2.68194 0.0728,0.11392 v 0.11418 c 0,0.0574 -0.0728,0.11418 -0.2185,0.17154 l -0.2185,-0.11418 v 0.11418 c 0.14566,0.16185 0.2185,0.29488 0.2185,0.3991 l 0.14567,-0.0571 0.29167,0.17128 c 0.0969,0 0.14566,-0.038 0.14566,-0.11419 0.15736,0.0762 0.27897,0.11419 0.36417,0.11419 l 0.14602,-0.22837 c 0.33908,0.0385 0.5088,0.0953 0.5088,0.17127 0,0.16185 -0.19342,0.29488 -0.58198,0.39937 0,0.15188 -0.0969,0.22837 -0.29134,0.22837 v 0.0571 c 0,0.0571 0.0969,0.11446 0.29134,0.17128 0,-0.18985 0.14601,-0.28545 0.43665,-0.28545 0,-0.0571 0.0969,-0.13304 0.29099,-0.22864 l -0.0728,-0.11364 v -0.0574 c 0.012,-0.0757 0.0608,-0.11418 0.14567,-0.11418 h 0.0728 l 0.14601,0.0573 0.0728,-0.11444 c -0.25457,0 -0.5222,-0.13277 -0.80047,-0.39938 -0.23087,0.0385 -0.54626,0.0574 -0.94649,0.0574 l -0.0728,-0.34227 c 0.0965,0 0.14566,-0.038 0.14566,-0.11392 l -0.14566,-0.0571 z m -0.21816,-0.91346 v 0.11418 c 0.0969,0 0.14567,-0.038 0.14567,-0.11418 z m 0.21816,3.99477 v 0.34228 l 0.29167,-0.17101 c -0.0491,-0.0759 -0.0728,-0.13302 -0.0728,-0.17127 z m 0.21884,-3.42358 -0.0728,0.11418 h 0.0728 l 0.0728,-0.11418 z m 0,1.88292 v 0.0571 c 0.0117,0.0762 0.0605,0.11418 0.14567,0.11418 v -0.17128 z m 0.14567,-1.54065 v 0.0571 h 0.14566 v -0.0571 z m 0,2.91004 v 0.0574 h 0.14566 v -0.0574 z m 0.29099,-2.68194 v 0.0574 c 0.0488,0 0.12161,0.0189 0.21849,0.0568 v -0.11418 z m 0.14532,-0.2281 c 0.58232,0.0285 0.87331,0.10476 0.87331,0.2281 -0.0965,0.12361 -0.14566,0.21894 -0.14566,0.28572 h 0.14566 l 0.21884,-0.11418 c 0,0.0477 0.12127,0.14246 0.36417,0.28546 0,-0.0571 0.0728,-0.11418 0.2185,-0.17128 l -0.29133,-0.39937 h -0.0728 l -0.2185,0.11419 c -0.0972,0 -0.14601,-0.0571 -0.14601,-0.17101 0.0488,-0.0762 0.0728,-0.13303 0.0728,-0.17127 h -0.21851 l -0.21815,0.11418 c -0.14566,-0.16158 -0.2185,-0.314 -0.2185,-0.45646 z m 0.14567,3.08131 v 0.0568 c 0.0487,0.0762 0.0732,0.13358 0.0732,0.17128 h 0.0728 v -0.17128 z m 0.43734,0.17127 c 0,0.0759 -0.0972,0.11392 -0.29133,0.11392 v 0.0571 h 0.29133 c 0.0969,0 0.14532,-0.0383 0.14532,-0.11418 z m -0.14567,-3.9945 0.14567,0.0571 0.0725,-0.11419 v -0.0571 h -0.0725 c -0.0976,0.009 -0.14567,0.0479 -0.14567,0.11418 z m 0.87331,-0.11418 v 0.0568 h 0.14567 v -0.0568 z m 2.11045,-0.34227 c 0,0.15188 -0.0485,0.22836 -0.14532,0.22836 -0.36417,-0.0762 -0.58199,-0.11419 -0.65516,-0.11419 l 0.0732,0.11419 c 0,0.0759 -0.0491,0.11418 -0.146,0.11418 h -0.14566 c -0.2429,-0.15188 -0.38856,-0.22837 -0.43667,-0.22837 -0.13398,0 -0.2793,0.13331 -0.43665,0.39938 0.24255,0.21893 0.36451,0.35197 0.36451,0.39937 h 0.0728 c 0,-0.15189 0.0965,-0.26607 0.29134,-0.34228 h 0.14567 c 0.0969,0 0.16971,0.11418 0.2185,0.34228 l 0.146,-0.0574 -0.0728,-0.11418 v -0.11392 c 0,-0.0953 0.29133,-0.22837 0.87331,-0.3991 v -0.11419 c -10e-4,-0.0759 -0.0495,-0.11417 -0.14704,-0.11417 z m -1.74697,1.25546 v 0.11392 h 0.14567 c 0,-0.076 -0.0481,-0.11392 -0.14567,-0.11392 z m 0.0728,-1.02737 h 0.21884 c 0.0965,0.01 0.14567,0.0479 0.14567,0.11418 v 0.11446 c 0,0.0759 -0.0491,0.11418 -0.14567,0.11418 -0.0728,0 -0.14601,-0.0571 -0.21884,-0.17128 z m 0.36451,0.8561 c 0.012,0.0759 0.0605,0.11418 0.14566,0.11418 h 0.0728 v -0.0571 c -0.0488,-0.0759 -0.0728,-0.13304 -0.0728,-0.17154 -0.0976,0.01 -0.14566,0.0482 -0.14566,0.11445 z m 0.36382,-1.2552 v 0.17127 c 0.0969,0 0.14567,-0.038 0.14567,-0.11418 v -0.0571 z m 0.437,-0.39964 v 0.0574 c 0.19342,0 0.29133,0.0759 0.29133,0.22837 l 0.43666,-0.0574 v -0.11418 c -0.24255,0 -0.36417,-0.0568 -0.36417,-0.17128 z m 4.14909,13.12425 v 0.17127 h 0.0728 v -0.17127 z"
   inkscape:connector-curvature="0"
   style="fill:#ff6515;fill-opacity:1;stroke:#fff541;stroke-width:0.75590552;stroke-miterlimit:4;stroke-dasharray:none;stroke-opacity:1;paint-order:fill markers stroke" /></svg>