<?xml version="1.0" encoding="UTF-8" standalone="no"?>
<!-- Generator: Adobe Illustrator 16.0.0, SVG Export Plug-In . SVG Version: 6.00 Build 0)  -->

<svg
   version="1.1"
   id="svg5"
   sodipodi:docname="LOGOBSK8LNK.svg"
   inkscape:version="1.1.1 (3bf5ae0, 2021-09-20)"
   x="0px"
   y="0px"
   width="517.652px"
   height="127.91px"
   viewBox="18.847 63.553 517.652 127.91"
   enable-background="new 18.847 63.553 517.652 127.91"
   xml:space="preserve"
   xmlns:inkscape="http://www.inkscape.org/namespaces/inkscape"
   xmlns:sodipodi="http://sodipodi.sourceforge.net/DTD/sodipodi-0.dtd"
   xmlns="http://www.w3.org/2000/svg"
   xmlns:svg="http://www.w3.org/2000/svg"><defs
   id="defs914" />
<sodipodi:namedview
   id="namedview7"
   borderopacity="1.0"
   bordercolor="#666666"
   pagecolor="#ffffff"
   inkscape:cy="200"
   inkscape:cx="545.5"
   inkscape:zoom="1"
   showgrid="false"
   inkscape:window-maximized="1"
   inkscape:pagecheckerboard="0"
   inkscape:current-layer="svg5"
   inkscape:window-y="0"
   inkscape:window-x="0"
   inkscape:window-height="744"
   inkscape:window-width="1366"
   inkscape:document-units="mm"
   inkscape:pageopacity="0.0"
   inkscape:pageshadow="2">
	</sodipodi:namedview>
<g
   aria-label="bsk"
   transform="matrix(1 0 0 1 24.9353 180.7285)"
   id="text901"
   style="font-size:108.487px;font-family:FastHand;fill:#ff6600"><path
     d="M 6.9393413,-52.972071 -5.2972071,-74.160899 H 45.02626 q 23.837432,0 23.837432,23.837432 0,7.94581 -2.648603,13.243017 2.648603,5.297207 2.648603,13.243018 Q 68.863692,0 45.02626,0 H 37.557198 L 25.267678,-21.188828 H 45.02626 q 2.648604,0 2.648604,-2.648604 0,-2.648603 -2.648604,-2.648603 H 22.24827 L 10.011721,-47.674864 H 45.02626 q 2.648604,0 2.648604,-2.648603 0,-2.648604 -2.648604,-2.648604 z"
     style="font-size:108.487px;font-family:FastHand;fill:#ff6600"
     id="path996" /><path
     d="M 81.100238,0 68.863689,-21.188828 h 50.323471 q 2.6486,0 2.6486,-2.648604 0,-2.648603 -2.6486,-2.648603 H 97.998328 q -23.837432,0 -23.837432,-23.837432 0,-23.837432 23.837432,-23.837432 H 148.3218 l -12.23655,21.188828 H 97.998328 q -2.648603,0 -2.648603,2.648604 0,2.648603 2.648603,2.648603 h 21.188832 q 23.83743,0 23.83743,23.837432 Q 143.02459,0 119.18716,0 Z"
     style="font-size:108.487px;font-family:FastHand;fill:#ff6600"
     id="path998" /><path
     d="m 148.32179,-74.160899 h 21.18883 v 34.961567 l 47.67486,-44.284652 v 28.869779 L 201.39981,-39.940941 224.33671,0 H 199.91659 L 185.45521,-25.108762 148.32179,9.3230845 Z"
     style="font-size:108.487px;font-family:FastHand;fill:#ff6600"
     id="path1000" /></g>
<g
   aria-label="8"
   transform="matrix(1 0 0 1 243.0452 180.6289)"
   id="text903"
   style="font-size:108.487px;font-family:Baymanat;fill:#ff6600"><path
     d="m 42.21874,-114.89642 q 4.502627,4.60857 9.746862,12.50141 8.899307,11.600881 8.899307,14.196512 v 0.635665 q 0,7.94581 -13.348961,16.103509 -1.589163,1.059442 -2.118883,1.059442 9.693889,7.575006 28.816806,21.824493 3.178325,3.972905 3.178325,8.051755 v 1.271329 q 0,9.746862 -16.739175,25.638483 -9.058224,10.7533302 -9.323084,13.56084993 H 50.90616 Q 26.85684,-4.7674864 9.7998331,-19.334806 -1.8540225,-29.92922 -1.8540225,-37.557198 v -0.847553 q 0,-12.713297 29.4524715,-22.672047 v -0.211888 q -11.918716,-5.297207 -14.408403,-11.441967 -1.059442,-3.125352 -1.059442,-5.085319 v -1.059442 q 0,-12.236548 20.129387,-28.816806 8.793364,-7.2042 9.958749,-7.2042 z m -15.044068,16.103508 q -2.118882,4.555598 -2.118882,7.41609 v 0.211888 q 0,5.985844 7.204201,10.594414 8.793364,7.098258 12.289521,9.534973 2.118882,-0.847553 2.118882,-3.390213 0,-6.40962 -19.281833,-24.367152 z M 8.5285034,-47.304059 q 0,7.098257 15.0440686,17.374839 16.739174,10.594414 28.816806,10.594414 h 1.27133 q 8.793364,0 11.865744,-7.204202 v -1.271329 q 0,-11.177107 -36.656673,-32.630796 -20.3412756,7.204202 -20.3412756,13.137074 z"
     style="font-size:108.487px;font-family:Baymanat;fill:#ff6600"
     id="path1021" /></g>
<path
   d="M326.042,98.02h5.456c2.577,0,4.272,1.342,5.085,4.026c0,0.354,0.035,0.777,0.106,1.271c0,2.578-1.396,4.273-4.186,5.085  c-0.495,0.071-0.972,0.106-1.43,0.106h-1.59v3.602h-3.442V98.02z M326.042,115.289h9.217v22.937c0,2.084,0.812,3.567,2.437,4.45  c0.636,0.283,1.324,0.424,2.066,0.424h0.424c1.871,0,3.213-0.865,4.025-2.596c0.282-0.635,0.424-1.306,0.424-2.013v-23.202h9.217  v21.612c0,7.699-3.019,12.607-9.058,14.727c-1.271,0.389-2.86,0.635-4.768,0.741c-6.64,0-11.054-3.178-13.243-9.535  c-0.495-1.624-0.741-3.69-0.741-6.198V115.289z M329.485,101.463v3.602h1.907c1.2,0,1.818-0.67,1.854-2.013  c-0.178-1.059-0.707-1.589-1.59-1.589H329.485z M337.272,98.02h10.7v3.443h-7.204v1.854h5.298l-1.695,3.496h-3.603v1.854h7.204  v3.443h-10.7V98.02z M348.82,98.02h5.456c3.461,0.424,5.191,2.154,5.191,5.191c0,1.978-1.095,3.708-3.284,5.191l2.701,3.708h-3.866  c-0.39-0.247-1.254-1.447-2.596-3.602h-0.159v3.602h-3.443V98.02z M352.263,101.463v3.602h2.013c0.988,0,1.571-0.618,1.748-1.854  c-0.142-1.166-0.671-1.748-1.589-1.748H352.263z M369.426,114.865h0.424c6.921,0,11.495,2.878,13.72,8.634  c0.388,1.555,0.583,2.667,0.583,3.337c-5.191,0.671-8.123,1.095-8.794,1.271c-0.565-3.92-2.489-5.88-5.773-5.88h-0.583  c-2.296,0-3.443,0.919-3.443,2.755c0,2.542,2.543,4.502,7.628,5.88c4.874,1.872,8.034,3.744,9.482,5.615  c0.988,1.661,1.483,3.197,1.483,4.609v0.159c0,5.721-2.985,9.323-8.953,10.806c-1.482,0.389-2.878,0.583-4.185,0.583h-0.582  c-6.958,0-11.478-2.348-13.562-7.045c-0.671-1.166-1.147-2.808-1.43-4.926c5.262-0.67,8.192-1.094,8.793-1.271  c0.741,3.92,2.613,5.88,5.615,5.88h0.9c2.189,0,3.284-0.865,3.284-2.596v-0.688c0-1.73-3.214-3.514-9.641-5.35  c-5.969-2.366-8.952-5.738-8.952-10.118c0-5.05,2.4-8.493,7.204-10.33C364.658,115.307,366.918,114.865,369.426,114.865z   M364.976,97.861h1.271c3.072,0.389,4.608,1.872,4.608,4.449c-0.883,0.212-1.942,0.318-3.178,0.318  c-0.283-1.341-0.9-2.013-1.854-2.013h-0.848c-0.529,0-0.865,0.194-1.006,0.583v0.689c0,0.883,1.624,1.854,4.873,2.913  c1.448,0.848,2.172,1.854,2.172,3.02v0.106c0,2.508-1.678,3.956-5.032,4.344c-2.79,0-4.627-1.006-5.509-3.02l-0.424-1.589  c0.458,0,1.571-0.141,3.337-0.424c0.318,1.519,1.077,2.278,2.278,2.278c1.06-0.035,1.589-0.458,1.589-1.271  c0-0.742-1.483-1.554-4.449-2.437c-1.837-0.988-2.755-2.154-2.755-3.497C360.05,99.698,361.692,98.214,364.976,97.861z   M378.485,98.02h0.582c2.437,0,4.414,1.29,5.933,3.867c0.494,0.989,0.742,1.907,0.742,2.754v0.583c0,3.39-1.979,5.651-5.933,6.781  c-0.672,0.071-1.06,0.105-1.166,0.105c-3.214,0-5.509-1.871-6.886-5.615c0-0.388-0.054-0.918-0.159-1.589  c0-2.719,1.43-4.82,4.291-6.304C376.595,98.214,377.459,98.02,378.485,98.02z M375.041,105.224c0,1.801,1.2,2.949,3.602,3.443  c1.73,0,2.931-0.918,3.603-2.754v-1.271c-0.424-2.119-1.483-3.178-3.179-3.178h-0.848c-1.66,0-2.72,1.148-3.178,3.443V105.224z   M385.582,115.289h27.811v9.111H394.8v4.715h13.825v0.159c-2.967,5.898-4.449,8.935-4.449,9.111H394.8v4.714h18.593v9.27h-27.811  V115.289z M386.589,98.02h3.602c2.189,4.697,3.391,7.045,3.603,7.045V98.02h3.443v14.09h-3.284c-0.212,0-1.413-2.348-3.603-7.045  h-0.317v7.045h-3.443V98.02z M401.421,98.02h3.443c2.33,9.111,3.496,13.808,3.496,14.09h-3.179c-0.212,0-0.406-0.617-0.582-1.854  h-2.861c-0.212,1.237-0.406,1.854-0.582,1.854h-3.179v-0.105C397.978,111.828,399.125,107.167,401.421,98.02z M403.01,103.317  l-0.582,3.496h1.43l-0.583-3.496H403.01z M408.625,98.02h3.443v10.647h3.602v3.443h-7.045V98.02z"
   id="path905"
   style="fill:#ff6600" />
<path
   d="M430.926,100.747v71.125l-12.713,9.369V110.35L430.926,100.747z M419.061,143.453v0.312c0.67,1.875,1.094,2.812,1.271,2.812  h0.424v-1.874l-0.424-0.938c0.141-0.415,0.212-0.728,0.212-0.937h-0.636C419.555,143.246,419.273,143.453,419.061,143.453z   M419.061,145.64v1.874h0.424l-0.212-0.625v-0.625l0.212-0.625H419.061z M419.908,139.706v0.625c0.282,0,0.424-0.207,0.424-0.625  H419.908z M422.028,139.706c0,0.313-0.283,0.73-0.848,1.25c0.353,0.418,0.636,0.625,0.848,0.625  c0.282-0.207,0.494-0.312,0.635-0.312c0,0.208,0.07,0.312,0.212,0.312v-0.625c-0.424-0.52-0.636-0.937-0.636-1.25H422.028z   M422.874,140.018v0.313h0.424v-0.313H422.874z M424.57,137.208c0.035,0.417,0.177,0.625,0.424,0.625  c0-0.416,0.282-0.625,0.848-0.625v-0.937h-0.636C424.993,136.271,424.781,136.583,424.57,137.208z M425.417,144.078l-0.212,0.625  c0.53,0,1.095,0.312,1.695,0.937h0.424v-0.313C426.123,144.495,425.488,144.078,425.417,144.078z M428.384,131.899v0.312  c0.282,0,0.564,0.521,0.848,1.562c-0.848,0.469-1.271,0.886-1.271,1.25v0.312l0.212,0.625c-0.354,0-0.565,0.417-0.636,1.249  l-0.424-0.312c-0.283,0.052-0.424,0.261-0.424,0.625c0.141,0.417,0.212,0.729,0.212,0.937l0.636-0.625  c0.282,0.052,0.424,0.261,0.424,0.625l-0.212,1.562c0.141,0,0.212,0.105,0.212,0.313c-0.142,0-0.212,0.105-0.212,0.313  c0.282,0.052,0.424,0.261,0.424,0.625l0.424-0.313h0.212c0.424,0,0.636,0.418,0.636,1.25l0.424-0.312l0.423,0.312v-3.123  l-0.423,0.312h-0.424c-0.142,0-0.565-0.625-1.271-1.874v-0.313c0.67-1.665,1.094-2.498,1.271-2.498h0.212  c0.282,0.053,0.424,0.261,0.424,0.625l-0.636,1.25v0.312c0,0.312,0.212,0.625,0.636,0.937h0.211v-3.435  c-0.564,0-0.847-0.207-0.847-0.625v-0.312c0-0.417,0.282-0.625,0.847-0.625v-1.562l-0.423,0.313h-0.212l-0.636-0.624  C428.808,130.962,428.596,131.273,428.384,131.899z M428.596,128.775c-0.283-0.207-0.495-0.312-0.636-0.312l-0.212,0.625  l1.907,0.313l0.212-0.625v-0.624L428.596,128.775z"
   id="path907"
   style="fill:#ff6600" />
<path
   d="M477.278,117.938v72.678l-23.943-41.318v28.393l-12.714-6.145v-29.665l-12.077-18.434h24.367l11.653,16.951v-16.527  L477.278,117.938z M444.859,163.706v0.212h0.424v-0.212H444.859z M445.706,166.46l0.424,0.212c0.034-0.282,0.176-0.424,0.424-0.424  h0.636v0.424h0.423v-0.424c-0.282,0-0.635-0.212-1.059-0.636C446.094,165.754,445.812,166.036,445.706,166.46z M446.554,167.096  v1.271h0.212l0.424-0.212v0.212c0,0.424-0.283,0.636-0.848,0.636v0.636l0.424-0.212h1.059c0.282,0.036,0.424,0.177,0.424,0.424  l-0.424,0.636v1.271c0,0.212,0.212,0.423,0.636,0.635h0.212l-0.212-1.059c0.247-0.141,0.53-0.212,0.848-0.212v-0.424l-0.424-0.636  v-0.424l0.212-0.424c-0.707,0-1.06-0.141-1.06-0.424c0.282-0.141,0.494-0.212,0.636-0.212v-0.424  C448.672,167.837,447.966,167.484,446.554,167.096z M446.554,156.925v0.848c0.034,0.283,0.176,0.424,0.424,0.424l0.212-0.424v-1.06  C446.906,156.854,446.695,156.925,446.554,156.925z M449.944,158.62v0.212c0.988,0.142,1.483,0.354,1.483,0.636v0.635  c0.282,0.036,0.424,0.177,0.424,0.424v0.212h-0.636c-0.989,0-1.483-0.636-1.483-1.907h-0.212c0,0.424-0.283,0.777-0.848,1.06  c0,0.565-0.142,0.847-0.424,0.847l-0.424-0.212c-0.424,0.424-0.706,0.919-0.847,1.483c-0.283,0.036-0.424,0.177-0.424,0.424h1.271  l0.848-0.636c0,0.212,0.212,0.424,0.636,0.636h0.212v-0.424l-0.212-1.483l0.424-0.212c0.177,0,0.53,0.495,1.06,1.483  c0.035-0.282,0.177-0.424,0.424-0.424h0.212l0.424,0.212c0-0.282,0.282-0.424,0.848-0.424v-1.06l-0.424-0.635l0.212-0.424  c-1.271-0.141-2.049-0.282-2.331-0.424H449.944z M446.978,163.494v0.424c0.034,0.283,0.176,0.423,0.423,0.423v-0.423  C447.401,163.635,447.26,163.494,446.978,163.494z M447.401,158.832v0.636c0.283,0.353,0.424,0.635,0.424,0.847h0.212  c0-0.423,0.141-0.635,0.424-0.635c-0.142-0.247-0.212-0.53-0.212-0.848H447.401z M447.824,156.713v0.424  c0.282,0,0.424,0.142,0.424,0.424h0.212v-0.424L447.824,156.713z M448.036,163.494v0.212h0.636v-0.212H448.036z M448.884,163.917  c0,0.423-0.283,0.635-0.848,0.635v0.636c0.636,0.424,1.06,0.636,1.271,0.636v0.424c0,0.318-0.071,0.601-0.212,0.848v0.212h0.212  c0-0.848,0.636-1.271,1.907-1.271c0.141,0.283,0.212,0.495,0.212,0.636l0.636-0.424h0.212l0.424,0.212v-2.331  c-0.248,0.142-0.53,0.212-0.848,0.212v0.212c0,0.142,0.07,0.212,0.212,0.212c-0.212,0.565-0.424,0.848-0.636,0.848  c-0.565,0-0.989-0.564-1.271-1.695h-0.212c0,0.141-0.071,0.353-0.212,0.635c0.141,0.248,0.212,0.53,0.212,0.848l-0.424,0.212h-0.424  V165.4c0-0.318,0.07-0.6,0.212-0.848c-0.142-0.282-0.212-0.494-0.212-0.635H448.884z M448.46,158.408v0.212h0.424v-0.212H448.46z   M448.672,151.204c0,0.212,0.212,0.424,0.636,0.636l0.212-0.424v-0.212H448.672z M448.672,152.687v1.06  c0.282,0,0.424-0.141,0.424-0.424v-0.636H448.672z M449.308,155.442v0.212h0.212l1.06-0.212v-0.212h-0.636  C449.66,155.372,449.448,155.442,449.308,155.442z M449.944,156.501c0,0.248-0.142,0.601-0.424,1.06l0.424,0.212  c0.035-0.282,0.177-0.424,0.424-0.424h0.848v0.424c0.282,0,0.424-0.141,0.424-0.424C451.639,156.96,451.073,156.678,449.944,156.501  z M450.791,141.033h-1.06v1.271c0,0.283,0.424,0.565,1.271,0.848c0-0.318,0.353-0.882,1.06-1.695c-0.565,0-0.848-0.212-0.848-0.636  L450.791,141.033z M449.732,151.416v0.212h0.424v-0.212H449.732z M449.732,163.282v0.212h0.424c1.165-0.564,2.013-0.848,2.543-0.848  v-0.424h-1.06C450.862,162.929,450.226,163.282,449.732,163.282z M450.367,170.486v0.212l0.424,0.212v-0.212L450.367,170.486z   M451.003,167.943c0,0.211,0.212,0.423,0.636,0.635h0.212v-0.635H451.003z M451.851,170.062c0,0.707-0.283,1.06-0.848,1.06v0.212  h0.212c0.07,0,0.353-0.07,0.848-0.212c0.282,0.142,0.494,0.212,0.636,0.212v-0.636C452.698,170.486,452.415,170.274,451.851,170.062  z M451.215,151.84v0.423h0.848v-0.212L451.215,151.84z M451.639,155.018l-0.424,0.636l1.271,0.635l0.212-0.423v-0.212  C452.45,155.654,452.098,155.442,451.639,155.018z M451.215,164.341v0.424h0.424C451.639,164.482,451.497,164.341,451.215,164.341z   M452.063,140.186v0.848h0.212c0.282-0.141,0.494-0.212,0.636-0.212v-0.212C452.698,140.609,452.415,140.469,452.063,140.186z   M452.063,156.925v0.212c0.282,0,0.424,0.212,0.424,0.636h0.212v-0.636l-0.424-0.212H452.063z M452.275,146.331v0.212h0.636v-0.212  H452.275z M452.275,167.943v0.635h0.212v-0.635H452.275z M453.546,141.033v0.212c0.424,0,0.636,0.142,0.636,0.424v0.424h-1.271  l0.212,0.424c-0.142,0.283-0.212,0.495-0.212,0.636l0.848,0.424c0-0.848,0.353-1.271,1.06-1.271c0-0.564-0.354-0.988-1.06-1.271  H453.546z M452.91,145.059v0.424h0.212v-0.424H452.91z M455.241,140.609v0.636c0.282,0,0.423-0.141,0.423-0.424L455.241,140.609z   M461.81,162.222c0.282,0.354,0.424,0.707,0.424,1.06h0.212v-1.06H461.81z M468.802,162.646l-0.636,0.848l0.424,0.212l-0.212,0.423  v0.212c0.988,0.177,1.483,0.459,1.483,0.848v0.212c0,0.283-0.142,0.424-0.424,0.424c-1.131,0-1.695-0.424-1.695-1.271h-0.212  c0,0.989-0.142,1.483-0.424,1.483c0-0.141-0.071-0.212-0.212-0.212c0,0.142-0.071,0.212-0.212,0.212  c-0.283-0.458-0.424-0.812-0.424-1.06l-1.483,0.212c0-0.212-0.212-0.424-0.636-0.636c-0.212,0.565-0.424,0.848-0.636,0.848  c0.742,1.589,1.519,2.648,2.331,3.178h-0.424v0.424c0.954-0.706,1.59-1.059,1.907-1.059l-0.212-0.424  c0.389-0.988,0.671-1.483,0.848-1.483h0.212c0.282,0.036,0.424,0.177,0.424,0.424h-0.212c0,0.459,0.564,0.813,1.695,1.06  c0,0.424,0.141,0.635,0.424,0.635h0.212v-0.211c-0.142-0.283-0.212-0.494-0.212-0.636l0.424-0.212l-0.212-0.424v-0.636  c0.034-0.282,0.176-0.424,0.424-0.424h0.211c0.283,0.036,0.424,0.177,0.424,0.424v0.212l-0.212,1.06  c0.142,0,0.354,0.071,0.636,0.212c0-0.424,0.141-0.918,0.424-1.483c-0.283,0-0.424-0.141-0.424-0.424l0.424-0.212  c0.776,0,1.271,0.283,1.483,0.848c0.282-0.141,0.494-0.212,0.636-0.212v-0.212l-0.636-1.06c-0.565,0.283-0.989,0.424-1.271,0.424  c-0.283-0.353-0.424-0.636-0.424-0.848h-0.424c0,0.707-0.494,1.201-1.482,1.483c-0.283,0-0.424-0.141-0.424-0.424v-0.212  c0-0.282,0.212-0.424,0.636-0.424v-0.212c-0.602,0-1.096-0.564-1.483-1.695L468.802,162.646z M464.988,165.612h0.212  c0.282,0.036,0.424,0.177,0.424,0.424l-0.636,0.424c-0.283,0-0.424-0.141-0.424-0.424  C464.599,165.754,464.74,165.612,464.988,165.612z M466.259,166.248c0.282,0.036,0.424,0.177,0.424,0.424v0.424  c0,0.283-0.142,0.424-0.424,0.424c-0.283,0-0.424-0.141-0.424-0.424v-0.424C465.87,166.39,466.012,166.248,466.259,166.248z   M467.107,169.002c0,0.424-0.212,0.636-0.636,0.636l0.212,0.424c0.247-0.141,0.53-0.212,0.848-0.212  c-0.142-0.247-0.212-0.53-0.212-0.848H467.107z M467.531,167.943v0.211l1.483,0.212v-0.423l-0.424,0.211  c-0.283,0-0.424-0.141-0.424-0.423C467.883,167.873,467.671,167.943,467.531,167.943z M469.014,172.181  c0,0.212-0.142,0.494-0.424,0.848c0.706,0.035,1.06,0.247,1.06,0.636v0.212c-0.565,0.035-0.848,0.318-0.848,0.848h0.848  c0.141-1.131,0.494-1.695,1.06-1.695v-0.212h-0.212c-0.283,0.141-0.495,0.212-0.636,0.212  C469.862,172.816,469.578,172.534,469.014,172.181z M469.014,171.545v0.212h0.424v-0.212H469.014z M469.438,175.571v0.424h0.212  v-0.424H469.438z M471.768,171.333c0,0.565-0.07,0.847-0.212,0.847c0.142,0.282,0.212,0.494,0.212,0.636h0.212  c0-0.283,0.07-0.424,0.212-0.424c-0.142-0.247-0.212-0.6-0.212-1.059H471.768z M472.192,171.333h0.636v-0.424h-0.212  C472.332,170.945,472.192,171.087,472.192,171.333z M473.039,167.943c0,0.283-0.212,0.423-0.636,0.423v0.212  c0.212,0,0.494,0.142,0.848,0.424l1.06-0.212v-0.212C473.922,168.579,473.498,168.367,473.039,167.943z M475.582,160.103v0.212  c0.424,1.271,0.636,1.979,0.636,2.119l-1.271,0.636h-0.636c-0.283,0-0.424-0.141-0.424-0.424v-1.06c-0.283,0-0.424-0.07-0.424-0.212  c-0.212,0-0.495,0.283-0.848,0.848l0.212,0.424v0.212l-0.212,0.424c0.564,0.53,1.483,0.883,2.755,1.059  c0-0.564,0.141-0.847,0.424-0.847c0,0.212,0.212,0.424,0.636,0.635v-4.237h-0.212C475.935,160.033,475.723,160.103,475.582,160.103z   M473.039,167.308v0.212h0.424v-0.212H473.039z M473.675,169.426c-0.283,0.459-0.424,0.813-0.424,1.06h0.424  c0-0.564,0.141-0.848,0.424-0.848v-0.212H473.675z M473.887,171.757h0.424v-0.424C474.028,171.369,473.887,171.51,473.887,171.757z   M474.523,169.002h0.636v-0.636C474.947,168.367,474.735,168.579,474.523,169.002z M476.006,165.612  c0,0.424-0.283,0.636-0.848,0.636c-0.283,0-0.424,0.495-0.424,1.483h0.212l0.636-0.424c0.212,0.565,0.424,0.847,0.636,0.847  l0.212-0.423v-0.848h-0.636v-0.212c0-0.282,0.212-0.424,0.636-0.424v-0.636H476.006z M474.947,165.4v0.212  c0.247-0.141,0.529-0.212,0.848-0.212c-0.142-0.282-0.212-0.494-0.212-0.636C475.37,164.765,475.158,164.977,474.947,165.4z   M475.158,157.984c0,0.707,0.141,1.06,0.424,1.06c0.282-0.141,0.494-0.212,0.636-0.212c-0.142-0.247-0.212-0.53-0.212-0.848H475.158  z M475.582,155.866l-0.212,0.423v0.212c0.564,0,0.848,0.495,0.848,1.483h0.212v-1.271  C476.43,156.501,476.147,156.219,475.582,155.866z M475.582,169.638v0.212l0.212,0.848h-0.212c0.141,0.283,0.212,0.495,0.212,0.636  h0.212c0-0.353,0.141-0.706,0.424-1.06v-0.424L475.582,169.638z M476.006,168.579v0.424h0.424v-0.424H476.006z M476.218,144.211  v0.636h0.212v-0.636H476.218z"
   id="path909"
   style="fill:#ff6600" />
<path
   d="M475.9,123.447h24.579v22.884l11.018-16.739l-5.933-6.145h30.936l-29.664,30.088c8.228,2.932,14.303,7.805,18.223,14.62  c3.53,5.968,5.297,13.313,5.297,22.037v1.271c-2.084-7.558-5.475-13.42-10.171-17.587c-5.403-5.226-11.972-7.84-19.705-7.84v11.018  h6.356l-19.07,12.925v-48.311L475.9,123.447z M477.807,124.082v0.212c0.564,0.071,0.847,0.283,0.847,0.636v0.212  c0,0.283-0.211,0.424-0.635,0.424c0.212,0.565,0.424,0.848,0.635,0.848l1.06-1.695c0.142,0.283,0.212,0.495,0.212,0.636  c0.495-0.106,0.919-0.53,1.271-1.271h-0.424c-0.141,0-0.212,0.071-0.212,0.212l-1.06-0.212H477.807z M479.713,125.989  c0.283,0.459,0.424,0.813,0.424,1.06c-0.141,0.283-0.212,0.495-0.212,0.636h0.636c0-0.353,0.142-0.706,0.424-1.06  c-0.564,0-0.848-0.212-0.848-0.636v-0.212L479.713,125.989z M481.197,129.167v0.212h0.424v-0.212H481.197z M485.011,124.93v0.424  c0.141,0.283,0.212,0.495,0.212,0.636l-1.271,1.06h-0.212c-0.283,0-0.424-0.141-0.424-0.424c-0.601,0.424-1.095,0.636-1.483,0.636  v1.271c0.565,0.071,0.848,0.283,0.848,0.636v0.212c0,0.283-0.282,0.424-0.848,0.424c0.036,0.283,0.177,0.424,0.424,0.424h0.424  c0.282,0,0.424-0.141,0.424-0.424c-0.142-0.282-0.212-0.494-0.212-0.636c0.212-0.141,0.636-0.212,1.271-0.212  c-0.142-0.282-0.212-0.494-0.212-0.636l-0.424,0.212h-0.212c-0.283,0-0.424-0.141-0.424-0.424v-0.423  c0.035-0.282,0.176-0.424,0.424-0.424c0.212,0,0.424,0.212,0.636,0.636c0.988-0.565,1.695-0.848,2.119-0.848v-0.212  c-0.424,0-0.636-0.141-0.636-0.424c0-0.353,0.282-0.564,0.848-0.636v-0.424C485.752,125.354,485.328,125.213,485.011,124.93z   M483.104,124.082c0,0.707-0.212,1.06-0.636,1.06l-0.424-0.212c0.106,0.565,0.247,0.848,0.424,0.848  c0.282-0.141,0.494-0.212,0.636-0.212l0.212,0.424c0.424-0.106,0.706-0.388,0.848-0.848c-0.283,0-0.424-0.141-0.424-0.424  c0.353-0.282,0.636-0.424,0.848-0.424l0.848,0.212c0.246-0.141,0.529-0.212,0.848-0.212v-0.212H483.104z M482.044,130.863  l0.212,0.424c-0.141,0.283-0.212,0.495-0.212,0.636l0.424,0.211c0.282-0.141,0.494-0.211,0.636-0.211v-0.424  C483.104,131.251,482.75,131.04,482.044,130.863z M484.375,128.956l0.212,0.424v0.212c0,0.283-0.142,0.424-0.424,0.424  c-0.283-0.141-0.495-0.212-0.636-0.212l0.424,0.636v0.212l-0.212,0.424h0.424c0.953-1.13,1.589-1.695,1.907-1.695v-0.212  C485.717,129.167,485.152,129.097,484.375,128.956z M484.587,135.524c0.388,0.707,0.67,1.059,0.848,1.059h0.212  c-0.142-0.247-0.212-0.6-0.212-1.059H484.587z M485.859,136.795c0,0.142-0.071,0.212-0.212,0.212  c0.141,0.424,0.282,0.636,0.424,0.636c0.282-0.141,0.494-0.212,0.635-0.212v-0.424C486.388,137.007,486.105,136.937,485.859,136.795  z M486.493,127.049c0,0.565-0.211,1.059-0.635,1.483v0.424l0.424-0.212h0.211l0.424,0.212v-0.424l-0.212-1.483H486.493z   M487.129,124.082v0.424h0.424v-0.424H487.129z M487.129,126.625v0.424h0.636v-0.424H487.129z M487.553,127.896  c0.141,0.283,0.212,0.495,0.212,0.635c0.282,0,0.424-0.141,0.424-0.424v-0.211H487.553z M488.613,186.377v1.271  c0.212-0.142,0.636-0.212,1.271-0.212l-0.212-0.424c0.212,0,0.424-0.212,0.636-0.636c-0.565,0-0.848-0.071-0.848-0.212  C489.213,186.306,488.931,186.377,488.613,186.377z M490.096,184.894v0.636h0.212v-0.636H490.096z M493.91,124.506l0.635,0.424  h0.212c0-0.424,0.142-0.636,0.424-0.636l1.271,0.636l0.212-0.848c-0.459,0.283-0.813,0.424-1.06,0.424  c0-0.282-0.142-0.424-0.424-0.424h-0.847C494.051,124.118,493.91,124.259,493.91,124.506z M497.724,124.718l-0.212,0.424  c0.141,0.283,0.212,0.495,0.212,0.636c0.247-0.141,0.601-0.212,1.06-0.212v-0.636C498.324,124.93,497.971,124.859,497.724,124.718z   M497.724,124.082v0.424c0.282-0.141,0.494-0.212,0.636-0.212v-0.212H497.724z M498.995,124.082v0.212h0.636v-0.212H498.995z   M504.292,147.814c0,0.141-0.071,0.212-0.212,0.212c0,0.529,0.636,1.165,1.907,1.907c0-0.353,0.282-0.564,0.848-0.636v-0.424  l-0.636-0.847c-0.565,0.283-0.989,0.423-1.271,0.423C504.928,148.237,504.716,148.026,504.292,147.814z M504.292,153.747  l-0.212,0.424v0.424c0.564,0,0.848,0.495,0.848,1.483h0.212v-0.211l-0.212-1.06l0.424-0.212h0.212l0.636,0.424h0.212  c-0.142-0.848-0.495-1.271-1.06-1.271l-0.424,0.212C504.645,153.818,504.433,153.747,504.292,153.747z M506.411,143.788l0.212,0.423  v0.424c0,0.212-0.212,0.424-0.636,0.636l-0.636-0.424v0.424c0.424,0.601,0.636,1.095,0.636,1.483l0.424-0.212l0.848,0.636  c0.282,0,0.424-0.141,0.424-0.424c0.458,0.283,0.812,0.424,1.06,0.424l0.424-0.848c0.988,0.142,1.482,0.354,1.482,0.636  c0,0.601-0.564,1.095-1.694,1.483c0,0.565-0.283,0.848-0.848,0.848v0.212c0,0.212,0.282,0.424,0.848,0.636  c0-0.706,0.424-1.06,1.271-1.06c0-0.212,0.282-0.494,0.847-0.848l-0.212-0.423v-0.212c0.035-0.282,0.177-0.424,0.424-0.424h0.212  l0.424,0.212l0.212-0.424c-0.741,0-1.519-0.494-2.33-1.483c-0.672,0.142-1.59,0.212-2.755,0.212l-0.212-1.271  c0.282,0,0.424-0.141,0.424-0.423l-0.424-0.212H506.411z M505.776,140.397v0.424c0.282,0,0.424-0.141,0.424-0.424H505.776z   M506.411,155.23v1.271l0.848-0.635c-0.142-0.282-0.212-0.494-0.212-0.636H506.411z M507.047,142.517l-0.212,0.424h0.212  l0.212-0.424H507.047z M507.047,149.509v0.212c0.035,0.283,0.176,0.424,0.424,0.424v-0.636H507.047z M507.471,143.788V144h0.424  v-0.212H507.471z M507.471,154.594v0.212h0.424v-0.212H507.471z M508.319,144.635v0.212c0.141,0,0.353,0.071,0.636,0.212v-0.424  H508.319z M508.742,143.788c1.695,0.106,2.542,0.389,2.542,0.847c-0.282,0.459-0.424,0.813-0.424,1.06h0.424l0.636-0.424  c0,0.177,0.353,0.53,1.06,1.06c0-0.212,0.212-0.424,0.636-0.636l-0.848-1.483h-0.212l-0.636,0.424c-0.283,0-0.424-0.212-0.424-0.635  c0.141-0.283,0.212-0.494,0.212-0.636h-0.636l-0.635,0.424c-0.424-0.6-0.636-1.166-0.636-1.695L508.742,143.788z M509.166,155.23  v0.212c0.141,0.283,0.212,0.495,0.212,0.635h0.212v-0.635L509.166,155.23z M510.438,155.866c0,0.283-0.283,0.423-0.848,0.423v0.212  h0.848c0.282,0,0.423-0.141,0.423-0.424L510.438,155.866z M510.014,141.033l0.424,0.212l0.211-0.424v-0.212h-0.211  C510.155,140.645,510.014,140.787,510.014,141.033z M512.556,140.609v0.212h0.424v-0.212H512.556z M518.7,139.338  c0,0.565-0.141,0.847-0.423,0.847c-1.06-0.282-1.695-0.423-1.907-0.423l0.212,0.423c0,0.283-0.142,0.424-0.424,0.424h-0.424  c-0.707-0.564-1.131-0.847-1.271-0.847c-0.389,0-0.813,0.495-1.271,1.483c0.706,0.813,1.06,1.307,1.06,1.483h0.212  c0-0.564,0.282-0.988,0.848-1.271h0.424c0.282,0,0.494,0.424,0.636,1.271l0.424-0.212l-0.212-0.424v-0.424  c0-0.353,0.848-0.848,2.542-1.483v-0.423C519.124,139.48,518.983,139.338,518.7,139.338z M513.615,144v0.423h0.424  C514.039,144.141,513.898,144,513.615,144z M513.827,140.186h0.636c0.282,0.036,0.424,0.177,0.424,0.424v0.424  c0,0.283-0.142,0.424-0.424,0.424c-0.212,0-0.424-0.212-0.636-0.636V140.186z M514.887,143.364c0.035,0.283,0.176,0.424,0.424,0.424  h0.212v-0.212c-0.142-0.282-0.212-0.494-0.212-0.636C515.028,142.976,514.887,143.118,514.887,143.364z M515.947,138.703v0.636  c0.282,0,0.424-0.141,0.424-0.424v-0.212H515.947z M517.218,137.219v0.212c0.564,0,0.848,0.283,0.848,0.848l1.271-0.212v-0.424  c-0.706,0-1.059-0.212-1.059-0.636L517.218,137.219z M529.295,185.954v0.636h0.212v-0.636H529.295z"
   id="path911"
   style="fill:#ff6600" />
</svg>
