<?xml version="1.0" encoding="UTF-8" standalone="no"?>
<!-- Generator: Adobe Illustrator 16.0.0, SVG Export Plug-In . SVG Version: 6.00 Build 0)  -->

<svg
   xmlns:osb="http://www.openswatchbook.org/uri/2009/osb"
   xmlns:dc="http://purl.org/dc/elements/1.1/"
   xmlns:cc="http://creativecommons.org/ns#"
   xmlns:rdf="http://www.w3.org/1999/02/22-rdf-syntax-ns#"
   xmlns:svg="http://www.w3.org/2000/svg"
   xmlns="http://www.w3.org/2000/svg"
   xmlns:sodipodi="http://sodipodi.sourceforge.net/DTD/sodipodi-0.dtd"
   xmlns:inkscape="http://www.inkscape.org/namespaces/inkscape"
   xml:space="preserve"
   enable-background="new 0 0 517.652 127.91"
   viewBox="0 0 517.652 127.91"
   height="127.91px"
   width="517.652px"
   y="0px"
   x="0px"
   sodipodi:docname="LOGOBSK8LNK.svg"
   inkscape:version="0.92.4 (5da689c313, 2019-01-14)"
   id="svg5"
   version="1.1"><metadata
   id="metadata94"><rdf:RDF><cc:Work
       rdf:about=""><dc:format>image/svg+xml</dc:format><dc:type
         rdf:resource="http://purl.org/dc/dcmitype/StillImage" /></cc:Work></rdf:RDF></metadata><defs
   id="defs92"><linearGradient
   id="linearGradient886"
   osb:paint="solid"><stop
     style="stop-color:#000000;stop-opacity:1;"
     offset="0"
     id="stop884" /></linearGradient>
	
</defs>
<sodipodi:namedview
   id="namedview7"
   bordercolor="#666666"
   borderopacity="1.0"
   showgrid="false"
   inkscape:zoom="2.1003628"
   inkscape:cx="271.455"
   inkscape:cy="-30.783926"
   pagecolor="#ffffff"
   inkscape:pagecheckerboard="0"
   inkscape:window-maximized="1"
   inkscape:pageshadow="2"
   inkscape:pageopacity="0.0"
   inkscape:document-units="mm"
   inkscape:window-width="1366"
   inkscape:window-height="744"
   inkscape:window-x="0"
   inkscape:window-y="0"
   inkscape:current-layer="svg5">
	</sodipodi:namedview>










<path
   id="path998"
   d="M 101.345,124.26497 89.108,106.87403 h 50.324 c 1.766,0 2.648,-0.72472 2.648,-2.17336 0,-1.44862 -0.883,-2.17335 -2.648,-2.17335 h -21.189 c -15.892,0 -23.837,-6.520881 -23.837,-19.564291 0,-13.043411 7.945,-19.565116 23.837,-19.565116 h 50.324 l -12.237,17.39012 h -38.087 c -1.766,0 -2.648,0.724725 -2.648,2.174175 0,1.44945 0.883,2.173355 2.648,2.173355 h 21.189 c 15.892,0 23.837,6.521705 23.837,19.564297 0,13.04423 -7.945,19.56511 -23.837,19.56511 z"
   inkscape:connector-curvature="0"
   style="fill:none;stroke:#fffb80;stroke-width:3.77952766;stroke-miterlimit:4;stroke-dasharray:none;stroke-opacity:1" /><path
   inkscape:connector-curvature="0"
   id="path1000"
   d="m 168.567,44.407 h 21.188 V 79.369 L 237.43,35.084 v 28.87 l -15.786,14.673 22.938,39.941 h -24.42 L 205.7,93.459 168.567,127.892 Z"
   style="fill:none;stroke:#fffb80;stroke-width:3.77952766;stroke-miterlimit:4;stroke-dasharray:none;stroke-opacity:1" /><path
   style="fill:none;stroke:#fffb80;stroke-width:3.77952766;stroke-miterlimit:4;stroke-dasharray:none;stroke-opacity:1"
   inkscape:connector-curvature="0"
   d="m 280.5742,3.5719 c 3,3.072 6.25,7.24 9.746,12.502 5.934,7.733 8.898,12.466 8.898,14.196 v 0.636 c 0,5.297 -4.449,10.664 -13.348,16.104 -1.061,0.706 -1.766,1.059 -2.119,1.059 6.463,5.051 16.068,12.325 28.816,21.825 2.119,2.648 3.178,5.333 3.178,8.052 v 1.271 c 0,6.498 -5.578,15.044 -16.738,25.639 -6.039,7.168 -9.146,11.688 -9.324,13.561 h -0.424 c -16.031,-3.143 -29.734,-9.57 -41.105,-19.282 -7.769,-7.065 -11.654,-13.138 -11.654,-18.223 v -0.848 c 0,-8.477 9.817,-16.033 29.453,-22.672 v -0.213 c -7.946,-3.531 -12.749,-7.346 -14.409,-11.441 -0.706,-2.084 -1.06,-3.779 -1.06,-5.086 v -1.059 c 0,-8.158 6.71,-17.764 20.13,-28.817 5.862,-4.802 9.182,-7.204 9.96,-7.204 z m -15.045,16.104 c -1.412,3.037 -2.119,5.51 -2.119,7.416 v 0.212 c 0,3.991 2.402,7.522 7.205,10.595 5.861,4.732 9.959,7.91 12.289,9.535 1.412,-0.565 2.119,-1.695 2.119,-3.391 0,-4.273 -6.428,-12.396 -19.283,-24.367 z m -18.646,51.488 c 0,4.732 5.015,10.524 15.044,17.375 11.158,7.063 20.764,10.595 28.816,10.595 h 1.271 c 5.861,0 9.816,-2.401 11.865,-7.204 v -1.271 c 0,-7.451 -12.219,-18.328 -36.656,-32.631 -13.56,4.802 -20.34,9.181 -20.34,13.136 z"
   id="path1021" /><text
   xml:space="preserve"
   style="font-style:normal;font-variant:normal;font-weight:normal;font-stretch:normal;font-size:117.86134338px;line-height:1.25;font-family:'Black mild';-inkscape-font-specification:'Black mild, Normal';font-variant-ligatures:normal;font-variant-caps:normal;font-variant-numeric:normal;font-feature-settings:normal;text-align:start;letter-spacing:0px;word-spacing:0px;writing-mode:lr-tb;text-anchor:start;fill:none;fill-opacity:1;stroke:#fffb80;stroke-width:3.77952766;stroke-miterlimit:4;stroke-dasharray:none;stroke-opacity:1"
   x="258.15268"
   y="124.38164"
   id="text98"
   transform="scale(1.0915087,0.9161631)"><tspan
     sodipodi:role="line"
     x="258.15268"
     y="124.38164"
     id="tspan100"
     style="font-style:normal;font-variant:normal;font-weight:normal;font-stretch:normal;font-size:117.86134338px;font-family:'Black mild';-inkscape-font-specification:'Black mild, Normal';font-variant-ligatures:normal;font-variant-caps:normal;font-variant-numeric:normal;font-feature-settings:normal;text-align:start;writing-mode:lr-tb;text-anchor:start;fill:none;stroke:#fffb80;stroke-width:3.77952766;stroke-miterlimit:4;stroke-dasharray:none;stroke-opacity:1">N</tspan></text>
<path
   inkscape:connector-curvature="0"
   style="fill:none;stroke:#fffb80;stroke-width:3.77952766;stroke-miterlimit:4;stroke-dasharray:none;stroke-opacity:1"
   id="path996-5"
   d="M 88.025452,42.097437 73.904326,36.199652 h 58.075954 c 18.34037,0 27.50942,2.211704 27.50942,6.635113 0,1.474378 -1.01904,2.703257 -3.05596,3.686082 2.03808,0.982824 3.05596,2.211425 3.05596,3.685803 0,4.423687 -9.16905,6.635113 -27.50942,6.635113 h -8.6197 l -14.18345,-5.897786 h 22.80315 c 2.03808,0 3.05596,-0.245775 3.05596,-0.737049 0,-0.491273 -1.01904,-0.737049 -3.05596,-0.737049 H 105.69186 L 91.570737,43.572092 h 40.409543 c 2.03808,0 3.05596,-0.245776 3.05596,-0.737048 0,-0.491831 -1.01904,-0.737329 -3.05596,-0.737329 H 88.025452 Z" /><path
   id="path998-6"
   d="m 98.706306,123.03083 -12.237,-17.39094 h 50.324004 c 1.766,0 2.648,-0.72472 2.648,-2.17336 0,-1.44862 -0.883,-2.17335 -2.648,-2.17335 h -21.189 c -15.892004,0 -23.837004,-6.520881 -23.837004,-19.564291 0,-13.043411 7.945,-19.565119 23.837004,-19.565119 h 50.324 l -12.237,17.390123 h -38.087 c -1.766,0 -2.648,0.724725 -2.648,2.174175 0,1.44945 0.883,2.173355 2.648,2.173355 h 21.189 c 15.892,0 23.837,6.521705 23.837,19.564297 0,13.04423 -7.945,19.56511 -23.837,19.56511 z"
   inkscape:connector-curvature="0"
   style="fill:none;stroke:#ff6600;stroke-width:3.77952766;stroke-miterlimit:4;stroke-dasharray:none;stroke-opacity:1" /><path
   id="path1000-5"
   d="m 165.92831,43.17286 h 21.188 v 34.962 l 47.675,-44.285 v 28.87 l -15.786,14.673 22.938,39.941 h -24.42 l -14.462,-25.109 -37.133,34.433 z"
   style="fill:none;stroke:#ff6600;stroke-width:3.77952766;stroke-miterlimit:4;stroke-dasharray:none;stroke-opacity:1"
   inkscape:connector-curvature="0" /><path
   style="fill:none;stroke:#ff6600;stroke-width:3.77952766;stroke-miterlimit:4;stroke-dasharray:none;stroke-opacity:1"
   inkscape:connector-curvature="0"
   d="m 277.93551,2.33776 c 3,3.072 6.25,7.24 9.746,12.502 5.934,7.733 8.898,12.466 8.898,14.196 v 0.636 c 0,5.297 -4.449,10.664 -13.348,16.104 -1.061,0.706 -1.766,1.059 -2.119,1.059 6.463,5.051 16.068,12.325 28.816,21.825 2.119,2.648 3.178,5.333 3.178,8.052 v 1.271 c 0,6.498 -5.578,15.044 -16.738,25.639 -6.039,7.168 -9.146,11.688 -9.324,13.561 h -0.424 c -16.031,-3.143 -29.734,-9.57 -41.105,-19.282 -7.769,-7.065 -11.654,-13.138 -11.654,-18.223 v -0.848 c 0,-8.477 9.817,-16.033 29.453,-22.672 v -0.213 c -7.946,-3.531 -12.749,-7.346 -14.409,-11.441 -0.706,-2.084 -1.06,-3.779 -1.06,-5.086 v -1.059 c 0,-8.158 6.71,-17.764 20.13,-28.817 5.862,-4.802 9.182,-7.204 9.96,-7.204 z m -15.045,16.104 c -1.412,3.037 -2.119,5.51 -2.119,7.416 v 0.212 c 0,3.991 2.402,7.522 7.205,10.595 5.861,4.732 9.959,7.91 12.289,9.535 1.412,-0.565 2.119,-1.695 2.119,-3.391 0,-4.273 -6.428,-12.396 -19.283,-24.367 z m -18.646,51.488 c 0,4.732 5.015,10.524 15.044,17.375 11.158,7.063 20.764,10.595 28.816,10.595 h 1.271 c 5.861,0 9.816,-2.401 11.865,-7.204 v -1.271 c 0,-7.451 -12.219,-18.328 -36.656,-32.631 -13.56,4.802 -20.34,9.181 -20.34,13.136 z"
   id="path1021-2" /><text
   xml:space="preserve"
   style="font-style:normal;font-variant:normal;font-weight:normal;font-stretch:normal;font-size:117.86134338px;line-height:1.25;font-family:'Black mild';-inkscape-font-specification:'Black mild, Normal';font-variant-ligatures:normal;font-variant-caps:normal;font-variant-numeric:normal;font-feature-settings:normal;text-align:start;letter-spacing:0px;word-spacing:0px;writing-mode:lr-tb;text-anchor:start;fill:none;fill-opacity:1;stroke:#ff6600;stroke-width:3.77952766;stroke-miterlimit:4;stroke-dasharray:none;stroke-opacity:1"
   x="255.73521"
   y="123.03456"
   id="text98-4"
   transform="scale(1.0915087,0.9161631)"><tspan
     sodipodi:role="line"
     x="255.73521"
     y="123.03456"
     id="tspan100-0"
     style="font-style:normal;font-variant:normal;font-weight:normal;font-stretch:normal;font-size:117.86134338px;font-family:'Black mild';-inkscape-font-specification:'Black mild, Normal';font-variant-ligatures:normal;font-variant-caps:normal;font-variant-numeric:normal;font-feature-settings:normal;text-align:start;writing-mode:lr-tb;text-anchor:start;fill:none;stroke:#ff6600;stroke-width:3.77952766;stroke-miterlimit:4;stroke-dasharray:none;stroke-opacity:1">N</tspan></text>
<path
   inkscape:connector-curvature="0"
   style="fill:none;stroke:#ff6600;stroke-width:3.77952766;stroke-miterlimit:4;stroke-dasharray:none;stroke-opacity:1"
   id="path996-5-0"
   d="m 85.386756,40.8633 -14.12112,-5.89779 h 58.075954 c 18.34037,0 27.50942,2.21171 27.50942,6.63512 0,1.47437 -1.01904,2.70325 -3.05596,3.68608 2.03808,0.98282 3.05596,2.21142 3.05596,3.6858 0,4.42369 -9.16905,6.63511 -27.50942,6.63511 h -8.6197 l -14.18345,-5.89778 h 22.80315 c 2.03808,0 3.05596,-0.24578 3.05596,-0.73705 0,-0.49128 -1.01904,-0.73705 -3.05596,-0.73705 H 103.05317 L 88.932046,42.33795 h 40.409544 c 2.03808,0 3.05596,-0.24577 3.05596,-0.73705 0,-0.49183 -1.01904,-0.73733 -3.05596,-0.73733 H 85.386756 Z" /><path
   id="path905-6-4-6"
   d="m 377.55975,88.965359 h 2.62705 c 1.24083,0 2.05697,0.55519 2.44842,1.665568 0,0.146451 0.0168,0.321447 0.051,0.525817 0,1.066531 -0.67217,1.767757 -2.01555,2.104093 -0.23834,0.02896 -0.4685,0.04344 -0.68902,0.04344 h -0.76558 v 1.490159 h -1.65732 z m 0,7.144652 h 4.43845 v 9.489519 c 0,0.86216 0.39098,1.47526 1.17341,1.84056 0.30623,0.11708 0.6375,0.17541 0.99477,0.17541 h 0.20416 c 0.90088,0 1.54705,-0.35785 1.93803,-1.07397 0.1353,-0.2627 0.20415,-0.5403 0.20415,-0.83279 v -9.598729 h 4.43797 v 8.940529 c 0,3.1851 -1.45364,5.21556 -4.36141,6.09302 -0.61198,0.16134 -1.37708,0.26311 -2.29626,0.30655 -3.19714,0 -5.32248,-1.31474 -6.37648,-3.94465 -0.23834,-0.67186 -0.35631,-1.52615 -0.35631,-2.56414 z m 1.6578,-5.719859 v 1.490163 h 0.91822 c 0.5778,0 0.87536,-0.277186 0.89269,-0.832789 -0.0857,-0.438111 -0.34042,-0.657374 -0.76558,-0.657374 z m 3.7499,-1.424793 h 5.15203 v 1.42438 h -3.46871 v 0.767005 h 2.55098 l -0.81614,1.44631 h -1.73484 v 0.767001 h 3.46871 v 1.423965 h -5.15203 z m 5.55986,0 h 2.62705 c 1.66647,0.17541 2.49946,0.891116 2.49946,2.147532 0,0.818723 -0.52772,1.534015 -1.58124,2.147533 l 1.30052,1.533596 h -1.86147 c -0.18778,-0.101771 -0.6038,-0.598214 -1.24996,-1.490157 h -0.0766 v 1.490157 h -1.6578 z m 1.65828,1.424793 v 1.490163 h 0.96926 c 0.47571,0 0.75643,-0.255259 0.84165,-0.76701 -0.0684,-0.482378 -0.32308,-0.723153 -0.7651,-0.723153 z m 8.26395,5.544449 h 0.20415 c 3.33245,0 5.53482,1.190638 6.60615,3.571909 0.18682,0.64372 0.28071,1.10334 0.28071,1.38053 -2.49897,0.27759 -3.9112,0.45341 -4.23429,0.52581 -0.27156,-1.62171 -1.19844,-2.43298 -2.7792,-2.43298 h -0.28071 c -1.10601,0 -1.6578,0.3806 -1.6578,1.14016 0,1.05122 1.22445,1.86249 3.67286,2.43216 2.34682,0.77486 3.86836,1.54891 4.56556,2.32294 0.47524,0.68758 0.71358,1.32261 0.71358,1.90676 v 0.0658 c 0,2.36679 -1.43678,3.85695 -4.31085,4.47047 -0.71309,0.16093 -1.38574,0.24119 -2.01507,0.24119 h -0.28023 c -3.35026,0 -5.52711,-0.97137 -6.53055,-2.91454 -0.32308,-0.48238 -0.5518,-1.16167 -0.68855,-2.0379 2.53365,-0.27718 3.94444,-0.453 4.23382,-0.52581 0.35679,1.62171 1.25815,2.43216 2.70361,2.43216 h 0.43287 c 1.054,0 1.58123,-0.35744 1.58123,-1.07398 v -0.2838 c 0,-0.7157 -1.54753,-1.45375 -4.64212,-2.21331 -2.87405,-0.97923 -4.31036,-2.37382 -4.31036,-4.18626 0,-2.089197 1.15559,-3.51316 3.4687,-4.273549 0.97022,-0.364884 2.05889,-0.54774 3.26649,-0.54774 z m -2.14267,-7.034607 h 0.61198 c 1.47916,0.160931 2.21875,0.774038 2.21875,1.840565 -0.42516,0.08729 -0.93507,0.131144 -1.5302,0.131144 -0.13627,-0.554776 -0.43335,-0.832785 -0.8927,-0.832785 h -0.40831 c -0.25471,0 -0.4165,0.07984 -0.48439,0.241189 v 0.284628 c 0,0.3653 0.78195,0.767005 2.34634,1.205121 0.69673,0.351234 1.04581,0.767005 1.04581,1.249797 v 0.04343 c 0,1.037566 -0.80795,1.636608 -2.42289,1.797126 -1.34338,0 -2.2279,-0.416186 -2.65257,-1.249381 l -0.20416,-0.657368 c 0.22053,0 0.75595,-0.05875 1.60676,-0.175824 0.15264,0.628825 0.51857,0.942825 1.09637,0.942825 0.51087,-0.01448 0.76558,-0.189891 0.76558,-0.525816 0,-0.306964 -0.71406,-0.643304 -2.14218,-1.008604 -0.88451,-0.408738 -1.32653,-0.89112 -1.32653,-1.44631 4.8e-4,-1.079765 0.7911,-1.6937 2.37234,-1.839737 z m 6.50407,0.06536 h 0.28023 c 1.1739,0 2.12534,0.534091 2.85721,1.59979 0.23738,0.409152 0.3568,0.788931 0.3568,1.139342 v 0.241602 c 0,1.402449 -0.95289,2.33742 -2.85673,2.804904 -0.32357,0.02937 -0.51087,0.04301 -0.56143,0.04301 -1.54753,0 -2.65257,-0.773624 -3.31559,-2.322524 0,-0.160517 -0.0265,-0.379779 -0.0766,-0.657374 0,-1.124862 0.68854,-1.994053 2.0661,-2.608401 0.34042,-0.159689 0.75644,-0.240362 1.24997,-0.240362 z m -1.65827,2.980734 c 0,0.74508 0.57779,1.219593 1.73483,1.423962 0.83251,0 1.41127,-0.379775 1.73484,-1.139334 v -0.525817 c -0.20416,-0.87664 -0.71358,-1.315165 -1.53069,-1.315165 h -0.4083 c -0.79929,0 -1.31016,0.474517 -1.53068,1.424383 z m 5.07546,4.163918 h 13.39142 v 3.769244 h -8.95249 v 1.9506 h 6.65671 v 0.0654 c -1.42909,2.44002 -2.14219,3.69685 -2.14219,3.76925 h -4.51452 v 1.95061 h 8.95249 v 3.83502 h -13.39142 z m 0.48535,-7.144652 h 1.73436 c 1.054,1.943163 1.63275,2.914542 1.73531,2.914542 v -2.914542 h 1.65732 v 5.829077 h -1.58124 c -0.10207,0 -0.68035,-0.971376 -1.73483,-2.914535 h -0.15264 v 2.914535 h -1.65731 z m 7.14158,0 h 1.65731 c 1.12189,3.769252 1.68332,5.712826 1.68332,5.829077 h -1.53068 c -0.10208,0 -0.19549,-0.254844 -0.28023,-0.767006 h -1.37757 c -0.10207,0.511751 -0.19548,0.767006 -0.28023,0.767006 h -1.53068 v -0.04301 c 10e-4,-0.07322 0.55324,-2.00149 1.65876,-5.786049 z m 0.7651,2.191385 -0.28023,1.44631 h 0.68854 l -0.28072,-1.44631 z m 2.70361,-2.191385 h 1.65731 v 4.404696 h 1.73484 v 1.423965 h -3.39263 z"
   inkscape:connector-curvature="0"
   style="fill:#ff6515;fill-opacity:1;stroke:#fff541;stroke-width:0.75590552;stroke-miterlimit:4;stroke-dasharray:none;stroke-opacity:1;paint-order:fill markers stroke" /><path
   id="path907-9-4-8"
   d="m 428.06165,90.093941 v 56.371229 l -6.12128,7.42555 V 97.704154 Z m -5.71297,33.847309 v 0.24807 c 0.3226,1.48606 0.52676,2.2287 0.61198,2.2287 h 0.20464 v -1.48527 l -0.20464,-0.74343 c 0.0684,-0.32971 0.10256,-0.57778 0.10256,-0.74342 h -0.30671 c -0.16997,0.33128 -0.30575,0.49535 -0.40783,0.49535 z m 0,1.73413 v 1.48448 h 0.20416 l -0.10208,-0.49536 v -0.49535 l 0.10208,-0.49535 h -0.20416 z m 0.40735,-4.70387 v 0.49535 c 0.13578,0 0.20415,-0.16407 0.20415,-0.49535 z m 1.02077,0 c 0,0.24807 -0.13626,0.57778 -0.40831,0.9907 0.16997,0.3313 0.30623,0.49535 0.40831,0.49535 0.13579,-0.16405 0.23786,-0.24728 0.30576,-0.24728 0,0.16407 0.0337,0.24728 0.10255,0.24728 v -0.49535 c -0.20463,-0.41292 -0.30671,-0.74263 -0.30671,-0.9907 z m 0.40735,0.24648 v 0.24808 h 0.20464 v -0.24808 z m 0.81662,-2.22631 c 0.0169,0.33049 0.0852,0.49535 0.20415,0.49535 0,-0.32971 0.13579,-0.49535 0.4088,-0.49535 v -0.74264 H 425.307 c -0.10256,0 -0.20463,0.24728 -0.30623,0.74264 z m 0.40783,5.44492 -0.10208,0.49535 c 0.2552,0 0.52773,0.24808 0.81614,0.74343 h 0.20416 v -0.24807 c -0.57829,-0.66021 -0.88403,-0.99071 -0.91822,-0.99071 z m 1.42908,-9.65345 v 0.24807 c 0.13579,0 0.27109,0.41293 0.40832,1.23878 -0.40832,0.37172 -0.61199,0.70222 -0.61199,0.99071 v 0.24728 l 0.10208,0.49536 c -0.17045,0 -0.27205,0.3305 -0.30671,0.98991 l -0.20416,-0.24807 c -0.13626,0.042 -0.20416,0.20765 -0.20416,0.49535 0.0679,0.33129 0.10208,0.57778 0.10208,0.74343 l 0.30624,-0.49536 c 0.13577,0.0412 0.20463,0.20686 0.20463,0.49536 l -0.10256,1.23878 c 0.0684,0 0.10256,0.0824 0.10256,0.24807 -0.0689,0 -0.10256,0.0832 -0.10256,0.24807 0.13578,0.042 0.20464,0.20766 0.20464,0.49536 l 0.20415,-0.24808 h 0.10208 c 0.20416,0 0.30624,0.33129 0.30624,0.99071 l 0.20415,-0.24807 0.20415,0.24807 v -2.47518 l -0.20415,0.24807 h -0.20415 c -0.0684,0 -0.27157,-0.49535 -0.61199,-1.48606 v -0.24807 c 0.3226,-1.31962 0.52676,-1.97983 0.61199,-1.97983 h 0.10207 c 0.13578,0.042 0.20416,0.20765 0.20416,0.49535 l -0.30623,0.99071 v 0.24807 c 0,0.24728 0.10207,0.49536 0.30623,0.74263 h 0.10207 v -2.72245 c -0.27156,0 -0.4083,-0.16407 -0.4083,-0.49536 v -0.24807 c 0,-0.3305 0.13577,-0.49536 0.4083,-0.49536 v -1.23878 l -0.20415,0.24808 h -0.10208 l -0.30623,-0.49457 c -0.10256,-0.005 -0.20464,0.24174 -0.30672,0.73709 z m 0.10208,-2.47518 c -0.13626,-0.16406 -0.23834,-0.24808 -0.30623,-0.24808 l -0.10256,0.49536 0.91822,0.24807 0.10207,-0.49535 v -0.49377 z"
   inkscape:connector-curvature="0"
   style="fill:#ff6515;fill-opacity:1;stroke:#fff541;stroke-width:0.75590552;stroke-miterlimit:4;stroke-dasharray:none;stroke-opacity:1;paint-order:fill markers stroke" /><path
   id="path909-2-9-5"
   d="M 443.97396,94.755334 V 114.32766 L 435.7486,103.2008 v 7.64645 l -4.36827,-1.65511 v -7.98873 l -4.14875,-4.96424 h 8.37102 l 4.00342,4.56487 v -4.450691 z m -11.13765,12.325516 v 0.0571 h 0.14566 v -0.0571 z m 0.29099,0.74164 0.14601,0.0571 c 0.0113,-0.0757 0.0605,-0.11419 0.14567,-0.11419 h 0.21849 v 0.11419 h 0.14532 v -0.11419 c -0.0969,0 -0.21815,-0.0571 -0.36381,-0.17154 -0.15804,0.0385 -0.25492,0.11445 -0.29168,0.22863 z m 0.29168,0.17128 v 0.34227 h 0.0728 l 0.14567,-0.0574 v 0.0574 c 0,0.11419 -0.0972,0.17128 -0.29133,0.17128 v 0.17127 l 0.14566,-0.0571 h 0.36383 c 0.0969,0.01 0.14567,0.0477 0.14567,0.11445 l -0.14567,0.171 v 0.34228 c 0,0.0571 0.0728,0.11419 0.21884,0.17101 h 0.0728 l -0.0728,-0.28519 c 0.0845,-0.038 0.18174,-0.0571 0.29134,-0.0571 v -0.11418 l -0.14567,-0.17128 v -0.11418 l 0.0728,-0.11418 c -0.24289,0 -0.36451,-0.038 -0.36451,-0.11418 0.0965,-0.0383 0.16938,-0.0571 0.2185,-0.0571 v -0.11419 c -3.4e-4,-0.0854 -0.24289,-0.18043 -0.72798,-0.28491 z m 0,-2.73903 v 0.22863 c 0.0117,0.0762 0.0605,0.11418 0.14566,0.11418 l 0.0728,-0.11418 v -0.28573 c -0.0979,0.0377 -0.1704,0.0571 -0.21849,0.0571 z m 1.1643,0.45645 v 0.0571 c 0.33943,0.0385 0.50948,0.0953 0.50948,0.17127 v 0.17127 c 0.0969,0.009 0.14567,0.0477 0.14567,0.11418 v 0.0571 h -0.2185 c -0.33978,0 -0.50949,-0.17127 -0.50949,-0.51355 h -0.0728 c 0,0.11418 -0.0972,0.20925 -0.29134,0.28573 0,0.15189 -0.0491,0.2281 -0.146,0.2281 l -0.14567,-0.0571 c -0.14567,0.11419 -0.24255,0.24722 -0.29099,0.39911 -0.0972,0.01 -0.14567,0.0479 -0.14567,0.11418 h 0.43666 l 0.29167,-0.17127 c 0,0.0571 0.0728,0.11444 0.2185,0.17127 h 0.0728 v -0.11418 l -0.0728,-0.39911 0.14567,-0.0574 c 0.0608,0 0.18208,0.13358 0.36416,0.39938 0.012,-0.076 0.0612,-0.11419 0.14602,-0.11419 h 0.0728 l 0.14567,0.0571 c 0,-0.0757 0.0969,-0.11418 0.29133,-0.11418 v -0.28573 l -0.14566,-0.171 0.0728,-0.11418 c -0.43666,-0.038 -0.70394,-0.076 -0.80083,-0.11418 z m -1.01864,1.31256 v 0.11419 c 0.0117,0.0762 0.0605,0.11391 0.14532,0.11391 v -0.11391 c -3.4e-4,-0.0762 -0.0485,-0.11419 -0.14532,-0.11419 z m 0.14498,-1.25546 v 0.17127 c 0.0972,0.0951 0.14566,0.17127 0.14566,0.22809 h 0.0728 c 0,-0.11364 0.0488,-0.171 0.14601,-0.171 -0.0491,-0.0662 -0.0732,-0.14246 -0.0732,-0.22836 z m 0.14532,-0.57065 v 0.11418 c 0.0969,0 0.14567,0.0385 0.14567,0.11419 h 0.0732 v -0.11419 z m 0.0728,1.82611 v 0.0571 h 0.21885 v -0.0571 z m 0.29168,0.11391 c 0,0.11392 -0.0972,0.17101 -0.29168,0.17101 v 0.17127 c 0.21885,0.11419 0.36452,0.17155 0.43666,0.17155 v 0.11418 c 0,0.0856 -0.0244,0.16212 -0.0728,0.22836 v 0.0574 h 0.0728 c 0,-0.22863 0.21851,-0.34227 0.65516,-0.34227 0.0485,0.0762 0.0728,0.1333 0.0728,0.17127 l 0.2185,-0.11418 h 0.0728 l 0.14566,0.0571 v -0.62773 c -0.0852,0.0382 -0.18174,0.0571 -0.29133,0.0571 v 0.0574 c 0,0.0383 0.024,0.0568 0.0728,0.0568 -0.0728,0.15215 -0.14567,0.22863 -0.2185,0.22863 -0.1941,0 -0.33977,-0.15188 -0.43666,-0.45646 h -0.0728 c 0,0.0383 -0.0244,0.0951 -0.0728,0.17128 0.0485,0.0668 0.0728,0.14246 0.0728,0.22836 l -0.14567,0.0571 h -0.14567 v -0.0576 c 0,-0.0856 0.0237,-0.16184 0.0728,-0.22863 -0.0491,-0.0759 -0.0728,-0.13276 -0.0728,-0.17101 h -0.0722 z m -0.14567,-1.48356 v 0.0571 h 0.14567 v -0.0571 z m 0.0728,-1.94002 c 0,0.0571 0.0728,0.11418 0.2185,0.17127 l 0.0728,-0.11418 v -0.0571 z m 0,0.39937 v 0.28545 c 0.0965,0 0.14567,-0.0382 0.14567,-0.11418 v -0.17127 z m 0.2185,0.74164 v 0.0574 h 0.0728 l 0.36417,-0.0574 v -0.0568 h -0.21851 c -0.0979,0.0383 -0.17074,0.0568 -0.21849,0.0568 z m 0.21816,0.28546 c 0,0.0668 -0.0488,0.16185 -0.14567,0.28546 l 0.14567,0.0574 c 0.012,-0.0759 0.0608,-0.11419 0.14566,-0.11419 h 0.29168 v 0.11419 c 0.0965,0 0.14566,-0.0383 0.14566,-0.11419 -3.4e-4,-0.10502 -0.19514,-0.18097 -0.583,-0.22863 z m 0.29098,-4.16551 h -0.36416 v 0.34229 c 0,0.0759 0.14566,0.15188 0.43665,0.22836 0,-0.0856 0.12128,-0.23779 0.36417,-0.45646 -0.19411,0 -0.29133,-0.0571 -0.29133,-0.17155 z m -0.36347,2.79613 v 0.0571 h 0.14566 v -0.0571 z m 0,3.19549 v 0.0571 h 0.14566 c 0.40024,-0.15188 0.69191,-0.22836 0.87366,-0.22836 v -0.11418 h -0.36417 c -0.26728,0.19066 -0.48544,0.28545 -0.65515,0.28545 z m 0.21781,1.94003 v 0.0571 l 0.146,0.0571 v -0.0571 z m 0.21884,-0.68483 c 0,0.0568 0.0728,0.11392 0.2185,0.17101 h 0.0728 v -0.17101 z m 0.29133,0.57064 c 0,0.1904 -0.0972,0.28546 -0.29133,0.28546 v 0.0571 h 0.0728 c 0.0237,0 0.12128,-0.0189 0.29134,-0.0571 0.0969,0.0382 0.16971,0.0571 0.2185,0.0571 v -0.17127 c -4.8e-4,-0.0571 -0.0979,-0.11445 -0.29134,-0.17128 z m -0.2185,-4.90715 v 0.11419 h 0.29134 v -0.0574 z m 0.14567,0.85556 -0.14567,0.17154 0.43666,0.17101 0.0728,-0.11392 v -0.0571 c -0.0855,0 -0.20613,-0.0574 -0.36382,-0.17154 z m -0.14567,2.51094 v 0.11445 h 0.14567 c 0,-0.0765 -0.0491,-0.11445 -0.14567,-0.11445 z m 0.29134,-6.50517 v 0.22864 h 0.0728 c 0.0969,-0.0383 0.16972,-0.0571 0.2185,-0.0571 v -0.0574 c -0.0735,0 -0.17075,-0.0377 -0.29133,-0.11418 z m 0,4.50806 v 0.0571 c 0.0969,0 0.14566,0.0574 0.14566,0.17155 h 0.0728 v -0.17155 l -0.14567,-0.0571 z m 0.0728,-2.85295 v 0.0571 h 0.2185 v -0.0571 z m 0,5.82007 v 0.17101 h 0.0728 v -0.17101 z m 0.43666,-7.24682 v 0.0571 c 0.14567,0 0.2185,0.0382 0.2185,0.11418 v 0.11418 h -0.43666 l 0.0728,0.11445 c -0.0488,0.076 -0.0728,0.13304 -0.0728,0.17101 l 0.29168,0.11445 c 0,-0.22864 0.12127,-0.34228 0.36416,-0.34228 0,-0.15188 -0.12162,-0.26606 -0.36416,-0.34228 h -0.0732 v -9.2e-4 z m -0.21884,1.08393 v 0.11418 h 0.0728 v -0.11418 z m 0.80082,-1.19811 v 0.17128 c 0.0969,0 0.14532,-0.0382 0.14532,-0.11446 z m 2.25714,5.82061 c 0.0969,0.0953 0.14566,0.1904 0.14566,0.28546 h 0.0728 v -0.28546 z m 2.40212,0.11392 -0.21849,0.22836 0.14567,0.0571 -0.0728,0.11391 v 0.0571 c 0.33909,0.0477 0.50915,0.1236 0.50915,0.22863 v 0.0568 c 0,0.0762 -0.0488,0.11446 -0.14567,0.11446 -0.38856,0 -0.58233,-0.11446 -0.58233,-0.34228 h -0.0728 c 0,0.26606 -0.0488,0.39909 -0.14567,0.39909 0,-0.038 -0.0244,-0.0571 -0.0728,-0.0571 0,0.0382 -0.0244,0.0571 -0.0728,0.0571 -0.0972,-0.12333 -0.14567,-0.21893 -0.14567,-0.28572 l -0.50949,0.0574 c 0,-0.0574 -0.0728,-0.11418 -0.21849,-0.17154 -0.0728,0.15215 -0.14567,0.22837 -0.21851,0.22837 0.25457,0.42818 0.52186,0.7131 0.80083,0.8561 h -0.14602 v 0.11418 c 0.32776,-0.19013 0.54625,-0.28546 0.65516,-0.28546 l -0.0728,-0.11418 c 0.13364,-0.2658 0.23053,-0.39911 0.29133,-0.39911 h 0.0728 c 0.0969,0.01 0.14601,0.0477 0.14601,0.11419 h -0.0728 c 0,0.12361 0.19342,0.21894 0.58198,0.28573 0,0.11418 0.0488,0.171 0.14567,0.171 h 0.0728 v -0.0568 c -0.0488,-0.0762 -0.0728,-0.13303 -0.0728,-0.17154 l 0.146,-0.0568 -0.0732,-0.11446 v -0.17128 c 0.0117,-0.0759 0.0608,-0.11417 0.14601,-0.11417 h 0.0725 c 0.0972,0.009 0.14567,0.0477 0.14567,0.11417 v 0.0571 l -0.0728,0.28546 c 0.0488,0 0.12162,0.0191 0.2185,0.0574 0,-0.11418 0.0485,-0.24722 0.14567,-0.39937 -0.0969,0 -0.14567,-0.0382 -0.14567,-0.11418 l 0.14567,-0.0571 c 0.2666,0 0.43666,0.0762 0.50949,0.22837 0.0969,-0.038 0.16971,-0.0571 0.2185,-0.0571 v -0.0571 l -0.2185,-0.28573 c -0.19411,0.0762 -0.33978,0.11418 -0.43666,0.11418 -0.0969,-0.0951 -0.14566,-0.171 -0.14566,-0.22836 h -0.14567 c 0,0.19039 -0.16972,0.32342 -0.50915,0.39937 -0.0969,0 -0.14567,-0.0383 -0.14567,-0.11445 v -0.0568 c 0,-0.0759 0.0728,-0.11418 0.21885,-0.11418 v -0.0574 c -0.20716,0 -0.37687,-0.15161 -0.50949,-0.45646 z m -1.31065,0.79847 h 0.0728 c 0.0969,0.01 0.14566,0.0479 0.14566,0.11445 l -0.2185,0.11418 c -0.0972,0 -0.14567,-0.0383 -0.14567,-0.11418 0.0124,-0.0759 0.0605,-0.11445 0.14567,-0.11445 z m 0.437,0.17154 c 0.0969,0.01 0.14567,0.0477 0.14567,0.11419 v 0.11418 c 0,0.0762 -0.0488,0.11418 -0.14567,0.11418 -0.0972,0 -0.14567,-0.038 -0.14567,-0.11418 v -0.11418 c 0.0117,-0.0757 0.0608,-0.11419 0.14567,-0.11419 z m 0.29133,0.74165 c 0,0.11418 -0.0728,0.17154 -0.2185,0.17154 l 0.0728,0.11418 c 0.0849,-0.0383 0.18208,-0.0574 0.29133,-0.0574 -0.0488,-0.0662 -0.0728,-0.14245 -0.0728,-0.22836 z m 0.14533,-0.28519 v 0.0568 l 0.50948,0.0571 v -0.1139 l -0.14566,0.0568 c -0.0972,0 -0.14601,-0.038 -0.14601,-0.11418 -0.0965,0.0385 -0.16938,0.0574 -0.21781,0.0574 z m 0.50983,1.14156 c 0,0.0568 -0.0491,0.13276 -0.14566,0.22836 0.24254,0.009 0.36416,0.0662 0.36416,0.17128 v 0.0571 c -0.19377,0.009 -0.29134,0.0856 -0.29134,0.22836 h 0.29134 c 0.0485,-0.30458 0.16971,-0.45619 0.36451,-0.45619 v -0.0576 h -0.0732 c -0.0969,0.038 -0.16972,0.0571 -0.2185,0.0571 -3.4e-4,-0.0576 -0.0979,-0.13357 -0.29133,-0.22836 z m 0,-0.17155 v 0.0571 h 0.14567 v -0.0571 z m 0.14567,1.08393 v 0.11445 h 0.0728 v -0.11445 z m 0.80048,-1.14102 c 0,0.15216 -0.0241,0.2281 -0.0728,0.2281 0.0488,0.0759 0.0728,0.13303 0.0728,0.17154 h 0.0728 c 0,-0.0762 0.024,-0.11418 0.0728,-0.11418 -0.0488,-0.0668 -0.0728,-0.16185 -0.0728,-0.28546 z m 0.14566,0 h 0.2185 v -0.11418 h -0.0728 c -0.0979,0.01 -0.14567,0.0479 -0.14567,0.11418 z m 0.29065,-0.91292 c 0,0.0762 -0.0728,0.11392 -0.2185,0.11392 v 0.0571 c 0.0728,0 0.16971,0.0382 0.29168,0.11418 l 0.36416,-0.0571 v -0.0571 c -0.13364,2.7e-4 -0.27965,-0.0568 -0.43734,-0.17101 z m 0.87365,-2.1113 v 0.0568 c 0.14601,0.34228 0.21885,0.53294 0.21885,0.57065 l -0.43666,0.17154 h -0.2185 c -0.0972,0 -0.14567,-0.038 -0.14567,-0.11418 v -0.28573 c -0.0972,0 -0.14567,-0.0189 -0.14567,-0.0571 -0.0732,0 -0.17005,0.0762 -0.29167,0.22864 l 0.0728,0.11418 v 0.0568 l -0.0728,0.11445 c 0.19376,0.14273 0.50949,0.23779 0.94649,0.28519 0,-0.15161 0.0488,-0.2281 0.14601,-0.2281 0,0.0571 0.0728,0.11419 0.2185,0.17101 v -1.14075 h -0.0728 c -0.0972,0.0377 -0.17006,0.0566 -0.21885,0.0566 z m -0.87365,1.9403 v 0.0568 h 0.146 v -0.0568 z m 0.21884,0.57037 c -0.0972,0.12361 -0.14601,0.21894 -0.14601,0.28572 h 0.14601 c 0,-0.15188 0.0485,-0.22836 0.14567,-0.22836 v -0.0574 z m 0.0728,0.62773 h 0.14567 v -0.11418 c -0.0976,0.01 -0.14567,0.0477 -0.14567,0.11418 z m 0.2185,-0.74191 h 0.2185 v -0.17127 c -0.0732,2.6e-4 -0.14601,0.0574 -0.2185,0.17127 z m 0.50949,-0.91319 c 0,0.11445 -0.0972,0.17154 -0.29167,0.17154 -0.0969,0 -0.14567,0.1333 -0.14567,0.3991 h 0.0728 l 0.2185,-0.11418 c 0.0732,0.15215 0.14601,0.22836 0.21885,0.22836 l 0.0728,-0.11418 v -0.22837 h -0.2185 v -0.0571 c 0,-0.0759 0.0728,-0.11418 0.2185,-0.11418 v -0.17127 h -0.14567 z m -0.36416,-0.0568 v 0.0568 c 0.0849,-0.038 0.18173,-0.0568 0.29167,-0.0568 -0.0491,-0.0759 -0.0732,-0.13304 -0.0732,-0.17155 -0.0732,9.3e-4 -0.14601,0.0574 -0.2185,0.17155 z m 0.0725,-1.99712 c 0,0.1904 0.0488,0.28546 0.14566,0.28546 0.0969,-0.0383 0.16972,-0.0571 0.21885,-0.0571 -0.0491,-0.0665 -0.0728,-0.14273 -0.0728,-0.22837 z m 0.14566,-0.57038 -0.0728,0.11392 v 0.0571 c 0.19376,0 0.29168,0.1333 0.29168,0.39937 h 0.0728 v -0.34228 c 0,-0.0571 -0.0972,-0.13303 -0.29168,-0.2281 z m 0,3.70905 v 0.0568 l 0.0732,0.22864 h -0.0732 c 0.0488,0.0759 0.0732,0.1333 0.0732,0.17127 h 0.0728 c 0,-0.0953 0.0485,-0.19012 0.14567,-0.28573 v -0.11418 z m 0.14601,-0.28545 v 0.11418 h 0.14567 v -0.11418 z m 0.0728,-6.56226 v 0.17154 h 0.0728 v -0.17154 z"
   inkscape:connector-curvature="0"
   style="fill:#ff6515;fill-opacity:1;stroke:#fff541;stroke-width:0.75590552;stroke-miterlimit:4;stroke-dasharray:none;stroke-opacity:1;paint-order:fill markers stroke" /><path
   id="path911-9-9-4"
   d="m 443.50089,96.23917 h 8.44419 v 6.16262 l 3.78527,-4.507787 -2.0383,-1.654833 h 10.62851 l -10.19116,8.10264 c 2.82675,0.78959 4.91383,2.10187 6.26056,3.93714 1.21275,1.60717 1.8198,3.58517 1.8198,5.93426 v 0.34227 c -0.71596,-2.03535 -1.88095,-3.61398 -3.49428,-4.73614 -1.85621,-1.40736 -4.11302,-2.1113 -6.76971,-2.1113 v 2.9674 h 2.18363 l -6.55191,3.48041 v -13.0098 z m 0.65516,0.171003 v 0.05709 c 0.19341,0.0191 0.29099,0.07621 0.29099,0.171272 v 0.05736 c 0,0.07594 -0.0725,0.114184 -0.21817,0.114184 0.0728,0.15188 0.14567,0.228363 0.21817,0.228363 l 0.3645,-0.456462 c 0.0488,0.07621 0.0728,0.133302 0.0728,0.171544 0.17005,-0.02853 0.31572,-0.142728 0.43665,-0.342279 h -0.14566 c -0.0485,0 -0.0728,0.0191 -0.0728,0.05709 l -0.36451,-0.05709 h -0.58164 v -0.0014 z m 0.6548,0.513554 c 0.0969,0.123604 0.14567,0.218933 0.14567,0.285455 -0.0488,0.07621 -0.0728,0.133302 -0.0728,0.171539 h 0.2185 c 0,-0.09533 0.0488,-0.190394 0.14567,-0.285723 -0.19343,0 -0.29134,-0.05709 -0.29134,-0.171271 v -0.05709 z m 0.50949,0.855829 v 0.05709 h 0.14567 v -0.05709 z m 1.31066,-1.14102 v 0.114188 c 0.0485,0.07621 0.0728,0.133566 0.0728,0.171539 l -0.43665,0.285455 h -0.0728 c -0.0972,0 -0.14566,-0.03797 -0.14566,-0.114179 -0.20648,0.114179 -0.37619,0.171271 -0.5095,0.171271 v 0.342279 c 0.19411,0.01887 0.29168,0.07621 0.29168,0.171271 v 0.0571 c 0,0.07621 -0.0969,0.114179 -0.29168,0.114179 0.0124,0.07621 0.0612,0.114184 0.14602,0.114184 h 0.14566 c 0.0969,0 0.14567,-0.03797 0.14567,-0.114184 -0.0488,-0.07567 -0.0728,-0.133034 -0.0728,-0.171276 0.0728,-0.03825 0.2185,-0.05709 0.43666,-0.05709 -0.0488,-0.07594 -0.0728,-0.133029 -0.0728,-0.171539 l -0.14567,0.05736 h -0.0728 c -0.0972,0 -0.14567,-0.03797 -0.14567,-0.114184 v -0.114184 c 0.012,-0.07567 0.0605,-0.114179 0.14567,-0.114179 0.0728,0 0.14567,0.05736 0.2185,0.17154 0.33943,-0.152148 0.58232,-0.228632 0.72799,-0.228632 v -0.05709 c -0.14567,0 -0.2185,-0.03797 -0.2185,-0.114179 0,-0.09533 0.0969,-0.151889 0.29133,-0.171544 v -0.114184 c -0.18277,0 -0.32877,-0.03769 -0.43734,-0.113915 z m -0.65515,-0.228363 c 0,0.190394 -0.0728,0.285727 -0.21851,0.285727 l -0.14566,-0.05736 c 0.0361,0.152157 0.0849,0.228367 0.14566,0.228367 0.0969,-0.03797 0.16972,-0.05682 0.21851,-0.05682 l 0.0728,0.114179 c 0.14566,-0.02853 0.24255,-0.104758 0.29133,-0.228363 -0.0969,0 -0.14567,-0.03825 -0.14567,-0.114456 0.12162,-0.07594 0.2185,-0.11418 0.29168,-0.11418 l 0.29133,0.05709 c 0.0845,-0.03797 0.18174,-0.05709 0.29134,-0.05709 v -0.05709 z m -0.36417,1.826113 0.0728,0.114184 c -0.0488,0.07621 -0.0728,0.133303 -0.0728,0.171271 l 0.14566,0.05682 c 0.0969,-0.03797 0.16972,-0.05682 0.21851,-0.05682 v -0.114184 c 0,-0.06678 -0.12162,-0.123609 -0.36417,-0.171271 z m 0.80082,-0.513554 0.0728,0.114184 v 0.05709 c 0,0.07622 -0.0491,0.114184 -0.146,0.114184 -0.0969,-0.03797 -0.16972,-0.05709 -0.21851,-0.05709 l 0.14567,0.171276 v 0.05736 l -0.0728,0.114184 h 0.14567 c 0.3274,-0.304578 0.54624,-0.456458 0.65515,-0.456458 v -0.0571 c -0.12093,-9.25e-4 -0.31538,-0.01938 -0.58198,-0.05763 z m 0.0728,1.768478 c 0.1333,0.1904 0.23018,0.28546 0.29134,0.28546 h 0.0728 c -0.0488,-0.0665 -0.0728,-0.16185 -0.0728,-0.28546 z m 0.43666,0.34255 c 0,0.0385 -0.0244,0.0571 -0.0728,0.0571 0.0485,0.11445 0.0969,0.17128 0.14566,0.17128 0.0969,-0.038 0.16972,-0.0568 0.21816,-0.0568 v -0.11445 c -0.10891,0 -0.20613,-0.0189 -0.29099,-0.0571 z m 0.21782,-2.624578 c 0,0.152153 -0.0725,0.285187 -0.21817,0.399366 v 0.114184 l 0.14567,-0.05709 h 0.0725 l 0.146,0.05709 v -0.114184 l -0.0732,-0.399366 z m 0.21884,-0.799009 v 0.114179 h 0.14567 v -0.114179 z m 0,0.684825 v 0.114184 h 0.21849 v -0.114184 z m 0.14567,0.342279 c 0.0485,0.07621 0.0728,0.133034 0.0728,0.171003 0.0969,0 0.14567,-0.03797 0.14567,-0.114179 v -0.05682 z m 0.36382,15.748823 v 0.34228 c 0.0728,-0.0385 0.21849,-0.0574 0.43666,-0.0574 l -0.0728,-0.11418 c 0.0728,0 0.14566,-0.0571 0.2185,-0.17127 -0.19411,0 -0.29133,-0.0191 -0.29133,-0.0571 -0.0845,0.0388 -0.1814,0.0576 -0.29099,0.0576 z m 0.50983,-0.39936 v 0.17127 h 0.0728 v -0.17127 z m 1.30996,-16.262388 0.21851,0.114184 h 0.0728 c 0,-0.114184 0.0488,-0.171272 0.14567,-0.171272 l 0.43665,0.171272 0.0728,-0.228363 c -0.15768,0.07621 -0.2793,0.114179 -0.36416,0.114179 0,-0.07567 -0.0488,-0.114179 -0.14567,-0.114179 h -0.29099 c -0.0969,0.0097 -0.14567,0.04767 -0.14567,0.114179 z m 1.31066,0.05709 -0.0728,0.114456 c 0.0485,0.07594 0.0728,0.13303 0.0728,0.171003 0.0849,-0.03797 0.20648,-0.05682 0.36416,-0.05682 v -0.171548 c -0.15837,0 -0.2793,-0.0191 -0.36416,-0.05709 z m 0,-0.171271 v 0.114179 c 0.0969,-0.03797 0.16972,-0.05709 0.2185,-0.05709 v -0.05709 z m 0.43631,0 v 0.05709 h 0.21885 v -0.05709 z m 1.81981,6.390989 c 0,0.038 -0.0241,0.0568 -0.0728,0.0568 0,0.14246 0.21884,0.314 0.65516,0.51382 0,-0.0953 0.0969,-0.15189 0.29168,-0.17155 v -0.11417 l -0.21885,-0.22837 c -0.19376,0.0762 -0.33943,0.11418 -0.43665,0.11418 3.4e-4,-0.0571 -0.0725,-0.11391 -0.2185,-0.17073 z m 0,1.59774 -0.0728,0.11419 v 0.11418 c 0.19377,0 0.29168,0.1333 0.29168,0.39937 h 0.0728 v -0.0568 l -0.0728,-0.28573 0.14566,-0.0571 h 0.0728 l 0.2185,0.11445 h 0.0728 c -0.0488,-0.22864 -0.17006,-0.34228 -0.36417,-0.34228 l -0.14566,0.0571 c -0.0972,-0.0382 -0.17006,-0.0574 -0.21884,-0.0574 z m 0.72799,-2.68194 0.0728,0.11392 v 0.11418 c 0,0.0574 -0.0728,0.11418 -0.2185,0.17154 l -0.2185,-0.11418 v 0.11418 c 0.14566,0.16185 0.2185,0.29488 0.2185,0.3991 l 0.14567,-0.0571 0.29167,0.17128 c 0.0969,0 0.14566,-0.038 0.14566,-0.11419 0.15736,0.0762 0.27897,0.11419 0.36417,0.11419 l 0.14602,-0.22837 c 0.33908,0.0385 0.5088,0.0953 0.5088,0.17127 0,0.16185 -0.19342,0.29488 -0.58198,0.39937 0,0.15188 -0.0969,0.22837 -0.29134,0.22837 v 0.0571 c 0,0.0571 0.0969,0.11446 0.29134,0.17128 0,-0.18985 0.14601,-0.28545 0.43665,-0.28545 0,-0.0571 0.0969,-0.13304 0.29099,-0.22864 l -0.0728,-0.11364 v -0.0574 c 0.012,-0.0757 0.0608,-0.11418 0.14567,-0.11418 h 0.0728 l 0.14601,0.0573 0.0728,-0.11444 c -0.25457,0 -0.5222,-0.13277 -0.80047,-0.39938 -0.23087,0.0385 -0.54626,0.0574 -0.94649,0.0574 l -0.0728,-0.34227 c 0.0965,0 0.14566,-0.038 0.14566,-0.11392 l -0.14566,-0.0571 z m -0.21816,-0.91346 v 0.11418 c 0.0969,0 0.14567,-0.038 0.14567,-0.11418 z m 0.21816,3.99477 v 0.34228 l 0.29167,-0.17101 c -0.0491,-0.0759 -0.0728,-0.13302 -0.0728,-0.17127 z m 0.21884,-3.42358 -0.0728,0.11418 h 0.0728 l 0.0728,-0.11418 z m 0,1.88292 v 0.0571 c 0.0117,0.0762 0.0605,0.11418 0.14567,0.11418 v -0.17128 z m 0.14567,-1.54065 v 0.0571 h 0.14566 v -0.0571 z m 0,2.91004 v 0.0574 h 0.14566 v -0.0574 z m 0.29099,-2.68194 v 0.0574 c 0.0488,0 0.12161,0.0189 0.21849,0.0568 v -0.11418 z m 0.14532,-0.2281 c 0.58232,0.0285 0.87331,0.10476 0.87331,0.2281 -0.0965,0.12361 -0.14566,0.21894 -0.14566,0.28572 h 0.14566 l 0.21884,-0.11418 c 0,0.0477 0.12127,0.14246 0.36417,0.28546 0,-0.0571 0.0728,-0.11418 0.2185,-0.17128 l -0.29133,-0.39937 h -0.0728 l -0.2185,0.11419 c -0.0972,0 -0.14601,-0.0571 -0.14601,-0.17101 0.0488,-0.0762 0.0728,-0.13303 0.0728,-0.17127 h -0.21851 l -0.21815,0.11418 c -0.14566,-0.16158 -0.2185,-0.314 -0.2185,-0.45646 z m 0.14567,3.08131 v 0.0568 c 0.0487,0.0762 0.0732,0.13358 0.0732,0.17128 h 0.0728 v -0.17128 z m 0.43734,0.17127 c 0,0.0759 -0.0972,0.11392 -0.29133,0.11392 v 0.0571 h 0.29133 c 0.0969,0 0.14532,-0.0383 0.14532,-0.11418 z m -0.14567,-3.9945 0.14567,0.0571 0.0725,-0.11419 v -0.0571 h -0.0725 c -0.0976,0.009 -0.14567,0.0479 -0.14567,0.11418 z m 0.87331,-0.11418 v 0.0568 h 0.14567 v -0.0568 z m 2.11045,-0.34227 c 0,0.15188 -0.0485,0.22836 -0.14532,0.22836 -0.36417,-0.0762 -0.58199,-0.11419 -0.65516,-0.11419 l 0.0732,0.11419 c 0,0.0759 -0.0491,0.11418 -0.146,0.11418 h -0.14566 c -0.2429,-0.15188 -0.38856,-0.22837 -0.43667,-0.22837 -0.13398,0 -0.2793,0.13331 -0.43665,0.39938 0.24255,0.21893 0.36451,0.35197 0.36451,0.39937 h 0.0728 c 0,-0.15189 0.0965,-0.26607 0.29134,-0.34228 h 0.14567 c 0.0969,0 0.16971,0.11418 0.2185,0.34228 l 0.146,-0.0574 -0.0728,-0.11418 v -0.11392 c 0,-0.0953 0.29133,-0.22837 0.87331,-0.3991 v -0.11419 c -10e-4,-0.0759 -0.0495,-0.11417 -0.14704,-0.11417 z m -1.74697,1.25546 v 0.11392 h 0.14567 c 0,-0.076 -0.0481,-0.11392 -0.14567,-0.11392 z m 0.0728,-1.02737 h 0.21884 c 0.0965,0.01 0.14567,0.0479 0.14567,0.11418 v 0.11446 c 0,0.0759 -0.0491,0.11418 -0.14567,0.11418 -0.0728,0 -0.14601,-0.0571 -0.21884,-0.17128 z m 0.36451,0.8561 c 0.012,0.0759 0.0605,0.11418 0.14566,0.11418 h 0.0728 v -0.0571 c -0.0488,-0.0759 -0.0728,-0.13304 -0.0728,-0.17154 -0.0976,0.01 -0.14566,0.0482 -0.14566,0.11445 z m 0.36382,-1.2552 v 0.17127 c 0.0969,0 0.14567,-0.038 0.14567,-0.11418 v -0.0571 z m 0.437,-0.39964 v 0.0574 c 0.19342,0 0.29133,0.0759 0.29133,0.22837 l 0.43666,-0.0574 v -0.11418 c -0.24255,0 -0.36417,-0.0568 -0.36417,-0.17128 z m 4.14909,13.12425 v 0.17127 h 0.0728 v -0.17127 z"
   inkscape:connector-curvature="0"
   style="fill:#ff6515;fill-opacity:1;stroke:#fff541;stroke-width:0.75590552;stroke-miterlimit:4;stroke-dasharray:none;stroke-opacity:1;paint-order:fill markers stroke" /></svg>