<?xml version="1.0" encoding="UTF-8" standalone="no"?>
<!-- Created with Inkscape (http://www.inkscape.org/) -->

<svg
   width="75mm"
   height="80mm"
   viewBox="0 0 75 80"
   version="1.1"
   id="svg8"
   inkscape:version="1.1.1 (3bf5ae0, 2021-09-20)"
   sodipodi:docname="ilustracaopolitica.svg"
   inkscape:export-filename="/home/rafael/Documents/202WEB/202016401Revista/index_files/images/comercio.png"
   inkscape:export-xdpi="96"
   inkscape:export-ydpi="96"
   xmlns:inkscape="http://www.inkscape.org/namespaces/inkscape"
   xmlns:sodipodi="http://sodipodi.sourceforge.net/DTD/sodipodi-0.dtd"
   xmlns="http://www.w3.org/2000/svg"
   xmlns:svg="http://www.w3.org/2000/svg"
   xmlns:rdf="http://www.w3.org/1999/02/22-rdf-syntax-ns#"
   xmlns:cc="http://creativecommons.org/ns#"
   xmlns:dc="http://purl.org/dc/elements/1.1/">
  <defs
     id="defs2" />
  <sodipodi:namedview
     id="base"
     pagecolor="#ffffff"
     bordercolor="#666666"
     borderopacity="1.0"
     inkscape:pageopacity="0.0"
     inkscape:pageshadow="2"
     inkscape:zoom="0.98994949"
     inkscape:cx="31.819805"
     inkscape:cy="80.812204"
     inkscape:document-units="mm"
     inkscape:current-layer="layer1"
     showgrid="false"
     inkscape:window-width="1366"
     inkscape:window-height="744"
     inkscape:window-x="0"
     inkscape:window-y="0"
     inkscape:window-maximized="1"
     inkscape:pagecheckerboard="0" />
  <metadata
     id="metadata5">
    <rdf:RDF>
      <cc:Work
         rdf:about="">
        <dc:format>image/svg+xml</dc:format>
        <dc:type
           rdf:resource="http://purl.org/dc/dcmitype/StillImage" />
      </cc:Work>
    </rdf:RDF>
  </metadata>
  <g
     inkscape:label="Camada 1"
     inkscape:groupmode="layer"
     id="layer1"
     transform="translate(0,-217)">
    <path
       id="rect10"
       style="fill:#ffffff;fill-opacity:1;stroke:#cccccc;stroke-width:18.0775;stroke-linecap:round;stroke-linejoin:round;stroke-miterlimit:4;stroke-dasharray:none;stroke-opacity:1;paint-order:markers stroke fill"
       d="M 274.42578 143.14258 L 183.5918 143.14258 C 183.30891 143.14258 183.02923 143.15775 182.75391 143.18555 C 182.47859 143.21334 182.20586 143.25436 181.93945 143.30859 C 181.67305 143.36283 181.41239 143.43043 181.15625 143.50977 C 180.90011 143.5891 180.64882 143.68012 180.4043 143.7832 C 180.15977 143.88629 179.92102 144.00147 179.68945 144.12695 C 179.45789 144.25244 179.23483 144.38862 179.01758 144.53516 C 178.80032 144.68169 178.59027 144.83767 178.38867 145.00391 C 178.18707 145.17014 177.99319 145.34666 177.80859 145.53125 C 177.624 145.71584 177.44749 145.90778 177.28125 146.10938 C 177.11501 146.31097 176.95903 146.52103 176.8125 146.73828 C 176.66597 146.95554 176.52978 147.18054 176.4043 147.41211 C 176.27881 147.64367 176.16363 147.88243 176.06055 148.12695 C 175.95746 148.37148 175.86644 148.62277 175.78711 148.87891 C 175.70777 149.13505 175.64018 149.39571 175.58594 149.66211 C 175.5317 149.92851 175.49068 150.19929 175.46289 150.47461 C 175.4351 150.74993 175.42188 151.02961 175.42188 151.3125 L 175.42188 293.32227 L 207.53516 293.32227 C 244.59232 293.32227 274.42578 263.4888 274.42578 226.43164 L 274.42578 143.14258 z "
       transform="matrix(0.26458333,0,0,0.26458333,0,217)" />
    <path
       id="path22518"
       style="fill:#ffffff;fill-opacity:1;stroke:#cccccc;stroke-width:18.0775;stroke-linecap:round;stroke-linejoin:round;stroke-miterlimit:4;stroke-dasharray:none;stroke-opacity:1;paint-order:markers stroke fill"
       d="M 104.0293 293.32227 L 104.0293 149.32227 C 104.0293 148.75649 103.97371 148.20468 103.86523 147.67188 C 103.75676 147.13907 103.59679 146.62577 103.39062 146.13672 C 103.18446 145.64767 102.93174 145.18256 102.63867 144.74805 C 102.3456 144.31354 102.01176 143.9102 101.64258 143.54102 C 101.2734 143.17183 100.8681 142.83799 100.43359 142.54492 C 99.999083 142.25185 99.535927 141.99913 99.046875 141.79297 C 98.557823 141.5868 98.042572 141.42684 97.509766 141.31836 C 96.976959 141.20988 96.425149 141.15234 95.859375 141.15234 L 9.0390625 141.15234 L 9.0390625 226.43164 C 9.0390625 263.4888 38.872524 293.32227 75.929688 293.32227 L 104.0293 293.32227 z "
       transform="matrix(0.26458333,0,0,0.26458333,0,217)" />
    <path
       id="path22521"
       style="fill:#ffffff;fill-opacity:1;stroke:#cccccc;stroke-width:18.0775;stroke-linecap:round;stroke-linejoin:round;stroke-miterlimit:4;stroke-dasharray:none;stroke-opacity:1;paint-order:markers stroke fill"
       d="M 75.929688 9.0390625 C 38.872524 9.0390625 9.0390625 38.872524 9.0390625 75.929688 L 9.0390625 141.15234 L 95.859375 141.15234 C 96.425149 141.15234 96.976959 141.20988 97.509766 141.31836 C 98.042572 141.42684 98.557823 141.5868 99.046875 141.79297 C 99.535927 141.99913 99.999083 142.25185 100.43359 142.54492 C 100.8681 142.83799 101.2734 143.17183 101.64258 143.54102 C 102.01176 143.9102 102.3456 144.31354 102.63867 144.74805 C 102.93174 145.18256 103.18446 145.64767 103.39062 146.13672 C 103.59679 146.62577 103.75676 147.13907 103.86523 147.67188 C 103.97371 148.20468 104.0293 148.75649 104.0293 149.32227 L 104.0293 293.32227 L 175.42188 293.32227 L 175.42188 151.3125 C 175.42188 151.02961 175.4351 150.74993 175.46289 150.47461 C 175.49068 150.19929 175.5317 149.92851 175.58594 149.66211 C 175.64018 149.39571 175.70777 149.13505 175.78711 148.87891 C 175.86644 148.62277 175.95746 148.37148 176.06055 148.12695 C 176.16363 147.88243 176.27881 147.64367 176.4043 147.41211 C 176.52978 147.18054 176.66597 146.95554 176.8125 146.73828 C 176.95903 146.52103 177.11501 146.31096 177.28125 146.10938 C 177.44749 145.90778 177.624 145.71584 177.80859 145.53125 C 177.99319 145.34666 178.18707 145.17014 178.38867 145.00391 C 178.59027 144.83767 178.80032 144.68169 179.01758 144.53516 C 179.23483 144.38862 179.45789 144.25244 179.68945 144.12695 C 179.92102 144.00147 180.15977 143.88629 180.4043 143.7832 C 180.64882 143.68012 180.90011 143.5891 181.15625 143.50977 C 181.41239 143.43043 181.67305 143.36283 181.93945 143.30859 C 182.20586 143.25436 182.47859 143.21334 182.75391 143.18555 C 183.02923 143.15775 183.30891 143.14258 183.5918 143.14258 L 274.42578 143.14258 L 274.42578 75.929688 C 274.42578 38.872524 244.59232 9.0390625 207.53516 9.0390625 L 75.929688 9.0390625 z "
       transform="matrix(0.26458333,0,0,0.26458333,0,217)" />
    <path
       id="path22190"
       style="fill:none;stroke:#cccccc;stroke-width:3;stroke-linecap:round;stroke-linejoin:round;paint-order:markers stroke fill"
       d="m 47.130919,240.24687 a 9.4929295,9.4929295 0 0 1 -9.49293,9.49293 9.4929295,9.4929295 0 0 1 -9.492929,-9.49293 9.4929295,9.4929295 0 0 1 9.492929,-9.49293 9.4929295,9.4929295 0 0 1 9.49293,9.49293 z" />
    <rect
       style="fill:none;stroke:#cccccc;stroke-width:3;stroke-linecap:round;stroke-linejoin:round;stroke-miterlimit:4;stroke-dasharray:none;stroke-dashoffset:0;paint-order:markers stroke fill"
       id="rect22393"
       width="28.81027"
       height="43.383976"
       x="22.69306"
       y="252.09311"
       ry="2.1616511" />
    <path
       id="path22479"
       style="fill:none;stroke:#cccccc;stroke-width:3;stroke-linecap:round;stroke-linejoin:round;paint-order:markers stroke fill"
       d="m 23.152224,242.50052 a 9.4929295,9.4929295 0 0 1 -9.49293,9.49293 9.4929295,9.4929295 0 0 1 -9.492929,-9.49293 9.4929295,9.4929295 0 0 1 9.492929,-9.49293 9.4929295,9.4929295 0 0 1 9.49293,9.49293 z" />
    <path
       id="path22485"
       style="fill:none;stroke:#cccccc;stroke-width:3;stroke-linecap:round;stroke-linejoin:round;paint-order:markers stroke fill"
       d="m 70.851313,243.02695 a 9.4929295,9.4929295 0 0 1 -9.49293,9.49293 9.4929295,9.4929295 0 0 1 -9.492929,-9.49293 9.4929295,9.4929295 0 0 1 9.492929,-9.49293 9.4929295,9.4929295 0 0 1 9.49293,9.49293 z" />
    <path
       id="path23524"
       style="fill:none;stroke:#cccccc;stroke-width:11.3386;stroke-linecap:round;stroke-linejoin:round;paint-order:markers stroke fill"
       d="M 90.738281 9.3476562 A 35.878789 35.878789 0 0 0 54.859375 45.226562 A 35.878789 35.878789 0 0 0 54.935547 46.382812 A 51.707429 51.707429 0 0 1 57.890625 46.669922 A 51.707429 51.707429 0 0 1 61.167969 47.201172 A 51.707429 51.707429 0 0 1 64.40625 47.943359 A 51.707429 51.707429 0 0 1 67.587891 48.890625 A 51.707429 51.707429 0 0 1 70.703125 50.041016 A 51.707429 51.707429 0 0 1 73.738281 51.388672 A 51.707429 51.707429 0 0 1 76.679688 52.927734 A 51.707429 51.707429 0 0 1 79.517578 54.652344 A 51.707429 51.707429 0 0 1 82.238281 56.556641 A 51.707429 51.707429 0 0 1 84.832031 58.630859 A 51.707429 51.707429 0 0 1 87.285156 60.867188 A 51.707429 51.707429 0 0 1 89.591797 63.257812 A 51.707429 51.707429 0 0 1 91.738281 65.791016 A 51.707429 51.707429 0 0 1 93.720703 68.455078 A 51.707429 51.707429 0 0 1 95.021484 65.5 A 51.707429 51.707429 0 0 1 96.505859 62.632812 A 51.707429 51.707429 0 0 1 98.166016 59.863281 A 51.707429 51.707429 0 0 1 99.994141 57.201172 A 51.707429 51.707429 0 0 1 101.98633 54.660156 A 51.707429 51.707429 0 0 1 104.13281 52.248047 A 51.707429 51.707429 0 0 1 106.42578 49.974609 A 51.707429 51.707429 0 0 1 108.85742 47.849609 A 51.707429 51.707429 0 0 1 111.41602 45.878906 A 51.707429 51.707429 0 0 1 114.0918 44.072266 A 51.707429 51.707429 0 0 1 116.87695 42.435547 A 51.707429 51.707429 0 0 1 119.75781 40.976562 A 51.707429 51.707429 0 0 1 122.72266 39.701172 A 51.707429 51.707429 0 0 1 125.76367 38.613281 A 51.707429 51.707429 0 0 1 125.98438 38.548828 A 35.878789 35.878789 0 0 0 90.738281 9.3476562 z "
       transform="matrix(0.26458333,0,0,0.26458333,0,217)" />
    <path
       id="path23527"
       style="fill:none;stroke:#cccccc;stroke-width:11.3386;stroke-linecap:round;stroke-linejoin:round;paint-order:markers stroke fill"
       d="M 192.07617 9.3476562 A 35.878789 35.878789 0 0 0 156.92383 38.435547 A 51.707429 51.707429 0 0 1 157.2793 38.537109 A 51.707429 51.707429 0 0 1 160.27539 39.591797 A 51.707429 51.707429 0 0 1 163.19922 40.828125 A 51.707429 51.707429 0 0 1 166.04297 42.242188 A 51.707429 51.707429 0 0 1 168.79492 43.828125 A 51.707429 51.707429 0 0 1 171.44336 45.578125 A 51.707429 51.707429 0 0 1 173.98047 47.490234 A 51.707429 51.707429 0 0 1 176.39453 49.552734 A 51.707429 51.707429 0 0 1 178.67773 51.759766 A 51.707429 51.707429 0 0 1 180.82031 54.103516 A 51.707429 51.707429 0 0 1 182.81641 56.574219 A 51.707429 51.707429 0 0 1 184.65625 59.162109 A 51.707429 51.707429 0 0 1 186.33398 61.857422 A 51.707429 51.707429 0 0 1 187.8418 64.652344 A 51.707429 51.707429 0 0 1 189.17773 67.533203 A 51.707429 51.707429 0 0 1 191.16602 64.972656 A 51.707429 51.707429 0 0 1 193.3125 62.539062 A 51.707429 51.707429 0 0 1 195.60742 60.246094 A 51.707429 51.707429 0 0 1 198.04102 58.101562 A 51.707429 51.707429 0 0 1 200.60352 56.113281 A 51.707429 51.707429 0 0 1 203.28516 54.291016 A 51.707429 51.707429 0 0 1 206.07812 52.638672 A 51.707429 51.707429 0 0 1 208.96875 51.166016 A 51.707429 51.707429 0 0 1 211.94531 49.876953 A 51.707429 51.707429 0 0 1 214.99609 48.777344 A 51.707429 51.707429 0 0 1 218.11133 47.871094 A 51.707429 51.707429 0 0 1 221.27539 47.162109 A 51.707429 51.707429 0 0 1 224.47852 46.652344 A 51.707429 51.707429 0 0 1 227.70898 46.345703 A 51.707429 51.707429 0 0 1 227.92969 46.337891 A 35.878789 35.878789 0 0 0 227.95508 45.226562 A 35.878789 35.878789 0 0 0 192.07617 9.3476562 z "
       transform="matrix(0.26458333,0,0,0.26458333,0,217)" />
  </g>
</svg>
